<?xml version="1.0" encoding="UTF-8" standalone="no"?>
<!-- Created with Inkscape (http://www.inkscape.org/) -->

<svg
   width="4.3994093cm"
   height="5.0800004cm"
   viewBox="0 0 43.994093 50.800004"
   version="1.1"
   id="svg1"
   sodipodi:docname="nfcore-phaseimpute-logo-hex-light.svg"
   inkscape:version="1.3.2 (1:1.3.2+202311252150+091e20ef0f)"
   inkscape:export-filename="nfcore-phaseimpute-logo-hex-light.png"
   inkscape:export-xdpi="300"
   inkscape:export-ydpi="300"
   xmlns:inkscape="http://www.inkscape.org/namespaces/inkscape"
   xmlns:sodipodi="http://sodipodi.sourceforge.net/DTD/sodipodi-0.dtd"
   xmlns="http://www.w3.org/2000/svg"
   xmlns:svg="http://www.w3.org/2000/svg">
  <sodipodi:namedview
     id="namedview1"
     pagecolor="#505050"
     bordercolor="#ffffff"
     borderopacity="1"
     inkscape:showpageshadow="0"
     inkscape:pageopacity="0"
     inkscape:pagecheckerboard="1"
     inkscape:deskcolor="#d1d1d1"
     inkscape:document-units="mm"
     showguides="false"
     inkscape:zoom="2.8353752"
     inkscape:cx="47.965433"
     inkscape:cy="130.14151"
     inkscape:current-layer="g10"
     showgrid="false">
    <sodipodi:guide
       position="12.133177,29.02678"
       orientation="1,0"
       id="guide1"
       inkscape:locked="false" />
    <sodipodi:guide
       position="21.997045,38.893752"
       orientation="0,-1"
       id="guide2"
       inkscape:locked="false" />
    <sodipodi:guide
       position="31.84153,29.026781"
       orientation="1,0"
       id="guide3"
       inkscape:locked="false" />
    <sodipodi:guide
       position="30.427082,19.050003"
       orientation="0,-1"
       id="guide4"
       inkscape:locked="false" />
    <sodipodi:guide
       position="33.337499,16.40417"
       orientation="0,-1"
       id="guide5"
       inkscape:locked="false" />
    <sodipodi:guide
       position="20.815722,10.727297"
       orientation="0,-1"
       id="guide6"
       inkscape:locked="false" />
    <sodipodi:guide
       position="21.997047,29.02678"
       orientation="1,0"
       id="guide11"
       inkscape:locked="false" />
    <sodipodi:guide
       position="21.997047,29.02678"
       orientation="0,-1"
       id="guide12"
       inkscape:locked="false" />
    <inkscape:grid
       id="grid1"
       units="px"
       originx="0"
       originy="0"
       spacingx="0.26458332"
       spacingy="0.26458333"
       empcolor="#e50000"
       empopacity="0.30196078"
       color="#e50000"
       opacity="0.14901961"
       empspacing="5"
       dotted="true"
       gridanglex="30"
       gridanglez="30"
       visible="false" />
  </sodipodi:namedview>
  <defs
     id="defs1">
    <linearGradient
       id="f-22-3-1-7-8-1"
       x2="1"
       gradientTransform="matrix(37.935665,29.63859,-29.63859,37.935665,121.09789,274.19726)"
       gradientUnits="userSpaceOnUse">
      <stop
         id="stop12-6-8-2-3-6-1"
         offset="0"
         stop-color="#0c542a" />
      <stop
         id="stop14-1-5-0-3-8-5"
         offset=".215"
         stop-color="#0c542a" />
      <stop
         id="stop16-0-6-0-9-84-9"
         offset=".58"
         stop-color="#25af64" />
      <stop
         id="stop18-61-1-6-2-3-7"
         offset=".847"
         stop-color="#25af64" />
      <stop
         id="stop20-5-1-3-4-1-7"
         offset="1"
         stop-color="#25af64" />
    </linearGradient>
  </defs>
  <g
     inkscape:label="Layer 1"
     inkscape:groupmode="layer"
     id="layer1"
     transform="translate(-71.268573,-58.86979)">
    <g
       id="g10"
       transform="matrix(0.06595672,0,0,0.06595672,130.93371,79.44458)">
      <g
         id="g2-2-7-6-0-6"
         transform="matrix(0.26458333,0,0,0.26458333,-4127.8278,-320.80776)">
        <path
           class="st0"
           d="m 13442.739,2896.0016 -1218.5,-703.5 v -1407 l 1218.5,-703.500006 1218.5,703.500006 v 1407 z"
           id="path1-5-1-5-1-7-9-4-6-5"
           style="fill:#ffffff;fill-opacity:1;stroke:#000000" />
        <path
           class="st1"
           d="m 13442.739,2944.5016 -1260.5,-727.8 v -1455.4 l 1260.5,-727.800003 1260.5,727.800003 v 1455.5 z m -1176.5,-776.2 1176.5,679.3 1176.5,-679.3 v -1358.6 l -1176.5,-679.3 -1176.5,679.3 z"
           id="path2-9-6-2-8-0-2-8-89-6"
           style="fill:#24b064;fill-opacity:1;stroke:none" />
      </g>
      <g
         id="g469-8-7-2-3"
         transform="matrix(0.26458333,0,0,0.26458333,-6144.8054,-276.97227)">
        <g
           id="g24-3-2-66-9"
           transform="translate(20538.471,2032.0725)">
          <text
             xml:space="preserve"
             style="font-size:209.867px;line-height:1.15;font-family:Inter;-inkscape-font-specification:Inter;text-align:end;text-decoration-color:#000000;letter-spacing:0px;text-anchor:end;fill:#000000;stroke:none;stroke-width:8.11843;stroke-dasharray:8.11843, 8.11843;paint-order:stroke markers fill;fill-opacity:1"
             x="-126.774"
             y="132.04375"
             id="text14-0-4-8-3-49-4"><tspan
               sodipodi:role="line"
               id="tspan14-9-8-7-5-5-8"
               x="-126.774"
               y="132.04375"
               style="font-style:normal;font-variant:normal;font-weight:bold;font-stretch:normal;font-size:209.867px;font-family:'Maven Pro';-inkscape-font-specification:'Maven Pro Bold';text-align:start;text-anchor:start;fill:#000000;stroke:none;fill-opacity:1">phaseimpute</tspan></text>
          <g
             id="g15-1-1-3-1-0-1"
             transform="translate(3.4958484e-6,-433.00129)">
            <g
               id="g18-7-0-1-7-4-2">
              <g
                 id="layer2-7-3-0-8-8-9"
                 style="display:inline"
                 transform="translate(-174.624,108)">
                <g
                   id="g4209-1-0-0-9-7-3">
                  <path
                     id="path24-1-4-5-4-1-9"
                     d="m 1084.1,163.75 v 3.6 c -0.1,0 -0.1,0 -0.2,0.1 l -1.8,-1.5 c -4,-3.4 -8.3,-6.4 -13.1,-8.8 -0.8,-0.4 -1.6,-0.9 -2.5,-1.1 -0.1,-0.1 -0.2,-0.2 -0.3,-0.2 -1.8,-0.7 -3.6,-1.3 -5.5,-1.8 -4.1,-0.9 -8.2,-1 -12.3,-0.2 -5.3,1.1 -10,3.4 -14.5,6.4 -4.4,3 -8.4,6.5 -12.1,10.2 -0.7,0.7 -0.7,0.7 -1.1,-0.2 -2,-4.1 -4.2,-8.1 -6.9,-11.8 -2.1,-2.8 -4.4,-5.4 -7.4,-7.2 -3,-1.9 -6.3,-2.6 -9.8,-1.7 -4.3,1 -7.8,3.6 -11.1,6.4 -2,1.5 -3.8,3.3 -5.6,5 -1.7,1.5 -3.3,3 -5,4.5 -0.3,0.3 -0.5,0.3 -0.8,0 -1.7,-1.8 -3.5,-3.4 -5.6,-4.5 -3.1,-1.7 -6.3,-1.9 -9.6,-0.8 -2.8,0.9 -5.2,2.4 -7.7,4 -1,0.6 -1.9,1.3 -2.9,1.8 v -0.2 c 0.1,-0.2 0.1,-0.4 0.1,-0.6 0.2,-4.4 0.5,-8.9 1.2,-13.3 1,-6.1 2.5,-12 5.2,-17.5 2,-4.1 4.7,-7.9 8.1,-11 4.5,-4.1 9.8,-6.7 15.6,-8.3 6.3,-1.8 12.7,-2.6 19.2,-2.9 2.6,-0.1 5.1,-0.2 7.7,-0.3 1.3,0.5 2.6,0.8 3.9,1.2 1.9,0.6 3.8,1.2 5.7,1.7 1,0.4 1.9,0.7 2.9,1.1 3.7,1.3 7.3,3 10.4,5.5 0.8,0.6 1.6,1.3 2.4,2 -0.2,-0.6 -0.4,-1.1 -0.6,-1.7 -1.4,-3.7 -3.5,-6.7 -6.9,-8.8 -1.4,-0.9 -2.9,-1.5 -4.4,-2.3 0.1,0 0.3,0 0.4,-0.1 4.5,-0.8 9.1,-1.2 13.7,-1.4 3.9,-0.2 7.9,-0.1 11.8,0.3 4.6,0.5 9.1,1.4 13.4,3 6.4,2.4 11.9,6.1 16.2,11.5 3.7,4.7 6.1,10.1 7.6,15.9 1.5,5.7 2.1,11.6 2.3,17.5 -0.1,2.1 -0.1,4.3 -0.1,6.5"
                     class="st0"
                     style="fill:#24af63" />
                  <path
                     id="path26-5-4-0-1-72-0"
                     d="m 1084.1,157.15 h 0.1 v 6.6 h -0.1 z"
                     class="st4"
                     style="fill:#ecdc86" />
                  <path
                     id="path28-9-4-3-6-7-8"
                     d="m 1047.6,62.25 v 0.1 h -4.5 v -0.1 z"
                     style="fill:#a0918f" />
                  <path
                     id="path30-7-4-1-4-2-8"
                     d="m 1050.5,250.65 c 2.5,-1 4.9,-2.3 7.3,-3.6 2.8,-1.7 5.4,-3.5 8,-5.4 2.2,-1.6 4.3,-3.3 6.4,-5.1 l 3.6,-3 c 0.2,-0.2 0.2,-0.1 0.3,0.1 0.4,1.6 0.7,3.3 1.1,5 0.5,2.3 0.8,4.6 1.1,6.9 0.3,2.7 0.4,5.3 0.2,8 -0.2,3.3 -0.8,6.6 -2,9.7 q -1.05,2.85 -2.7,5.4 c -1.4,2.2 -3,4.2 -5,5.9 -2.3,2.1 -4.9,3.9 -7.7,5.4 -3.7,2.1 -7.7,3.6 -11.8,4.8 -3.9,1.2 -7.9,2 -11.9,2.7 -1.1,0.2 -2.2,0.4 -3.3,0.4 -2.3,-0.1 -4.6,-0.6 -6.8,-1.4 -3.3,-1.3 -6.2,-3.3 -9.5,-4.8 -1.8,-0.8 -3.6,-1.4 -5.5,-1.5 -2.5,-0.2 -4.6,0.7 -6.4,2.4 l -3.9,3.9 c -2.2,2.2 -4.8,3.7 -7.9,4.2 -2.1,0.3 -4.1,0.2 -6.2,-0.1 -2.9,-0.4 -5.7,-1.1 -8.4,-1.9 -4,-1.3 -7.7,-3.1 -11.1,-5.7 -3.2,-2.4 -5.7,-5.4 -7.8,-8.8 -2.1,-3.5 -3.3,-7.2 -4.2,-11.1 -0.4,-1.7 -0.6,-3.5 -0.8,-5.2 -0.3,-2.5 -0.4,-4.9 -0.3,-7.4 0.1,-3.5 0.4,-6.9 0.9,-10.4 0.4,0.4 0.8,0.7 1.1,1 2.2,2 4.7,3.8 7.3,5.4 2.9,1.7 6.1,3.1 9.4,4 2.2,0.6 4.5,1 6.8,1.1 1.9,0.2 3.8,0.2 5.7,0.1 2.2,-0.1 4.5,-0.3 6.7,-0.9 0.3,0 0.6,0 0.8,-0.1 q 3,-0.6 6,-1.5 c 2.3,-0.7 4.5,-1.4 6.7,-2.2 2.1,-0.8 4.3,-1.7 6.4,-2.6 0.6,-0.3 1,-0.2 1.5,0.2 3.5,2.7 7.3,5 11.4,6.7 4.6,1.8 9.3,2.7 14.2,2.3 3.6,-0.7 7,-1.6 10.3,-2.9"
                     class="st0"
                     style="fill:#24af63" />
                  <path
                     id="path32-7-7-80-3-26-5"
                     d="m 1050.5,250.65 c -3.3,1.3 -6.7,2.2 -10.2,2.5 -4.9,0.4 -9.6,-0.5 -14.2,-2.3 -4.1,-1.6 -7.9,-3.9 -11.4,-6.7 -0.5,-0.4 -0.9,-0.5 -1.5,-0.2 -2.1,0.9 -4.2,1.8 -6.4,2.6 -2.2,0.8 -4.4,1.6 -6.7,2.2 -2,0.6 -4,1 -6,1.5 -0.3,0.1 -0.6,0.1 -0.8,0.1 l 2.1,-2.4 c 2.8,-3.2 4.8,-6.9 5.9,-11.1 1.6,-5.6 3.2,-11.3 4.6,-17 1,-4.2 1.8,-8.4 2.4,-12.7 0.4,-3.1 1,-14.9 0.8,-17.7 -0.5,-8.6 -2.4,-16.8 -5.9,-24.7 -2.1,-4.7 -5.7,-7.9 -10.7,-9.2 -2.2,-0.6 -4.4,-0.4 -6.5,0.3 -0.2,0.1 -0.3,0.2 -0.5,0.1 3.3,-2.8 6.7,-5.4 11.1,-6.4 3.5,-0.8 6.8,-0.2 9.8,1.7 3,1.9 5.3,4.4 7.4,7.2 2.7,3.7 4.9,7.7 6.9,11.8 0.4,0.9 0.4,0.9 1.1,0.2 3.7,-3.8 7.7,-7.3 12.1,-10.2 4.4,-3 9.2,-5.3 14.5,-6.4 4.1,-0.8 8.2,-0.7 12.3,0.2 1.9,0.4 3.7,1 5.5,1.8 0.1,0.1 0.3,0.1 0.3,0.2 -5.3,0.1 -9.8,2.1 -13.9,5.2 -2,1.5 -3.8,3.2 -5.2,5.3 -1.1,1.7 -2.1,3.6 -2.9,5.5 -1.8,3.8 -3.3,7.8 -4.4,11.9 -0.9,3.5 -1.5,7.1 -1.8,10.7 -0.2,2.8 -0.3,5.6 -0.2,8.4 0.1,3.4 0.5,6.8 0.9,10.3 0.7,5.7 1.7,11.4 2.7,17.1 0.5,3.1 0.9,6.3 1.5,9.5 0.7,4.6 3.3,8 7,10.6 0,-0.1 0.2,0 0.3,0.1"
                     class="st4"
                     style="fill:#ecdc86" />
                  <path
                     id="path34-6-6-17-5-1-0"
                     d="m 1043.1,62.35 h 4.5 c 3.6,0.2 7.2,0.8 10.6,2 2.7,0.9 3.3,2.7 1.7,5 -1.1,1.6 -2.7,2.8 -4.4,3.9 -2.1,1.4 -4.4,2.6 -6.9,3.5 -2.5,1 -4.9,0 -6.5,-2.5 -0.5,-0.8 -0.9,-1.6 -1.1,-2.5 -0.1,-0.3 -0.2,-0.4 -0.5,-0.4 -5.6,-1 -10.6,0.3 -14.7,4.3 -3.4,3.2 -5.4,7.3 -6.8,11.7 -1.3,4 -1.9,8 -2.1,12.2 -0.2,3.7 0.1,7.4 0.6,11 0.1,0.6 0.3,1.2 0.3,1.9 0.1,0.8 -0.2,1.5 -0.8,1.9 -0.7,0.5 -1.5,0.4 -2.3,0.4 -1.9,-0.6 -3.8,-1.2 -5.7,-1.7 v -1.3 c 0,-2 0,-3.9 0.1,-5.9 0.4,-7.7 1.6,-15.3 4.6,-22.5 2.2,-5.4 5.4,-10.1 9.9,-13.8 3.7,-3.1 7.9,-5.1 12.6,-6.2 2.4,-0.6 4.6,-0.9 6.9,-1"
                     style="fill:#3f2b29" />
                  <path
                     id="path36-7-31-9-4-0-9"
                     d="m 1014.8,114.65 c 0.8,0 1.6,0.1 2.3,-0.4 0.7,-0.5 0.9,-1.2 0.8,-1.9 -0.1,-0.6 -0.2,-1.3 -0.3,-1.9 0.4,0 0.7,-0.1 1.1,-0.1 1.4,0.8 2.9,1.5 4.4,2.3 3.4,2.1 5.5,5.1 6.9,8.8 0.2,0.6 0.4,1.1 0.6,1.7 -0.8,-0.7 -1.6,-1.4 -2.4,-2 -3.2,-2.4 -6.7,-4.1 -10.4,-5.5 -1.1,-0.3 -2,-0.6 -3,-1"
                     class="st7"
                     style="fill:#396e35" />
                  <path
                     id="path38-3-7-1-8-6-6"
                     d="m 1009.1,111.65 v 1.3 c -1.3,-0.4 -2.6,-0.7 -3.9,-1.2 1.4,-0.1 2.7,-0.1 3.9,-0.1"
                     class="st7"
                     style="fill:#396e35" />
                </g>
              </g>
              <text
                 id="text53-6-5-0-7-1-3"
                 x="-125.72501"
                 y="349.245"
                 font-size="209.87"
                 font-weight="bold"
                 style="font-weight:700;font-size:209.87px;font-family:'Maven Pro'"><tspan
                   id="tspan55-5-9-3-3-5-8"
                   x="-125.72501"
                   y="349.245"
                   class="st0 st1 st2"
                   font-size="209.87"
                   font-weight="bold"
                   style="font-weight:700;font-size:209.867px;font-family:'Maven Pro';fill:#24af63">nf-</tspan></text>
              <text
                 id="text69-63-6-5-3-9-5"
                 x="182.517"
                 y="349.245"
                 font-size="209.87"
                 font-weight="bold"
                 style="font-weight:700;font-size:209.87px;font-family:'Maven Pro';fill:#000000;fill-opacity:1"><tspan
                   id="tspan71-9-2-9-5-4-6"
                   x="182.517"
                   y="349.245"
                   class="st0 st1 st2"
                   font-size="209.87"
                   font-weight="bold"
                   style="font-weight:700;font-size:209.867px;font-family:'Maven Pro';fill:#000000;fill-opacity:1"><tspan
                     id="tspan73-4-1-4-0-9-1"
                     style="fill:#000000;fill-opacity:1">core/</tspan></tspan></text>
              <path
                 id="path67-8-7-8-1-0-1"
                 d="m 125.813,274.116 -21.532,21.616 h 61.092 v -21.617 z"
                 style="fill:url(#f-22-3-1-7-8-1)" />
            </g>
          </g>
        </g>
      </g>
      <g
         id="g6235-3-3"
         transform="matrix(28.696318,0,0,28.698283,-4577.1082,-5363.3529)"
         style="display:inline;stroke-width:1.00003"
         inkscape:export-filename="nf-core-phaseimpute_logo_dark.png"
         inkscape:export-xdpi="400"
         inkscape:export-ydpi="400">
        <path
           id="path292-0-6-3-6-5-0"
           style="display:inline;fill:#000000;fill-opacity:1;fill-rule:nonzero;stroke:none;stroke-width:0.104004;stroke-dasharray:none;stroke-opacity:1"
           d="m 139.38997,183.53551 c -0.56145,0.0373 -1.1271,0.11017 -1.6373,0.3473 -0.42412,0.26523 -0.96226,-0.0246 -1.39883,0.31552 -0.71917,0.34795 -1.02584,1.14758 -1.44718,1.77791 -0.30343,0.50202 -0.78278,1.02198 -0.59617,1.65926 0.14585,0.37406 0.49106,0.65581 0.69402,0.99528 0.13941,0.31107 0.35889,0.48907 0.53415,0.6661 0.18181,0.38064 0.32265,1.07591 0.77453,0.49388 0,0 0.43902,-0.75685 0.52779,-1.17827 0.18781,-0.89186 0.30513,-1.4425 0.064,-2.74296 0.40297,0.94514 0.2192,1.90277 0.0576,2.85005 0.0515,0.35094 0.30116,0.44249 0.74083,1.33392 0.0371,-0.76027 0.36079,-1.5787 0.7129,-2.02158 0.33628,-0.42295 0.5402,-0.51654 0.55533,-0.83367 0.011,-0.22496 -0.0398,-0.48996 -0.14755,-0.71521 -0.15417,-0.3223 -0.36018,-0.32013 -0.53337,-0.32708 -0.11706,-0.005 -0.27956,0.0984 -0.28913,0.10633 0.0328,-0.0286 0.11565,-0.15787 0.25715,-0.20399 0.24848,-0.08 0.51157,0.0731 0.65839,0.38005 0.11578,0.24208 0.16945,0.52163 0.15756,0.76644 -0.0181,0.36887 -0.35063,0.5773 -0.56766,0.8776 -0.39212,0.54256 -1.11415,2.20334 -0.52393,3.28365 0.2518,0.35842 0.62039,0.39537 0.9949,0.35847 0.12757,-0.08 0.30834,-0.49711 0.88182,-0.74391 0.57351,0.2468 0.75421,0.66394 0.88183,0.74391 0.0123,0.001 0.0247,0.002 0.037,0.003 -0.0222,-0.161 -0.0356,-0.34327 -0.0354,-0.54936 h -5.7e-4 c 7.4e-4,-0.92001 0.29701,-1.48018 0.64451,-1.91834 -0.21661,-0.24042 -0.4529,-0.57783 -0.55841,-1.00356 -0.25613,-1.03418 -0.004,-2.00425 -0.004,-2.00425 -0.13055,1.33967 0.71685,2.112 1.09506,2.43861 0.27087,-0.23379 0.78169,-0.69514 1.00299,-1.43138 -0.2754,-0.94474 -1.02361,-1.45869 -1.16036,-1.60667 -0.44282,-0.47789 -0.94022,-1.01576 -1.01282,-2.08053 -0.1397,-0.0157 -0.28,-0.0273 -0.42011,-0.0366 -0.29549,-0.008 -0.33868,0.81191 -0.46981,0.81191 -0.13115,0 -0.1743,-0.81948 -0.4698,-0.81191 z m 1.89194,0.12232 c 0.17013,0.47904 0.43517,0.82744 0.73236,1.14861 0.0807,0.0866 0.78782,0.58485 0.9947,1.41964 0.002,0.009 0.005,0.0186 0.007,0.0279 -5e-5,-5.3e-4 -1.2e-4,-8.8e-4 -1.9e-4,-0.002 0.14713,0.60434 0.11427,1.44067 -0.0198,1.99999 -0.0325,0.13094 -0.0609,0.25677 -0.11368,0.37079 0.0941,0.42348 0.52509,1.16691 0.52509,1.16691 0.45188,0.58203 0.59271,-0.11324 0.77454,-0.49388 0.17523,-0.17703 0.39452,-0.35503 0.53395,-0.6661 0.20294,-0.33947 0.54817,-0.62122 0.69402,-0.99528 0.18661,-0.63728 -0.29274,-1.15724 -0.59617,-1.65926 -0.42132,-0.63033 -0.7278,-1.42996 -1.44699,-1.77791 -0.43656,-0.34013 -0.97492,-0.0503 -1.39902,-0.31552 -0.21961,-0.10206 -0.44957,-0.17352 -0.68497,-0.22498 z m -2.96736,2.68363 h 1.9e-4 c 0.002,-2e-5 0.004,-2e-5 0.006,0 0.30894,0.035 0.34479,0.30965 0.36676,0.54589 -0.54889,0.18473 -0.75705,-0.0128 -0.87201,-0.19243 0.0134,-0.0203 0.23724,-0.35119 0.49909,-0.35346 z m 3.08428,0 c 0.002,-2e-5 0.004,-2e-5 0.006,0 h 1.9e-4 c 0.26185,0.002 0.48568,0.33319 0.49909,0.35346 -0.11496,0.17956 -0.32313,0.37716 -0.87201,0.19243 0.022,-0.23624 0.0578,-0.51087 0.36675,-0.54589 z m -1.53906,2.64105 c 0.77273,7.3e-4 0.92069,0.33699 0.9063,0.40933 -0.0145,0.072 -0.0478,0.25511 -0.20572,0.33227 -0.15782,0.0769 0.01,-0.25031 -0.18184,-0.21188 -0.1914,0.0384 -0.15788,0.21217 -0.0668,0.25542 0.0908,0.0433 0.15786,0.10603 0.0381,0.26948 -0.11692,0.15962 -0.47335,0.27813 -0.49004,0.28315 -0.0167,-0.005 -0.37311,-0.12353 -0.49003,-0.28315 -0.11965,-0.16345 -0.0527,-0.22619 0.0381,-0.26948 0.091,-0.0433 0.12453,-0.217 -0.0668,-0.25542 -0.19144,-0.0384 -0.024,0.28874 -0.18184,0.21188 -0.15787,-0.0772 -0.19137,-0.26024 -0.20572,-0.33227 -0.0144,-0.0723 0.13358,-0.4086 0.90629,-0.40933 z"
           sodipodi:nodetypes="ccccccccccccccccccscccccccccccccccccsccscccccccccccccsssccscsscccccccccccccccccccc" />
        <path
           d="m 140.74266,191.1783 c 0.001,-1.24579 0.54343,-1.83214 1.02196,-2.34857 0.17886,-0.19355 1.40587,-0.98647 1.25086,-2.57721 -9.5e-4,-0.01 0.001,0.01 0,0 0.002,0.002 0.25326,0.97098 -0.004,2.00376 -0.20688,0.83479 -0.9164,1.331 -0.9948,1.41956 -0.48408,0.54685 -0.88855,1.16065 -0.92754,2.31722 -0.009,0.26743 0.024,0.62031 0.10472,0.83934 -0.0357,-0.0981 -0.45174,-0.50947 -0.45074,-1.6541 z"
           fill="#00bfa5"
           id="path24-6-4-4-1-1"
           style="display:inline;fill:#22ae63;fill-opacity:1;stroke-width:0.0450562"
           sodipodi:nodetypes="scsccsscss"
           inkscape:transform-center-x="2.5714193"
           inkscape:transform-center-y="2.5466146" />
        <path
           d="m 143.09945,183.30402 c -10e-4,1.2458 -0.54343,1.83215 -1.02196,2.34858 -0.17886,0.19355 -1.40374,1.01294 -1.24873,2.60368 9.5e-4,0.01 -10e-4,-0.01 0,0 -0.009,-0.002 -0.26008,-0.99734 0.002,-2.03023 0.20688,-0.83479 0.91407,-1.33292 0.9948,-1.41956 0.49612,-0.53616 0.90286,-1.14815 0.92754,-2.31723 0.006,-0.2675 -0.024,-0.62031 -0.10472,-0.83933 0.0357,0.0982 0.45174,0.50947 0.45074,1.65409 z"
           fill="#00bfa5"
           id="path24-6-4-8-72"
           style="fill:#22ae63;fill-opacity:1;stroke-width:0.0450562"
           sodipodi:nodetypes="scscccscss" />
      </g>
    </g>
  </g>
</svg>
