<?xml version="1.0" encoding="UTF-8" standalone="no"?>
<!-- Created with Inkscape (http://www.inkscape.org/) -->

<svg
   width="4.3994093cm"
   height="5.0800004cm"
   viewBox="0 0 43.994093 50.800004"
   version="1.1"
   id="svg1"
   sodipodi:docname="nfcore-viralmetagenome-logo-hex-dark.svg"
   inkscape:version="1.2.1 (9c6d41e, 2022-07-14)"
   inkscape:export-filename="nfcore-viralmetagenome-logo-hex-dark.png"
   inkscape:export-xdpi="300"
   inkscape:export-ydpi="300"
   xmlns:inkscape="http://www.inkscape.org/namespaces/inkscape"
   xmlns:sodipodi="http://sodipodi.sourceforge.net/DTD/sodipodi-0.dtd"
   xmlns:xlink="http://www.w3.org/1999/xlink"
   xmlns="http://www.w3.org/2000/svg"
   xmlns:svg="http://www.w3.org/2000/svg">
  <sodipodi:namedview
     id="namedview1"
     pagecolor="#505050"
     bordercolor="#ffffff"
     borderopacity="1"
     inkscape:showpageshadow="0"
     inkscape:pageopacity="0"
     inkscape:pagecheckerboard="1"
     inkscape:deskcolor="#d1d1d1"
     inkscape:document-units="mm"
     showguides="true"
     inkscape:zoom="3.5306195"
     inkscape:cx="58.771555"
     inkscape:cy="120.23386"
     inkscape:current-layer="g18-7-0-1-7-4-2"
     showgrid="true"
     inkscape:window-width="1728"
     inkscape:window-height="1051"
     inkscape:window-x="0"
     inkscape:window-y="25"
     inkscape:window-maximized="0">
    <sodipodi:guide
       position="12.133177,29.026779"
       orientation="1,0"
       id="guide1"
       inkscape:locked="false" />
    <sodipodi:guide
       position="21.997044,38.893751"
       orientation="0,-1"
       id="guide2"
       inkscape:locked="false" />
    <sodipodi:guide
       position="31.841529,29.02678"
       orientation="1,0"
       id="guide3"
       inkscape:locked="false" />
    <sodipodi:guide
       position="30.427081,19.050003"
       orientation="0,-1"
       id="guide4"
       inkscape:locked="false" />
    <sodipodi:guide
       position="33.337498,16.40417"
       orientation="0,-1"
       id="guide5"
       inkscape:locked="false" />
    <sodipodi:guide
       position="20.815721,10.727297"
       orientation="0,-1"
       id="guide6"
       inkscape:locked="false" />
    <sodipodi:guide
       position="22.020198,32.061432"
       orientation="1,0"
       id="guide11"
       inkscape:locked="false" />
    <sodipodi:guide
       position="21.997046,29.026779"
       orientation="0,-1"
       id="guide12"
       inkscape:locked="false" />
    <inkscape:grid
       id="grid1"
       units="px"
       originx="0"
       originy="0"
       spacingx="0.26458332"
       spacingy="0.26458333"
       empcolor="#e50000"
       empopacity="0.30196078"
       color="#e50000"
       opacity="0.14901961"
       empspacing="5"
       dotted="true"
       gridanglex="30"
       gridanglez="30"
       visible="true" />
  </sodipodi:namedview>
  <defs
     id="defs1">
    <linearGradient
       id="f-22-3-1-7-8-1"
       x2="1"
       gradientTransform="matrix(37.935665,29.63859,-29.63859,37.935665,121.09789,274.19726)"
       gradientUnits="userSpaceOnUse">
      <stop
         id="stop12-6-8-2-3-6-1"
         offset="0"
         stop-color="#0c542a" />
      <stop
         id="stop14-1-5-0-3-8-5"
         offset=".215"
         stop-color="#0c542a" />
      <stop
         id="stop16-0-6-0-9-84-9"
         offset=".58"
         stop-color="#25af64" />
      <stop
         id="stop18-61-1-6-2-3-7"
         offset=".847"
         stop-color="#25af64" />
      <stop
         id="stop20-5-1-3-4-1-7"
         offset="1"
         stop-color="#25af64" />
    </linearGradient>
    <linearGradient
       inkscape:collect="always"
       xlink:href="#linearGradient5251"
       id="linearGradient12374-0"
       gradientUnits="userSpaceOnUse"
       gradientTransform="matrix(0.00283188,-7.6607267,2.617005,0.00828973,-422.43647,-517.31156)"
       x1="-116.43803"
       y1="47.684116"
       x2="-87.061523"
       y2="48.179482"
       spreadMethod="reflect" />
    <linearGradient
       id="linearGradient5251">
      <stop
         style="stop-color:#18a75c;stop-opacity:1;"
         offset="0"
         id="stop5245" />
      <stop
         style="stop-color:#ead681;stop-opacity:1;"
         offset="0.76642984"
         id="stop5247" />
      <stop
         style="stop-color:#ffffff;stop-opacity:1;"
         offset="1"
         id="stop5249" />
    </linearGradient>
  </defs>
  <g
     inkscape:label="Layer 1"
     inkscape:groupmode="layer"
     id="layer1"
     transform="translate(-71.268573,-58.86979)">
    <g
       id="g10"
       transform="matrix(0.06595672,0,0,0.06595672,130.93371,79.44458)">
      <g
         id="g2-2-7-6-0-6"
         transform="matrix(0.26458333,0,0,0.26458333,-4127.8278,-320.80776)">
        <path
           class="st0"
           d="m 13442.739,2896.0016 -1218.5,-703.5 v -1407 l 1218.5,-703.500006 1218.5,703.500006 v 1407 z"
           id="path1-5-1-5-1-7-9-4-6-5"
           style="fill:#ffffff;fill-opacity:1;stroke:#000000" />
        <path
           class="st1"
           d="m 13442.739,2944.5016 -1260.5,-727.8 v -1455.4 l 1260.5,-727.800003 1260.5,727.800003 v 1455.5 z m -1176.5,-776.2 1176.5,679.3 1176.5,-679.3 v -1358.6 l -1176.5,-679.3 -1176.5,679.3 z"
           id="path2-9-6-2-8-0-2-8-89-6"
           style="fill:#24b064;fill-opacity:1;stroke:none" />
      </g>
      <g
         id="g469-8-7-2-3"
         transform="matrix(0.26458333,0,0,0.26458333,-6110.6309,-276.97227)">
        <g
           id="g24-3-2-66-9"
           transform="translate(20538.471,2032.0725)">
          <g
             id="g5916"
             transform="translate(-373.50504)">
            <g
               id="g5960"
               transform="translate(54.226563)">
              <g
                 id="g15-1-1-3-1-0-1"
                 transform="matrix(0.93863948,0,0,0.93863948,-6.8646303,-422.55466)">
                <g
                   id="g18-7-0-1-7-4-2">
                  <g
                     id="layer2-7-3-0-8-8-9"
                     style="display:inline"
                     transform="translate(-174.624,108)">
                    <g
                       id="g4209-1-0-0-9-7-3">
                      <path
                         id="path24-1-4-5-4-1-9"
                         d="m 1084.1,163.75 v 3.6 c -0.1,0 -0.1,0 -0.2,0.1 l -1.8,-1.5 c -4,-3.4 -8.3,-6.4 -13.1,-8.8 -0.8,-0.4 -1.6,-0.9 -2.5,-1.1 -0.1,-0.1 -0.2,-0.2 -0.3,-0.2 -1.8,-0.7 -3.6,-1.3 -5.5,-1.8 -4.1,-0.9 -8.2,-1 -12.3,-0.2 -5.3,1.1 -10,3.4 -14.5,6.4 -4.4,3 -8.4,6.5 -12.1,10.2 -0.7,0.7 -0.7,0.7 -1.1,-0.2 -2,-4.1 -4.2,-8.1 -6.9,-11.8 -2.1,-2.8 -4.4,-5.4 -7.4,-7.2 -3,-1.9 -6.3,-2.6 -9.8,-1.7 -4.3,1 -7.8,3.6 -11.1,6.4 -2,1.5 -3.8,3.3 -5.6,5 -1.7,1.5 -3.3,3 -5,4.5 -0.3,0.3 -0.5,0.3 -0.8,0 -1.7,-1.8 -3.5,-3.4 -5.6,-4.5 -3.1,-1.7 -6.3,-1.9 -9.6,-0.8 -2.8,0.9 -5.2,2.4 -7.7,4 -1,0.6 -1.9,1.3 -2.9,1.8 v -0.2 c 0.1,-0.2 0.1,-0.4 0.1,-0.6 0.2,-4.4 0.5,-8.9 1.2,-13.3 1,-6.1 2.5,-12 5.2,-17.5 2,-4.1 4.7,-7.9 8.1,-11 4.5,-4.1 9.8,-6.7 15.6,-8.3 6.3,-1.8 12.7,-2.6 19.2,-2.9 2.6,-0.1 5.1,-0.2 7.7,-0.3 1.3,0.5 2.6,0.8 3.9,1.2 1.9,0.6 3.8,1.2 5.7,1.7 1,0.4 1.9,0.7 2.9,1.1 3.7,1.3 7.3,3 10.4,5.5 0.8,0.6 1.6,1.3 2.4,2 -0.2,-0.6 -0.4,-1.1 -0.6,-1.7 -1.4,-3.7 -3.5,-6.7 -6.9,-8.8 -1.4,-0.9 -2.9,-1.5 -4.4,-2.3 0.1,0 0.3,0 0.4,-0.1 4.5,-0.8 9.1,-1.2 13.7,-1.4 3.9,-0.2 7.9,-0.1 11.8,0.3 4.6,0.5 9.1,1.4 13.4,3 6.4,2.4 11.9,6.1 16.2,11.5 3.7,4.7 6.1,10.1 7.6,15.9 1.5,5.7 2.1,11.6 2.3,17.5 -0.1,2.1 -0.1,4.3 -0.1,6.5"
                         class="st0"
                         style="fill:#24af63" />
                      <path
                         id="path26-5-4-0-1-72-0"
                         d="m 1084.1,157.15 h 0.1 v 6.6 h -0.1 z"
                         class="st4"
                         style="fill:#ecdc86" />
                      <path
                         id="path28-9-4-3-6-7-8"
                         d="m 1047.6,62.25 v 0.1 h -4.5 v -0.1 z"
                         style="fill:#a0918f" />
                      <path
                         id="path30-7-4-1-4-2-8"
                         d="m 1050.5,250.65 c 2.5,-1 4.9,-2.3 7.3,-3.6 2.8,-1.7 5.4,-3.5 8,-5.4 2.2,-1.6 4.3,-3.3 6.4,-5.1 l 3.6,-3 c 0.2,-0.2 0.2,-0.1 0.3,0.1 0.4,1.6 0.7,3.3 1.1,5 0.5,2.3 0.8,4.6 1.1,6.9 0.3,2.7 0.4,5.3 0.2,8 -0.2,3.3 -0.8,6.6 -2,9.7 q -1.05,2.85 -2.7,5.4 c -1.4,2.2 -3,4.2 -5,5.9 -2.3,2.1 -4.9,3.9 -7.7,5.4 -3.7,2.1 -7.7,3.6 -11.8,4.8 -3.9,1.2 -7.9,2 -11.9,2.7 -1.1,0.2 -2.2,0.4 -3.3,0.4 -2.3,-0.1 -4.6,-0.6 -6.8,-1.4 -3.3,-1.3 -6.2,-3.3 -9.5,-4.8 -1.8,-0.8 -3.6,-1.4 -5.5,-1.5 -2.5,-0.2 -4.6,0.7 -6.4,2.4 l -3.9,3.9 c -2.2,2.2 -4.8,3.7 -7.9,4.2 -2.1,0.3 -4.1,0.2 -6.2,-0.1 -2.9,-0.4 -5.7,-1.1 -8.4,-1.9 -4,-1.3 -7.7,-3.1 -11.1,-5.7 -3.2,-2.4 -5.7,-5.4 -7.8,-8.8 -2.1,-3.5 -3.3,-7.2 -4.2,-11.1 -0.4,-1.7 -0.6,-3.5 -0.8,-5.2 -0.3,-2.5 -0.4,-4.9 -0.3,-7.4 0.1,-3.5 0.4,-6.9 0.9,-10.4 0.4,0.4 0.8,0.7 1.1,1 2.2,2 4.7,3.8 7.3,5.4 2.9,1.7 6.1,3.1 9.4,4 2.2,0.6 4.5,1 6.8,1.1 1.9,0.2 3.8,0.2 5.7,0.1 2.2,-0.1 4.5,-0.3 6.7,-0.9 0.3,0 0.6,0 0.8,-0.1 q 3,-0.6 6,-1.5 c 2.3,-0.7 4.5,-1.4 6.7,-2.2 2.1,-0.8 4.3,-1.7 6.4,-2.6 0.6,-0.3 1,-0.2 1.5,0.2 3.5,2.7 7.3,5 11.4,6.7 4.6,1.8 9.3,2.7 14.2,2.3 3.6,-0.7 7,-1.6 10.3,-2.9"
                         class="st0"
                         style="fill:#24af63" />
                      <path
                         id="path32-7-7-80-3-26-5"
                         d="m 1050.5,250.65 c -3.3,1.3 -6.7,2.2 -10.2,2.5 -4.9,0.4 -9.6,-0.5 -14.2,-2.3 -4.1,-1.6 -7.9,-3.9 -11.4,-6.7 -0.5,-0.4 -0.9,-0.5 -1.5,-0.2 -2.1,0.9 -4.2,1.8 -6.4,2.6 -2.2,0.8 -4.4,1.6 -6.7,2.2 -2,0.6 -4,1 -6,1.5 -0.3,0.1 -0.6,0.1 -0.8,0.1 l 2.1,-2.4 c 2.8,-3.2 4.8,-6.9 5.9,-11.1 1.6,-5.6 3.2,-11.3 4.6,-17 1,-4.2 1.8,-8.4 2.4,-12.7 0.4,-3.1 1,-14.9 0.8,-17.7 -0.5,-8.6 -2.4,-16.8 -5.9,-24.7 -2.1,-4.7 -5.7,-7.9 -10.7,-9.2 -2.2,-0.6 -4.4,-0.4 -6.5,0.3 -0.2,0.1 -0.3,0.2 -0.5,0.1 3.3,-2.8 6.7,-5.4 11.1,-6.4 3.5,-0.8 6.8,-0.2 9.8,1.7 3,1.9 5.3,4.4 7.4,7.2 2.7,3.7 4.9,7.7 6.9,11.8 0.4,0.9 0.4,0.9 1.1,0.2 3.7,-3.8 7.7,-7.3 12.1,-10.2 4.4,-3 9.2,-5.3 14.5,-6.4 4.1,-0.8 8.2,-0.7 12.3,0.2 1.9,0.4 3.7,1 5.5,1.8 0.1,0.1 0.3,0.1 0.3,0.2 -5.3,0.1 -9.8,2.1 -13.9,5.2 -2,1.5 -3.8,3.2 -5.2,5.3 -1.1,1.7 -2.1,3.6 -2.9,5.5 -1.8,3.8 -3.3,7.8 -4.4,11.9 -0.9,3.5 -1.5,7.1 -1.8,10.7 -0.2,2.8 -0.3,5.6 -0.2,8.4 0.1,3.4 0.5,6.8 0.9,10.3 0.7,5.7 1.7,11.4 2.7,17.1 0.5,3.1 0.9,6.3 1.5,9.5 0.7,4.6 3.3,8 7,10.6 0,-0.1 0.2,0 0.3,0.1"
                         class="st4"
                         style="fill:#ecdc86" />
                      <path
                         id="path34-6-6-17-5-1-0"
                         d="m 1043.1,62.35 h 4.5 c 3.6,0.2 7.2,0.8 10.6,2 2.7,0.9 3.3,2.7 1.7,5 -1.1,1.6 -2.7,2.8 -4.4,3.9 -2.1,1.4 -4.4,2.6 -6.9,3.5 -2.5,1 -4.9,0 -6.5,-2.5 -0.5,-0.8 -0.9,-1.6 -1.1,-2.5 -0.1,-0.3 -0.2,-0.4 -0.5,-0.4 -5.6,-1 -10.6,0.3 -14.7,4.3 -3.4,3.2 -5.4,7.3 -6.8,11.7 -1.3,4 -1.9,8 -2.1,12.2 -0.2,3.7 0.1,7.4 0.6,11 0.1,0.6 0.3,1.2 0.3,1.9 0.1,0.8 -0.2,1.5 -0.8,1.9 -0.7,0.5 -1.5,0.4 -2.3,0.4 -1.9,-0.6 -3.8,-1.2 -5.7,-1.7 v -1.3 c 0,-2 0,-3.9 0.1,-5.9 0.4,-7.7 1.6,-15.3 4.6,-22.5 2.2,-5.4 5.4,-10.1 9.9,-13.8 3.7,-3.1 7.9,-5.1 12.6,-6.2 2.4,-0.6 4.6,-0.9 6.9,-1"
                         style="fill:#3f2b29" />
                      <path
                         id="path36-7-31-9-4-0-9"
                         d="m 1014.8,114.65 c 0.8,0 1.6,0.1 2.3,-0.4 0.7,-0.5 0.9,-1.2 0.8,-1.9 -0.1,-0.6 -0.2,-1.3 -0.3,-1.9 0.4,0 0.7,-0.1 1.1,-0.1 1.4,0.8 2.9,1.5 4.4,2.3 3.4,2.1 5.5,5.1 6.9,8.8 0.2,0.6 0.4,1.1 0.6,1.7 -0.8,-0.7 -1.6,-1.4 -2.4,-2 -3.2,-2.4 -6.7,-4.1 -10.4,-5.5 -1.1,-0.3 -2,-0.6 -3,-1"
                         class="st7"
                         style="fill:#396e35" />
                      <path
                         id="path38-3-7-1-8-6-6"
                         d="m 1009.1,111.65 v 1.3 c -1.3,-0.4 -2.6,-0.7 -3.9,-1.2 1.4,-0.1 2.7,-0.1 3.9,-0.1"
                         class="st7"
                         style="fill:#396e35" />
                    </g>
                  </g>
                  <text
                     id="text53-6-5-0-7-1-3"
                     x="-125.72501"
                     y="349.245"
                     font-size="209.87"
                     font-weight="bold"
                     style="font-weight:700;font-size:209.87px;font-family:'Maven Pro'"><tspan
                       id="tspan55-5-9-3-3-5-8"
                       x="-125.72501"
                       y="349.245"
                       class="st0 st1 st2"
                       font-size="209.87"
                       font-weight="bold"
                       style="font-weight:700;font-size:209.867px;font-family:'Maven Pro';fill:#24af63">nf-</tspan></text>
                  <text
                     id="text69-63-6-5-3-9-5"
                     x="182.517"
                     y="349.245"
                     font-size="209.87"
                     font-weight="bold"
                     style="font-weight:700;font-size:209.87px;font-family:'Maven Pro';fill:#000000"><tspan
                       id="tspan71-9-2-9-5-4-6"
                       x="182.517"
                       y="349.245"
                       class="st0 st1 st2"
                       font-size="209.87"
                       font-weight="bold"
                       style="font-weight:700;font-size:209.867px;font-family:'Maven Pro';fill:#000000"><tspan
                         id="tspan73-4-1-4-0-9-1"
                         style="fill:#000000">core/</tspan></tspan></text>
                  <path
                     id="path67-8-7-8-1-0-1"
                     d="m 125.813,274.116 -21.532,21.616 h 61.092 v -21.617 z"
                     style="fill:url(#f-22-3-1-7-8-1)" />
                </g>
              </g>
              <text
                 xml:space="preserve"
                 style="font-size:196.989px;line-height:1.15;font-family:Inter;-inkscape-font-specification:Inter;text-align:end;text-decoration-color:#000000;letter-spacing:0px;text-anchor:end;fill:#000000;stroke:none;stroke-width:7.62028;stroke-dasharray:7.62028, 7.62028;paint-order:stroke markers fill"
                 x="-116.29443"
                 y="89.229568"
                 id="text14-0-4-8-3-49-4"><tspan
                   sodipodi:role="line"
                   id="tspan14-9-8-7-5-5-8"
                   x="-116.29443"
                   y="89.229568"
                   style="font-style:normal;font-variant:normal;font-weight:bold;font-stretch:normal;font-size:196.989px;font-family:'Maven Pro';-inkscape-font-specification:'Maven Pro Bold';text-align:start;text-anchor:start;fill:#000000;stroke:none;stroke-width:7.62028">viralmetagenome</tspan></text>
            </g>
          </g>
        </g>
      </g>
      <g
         id="g3070"
         transform="matrix(1.5870553,0,0,1.5870553,-100.92525,-391.82375)">
        <path
           id="rect798-0"
           clip-path="none"
           style="mix-blend-mode:normal;fill:url(#linearGradient12374-0);fill-opacity:1;fill-rule:nonzero;stroke:#000000;stroke-width:1.18467;stroke-opacity:1"
           d="m -296.04249,148.59507 c -0.52597,-0.0206 -0.95958,0.4569 -1.30133,1.43367 -1.37804,3.93861 -4.75947,11.85504 -7.15134,16.73939 -1.44407,2.94915 -2.96496,6.36448 -3.37868,7.58722 -0.41363,1.22272 -2.18271,4.23133 -3.9307,6.6854 -3.72519,5.22984 -5.41899,10.44113 -4.71151,14.49936 0.457,2.61949 0.27265,2.90146 -1.90504,2.90146 -2.69537,0 -6.68032,3.95077 -6.21724,6.16376 0.15855,0.75575 1.94386,2.23073 3.97052,3.27707 2.02664,1.0464 4.75789,3.35253 6.06809,5.12728 1.31015,1.77469 3.46483,4.22581 4.78935,5.44493 1.32454,1.21914 2.41071,3.0049 2.41071,3.96976 0,1.50127 -0.91388,1.84311 -6.32954,2.37698 -7.5337,0.74259 -18.52781,5.27667 -21.64593,8.92543 -4.92818,5.76656 -6.48665,18.87568 -3.54567,29.81642 1.96477,7.30875 3.51428,11.97499 4.30982,12.98213 0.3875,0.49075 1.70018,3.468 2.91639,6.61381 2.70013,6.98429 2.36906,11.91819 -1.25557,18.76517 -1.41274,2.66869 -2.56877,5.17839 -2.56877,5.57733 0,3.78413 8.62188,-6.55501 11.51522,-13.8095 2.23324,-5.59923 2.52283,-13.19169 1.16703,-30.5307 -0.85252,-10.90252 -0.15485,-12.81936 2.69178,-7.40708 1.14399,2.17516 2.08033,4.39305 2.08033,4.92897 0,0.53576 1.96663,4.84704 4.36984,9.58118 7.2075,14.19804 7.59723,19.52069 1.8159,24.67834 -1.80369,1.60895 -3.27826,3.30629 -3.27826,3.77372 0,0.46774 3.88247,4.36959 8.62795,8.67143 l 8.62795,7.82247 -4.80954,4.96874 c -5.78004,5.96896 -5.86306,8.6171 -0.41417,13.34695 3.46878,3.01113 4.36366,5.94697 2.59492,8.51799 -0.4709,0.68503 -1.52416,1.00941 -2.33881,0.72168 -2.46895,-0.8719 -3.61263,1.35642 -1.77016,3.44869 4.11914,4.67753 9.01112,4.03994 12.791,-1.66611 h -0.002 c 3.09907,-4.6781 2.51016,-7.53405 -2.46183,-11.91895 -2.39945,-2.1163 -4.35924,-4.35777 -4.35556,-4.97953 0.002,-0.62176 1.58531,-2.12084 3.51654,-3.33162 2.06628,-1.29547 4.23826,-3.75902 5.27482,-5.98476 1.57392,-3.37965 1.612,-4.05564 0.36187,-6.36265 -0.76974,-1.42023 -3.58161,-4.43421 -6.24872,-6.69564 -2.66732,-2.26149 -4.84995,-4.5281 -4.84995,-5.03807 0,-0.51021 2.77733,-3.71201 6.17147,-7.11613 4.94758,-4.96241 7.7371,-9.07888 14.06974,-20.75403 4.34411,-8.00929 8.50455,-16.36899 9.24533,-18.57766 l 1.34767,-4.01409 0.2466,4.01409 c 0.1367,2.20867 0.19131,4.61891 0.12122,5.35515 -0.90218,9.43905 -0.90001,28.81395 0.002,31.30805 2.47104,6.82329 5.72543,12.18125 9.64821,15.88816 5.00042,4.72487 5.85396,3.70748 1.8789,-2.2372 -4.98778,-7.45903 -5.43201,-14.56263 -1.53723,-24.50672 1.42604,-3.64077 3.26474,-9.02917 4.0858,-11.97407 0.82101,-2.94488 1.87543,-6.05247 2.34417,-6.90475 1.94759,-3.54142 0.68344,-18.55787 -2.14036,-25.4165 -1.95737,-4.75395 -12.21938,-9.16277 -24.85526,-10.68074 l -6.03303,-0.72451 3.12257,-3.92999 c 1.71863,-2.16085 6.29051,-6.94879 10.15687,-10.63869 6.53743,-6.23919 6.92092,-6.81927 5.48753,-8.27707 -0.84745,-0.86214 -3.24153,-1.83195 -5.32116,-2.15535 -3.30399,-0.51381 -3.66226,-0.79606 -2.82428,-2.23719 1.7776,-3.05718 0.98371,-5.68541 -5.25462,-17.35592 -3.41853,-6.3956 -7.0817,-14.03828 -8.1395,-16.98315 -3.26304,-9.08331 -5.67412,-13.64076 -7.25177,-13.70381 z m -39.1829,26.96609 c -0.71652,0.0154 -2.11136,0.30695 -3.58607,0.77509 -10.42421,3.30899 -18.37179,13.92251 -18.46809,24.66469 -0.0445,4.97721 0.45476,6.83987 3.13446,11.7178 3.50995,6.38835 7.64994,9.45523 16.91661,12.5247 6.29068,2.08379 7.16866,2.12251 7.91014,0.34378 0.32357,-0.77632 0.5868,-2.88588 0.58589,-4.68631 -0.001,-2.64619 -0.72162,-3.89723 -3.76076,-6.52914 -5.76295,-4.99099 -9.18102,-12.35266 -9.26019,-19.94486 -0.07,-6.68461 1.2515,-10.68379 5.09952,-15.41991 1.30688,-1.60851 2.16044,-3.12133 1.89672,-3.36402 -0.0661,-0.0607 -0.22978,-0.0867 -0.46823,-0.0818 z m 78.70093,0.65065 c -2.19124,-0.0738 -1.84224,1.0771 0.86041,3.59131 6.06425,5.64153 7.60722,12.98285 4.62832,22.00985 -1.71542,5.19838 -3.07045,7.223 -8.36055,12.48208 -3.47253,3.45226 -6.31231,6.53387 -6.31231,6.84906 0,0.94942 8.05375,3.93906 10.79444,4.00671 1.40552,0.0352 3.59289,-0.43905 4.86125,-1.0524 4.99115,-2.41437 10.41521,-7.26081 13.05838,-11.66494 3.80711,-6.34362 3.81667,-13.93249 0.0274,-21.57686 -3.12634,-6.30594 -9.82909,-12.48046 -14.97472,-13.79586 -2.06328,-0.52749 -3.58464,-0.81495 -4.58137,-0.84895 h -6e-4 z m 32.21696,32.34737 c -0.63332,-0.0636 -1.17471,0.92527 -1.2009,3.00943 -0.0389,2.95185 -3.93676,8.98944 -7.82874,12.12238 -3.33953,2.68808 -13.82401,7.76962 -16.03183,7.76962 -1.43755,0 -1.79188,0.67051 -1.76718,3.34526 0.0333,3.75847 1.5147,6.04133 4.35557,6.71667 2.41325,0.57368 7.00424,-0.044 10.15625,-1.3672 4.00955,-1.68387 9.69133,-7.11721 11.61328,-11.10409 2.25193,-4.6715 3.34311,-12.32354 2.45052,-17.18659 -0.39029,-2.12596 -1.11369,-3.24195 -1.74697,-3.30548 z m -144.65959,0.008 c -0.40144,-0.0522 -0.78118,0.25271 -1.07493,0.9575 -0.94973,2.27777 1.39754,15.5374 3.53734,19.98974 2.4675,5.1344 5.24803,7.93772 9.65594,9.72666 4.13778,1.67927 12.82802,3.70407 13.78808,3.21286 0.38416,-0.19671 0.9712,-2.24783 1.30428,-4.55904 0.81524,-5.65647 0.75377,-5.77316 -4.08223,-7.46276 -10.24524,-3.57959 -19.28536,-11.60351 -21.22641,-18.83677 -0.50037,-1.8638 -1.23315,-2.94113 -1.90207,-3.02819 z m 3.13743,32.26329 0.67503,2.6179 c 1.03455,4.00791 5.25663,10.10806 8.4384,12.19341 5.14827,3.37428 11.85989,4.45504 12.85397,2.07069 1.01848,-2.44304 0.63978,-6.66288 -0.62332,-6.94681 -7.59432,-1.70683 -15.32276,-4.74895 -18.06581,-7.11101 z m 139.3818,1.63427 c -0.35413,0.0545 -0.97478,0.38333 -1.87295,0.9251 -6.2078,3.7439 -9.85009,5.10858 -14.91708,5.59608 l -5.50478,0.53131 v 4.80282 c 0,5.36754 0.53519,5.64864 7.41517,3.88964 4.25636,-1.08817 10.66863,-6.59814 13.38877,-11.50584 1.7494,-3.1562 2.26964,-4.359 1.49087,-4.23911 z"
           sodipodi:nodetypes="csccccsccssscccccsscscsccsccccccsccccssccsccccccccccccccccccscccccsccccccccccssscccscccccscssccscscccsscccccccscccccccscccsccs" />
      </g>
    </g>
  </g>
</svg>
