<svg role="img" viewBox="0 0 24 24" xmlns="http://www.w3.org/2000/svg" xml:space="preserve" width="24" height="24"><title>nf-core</title><path d="M61.159 129.028s.142-3.491.41-6.453c.269-2.961.727-7.761 1.332-11.297s1.26-6.677 2.228-9.899c.97-3.221 2.459-7.002 3.564-9.384 1.106-2.382 1.626-3.245 2.772-5.003 1.146-1.757 2.999-4.088 4.156-5.467 1.158-1.38.957-1.407 2.673-2.89s5.305-3.99 7.976-5.47c2.671-1.478 4.936-2.42 7.93-3.446s6.088-1.828 10.02-2.56c3.934-.734 9.461-1.284 13.565-1.614s8.439-.376 11.034-.465 4.537-.123 4.537-.123-.085-2.446.108-5.621c.192-3.175.684-9.44 1.37-13.392a78.5 78.5 0 0 1 2.538-10.298c.908-2.866 1.633-4.745 2.7-6.921a42.3 42.3 0 0 1 3.655-6.104c1.387-1.934 2.728-3.643 4.644-5.46 1.916-1.815 4.497-3.837 6.895-5.257s4.856-2.444 7.355-3.265c2.498-.82 5.716-1.384 7.55-1.666 1.832-.281 1.936-.234 3.383-.298s3.464-.095 5.297 0c1.833.093 4.127.342 5.685.584s2.303.395 3.663.763c1.359.369 3.533.975 4.463 1.5s.962.549 1.296 1.1c.334.552.542 1.477.48 2.117-.06.64-.289.894-.678 1.543-.388.648-.83 1.31-1.761 2.241-.932.932-2.239 1.995-3.975 3.125s-4.963 2.745-6.513 3.454-1.636.927-2.66 1.035-2.608-.299-3.283-.532c-.675-.232-.498-.228-.841-.462s-.735-.502-1.178-.981c-.443-.48-1.07-1.428-1.376-1.948-.307-.52-.33-.636-.538-1.111-.207-.475-.213-1.351-.684-1.747s-.916-.256-1.781-.363c-.866-.108-2.116-.222-3.413-.157s-2.814.207-4.331.637a21 21 0 0 0-4.67 2.01c-1.41.835-2.405 1.598-3.744 2.924s-3.147 3.704-4.087 5.127-1.026 1.657-1.744 3.234c-.717 1.578-1.66 3.876-2.362 6.294s-1.392 6.036-1.718 8.205c-.325 2.169-.349 2.825-.436 4.755s-.075 4.98.008 6.816c.083 1.837.25 3.08.376 4.2.125 1.122.338 2.531.338 2.531l1.265-.113s4.746-.701 7.279-1.002 5.303-.666 7.915-.794c2.611-.129 4.564-.09 7.733.012 3.17.103 7.485.172 11.272.716s7.725 1.238 11.374 2.57c3.649 1.33 7.347 3.351 10.34 5.351 2.991 2 5.416 4.085 7.605 6.418s3.92 4.785 5.497 7.43 2.954 5.843 3.918 8.36c.964 2.52 1.362 3.979 2.006 6.65s1.316 6.79 1.709 9.388.393 3.3.574 6.305.254 9.023.17 11.717c-.082 2.694-.265 4.319-.265 4.319s-5.845-4.827-8.521-6.705-5.409-3.542-7.449-4.639-4.659-2.132-4.659-2.132-3.366-.186-6.793 1.074-3.224 1.017-5.538 2.366-5.93 3.905-7.988 6.1c-2.058 2.193-2.906 3.854-4.438 6.654s-3.381 7.25-4.475 10.215-1.617 4.805-2.26 7.472-1.198 5.79-1.544 8.519c-.346 2.727-.504 5.2-.57 7.82-.066 2.618-.1 3.868.178 7.875.278 4.008 1.163 10.569 1.876 16.117s2.292 13.975 2.667 16.457.983 6.508 1.354 8.809c.37 2.301.87 3.266 1.583 4.7.714 1.434 1.941 3.006 2.623 3.841s.535.643 1.266 1.306c.73.664 3.206 2.559 3.206 2.559s4.182-1.874 5.995-2.835c1.814-.962 3.542-2.038 4.896-2.888 1.354-.849 1.621-1.02 3.25-2.165s4.78-3.485 6.465-4.789c1.686-1.304 2.088-1.677 3.69-2.98 1.601-1.304 5.913-4.85 5.913-4.85s.305.768.872 3.658c.568 2.89 1.92 9.633 2.127 13.748a53.4 53.4 0 0 1-.571 10.8c-.461 2.981-1.208 5.272-1.83 7.055s-.934 2.348-1.642 3.69a39 39 0 0 1-2.66 4.31 37 37 0 0 1-3.088 3.705c-1.011 1.066-1.664 1.67-2.925 2.711a47 47 0 0 1-4.695 3.438c-1.862 1.186-3.566 2.23-6.507 3.577s-7.846 3.14-11.23 4.181c-3.382 1.041-6.663 1.71-8.986 2.207s-3.37.712-4.923.9-2.847.36-4.37.265-3.398-.523-4.698-.875c-1.3-.353-2.24-.762-3.107-1.118-.868-.357-2.112-.98-2.112-.98s-3.93-2.132-5.32-2.854-1.901-1.034-3.002-1.508-2.394-1.01-3.601-1.306-2.534-.488-3.594-.481c-1.06.006-1.829.133-2.705.396a9.3 9.3 0 0 0-2.493 1.165c-.865.558-1.426 1.15-2.596 2.228s-2.805 3.06-4.357 4.31-3.782 2.618-4.89 3.177-.572.3-1.512.566-2.677.668-4.17.812c-1.495.144-3.37-.082-5.073-.267a34 34 0 0 1-5.077-.917c-1.97-.497-4.312-1.077-6.42-1.829a54 54 0 0 1-6.2-2.68 34 34 0 0 1-4.297-2.61 41 41 0 0 1-4.158-3.356c-1.236-1.15-2.1-2.045-3.268-3.507s-2.533-3.376-3.62-5.317a41 41 0 0 1-2.837-6.302c-.795-2.24-1.432-4.887-1.884-7.103-.453-2.216-.684-4.045-.89-6.157a72 72 0 0 1-.327-6.5c-.01-2.161.091-4.18.265-6.459.173-2.279.802-7.204.802-7.204s3.957 3.552 6.195 5.127 4.874 3.14 7.208 4.27 4.796 1.997 6.701 2.58c1.905.581 2.828.763 4.65 1.067 1.823.305 3.934.58 6.282.665s5.658-.042 7.775-.258c2.117-.215 4.915-.843 4.915-.843s2.455-2.711 3.573-4.21c1.119-1.5 2.321-3.335 3.116-4.775s1.091-2.086 1.74-3.787c.65-1.7 1.265-4.003 1.985-6.456s1.721-6.082 2.314-8.268c.592-2.186.632-2.217 1.269-4.84s1.724-7.072 2.437-10.923 1.4-8.25 1.798-12.174c.397-3.924.629-7.866.624-11.344-.004-3.477-.2-6.34-.546-9.487a98 98 0 0 0-1.521-9.37c-.594-2.773-1.002-4.419-1.938-7.265-.937-2.847-2.722-7.6-3.832-9.735-1.109-2.137-1.239-2.196-2.19-3.323-.953-1.127-2.147-2.34-3.56-3.324-1.415-.983-3.24-1.91-4.887-2.444-1.648-.535-3.222-.813-4.865-.804s-4.854.853-4.854.853-2.52 2.143-4.144 3.594-4.107 3.832-5.584 5.137a132 132 0 0 1-3.234 2.743s-2.082-1.882-3.166-2.746-2.22-1.783-3.33-2.435c-1.112-.652-1.964-1.118-3.274-1.501s-3.04-.667-4.545-.635-2.424.166-4.364.801c-1.94.636-4.943 2.27-7.028 3.41-2.084 1.139-5.498 3.362-5.498 3.362" style="fill:#fff;stroke:none;stroke-width:.0112542;stroke-linecap:round;stroke-dasharray:none;paint-order:stroke markers fill" transform="translate(-.588 -.588)scale(.08889)"/></svg>