<?xml version="1.0" encoding="UTF-8"?>
<svg id="Layer_1" data-name="Layer 1" xmlns="http://www.w3.org/2000/svg" xmlns:xlink="http://www.w3.org/1999/xlink" viewBox="0 0 924.85 216">
  <defs>
    <style>
      .cls-1 {
        fill: url(#linear-gradient);
      }

      .cls-2 {
        fill: #ecdc86;
      }

      .cls-3 {
        fill: #a0918f;
      }

      .cls-4 {
        fill: #231f20;
      }

      .cls-5 {
        fill: #21af62;
      }

      .cls-6 {
        fill: #3f2b29;
      }

      .cls-7 {
        fill: #396e35;
      }

      .cls-8 {
        fill: #24af63;
      }
    </style>
    <linearGradient id="linear-gradient" x1="232.97" y1="108.09" x2="270.84" y2="137.68" gradientUnits="userSpaceOnUse">
      <stop offset=".21" stop-color="#0d552b"/>
      <stop offset=".27" stop-color="#106133"/>
      <stop offset=".43" stop-color="#198348"/>
      <stop offset=".58" stop-color="#1f9b57"/>
      <stop offset=".73" stop-color="#23a960"/>
      <stop offset=".85" stop-color="#25af64"/>
    </linearGradient>
  </defs>
  <g>
    <path class="cls-8" d="m24.97,77.72c11.19-2.52,21.2-3.78,30.01-3.78,14.97,0,26.23,2.94,33.79,8.81,7.56,5.88,11.33,15.53,11.33,28.96v71.35h-31.27v-65.06c0-12.17-6.86-18.26-20.57-18.26-3.08,0-6.23.35-9.44,1.05-3.22.7-5.74,1.54-7.56,2.52v79.75H0v-97.17c5.46-2.94,13.78-5.67,24.97-8.19Z"/>
    <path class="cls-8" d="m135.78,100.8h-15.53v-23.92h15.74v-2.52c.14-15.95,3.81-27.04,11.02-33.26,7.2-6.22,17.03-9.34,29.49-9.34,2.24,0,4.69.21,7.35.63,2.66.42,4.83.91,6.51,1.47v27.49c-1.54-1.54-3.08-2.69-4.62-3.46-1.54-.77-3.5-1.15-5.88-1.15-3.92,0-7,1.05-9.23,3.15-2.24,2.1-3.36,5.67-3.36,10.7v6.3h23.08v23.92h-23.29v82.27h-31.27v-82.27Z"/>
    <path class="cls-5" d="m213.22,107.94h64.01v21.62h-64.01v-21.62Z"/>
    <path class="cls-4" d="m329.49,179.71c-8.39-4.06-15.08-10.18-20.04-18.36-4.97-8.19-7.45-18.15-7.45-29.91,0-18.89,5.04-33.19,15.11-42.92,10.07-9.72,23.51-14.59,40.29-14.59,5.88,0,11.82.6,17.84,1.78,6.01,1.19,11.33,2.83,15.95,4.93v26.86c-5.74-2.52-10.84-4.44-15.32-5.77-4.48-1.33-8.96-1.99-13.43-1.99-9.23,0-16.44,2.28-21.62,6.82-5.18,4.55-7.77,11.65-7.77,21.3,0,10.78,2.41,18.75,7.24,23.93,4.83,5.18,12.7,7.77,23.61,7.77,8.25,0,17.42-2.8,27.49-8.4v26.65c-5.04,2.66-10.25,4.65-15.63,5.98-5.39,1.33-11.44,1.99-18.15,1.99-10.36,0-19.73-2.03-28.12-6.09Z"/>
    <path class="cls-4" d="m420.78,171.95c-8.96-9.51-13.43-23.64-13.43-42.39s4.44-33.86,13.33-42.81c8.88-8.95,22.35-13.43,40.4-13.43s31.62,4.58,40.71,13.75c9.09,9.17,13.64,23.33,13.64,42.5s-4.69,32.53-14.06,42.18c-9.38,9.65-22.81,14.48-40.29,14.48s-31.34-4.75-40.29-14.27Zm57.71-18.78c3.92-5.38,5.88-13.25,5.88-23.61,0-11.33-1.92-19.41-5.77-24.24-3.85-4.83-9.69-7.24-17.52-7.24s-13.96,2.41-17.52,7.24c-3.57,4.83-5.35,12.91-5.35,24.24s1.85,18.75,5.56,23.92c3.71,5.18,9.48,7.77,17.31,7.77s13.5-2.69,17.42-8.08Z"/>
    <path class="cls-4" d="m537.05,88c2.1-1.82,5.77-3.85,11.02-6.09,5.25-2.24,11.12-4.16,17.63-5.77,6.51-1.61,12.77-2.41,18.78-2.41,11.61,0,19.66,1.75,24.13,5.25v22.88c-5.6-1.26-13.64-1.89-24.13-1.89-6.58,0-11.96.35-16.16,1.05v82.06h-31.27v-95.07Z"/>
    <path class="cls-4" d="m719.21,138.16h-70.1c2.66,14.69,12.52,22.04,29.59,22.04,5.17,0,10.25-.73,15.22-2.2,4.96-1.47,10.25-3.39,15.84-5.77v26.86c-11.47,4.75-24.34,7.14-38.62,7.14-10.78,0-20.22-2.2-28.33-6.61-8.12-4.41-14.41-10.74-18.89-18.99-4.48-8.25-6.72-17.98-6.72-29.17,0-18.47,4.58-32.77,13.75-42.92,9.16-10.14,22.21-15.22,39.14-15.22,33.16,0,49.53,21.62,49.11,64.85Zm-70.31-19.94h39.25c-.98-7.56-2.97-12.94-5.98-16.16-3.01-3.22-7.45-4.83-13.33-4.83-11.2,0-17.84,7-19.94,20.99Z"/>
  </g>
  <polygon class="cls-1" points="277.17 108 277.17 129.58 216.17 129.58 237.67 108 277.17 108"/>
  <g id="UR4fCq.tif">
    <g>
      <path class="cls-8" d="m924.75,96.02v3.4c-.07.02-.14.04-.21.05-.58-.48-1.16-.95-1.74-1.43-3.83-3.21-7.88-6.09-12.36-8.33-.78-.39-1.53-.84-2.4-1.02-.06-.14-.2-.16-.32-.21-1.69-.7-3.42-1.26-5.2-1.67-3.87-.9-7.75-.98-11.65-.2-5.01,1.01-9.49,3.21-13.68,6.05-4.17,2.81-7.92,6.12-11.44,9.69-.64.64-.65.64-1.04-.17-1.87-3.9-3.93-7.69-6.51-11.18-1.97-2.66-4.17-5.1-7.02-6.85-2.88-1.77-5.96-2.41-9.29-1.61-4.08.99-7.36,3.37-10.45,6.06-1.89,1.46-3.58,3.14-5.33,4.75-1.57,1.45-3.15,2.88-4.78,4.26-.3.25-.46.25-.73-.03-1.58-1.66-3.28-3.18-5.32-4.27-2.93-1.58-5.97-1.77-9.11-.75-2.63.86-4.96,2.3-7.29,3.74-.92.57-1.78,1.24-2.77,1.69v-.23c.14-.16.09-.36.09-.55.15-4.21.51-8.4,1.16-12.56.9-5.74,2.35-11.32,4.9-16.56,1.91-3.92,4.41-7.42,7.66-10.36,4.26-3.86,9.3-6.29,14.78-7.87,5.94-1.71,12.04-2.41,18.19-2.75,2.43-.13,4.87-.19,7.31-.28,1.19.49,2.44.77,3.66,1.17,1.78.55,3.56,1.09,5.35,1.64.91.33,1.81.67,2.72,1,3.52,1.27,6.89,2.85,9.86,5.16.77.6,1.51,1.24,2.27,1.88-.15-.56-.36-1.08-.56-1.61-1.3-3.46-3.29-6.37-6.53-8.32-1.34-.81-2.76-1.45-4.12-2.21.13-.02.26-.03.4-.05,4.29-.71,8.61-1.14,12.95-1.31,3.73-.15,7.46-.09,11.19.29,4.35.45,8.6,1.31,12.72,2.83,6.08,2.25,11.26,5.77,15.28,10.9,3.5,4.47,5.74,9.57,7.17,15.03,1.42,5.42,2.03,10.96,2.18,16.55,0,2.08,0,4.17,0,6.25Z"/>
      <path class="cls-2" d="m924.75,89.77s.07,0,.1-.02v6.29s-.07-.01-.1-.02c0-2.08,0-4.17,0-6.25Z"/>
      <path class="cls-3" d="m890.21,0s0,.07,0,.11c-1.41,0-2.83,0-4.24,0,0-.02.02-.05.02-.07,0-.01-.01-.02-.02-.04,1.41,0,2.82,0,4.23,0Z"/>
      <path class="cls-8" d="m892.97,178.19c2.38-.96,4.66-2.13,6.87-3.44,2.64-1.56,5.15-3.31,7.59-5.15,2.06-1.55,4.08-3.16,6.04-4.84,1.13-.97,2.3-1.9,3.44-2.86.23-.19.23-.11.3.13.41,1.55.7,3.14,1.01,4.71.43,2.15.77,4.31,1.01,6.49.28,2.51.37,5.04.23,7.56-.19,3.15-.75,6.24-1.85,9.21-.66,1.79-1.52,3.48-2.55,5.09-1.32,2.07-2.88,3.93-4.69,5.57-2.2,2-4.64,3.67-7.25,5.11-3.54,1.95-7.29,3.38-11.14,4.56-3.67,1.12-7.43,1.93-11.21,2.57-1.03.17-2.06.36-3.1.33-2.21-.06-4.33-.55-6.39-1.35-3.13-1.21-5.91-3.11-8.94-4.51-1.66-.77-3.38-1.33-5.22-1.46-2.37-.16-4.39.65-6.09,2.26-1.27,1.2-2.48,2.48-3.73,3.7-2.11,2.06-4.58,3.45-7.51,3.94-1.95.32-3.9.22-5.84-.06-2.7-.39-5.35-1.01-7.95-1.84-3.79-1.22-7.33-2.97-10.49-5.4-3-2.3-5.43-5.11-7.36-8.37-1.94-3.28-3.15-6.83-3.97-10.52-.36-1.62-.58-3.27-.75-4.93-.24-2.32-.38-4.65-.32-6.98.08-3.27.33-6.53.84-9.87.39.35.74.66,1.08.97,2.11,1.93,4.4,3.63,6.86,5.07,2.78,1.63,5.73,2.91,8.85,3.74,2.11.56,4.27.91,6.45,1.09,1.8.15,3.61.18,5.41.07,2.11-.13,4.24-.28,6.3-.85.26-.03.53-.05.79-.1,1.89-.4,3.77-.84,5.63-1.39,2.14-.63,4.26-1.33,6.35-2.1,2.03-.75,4.04-1.58,6.03-2.44.59-.26.94-.14,1.4.21,3.32,2.57,6.87,4.75,10.78,6.3,4.31,1.7,8.76,2.52,13.41,2.14,3.35-.28,6.56-1.11,9.67-2.36Z"/>
      <path class="cls-2" d="m892.97,178.19c-3.11,1.25-6.32,2.08-9.67,2.36-4.65.38-9.1-.44-13.41-2.14-3.92-1.55-7.47-3.73-10.78-6.3-.46-.36-.82-.47-1.4-.21-1.99.87-4,1.69-6.03,2.44-2.09.77-4.2,1.47-6.35,2.1-1.86.54-3.74.99-5.63,1.39-.26.05-.53.07-.79.1.65-.76,1.31-1.52,1.96-2.28,2.65-3.07,4.52-6.56,5.62-10.47,1.5-5.34,3.07-10.66,4.32-16.07.92-3.98,1.73-7.98,2.27-12.03.39-2.9.64-5.81.81-8.74.16-2.69.11-5.37-.05-8.04-.51-8.09-2.28-15.91-5.56-23.33-1.97-4.44-5.35-7.49-10.15-8.74-2.07-.54-4.15-.37-6.18.27-.16.05-.31.15-.49.1,3.09-2.69,6.37-5.07,10.45-6.06,3.33-.8,6.41-.16,9.29,1.61,2.85,1.76,5.05,4.19,7.02,6.85,2.58,3.49,4.64,7.28,6.51,11.18.39.82.4.82,1.04.17,3.52-3.57,7.28-6.88,11.44-9.69,4.2-2.83,8.68-5.04,13.68-6.05,3.9-.78,7.78-.7,11.65.2,1.78.41,3.51.98,5.2,1.67.12.05.26.07.32.21-4.97.1-9.27,1.99-13.19,4.92-1.89,1.41-3.57,3.04-4.87,5.01-1.08,1.64-1.94,3.4-2.79,5.17-1.72,3.61-3.13,7.34-4.14,11.22-.86,3.32-1.4,6.68-1.69,10.1-.22,2.64-.27,5.29-.17,7.93.13,3.24.43,6.48.85,9.7.7,5.4,1.65,10.77,2.53,16.14.48,2.98.9,5.97,1.37,8.95.69,4.33,3.08,7.57,6.6,10.06.14.1.28.2.42.3Z"/>
      <path class="cls-6" d="m885.98.11c1.41,0,2.83,0,4.24,0,3.44.16,6.8.73,10.06,1.85,2.52.86,3.08,2.51,1.56,4.7-1.08,1.56-2.58,2.68-4.14,3.73-2.03,1.36-4.2,2.45-6.48,3.31-2.39.9-4.67.02-6.12-2.36-.46-.75-.81-1.55-1.05-2.39-.07-.25-.18-.36-.45-.41-5.32-.94-10.01.28-13.94,4.05-3.2,3.07-5.1,6.91-6.43,11.07-1.2,3.75-1.79,7.61-1.98,11.54-.17,3.5.07,6.96.61,10.42.11.59.25,1.18.31,1.78.08.74-.14,1.38-.78,1.83-.67.47-1.43.39-2.18.41-1.78-.55-3.56-1.09-5.35-1.64-.01-.42-.02-.85-.03-1.27.03-1.85.03-3.69.13-5.54.4-7.31,1.51-14.47,4.33-21.28,2.1-5.07,5.08-9.51,9.34-13.03,3.5-2.89,7.5-4.79,11.91-5.85,2.11-.51,4.25-.82,6.42-.92Z"/>
      <path class="cls-7" d="m859.21,49.63c.75-.01,1.51.07,2.18-.41.64-.45.86-1.09.78-1.83-.06-.6-.2-1.18-.31-1.78.34-.03.67-.06,1.01-.09,1.36.76,2.78,1.4,4.12,2.21,3.23,1.95,5.22,4.86,6.53,8.32.2.53.41,1.05.56,1.61-.76-.65-1.5-1.28-2.27-1.88-2.98-2.31-6.34-3.89-9.86-5.16-.91-.33-1.81-.66-2.72-1Z"/>
      <path class="cls-7" d="m853.84,46.73c.01.42.02.85.03,1.27-1.22-.4-2.47-.68-3.66-1.17,1.21-.03,2.42-.06,3.63-.1Z"/>
    </g>
  </g>
</svg>