<?xml version="1.0" encoding="UTF-8" standalone="no"?>
<svg
   width="950"
   height="350"
   viewBox="0 0 950 350"
   version="1.1"
   xml:space="preserve"
   style="clip-rule:evenodd;fill-rule:evenodd;stroke-linejoin:round;stroke-miterlimit:2"
   id="svg2"
   sodipodi:docname="nf-core-blackmetal-idea_v3_candidate4_dark_applev1.svg"
   inkscape:version="1.3.2 (1:1.3.2+202311252150+091e20ef0f)"
   inkscape:export-filename="nf-core-blackmetal-idea_v3_candidate4_dark_applev1.png"
   inkscape:export-xdpi="300"
   inkscape:export-ydpi="300"
   xmlns:inkscape="http://www.inkscape.org/namespaces/inkscape"
   xmlns:sodipodi="http://sodipodi.sourceforge.net/DTD/sodipodi-0.dtd"
   xmlns="http://www.w3.org/2000/svg"
   xmlns:svg="http://www.w3.org/2000/svg"
   xmlns:serif="http://www.serif.com/"><defs
   id="defs2" /><sodipodi:namedview
   id="namedview2"
   pagecolor="#505050"
   bordercolor="#ffffff"
   borderopacity="1"
   inkscape:showpageshadow="0"
   inkscape:pageopacity="0"
   inkscape:pagecheckerboard="1"
   inkscape:deskcolor="#d1d1d1"
   inkscape:zoom="0.97619787"
   inkscape:cx="428.70407"
   inkscape:cy="206.92526"
   inkscape:current-layer="Layer-1" />
    <g
   id="Layer-1"
   serif:id="Layer 1"
   transform="translate(1.772,-186.842)">
        
        
        
        
        
        
        
        
        
        
        
        
        
        
        
        
        
        
        
        
        
        
        
        
        
        
        
        
        
        
        
        
        
        
        
        
        
        
        
        
        
        
        
        
        
        
        
        
        
        
        
        
        
        
        
        
        
        
        
        
        
        
        
        
        
        
        
        
        
        
        
        
        <g
   id="g3"
   transform="translate(17.346824,27.146)"><g
     id="g34">
        </g><g
     id="g8"
     transform="translate(72.741,15)">
            <path
   id="path3-7-7"
   d="m 162.362,352.623 -9.708,8.725 -10.245,4.546 5.161,-5.806 -3.026,-4.716 -12.043,6.006 13.331,-11.885 9.89,1.37 z"
   style="fill:#24b064;fill-rule:nonzero" />
            <path
   id="path4-4-3"
   d="m 157.115,368.461 -2.579,-13.18 8.684,-3.284 10.637,2.797 16.382,-5.144 -12.834,12.881 -15.148,0.058 -2.704,11.379 z"
   style="fill:#24b064;fill-rule:nonzero" />
        </g><path
     id="path1-5-9"
     d="m 278.138,402.686 -15.459,1.438 -5.425,4.634 -6.703,5.156 -5.88,10.286 4.798,2.728 2.935,9.164 5.842,-2.161 0.247,-9.901 9.689,-6.197 -4.9,9.341 -0.082,8.899 -13.958,5.359 -3.537,-11.913 -3.981,-2.19 -7.84,5.672 -3.537,6.368 0.82,8.224 2.133,14.015 7.144,5.396 -3.103,8.975 1.266,6.571 -6.284,-6.722 2.879,-6.347 -6.776,-5.957 -3.492,-25.547 4.422,-7.091 5.701,-3.577 6.784,-3.917 0.521,-4.87 19.835,-17.512 14.122,-2.878 z"
     style="fill:#ffffff;fill-rule:nonzero" /><path
     id="path6-3-1-9"
     d="m 471.727,258.354 -10.474,-14.194 -10.588,0.958 -14.861,6.031 -6.547,-15.213 -3.19,-1.995 -7.37,2.557 -3.539,-6.808 -8.589,-1.473 c 0,0 -7.815,-9.358 -5.866,-8.072 1.949,1.287 7.749,5.382 7.749,5.382 l 9.661,0.569 2.8,5.021 6.875,-3.193 12.612,16.56 16.251,-3.632 -0.419,-6.001 -5.821,-12.573 -10.877,1.903 -5.323,-6.201 -4.539,-3.383 -3.666,-8.618 -14.574,-5.898 18.148,2.186 4.713,8.657 6.61,8.338 12.449,-2.979 5.717,16.18 4.94,-8.019 6.525,-4.274 -5.315,-9.203 1.014,-11.632 -5.757,-12.493 11.335,12.299 -1.653,7.305 3.999,6.427 12.199,-4.186 -8.905,7.886 -0.295,6.471 -10.142,6.458 -5.734,7.86 11.699,13.985 z"
     style="fill:#ffffff;fill-rule:nonzero" /><path
     id="path49-3"
     d="m 230.518,319.017 -0.686,-3.977 3.959,-1.391 -0.821,-3.542 6.485,0.046 -5.17,-5.539 0.37,3.324 -6.279,-1.478 1.423,5.616 -4.453,1.846 z"
     style="fill:#24b064;fill-rule:nonzero" /><path
     id="path50-1"
     d="m 216.18,293.943 3.003,-2.676 -0.261,-8.096 6.529,-3.003 -5.288,4.244 0.065,6.136 5.223,0.457 -5.549,1.045 -1.11,3.656 z"
     style="fill:#24b064;fill-rule:nonzero" /><path
     id="path51-7"
     d="m 167.15,323.421 0.425,-5.866 -4.483,-1.005 -10.338,0.374 -2.297,-8.887 4.57,5.092 7.703,0.261 0.797,-3.339 -0.144,-3.32 -3.917,-0.653 -1.685,-4.156 -4.321,-3.025 0.392,-6.92 c 0,0 -5.353,-1.436 -5.876,-1.697 -0.522,-0.261 -4.569,-6.659 -4.569,-6.659 l 9.184,2.58 3.086,-1.874 4.05,-4.362 -2.124,6.084 0.455,3.523 -7.164,-0.992 6.483,3.006 0.958,3.577 2.936,3.074 0.355,5.556 8.288,2.094 -5.356,-8.426 4.962,-2.089 -1.959,-11.62 6.79,-1.437 7.181,4.831 -5.842,-0.658 -3.345,0.318 -0.475,5.302 8.617,-0.131 v 6.006 l -2.761,-3.811 -6.248,0.286 5.471,2.636 0.405,10.42 -2.873,-8.539 -2.883,-0.733 -1.762,1.437 2.738,2.963 0.341,6.048 -4.916,-1.368 1.306,2.543 -3.833,3.917 h 6.398 l -1.439,9.986 3.789,6.987 -6.842,-4.017 z"
     style="fill:#24b064;fill-rule:nonzero" /><path
     id="path52-5"
     d="m 148.638,284.087 -0.131,-3.786 7.965,-2.089 8.681,-7.927 3.786,4.71 -1.707,4.89 -2.404,7.466 4.689,-3.935 2.382,-8.568 5.202,-5.907 -7.926,3.92 0.796,-5.542 5.433,-4.645 0.261,-5.353 -4.071,4.157 -4.416,3.677 -4.961,-6.659 -11.791,-0.215 9.416,2.738 5.77,5.181 0.652,2.741 -4.569,-2.35 -6.529,-0.522 -6.397,7.312 7.023,-4.066 8.08,-0.135 -9.303,6.666 -6.825,1.41 -5.112,-2.439 -2.82,-1.739 -0.705,-7.27 -6.006,-3.656 4.308,4.831 -0.261,8.226 3.99,2.149 5.866,3.567 -1.761,4.468 2.09,0.653 z"
     style="fill:#24b064;fill-rule:nonzero" /><path
     id="path52-5-5"
     d="m 361.702,449.804 3.279,3.924 -0.952,6.782 11.305,5.301 -5.216,2.604 -4.861,0.431 -6.988,-3.359 3.815,3.255 9.257,4.141 5.337,4.877 -1.216,-6.743 3.436,-2.658 4.048,7.704 5.353,0.261 -3.473,-4.723 -4.361,-3.764 8.01,-3.61 4.002,-10.752 -7.119,6.452 -5.938,6.343 -2.742,0.653 2.351,-4.57 0.522,-6.528 -7.312,-6.398 5.977,6.666 -1.776,8.438 -7.981,-8.467 0.977,-7.336 3.395,-4.255 -0.231,-2.811 6.705,-0.545 4.163,-7.358 -5.676,2.281 -9.577,1.936 -0.16,4.846 -3.36,4.841 -4.468,-1.761 -5.722,3.61 z"
     style="fill:#ffffff;fill-rule:nonzero" /><path
     id="path55-2"
     d="m 207.001,391.012 -5.618,-6.913 -4.766,-7.222 2.151,-5.018 5.139,-4.16 5.54,1.119 -5.355,-5.725 -8.124,6.832 -0.924,7.386 3.509,10.525 4.974,4.54 2.965,3.954 8.265,-6.83 z"
     style="fill:#24b064;fill-rule:nonzero" /><path
     id="path56-1"
     d="m 175.609,393.643 7.118,0.401 -3.686,11.347 11.699,4.411 -7.704,1.436 -9.923,2.546 5.027,7.638 -5.027,11.686 10.95,-12.251 -5.732,-4.789 3.103,-2.1 7.172,-0.796 5.594,-3.958 4.309,-0.979 4.112,-0.522 3.754,5.647 0.229,8.65 -4.505,9.009 1.678,3.95 -2.395,2.897 -4.179,1.117 -2.677,-7.181 -1.566,-4.961 3.133,13.318 5.223,2.611 7.276,-6.573 -2.373,-5.798 3.917,-7.422 -0.022,-9.379 -2.176,-4.887 4.726,-4.845 5.234,0.191 0.391,8.683 0.784,-9.401 -6.528,-4.701 -8.944,6.92 -9.597,1.176 -4.7,-1.306 -3.917,-2.481 2.089,-11.881 h -7.834 l 1.381,-6.404 z"
     style="fill:#24b064;fill-rule:nonzero" /><path
     id="path48-3"
     d="m 539.781,316.23 2.086,11.83 -8.079,8.319 5.082,10.771 5.989,6.898 10.438,-3.961 7.867,-3.509 8.895,-3.69 -4.356,-6.656 3.631,-6.474 -6.019,-10.075 -0.392,-5.234 -7.14,-1.393 -9.016,-10e-4 z m -17.626,-2.294 -0.933,3.8 3.249,13.922 8.532,-5.747 -1.027,-8.835 z m 0.609,110.341 -9.195,-19.104 1.938,-13.069 5.539,-13.704 0.516,-18.123 5.206,-12.584 -4.687,-14.553 -4.807,-18.086 6.564,-5.028 13.221,-0.21 13.525,-4.506 19.332,1.364 8.832,17.004 1.57,20.936 -5.78,6.322 -14.552,4.688 -5.023,4.598 -13.04,1.238 -5.656,-8.018 -3.42,10.679 11.042,5.478 7.108,7.231 8.774,1.635 3.78,9.41 -0.637,14.431 0.241,7.382 10.284,16.217 -17.882,-15.071 0.156,-13.124 0.003,-12.166 -8.955,-2.663 -8.591,-9.622 -8.259,-1.726 -5.266,15.247 -3.754,11.799 2.661,9.076 z"
     style="fill:#ffffff;fill-rule:nonzero" /><path
     id="path8-9"
     d="m 498.79,358.992 5.267,-6.39 11.729,2.284 3.178,-10.149 9.595,-0.89 0.523,-10.446 15.236,4.546 -9.492,5.9 -6.267,5.745 -5.71,-0.438 -5.753,11.46 -10.966,-4.932 z"
     style="fill:#ffffff;fill-rule:nonzero" /><path
     id="path12-4"
     d="m 530.217,313.328 -2.319,-7.33 -3.342,-6.066 -9.404,-1.092 -17.715,3.943 -7.971,-6.969 8.879,2.939 11.57,-3.245 1.738,-4.781 -10.637,-2.177 -10.244,-16.499 12.487,13.248 10.332,2.544 0.683,-5.869 3.656,-1.045 5.818,3.907 6.422,-1.103 0.421,-5.718 8.751,-10.142 -5.855,11.781 -0.044,6.192 -9.515,2.996 -6.037,-3.285 -1.715,5.258 -1.036,4.099 13.512,1.668 1.932,7.34 4.581,5.471 z"
     style="fill:#ffffff;fill-rule:nonzero" /><path
     id="path12-4-9"
     d="m 398.537,250.052 -3.753,-5.419 -8.275,-6.128 -5.484,-0.836 -16.364,5.963 -8.309,-9.183 8.879,3.656 10.122,-3.256 0.366,-5.945 -7.697,-2.914 -10.364,-15.304 12.297,10.297 7.143,4.819 4.062,-5.193 3.656,-1.044 5.818,0.527 4.901,-0.765 2.111,-5.212 8.583,-7.607 -5.53,10.537 -2.043,6.959 -8.201,1.92 -5.303,-1.834 -4.118,6.712 4.602,3.213 7.536,3.568 4.178,6.528 4.701,3.917 z"
     style="fill:#ffffff;fill-rule:nonzero" /><path
     id="path13-8"
     d="m 545.625,309.135 10.836,-5.191 -0.407,-9.895 -1.669,-2.041 -6.982,0.114 7.531,-3.113 3.394,0.784 1.337,7.289 0.31,3.154 3.75,-5.337 1.701,-4.574 -3.778,-1.502 -3.731,-8.237 -6.962,-3.797 2.934,-8.409 5.223,-1.828 -2.998,4.54 -1.304,4.478 3.914,1.395 4.575,5.605 1.85,3.633 3.364,3.328 6.427,-5.659 -3.202,-1.453 -6.19,-2.122 -3.303,-4.083 5.298,2.319 4.103,0.814 5.484,-7.311 -2.611,9.139 3.761,1.714 3.909,-0.014 6.17,3.262 0.734,6.684 -3.869,-5.971 -4.386,-0.521 -5.097,1.327 -4.871,5.591 -4.732,6.033 -3.48,6.176 3.766,3.34 -3.073,-1.02 -15.729,1.601 z"
     style="fill:#ffffff;fill-rule:nonzero" /><path
     id="path13-8-5"
     d="m 353.051,328.201 7.794,-7.049 1.583,-7.929 -1.859,-2.329 -5.741,0.294 7.531,-3.112 3.395,0.783 0.261,7.051 0.249,7.009 4.886,-8.109 0.012,-3.391 -3.329,-4.127 -2.648,-7.173 -4.654,-5.1 0.783,-7.573 11.137,-2.166 -7.283,4.27 0.108,4.749 2.056,2.071 2.077,6.222 2.089,3.395 4.44,2.611 4.519,-2.059 -2.168,-5.115 -5.485,-0.878 -3.134,-5.266 5.715,2.55 3.686,0.584 5.484,-7.312 -2.611,10.154 2.089,3.686 5.222,-1.567 6.529,1.828 0.495,3.817 3.219,-2.518 -11.424,0.204 -3.688,2.074 -8.542,3.502 -1.996,5.685 -4.721,5.241 4.722,4.654 -4.746,-1.736 -14.056,2.318 z"
     style="fill:#ffffff;fill-rule:nonzero" /><path
     id="path14-1"
     d="m 580.263,311.727 10.185,-7.05 3.123,-6.251 -0.628,-7.592 0.768,-4.953 1.991,-3.395 3.882,0.675 8.62,2.453 -0.783,7.312 -0.743,-6.697 -9.226,-0.128 -1.123,4.917 -0.398,5.825 -2.925,8.649 -5.407,4.297 -6.447,4.238 -1.15,-0.711 z"
     style="fill:#ffffff;fill-rule:nonzero" /><path
     id="path15-2"
     d="m 578.051,335.951 8.879,0.261 3.394,-11.75 8.406,-0.111 10.657,-3.545 -7.156,7.159 2.456,4.069 2.35,6.267 0.261,5.484 -8.608,8.329 3.785,-10.832 -1.622,-6.315 -3.287,-6.214 -3.57,0.65 -3.083,4.304 -1.562,6.872 -6.631,-2.159 -5.006,0.169 z"
     style="fill:#ffffff;fill-rule:nonzero" /><path
     id="path15-2-1"
     d="m 292.534,283.354 -1.172,-6.848 -10.318,-5.425 0.129,-7.331 -3.784,-11.732 6.203,8.47 5.025,-3.77 6.267,-2.35 5.484,-0.261 4.745,7.413 -5.934,-3.785 -8.585,1.502 -5.736,4.722 -0.784,4.406 3.707,2.964 6.394,1.92 0.828,5.436 0.169,5.006 z"
     style="fill:#ffffff;fill-rule:nonzero" /><path
     id="path21-9"
     d="m 553.43,380.927 9.687,1.878 6.567,-1.804 -5.611,-3.207 -5.204,-6.006 -8.636,-2.089 9.14,-0.784 5.222,5.223 4.701,3.134 3.448,0.58 1.513,-6.325 6.006,-4.962 10.707,-3.656 7.834,13.057 -9.083,-6.686 -7.157,0.614 -4.113,4.051 -2.738,5.026 9.251,-4.833 -8.944,9.846 -2.234,2.943 2.216,3.401 5.459,-2.442 4.025,4.009 -1.828,6.528 -3.402,-4.879 -6.084,1.458 -3.771,-3.529 -1.517,-2.472 1.504,-4.875 -5.208,5.421 -8.07,-3.174 z"
     style="fill:#ffffff;fill-rule:nonzero" /><path
     id="path22-3"
     d="m 561.508,411.848 -1.044,9.401 -8.618,2.873 -9.139,-1.306 -4.701,-6.528 2.612,-13.318 -8.224,14.579 3.506,10.299 7.776,3.178 14.871,-1.731 5.842,-4.567 -0.792,7.228 8.268,4.28 5.311,10.343 8.356,4.7 -4.966,-5.431 -3.603,-9.953 -7.214,-6.051 1.11,-10.135 0.288,-4.412 5.976,-0.84 10.001,-0.072 3.94,3.749 6.284,-3.781 2.287,12.641 2.35,-18.801 -9.662,3.655 -8.356,-3.133 -8.356,-0.522 -6.268,1.566 -3.656,2.089 z"
     style="fill:#ffffff;fill-rule:nonzero" /><path
     id="path22-3-2"
     d="m 266.438,438.574 4.751,5.724 -1.223,6.032 -3.789,7.262 -7.884,0.568 -9.989,-5.934 8.817,12.931 8.682,-0.415 6.039,-3.147 4.849,-12.578 0.029,-6.316 8.176,4.117 9.535,-2.937 9.918,-1.511 8.249,-4.886 -9.344,3.651 -9.909,-0.595 -9.44,3.294 -10.458,-5.752 1.066,-6.069 2.359,-4.857 5.364,-9.274 5.023,-4.038 -1.874,-8.336 13.233,7.62 -15.108,-11.436 -1.665,10.196 -6.892,5.669 -4.63,6.976 -1.777,6.211 -0.018,4.211 z"
     style="fill:#ffffff;fill-rule:nonzero" /><path
     id="path23-9"
     d="m 500.858,404.543 4.672,14.497 7.503,4.137 -0.082,5.425 -4.383,-1.492 -7.594,4.082 -8.777,6.384 -4.181,0.355 -4.91,-4.262 1.3,6.081 5.752,3.328 13.773,-8.421 5.472,-3.384 6.66,2.939 6.288,10.416 1.093,10.119 -4.382,8.819 10.434,-7.864 -2.776,-13.545 -6.816,-8.77 0.615,-5.767 2.282,-3.308 -1.25,-12.84 -0.331,5.144 -4.269,9.969 -1.423,-8.456 -6.062,-1.115 z"
     style="fill:#ffffff;fill-rule:nonzero" /><path
     id="path24-0"
     d="m 517.151,404.762 -7.603,-7.814 3.699,-4.24 0.136,-3.43 -2.34,-8.231 -3.095,-7.46 -5.619,-4.391 -5.793,0.503 -8.59,3.349 -13.15,8.002 10.923,-12.658 9.401,-3.395 7.311,-1.567 8.618,5.484 4.961,15.146 2.35,4.7 -3.019,9.126 4.586,-0.247 z"
     style="fill:#ffffff;fill-rule:nonzero" /><path
     id="path24-0-3"
     d="m 320.553,290.668 -6.177,-6.657 3.651,-3.256 4.635,-1.792 1.643,-8.322 1.675,-6.861 -3.399,-7.212 -4.642,-3.437 -9.715,-3.581 -13.43,-0.17 13.223,-2.014 9.839,1.76 7.116,2.299 4.721,9.058 -3.874,15.239 0.283,5.604 -6.24,2.958 5.547,5.873 z"
     style="fill:#ffffff;fill-rule:nonzero" /><path
     id="path20-8"
     d="m 401.38,396.551 -7.703,7.834 2.546,5.353 4.178,2.285 7.377,-0.653 4.831,-2.285 4.112,-4.047 -0.391,-5.876 -4.439,-3.786 -4.57,-0.196 z"
     style="fill:#ffffff;fill-rule:nonzero" /><path
     id="path25-0"
     d="m 387.521,406.886 -7.016,4.432 -16.916,6.37 4.165,7.281 4.365,12.356 4.226,-4.103 1.443,-7.114 0.015,5.778 -0.907,5.797 5.589,6.338 -8.998,-5.006 -15.542,5.658 9.047,-5.991 0.236,-2.346 -6.297,-11.724 -0.916,-8.348 -9.782,6.464 9.515,-12.361 6.184,0.726 6.049,-0.328 -2.262,-12.328 8.14,7.761 5.278,-4.706 z"
     style="fill:#ffffff;fill-rule:nonzero" /><path
     id="path26-9"
     d="m 372.776,379.167 -8.151,-14.75 -2.001,-11.397 11.607,3.423 -9.856,-10.156 -7.81,5.227 0.752,5.399 1.47,6.209 4.16,10.25 5.873,8.585 7.41,6.811 z"
     style="fill:#ffffff;fill-rule:nonzero" /><path
     id="path27-6"
     d="m 386.395,347.388 -10.998,1.574 -9.38,-5.682 -7.535,0.287 2.972,-3.292 -4.584,-2.078 -3.794,-8.196 -3.67,-10.179 -3.156,-7.144 11.183,-15.034 -6.153,13.72 4.769,11.849 3.28,8.218 7.063,5.997 9.263,4.141 4.999,-8.34 -4.865,-6.17 7.301,6.55 -0.879,8.074 6.374,0.211 z"
     style="fill:#ffffff;fill-rule:nonzero" /><path
     id="path28-3"
     d="m 394.132,296.294 -5.872,-12.4 -9.46,-4.016 -14.263,-0.87 -8.036,13.766 3.323,-17.357 11.079,-2.585 7.196,1.28 0.545,-7.748 8.508,-4.98 3.324,-6.278 10.709,-7.755 11.449,-1.847 3.323,6.278 -4.513,-4.26 -7.753,3.096 -6.976,6.08 -4.278,6.534 -9.736,5.92 -1.827,4.419 8.494,4.801 4.949,-6.022 10.192,-2.841 1.477,10.34 -3.693,-6.647 -5.17,2.954 -2.679,4.938 2.895,11.121 -2.599,-1.287 z"
     style="fill:#ffffff;fill-rule:nonzero" /><path
     id="path28-3-2"
     d="m 242.871,300.29 -4.911,-12.846 -8.731,-7.625 -13.976,-0.145 -10.013,17.096 3.324,-17.357 10.72,-4.974 6.837,1.399 1.262,-5.478 8.509,-4.98 3.323,-6.278 10.71,-7.755 11.448,-1.847 4.16,9.385 -7.62,-5.813 -6.674,2.44 -9.49,5.363 -0.887,7.271 -10.065,3.979 -1.184,5.442 8.494,4.801 3.428,-1.798 11.713,-7.065 1.478,10.34 -4.171,-4.377 -3.498,2.237 -3.095,2.998 2.117,11.508 -2.6,-1.287 z"
     style="fill:#24b064;fill-rule:nonzero" /><path
     id="path29-8"
     d="m 442.177,293.143 11.448,-7.755 -0.44,-12.901 -11.148,0.101 -6.138,6.522 2.216,-9.233 8.863,-2.954 6.278,0.738 3.287,-4.535 -5.707,-5.721 -1.57,-5.97 -2.187,-5.108 -1.277,-3.068 3.163,1.732 1.434,-0.407 2.149,-0.215 2.428,-3.927 0.604,-3.812 6.17,6.289 -5.17,-4.063 -3.693,8.494 2.397,6.816 3.987,2.88 2.848,4.707 13.295,-4.432 7.755,-3.693 -2.406,-5.301 -0.917,-8.363 2.954,8.863 4.771,5.338 -2.837,5.553 -12.102,3.18 -8.665,3.757 -3.262,5.232 -2.567,6.257 1.615,11.917 -15.793,5.618 z"
     style="fill:#ffffff;fill-rule:nonzero" /><path
     id="path30-5"
     d="m 445.132,307.176 9.401,-9.952 8.431,6.723 9.126,3.968 8.099,13.243 -10.707,10.022 4.517,-9.594 -2.003,-6.148 -3.037,-5.067 -7.948,9.361 2.116,-9.717 -3.792,-2.315 -4.847,-1.55 -4.4,2.848 -2.741,2.979 z"
     style="fill:#ffffff;fill-rule:nonzero" /><path
     id="path30-5-6"
     d="m 316.904,437.001 11.873,-2.1 3.947,8.675 7.157,7.544 -0.987,14.527 -11.322,1.914 6.341,-4.844 2.124,-9.091 -3.155,-3.944 -8.504,6.133 4.6,-7.776 0.02,-4.455 -2.776,-5.156 -3.752,0.152 -6.047,3.687 z"
     style="fill:#ffffff;fill-rule:nonzero" /><path
     id="path31-6"
     d="m 455.66,344.074 9.044,-5.508 9.233,-0.738 8.77,-11.232 3.417,-2.432 7.777,-5.521 2.563,-2.604 -7.364,-3.719 -0.391,-9.945 2.585,8.494 6.647,2.585 1.889,3.424 -4.243,6.435 -5.182,4.171 -4.036,3.071 -3.012,4.94 -1.166,5.745 0.865,4.005 0.237,5.971 5.443,4.799 -0.766,10.249 -3.693,-8.125 -7.386,-4.062 0.549,-5.387 0.928,-4.215 -1.108,-4.801 -5.17,2.585 -8.215,2.148 3.765,5.377 8.512,10.202 9.001,2.328 -5.589,2.554 -0.687,9.655 -6.224,2.047 -5.99,1.529 8.391,-8.784 -1.636,-7.86 -3.89,-3.95 -5.648,-3.13 0.69,-1.559 z"
     style="fill:#ffffff;fill-rule:nonzero" /><path
     id="path31-6-7-7"
     d="m 557.862,241.675 -7.017,5.17 -7.918,1.695 -7.576,12.665 -5.208,1.596 -5.986,4.685 -2.204,2.125 4.496,3.481 0.392,9.944 -2.585,-8.493 -6.648,-2.586 -0.537,-3.424 5.542,-9.063 4.728,-0.867 5.272,-1.051 2.638,-8.192 -0.891,-4.443 -1.882,-5.805 2.878,-4.097 -4.438,-2.562 -3.339,-13.305 7.039,11.59 4.04,0.597 -0.548,5.387 -0.929,4.215 1.108,4.801 5.17,-2.586 10.919,-1.641 -4.284,-5.117 -5.798,-6.427 -13.393,-10.08 8.8,2.854 0.518,-10.669 6.498,-1.796 4.079,-0.335 -6.561,5.542 0.523,8.832 3.293,2.875 1.944,2.294 3.492,3.112 z"
     style="fill:#ffffff;fill-rule:nonzero" /><path
     id="path32-1"
     d="m 455.841,382.513 6.278,6.278 7.017,-6.278 12.187,-3.324 5.341,6.8 4.999,8.71 -11.512,-9.577 -8.297,1.783 -8.425,8.101 -5.1,-3.948 -2.378,-2.827 -7.496,7.576 2.363,2.362 5.75,1.525 8.609,1.954 2.056,4.772 -0.057,6.563 6.541,3.123 7.712,-2.853 -5.576,-11.105 13.175,-4.844 -6.535,7.123 2.892,11.692 -7.793,3.488 -1.953,12.329 -4.477,-11.755 -8.751,-4.932 -2.15,-8.72 -6.635,-3.336 -7.756,-3.693 3.693,-10.709 z"
     style="fill:#ffffff;fill-rule:nonzero" /><path
     id="path33-1"
     d="m 417.498,416.71 12.693,16.283 13.382,2.776 3.458,2.059 3.2,10.465 3.347,4.2 -2.664,7.982 11.575,3.283 -6.869,-5.977 2.112,-5.565 3.649,-1.002 8.863,1.096 0.739,-8.125 -3.809,4.41 -5.446,-1.388 -4.532,1.22 -7.426,-16.411 -18.119,-3.324 -5.791,-10.26 -2.886,-8.961 z"
     style="fill:#ffffff;fill-rule:nonzero" /><path
     id="path33-1-0"
     d="m 190.655,418.533 -10.538,10.665 -5.987,13.212 -2.059,3.459 -10.803,7.255 -2.679,-0.202 -6.292,0.717 -6.155,7.688 6.422,-3.684 5.058,0.393 2.922,2.183 -2.954,8.863 8.124,0.739 -4.336,-2.865 4.063,-5.912 -1.101,-4.413 13.011,-9.421 6.333,-14.41 7.952,-10.806 8.792,-0.182 z"
     style="fill:#24b064;fill-rule:nonzero" /><path
     id="path34-5"
     d="m 402.446,418.267 -11.232,9.669 3.324,7.386 3.082,-7.476 7.832,-4.249 7.014,3.686 -9.878,15.925 -6.942,3.193 11.079,1.846 11.842,-19.572 -5.11,-8.415 -5.147,-3.906 z"
     style="fill:#ffffff;fill-rule:nonzero" /><path
     id="path34-5-1"
     d="m 265.027,470.283 9.669,11.232 7.386,-3.324 -7.595,-1.07 -6.719,-10.491 6.275,-6.367 18.122,5.823 0.996,10.997 3.997,-13.707 -20.29,-7.528 -9.342,5.62 -4.413,2.951 z"
     style="fill:#ffffff;fill-rule:nonzero" /><path
     id="path34-5-9"
     d="m 195.768,441.714 -11.231,9.669 3.323,7.386 -0.244,-5.325 11.685,-8.75 4.097,7.35 -3.433,16.808 -10.997,0.996 11.079,1.846 8.125,-19.573 -3.589,-7.908 -2.951,-4.413 z"
     style="fill:#24b064;fill-rule:nonzero" /><path
     id="path63"
     d="m 434.533,296.675 -6.093,-3.139 -11.448,0.37 -4.432,1.846 -3.693,16.988 -5.539,4.062 -0.369,19.203 -5.909,6.279 -3.693,14.402 -8.125,8.863 -4.062,11.079 0.739,8.125 6.278,11.448 17.357,-9.971 12.186,3.693 5.909,4.801 5.17,-3.693 7.386,0.738 6.278,-2.216 7.756,-12.186 -0.739,-13.295 8.124,-9.232 -11.078,-5.171 -8.125,-26.589 2.585,-6.647 -4.062,-11.448 1.108,-6.648 z m 9.048,-2.031 v 8.863 l 4.801,7.017 -3.324,14.033 9.602,16.249 11.448,12.556 -7.755,9.602 -2.954,19.204 -6.278,7.385 -2.216,9.602 -14.772,-0.369 -4.801,7.755 -8.124,12.926 -8.125,-2.586 -7.386,1.108 -10.709,-1.108 -4.801,-10.34 -11.818,-9.971 -3.693,-18.095 8.863,-24.374 8.864,-15.88 4.431,-4.801 -1.477,-9.971 -0.369,-12.186 -1.847,-16.249 4.062,-4.432 h 14.034 l 7.016,-8.124 21.789,9.786 z"
     style="fill:#ffffff;fill-rule:nonzero" /><path
     id="path19-8"
     d="m 395.961,295.101 -1.044,5.092 0.783,7.442 5.288,0.653 3.395,-4.178 0.196,-6.332 -3.591,-3.395 z"
     style="fill-rule:nonzero" /><path
     id="path20-4"
     d="m 402.237,396.077 -7.703,7.833 2.546,5.354 4.178,2.285 7.377,-0.653 4.831,-2.285 4.113,-4.048 -0.392,-5.875 -4.439,-3.787 -4.57,-0.195 z"
     style="fill-rule:nonzero" /><path
     id="path43-8"
     d="m 290.988,309.61 -2.493,3.232 1.293,2.862 7.016,-0.185 3.047,-1.015 0.092,-4.524 -2.954,-1.293 z m 49.665,21.38 -9.923,-3.133 -19.324,2.611 -9.401,-6.789 -4.178,-1.567 -8.878,4.7 -4.178,14.101 -8.879,13.579 -1.567,13.057 6.79,5.222 0.522,13.057 1.567,16.19 11.49,7.834 13.056,-0.522 4.701,-5.223 4.178,-18.279 7.311,-3.656 2.612,-15.668 2.089,21.935 -5.745,1.045 -2.089,14.623 -6.267,10.446 -13.579,4.178 -14.101,-6.79 -10.968,-6.267 1.045,-22.98 -8.879,-12.534 1.045,-18.801 5.745,-11.49 4.7,-4.701 0.522,-13.578 4.482,-15.75 14.77,-0.923 7.906,13.539 8.878,5.223 11.49,-0.523 z"
     style="fill:#ffffff;fill-opacity:0.99;fill-rule:nonzero" /><path
     id="path35-1"
     d="m 325.248,389.024 5.432,4.731 3.133,1.999 -2.374,6.635 -0.662,6.281 1.52,4.948 -3.622,4.334 -2.118,8.198 -8.362,6.792 10.968,-3.917 1.513,-5.768 1.541,-4.184 3.883,-4.998 -1.989,-5.157 -0.06,-5.947 1.901,-5.543 4.574,-1.783 10.833,-5.007 -1.14,-8.02 3.751,-6.603 -3.36,1.862 -4.025,4.376 1.248,7.557 -9.703,3.708 -6.356,-2.096 -3.35,-4.083 z"
     style="fill:#ffffff;fill-opacity:0.99;fill-rule:nonzero" /><path
     id="path36-0"
     d="m 305.205,416.639 3.947,3.517 -0.568,7.146 -5.917,3.677 -8.522,-4.981 2.899,-5.852 -7.312,6.79 6.776,3.93 5.758,3.904 6.787,-5.289 5.672,9.055 -0.218,9.321 4.994,-10.998 -6.267,-6.006 -0.662,-3.171 0.815,-8.203 -1.72,-2.727 -1.567,-1.567 z"
     style="fill:#ffffff;fill-opacity:0.99;fill-rule:nonzero" /><path
     id="path37-3"
     d="m 283.465,409.44 -7.187,3.809 0.837,2.417 8.09,2.965 3.221,8.305 -4.766,-5.276 -2.807,-2.105 -7.572,-2.281 -2.021,-5.546 -2.889,0.566 -5.797,8.375 4.44,-12.274 7.311,0.523 3.448,1.23 z"
     style="fill:#ffffff;fill-opacity:0.99;fill-rule:nonzero" /><path
     id="path38-0"
     d="m 272.399,374.144 3.923,4.756 -8.633,4.69 -3.526,4.385 -1.082,6.992 -2.239,-6.797 -14.402,-1.377 4.576,-1.169 8.083,-1.13 3.214,-5.868 -5.848,-4.196 5.964,1.466 3.664,1.928 -2.866,6.138 z"
     style="fill:#ffffff;fill-opacity:0.99;fill-rule:nonzero" /><path
     id="path38-0-6"
     d="m 242.86,373.048 6.801,-3.557 -6.247,-3.178 -5.673,-5.061 0.232,-7.709 -3.675,6.092 -12.966,2.082 4.576,1.168 8.368,0.682 2.929,6.317 -5.848,4.196 5.964,-1.467 1.633,-2.405 -0.186,-5.474 z"
     style="fill:#24b064;fill-rule:nonzero" /><path
     id="path38-0-8"
     d="m 237.894,427.363 -1.529,1.055 -5.049,-7.199 -4.624,-4.72 -6.275,0.232 5.96,-3.793 2.214,-12.849 1.168,4.577 -0.542,8.679 8.735,0.825 3.002,-4.055 0.087,5.247 -3.959,2.349 -5.78,-0.954 z"
     style="fill:#ffffff;fill-opacity:0.99;fill-rule:nonzero" /><path
     id="path39-4"
     d="m 268.679,357.656 -7.079,-7.957 -7.439,1.838 -6.506,4.246 -0.226,9.787 -4.44,-10.968 6.826,-6.395 2.633,-12.893 14.074,-2.063 -8.683,5.876 -4.555,9.283 9.551,-3.47 7.312,6.006 z"
     style="fill:#ffffff;fill-opacity:0.99;fill-rule:nonzero" /><path
     id="path40-4"
     d="m 272.758,344.418 -3.315,-5.898 -0.602,-10.642 -6.971,-8.919 -2.952,-8.227 4.701,7.573 6.528,4.961 4.962,-7.05 2.872,7.05 -3.149,-4.413 -2.754,6.701 -0.136,4.63 2.97,2.957 -1.826,2.692 0.799,2.641 1.361,2.631 z"
     style="fill:#ffffff;fill-opacity:0.99;fill-rule:nonzero" /><path
     id="path40-4-8"
     d="m 570.103,271.518 5.108,-5.54 -0.593,-11.837 7.807,-6.29 1.518,-10.019 -4.701,7.572 -6.528,4.962 -4.961,-7.051 -5.86,10.755 6.376,-6.564 2.275,5.745 0.033,7.468 c 0.845,1.582 2.294,4.271 1.349,2.572 l -0.919,3.239 -5.781,0.48 z"
     style="fill:#ffffff;fill-opacity:0.99;fill-rule:nonzero" /><path
     id="path41-4"
     d="m 290.692,305.554 -6.254,-3.548 5.175,-5.407 -6.895,-5.757 -8.093,-2.717 4.155,-6.014 -4.494,-3.533 2.651,-6.494 -1.045,5.223 7.312,4.439 -2.506,4.417 7.792,6.292 2.898,-9.359 9.852,-3.101 2.395,-7.615 12.962,-8.51 -9.285,9.693 -2.753,6.205 6.625,5.17 0.222,8.559 -3.656,-5.687 -6.556,-4.568 -5.563,3.13 -3.546,7.238 1.342,3.534 -4.222,4.276 5.227,3.828 z"
     style="fill:#ffffff;fill-opacity:0.99;fill-rule:nonzero" /><path
     id="path42-4"
     d="m 299.394,305.248 11.229,-0.261 5.483,-8.617 2.873,-7.312 13.056,1.567 5.484,9.401 -8.115,-6.118 -7.305,-1.294 -3.222,9.014 3.975,2.306 5.266,0.008 4.701,3.656 -5.745,-1.305 -5.484,1.566 -5.789,-0.721 -9.507,4.762 -0.712,4.714 z"
     style="fill:#ffffff;fill-opacity:0.99;fill-rule:nonzero" /><path
     id="path45-7"
     d="m 323.098,327.382 3.858,11.997 0.28,7.006 5.817,3.263 4.993,-0.029 3.121,-2.07 2.843,-0.161 4.598,-0.087 4.326,-1.508 1.921,-5.155 5.229,-3.641 7.204,-5.897 -8.878,4.44 -6.006,3.133 -4.515,6.416 -6.243,-0.082 -0.948,-5.855 5.639,-4.193 -1.767,-5.687 -1.142,4.462 -5.386,4.417 0.488,7.649 -1.69,0.721 -5.557,-2.425 -0.553,-3.334 -3.395,-13.317 z"
     style="fill:#ffffff;fill-opacity:0.99;fill-rule:nonzero" /><path
     id="path45-7-3-6"
     d="m 319.55,238.272 -4.02,6.327 -1.583,5.225 -5.617,-1.231 -4.969,-0.366 -1.253,-2.428 -1.529,-2.651 -5.205,-2.21 -1.449,-2.439 1.378,-6.467 -3.516,-5.683 -4.491,-8.781 7.023,8.045 5.427,5.119 -2.295,6.977 5.827,5.135 3.576,-4.87 -1.789,-6.173 2.82,-4.456 0.718,4.82 0.496,6.133 -3.291,5.469 0.92,3.516 5.245,0.128 2.033,-8.812 15.095,-9.119 z"
     style="fill:#ffffff;fill-rule:nonzero" /><path
     id="path45-7-3-1"
     d="m 497.798,281.882 12.912,-1.29 6.153,0.405 2.339,-5.122 0.495,-5.561 -0.576,-1.329 0.436,-3.739 -2.179,-5.494 -1.388,-2.474 -6.289,-2.04 -3.164,-5.886 -5.359,-8.28 2.289,9.954 3.731,6.245 6.356,2.124 3.204,6.184 -7.887,4.174 -4.252,-6.176 -12.079,0.572 10.197,1.5 3.58,6.82 7.53,-2.101 2.274,1.451 -1.103,6.161 -4.178,-0.35 -13.078,1.961 z"
     style="fill:#ffffff;fill-rule:nonzero" /><path
     id="path60-5-2"
     d="m 577.887,445.117 -13.053,5.787 -5.334,8.498 -0.478,18.602 -10.648,-4.457 7.19,-0.72 0.108,-10.311 -5.731,4.543 -2.905,-7.631 -3.885,4.196 4.545,-11.746 3.078,9.942 4.893,-4.705 -0.931,0.783 3.555,-2.985 -4.172,-8.785 5.579,4.878 5.188,-6.028 6.109,-0.487 3.147,-8.181 z"
     style="fill:#ffffff;fill-rule:nonzero" /><path
     id="path62-4-5"
     d="m 435.635,431.927 -1.063,14.534 -3.007,4.303 -0.139,4.702 8.527,7.019 5.848,-3.489 -1.736,8.755 -5.053,9.002 -9.662,2.089 7.573,-4.44 3.303,-7.7 -5.974,-3.94 -6.408,2.516 -7.647,1.624 -1.231,11.387 -10.246,2.381 7.528,-5.685 0.448,-6.279 -8.283,2.302 10.799,-6.636 -3.525,-2.739 6.792,-0.378 2.592,-1.352 -1.466,-9.264 4.961,9.401 1.306,-2.089 -4.222,-12.412 4.821,-1.905 2.355,-12.089 z"
     style="fill:#ffffff;fill-rule:nonzero" /><path
     id="path68-7"
     d="m 217.669,285.174 -9.266,-6.821 -6.582,-5.758 -8.617,-2.089 -2.819,-7.56 -0.784,-7.05 3.134,-9.923 5.745,3.133 4.744,2.687 2.306,5.408 -2.872,5.484 -0.128,-5.692 -2.97,-3.364 -3.813,-1.75 -1.999,5.582 0.178,3.702 1.874,5.197 8.387,3.025 6.305,5.739 2.331,3.941 8.375,5.033 z"
     style="fill:#24b064;fill-rule:nonzero" /><g
     id="g4"
     transform="translate(78.0746,17.034)">
            <path
   id="path57-2"
   d="m 629.951,300.299 2.089,12.535 2.089,-16.191 -1.567,-15.145 -8.356,-13.579 -13.579,-4.178 -14.101,3.133 -10.967,6.79 -4.179,-4.701 -11.489,-1.044 -16.191,3.133 -12.776,1.198 6.509,7.159 9.401,-1.045 5.223,16.19 4.7,9.401 -1.567,9.401 -4.178,14.101 2.089,10.968 -9.923,12.534 6.79,8.878 3.133,9.401 -1.83,19.861 3.71,13.269 18.41,-12.027 10.524,10.233 13.056,-4.178 26.636,1.044 -6.79,-7.311 -16.712,-1.045 -10.968,3.134 -6.567,-7.534 -7.391,-2.266 -15.702,4.264 1.98,-22.667 -7.311,-11.489 8.356,-10.968 8.356,10.968 10.968,-1.045 5.222,-8.878 h 19.846 l 11.49,7.311 -6.789,-11.489 -12.535,-5.223 -15.145,5.223 -7.834,7.311 -5.745,-5.222 -7.834,-9.401 -1.045,-9.401 1.045,-10.967 1.045,-16.191 -6.79,-5.222 2.611,-11.49 24.025,-1.045 26.113,-2.089 6.267,11.49 -2.611,9.923 z"
   style="fill:#ffffff;fill-rule:nonzero" />
            <path
   id="path1-5"
   d="m 569.892,269.774 9.949,-13.868 1.846,-12.849 -0.701,-5.751 -5.824,-5.241 -3.685,2.91 -12.234,-5.062 0.107,6.055 8.452,5.164 0.522,11.49 -7.165,-9.175 -10.538,-3.7 6.735,-15.327 12.535,5.222 1.566,-4.178 2.09,-8.878 -4.001,-7.445 -8.998,-4.417 -12.669,-5.786 -8.802,1.458 -4.7,-5.745 h -7.312 l 9.923,-4.701 3.134,6.79 7.834,-2.612 24.546,10.968 4.169,6.18 3.833,7.563 -3.824,8.192 3.956,2.886 8.578,7.037 17.119,5.349 -1.451,-7.438 -6.172,-9.464 3.561,-23.439 -9.401,-16.712 15.385,12.353 20.129,6.448 -20.855,0.795 -1.915,11.322 -0.953,9.389 4.78,4.065 4.32,-2.069 -2.519,11.521 5.82,16.416 -9.315,-8.855 -18.072,-2.993 -3.79,12.209 -4.568,13.668 z"
   style="fill:#ffffff;fill-rule:nonzero" />
            <g
   id="g5"
   transform="translate(-7.5)">
                <path
   id="path2-4"
   d="m 558.89,272.366 -10.107,-16.185 -5.996,-3.561 -5.088,-20.366 v 23.502 l 5.744,4.7 6.79,10.968 -10.445,4.178 -10.968,-1.045 -6.299,-3.708 -8.847,-18.227 -23.501,-4.178 17.757,6.789 4.911,1.435 10.667,19.92 -0.955,7.37 1.044,8.427 -7.311,8.808 10.445,-5.745 0.434,-14.026 6.192,-1.014 10.496,0.46 8.799,-3.891 z"
   style="fill:#ffffff;fill-rule:nonzero" />
            </g>
            <path
   id="path3-7"
   d="m 566.757,309.549 -6.086,-1.983 -5.926,-12.641 1.222,15.252 -3.311,3.55 -13.057,-8.879 12.853,16.546 8.069,-7.769 z"
   style="fill:#ffffff;fill-rule:nonzero" />
            <path
   id="path3-7-6"
   d="m 113.045,286.185 2.819,-7.042 11.804,-4.971 -13.937,0.386 -3.192,-3.072 7.206,-12.459 -11.885,13.331 5.618,6.515 z"
   style="fill:#24b064;fill-rule:nonzero" />
            <path
   id="path4-4"
   d="m 556.247,353.876 -11.947,-0.979 -16.037,34.623 20,-25.714 14.42,0.423 z"
   style="fill:#ffffff;fill-rule:nonzero" />
            <path
   id="path5-4"
   d="m 580.244,276.018 7.833,10.118 3.09,7.325 -7.312,5.222 2.748,12.433 4.178,-9.923 6.79,-3.656 -2.802,-13.492 -4.819,-6.778 z"
   style="fill:#ffffff;fill-rule:nonzero" />
            <path
   id="path6-3"
   d="m 573.134,384.817 5.705,6.143 -10.915,2.178 -16.248,7.319 2.118,12.326 -3.319,3.492 -6.602,5.381 1.994,7.491 -8.357,5.745 c 0,0 -2.089,12.012 -1.044,9.923 1.044,-2.089 4.019,-8.535 4.019,-8.535 l 10.448,-2.958 0.028,-9.831 5.072,1.046 2.643,-20.648 15.889,-4.981 2.638,5.408 1.723,13.069 -8.693,2.485 -6.025,9.492 -0.274,11.736 3.752,3.807 -11.896,11.922 20.707,-8.94 -6.667,-10.906 4.915,-11.49 9.247,-3.655 -3.139,-16.871 6.941,7.433 9.443,-1.516 -3.351,11.652 6.696,11.959 4.301,9.278 -0.375,-15.547 -4.11,-3.838 3.279,-5.285 12.696,-7.188 -11.372,-0.148 -3.774,-7.686 -12.012,-0.522 -7.25,-7.189 1.328,-9.534 z"
   style="fill:#ffffff;fill-rule:nonzero" />
            <path
   id="path6-3-5"
   d="m 33.281,363.87 5.32,16.858 -7.973,5.61 -3.619,12.269 5.318,12.477 -1.569,3.443 -5.064,6.196 7.384,7.641 -6.276,7.003 c 0,0 4.197,11.447 4.057,9.115 -0.14,-2.331 1.842,-9.879 1.842,-9.879 l 5.293,-6.5 -5.311,-6.244 4.981,-4.722 -4.211,-17.53 3.863,-11.541 8.572,0.975 8.844,12.369 -4.074,7.129 -1.069,8.847 3.648,7.543 4.704,4.021 -4.341,16.273 9.809,-17.048 -6.223,-7.818 -1.273,-11.411 6.527,-8.127 -8.287,-11.369 5.521,-2.429 6.028,-1.765 5.363,7.943 10.777,7.978 7.745,8.193 -8.098,-13.277 -5.322,-3.701 -2.008,-4.696 9.45,-11.661 -12.095,7.202 -4.939,-6.414 -10.664,5.554 -11.065,2.77 -5.992,-23.798 z"
   style="fill:#24b064;fill-rule:nonzero" />
            <path
   id="path9-0"
   d="m 620.55,338.796 8.356,-12.535 15.146,-8.356 -12.022,11.752 -5.048,10.235 6.42,13.008 z"
   style="fill:#ffffff;fill-rule:nonzero" />
            <path
   id="path10-7"
   d="m 628.906,346.63 2.557,6.06 3.728,6.009 6.25,-0.855 19.324,-10.17 -9.591,10.414 -5.153,6.27 -15.025,0.551 -4.701,-8.356 -1.567,-8.357 z"
   style="fill:#ffffff;fill-rule:nonzero" />
            <path
   id="path33-1-0-5"
   d="m 616.499,399.221 6.947,14.255 13.551,6.325 4.81,2.735 8.685,6.31 -2.352,3.635 1.911,7.248 9.241,4.005 -6.192,-7.498 -0.085,-5.058 5.17,-1.847 9.639,6.121 -0.038,-11.291 -1.968,6.726 -6.928,-5.676 -4.651,0.145 -11.214,-10.323 -15.246,-7.886 -7.819,-8.908 -0.182,-8.792 z"
   style="fill:#ffffff;fill-rule:nonzero" />
            <path
   id="path65-8-3"
   d="m 625.409,359.274 -9.158,-12.413 0.261,-7.834 -4.327,11.116 -3.35,-4.97 -7.73,-2.49 -18.031,4.318 -1.815,10.827 10.586,-5.077 7.804,-5.262 7.826,3.014 5.687,7.232 3.089,-6.435 4.446,8.345 -9.29,6.166 -11.868,-9.288 11.609,14.738 7.064,-4.223 5.351,-3.465 z"
   style="fill:#ffffff;fill-rule:nonzero" />
            <path
   id="path66-5-9"
   d="m 578.733,216.663 -3.057,-1.885 -6.026,-0.431 1.296,-21.845 -6.226,24.511 11.188,4.736 9.675,-3.49 6.47,10.662 -1.115,28.12 6.997,-27.764 -7.591,-10.89 8.034,-4.706 z"
   style="fill:#ffffff;fill-rule:nonzero" />
            <path
   id="path69-2-7"
   d="m 609.955,266.802 -7.659,2.59 -0.513,4.038 6.431,-0.674 4.273,-2.74 z"
   style="fill-rule:nonzero" />
            <path
   id="path60-5-0"
   d="m 576.291,339.369 11.38,-7.102 5.812,-8.139 2.15,-15.974 8.618,1.828 -4.084,2.871 -2.259,6.487 4.776,-2.63 3.143,5.241 5.319,-3.719 -4.545,10.552 -4.751,-7.075 -2.145,1.241 0.095,3.876 -6.064,3.582 5.964,4.663 -5.339,-1.113 -4.912,2.426 -7.82,2.655 -1.115,4.476 z"
   style="fill:#ffffff;fill-rule:nonzero" />
        </g><path
     id="path4-4-3-5"
     d="m 131.482,316.097 12.73,1.436 -5.506,-2.439 -13.181,-2.578 -0.53,8.864 -5.739,16.281 2.433,20.659 -12.926,20.68 -5.205,0.034 -2.595,-6.886 -4.553,-14.198 -1.68,-7.016 -2.61,-2.823 -0.782,-7.262 -8.617,-6.087 -5.743,-7.653 -12.9,-22.707 -21.788,-15.141 -12.187,-9.601 7.386,16.618 7.017,6.278 -0.37,14.772 -7.386,5.539 -0.738,13.664 4.431,7.386 -1.846,12.925 7.017,7.017 11.235,10.333 1.359,14.135 -2.993,5.076 -3.864,14.078 -0.942,9.952 0.749,10.462 6.199,-14.147 4.136,-17.022 7.017,-5.908 -1.846,-23.266 -9.971,-4.801 -10.341,-8.863 1.108,-14.033 -3.693,-5.909 5.909,-12.556 11.817,-2.585 9.233,12.556 9.187,12.22 12.601,27.295 -0.369,11.448 5.909,1.846 9.232,7.017 13.664,-15.141 7.386,-15.141 0.044,-22.267 1.42,-9.938 z"
     style="fill:#24b064;fill-rule:nonzero" /><path
     id="path53-9"
     d="m 171.61,352.637 -11.786,0.365 -1.644,-4.784 1.188,-4.153 0.64,-6.553 1.566,6.267 -2.152,4.579 1.568,1.598 9.731,-1.04 -1.341,-6.151 -8.868,-7.99 -1.397,0.683 -2.11,6.623 -0.523,-7.442 3.917,-3.133 5.97,3.353 7.41,4.308 -1.865,8.173 1.446,4.286 z"
     style="fill:#24b064;fill-rule:nonzero" /><g
     id="g6"
     transform="translate(82.228,17.3057)">
            <path
   id="path54-6"
   d="m 64.897,352.017 -2.579,6.365 -4.563,5.687 -6.143,1.951 -0.588,-5.092 -1.175,-3.394 0.523,9.4 5.353,3.265 10.832,-9.123 1.089,-4.614 9.883,0.549 3.395,0.262 -4.021,6.722 10.002,1.956 -5.524,-3.717 1.957,-3.627 7.218,2.252 -5.78,-4.957 -7.557,-3.101 z"
   style="fill:#24b064;fill-rule:nonzero" />
            <path
   id="path2"
   d="m -30.362,395.026 -7.443,9.793 -3.056,8.328 -9.434,8.878 10.165,-3.11 1.542,10.842 1.044,-14.232 2.315,-7.336 5.519,-9.376 z"
   style="fill:#24b064;fill-rule:nonzero" />
            <path
   id="path3"
   d="m -31.326,404.651 1.064,15.223 2.353,3.939 -2.373,8.126 3.42,-2.485 0.759,9.405 7.931,1.456 -5.387,-4.612 -0.455,-10.684 -0.342,-2.848 7.653,-5.508 -8.383,1.136 -2.728,-17.23 z"
   style="fill:#24b064;fill-rule:nonzero" />
            <path
   id="path31-6-7"
   d="m -42.206,276.443 -7.016,5.17 -8.277,0.738 -7.814,12.666 -4.134,2.671 -6.344,4.804 -1.845,1.887 8.08,3.48 -3.671,9.945 -2.585,-8.494 -6.647,-2.585 -0.537,-3.424 7.453,-6.435 2.816,-3.495 3.361,-1.888 6.222,-7.475 -3.519,-3.129 -0.329,-4.849 1.564,-7.562 -4.319,-3.04 -2.741,-11.513 4.888,6.452 6.191,5.735 -0.549,5.387 -0.928,4.215 1.108,4.801 5.17,-2.585 10.919,-1.641 -3.089,-5.715 -11.893,-10.37 -8.493,-5.54 9.038,0.464 0.28,-8.279 2.675,-3.23 5.99,-1.529 -4.649,7.095 1.717,8.832 3.891,3.233 1.824,4.564 2.895,4.905 z"
   style="fill:#24b064;fill-opacity:0.95;fill-rule:nonzero" />
            <path
   id="path36-0-2"
   d="m -40.798,415.96 -2.562,5.321 -7.206,-2.659 -2.541,-5.678 3.906,-7.327 5.791,1.465 -6.789,-7.312 -3.93,6.777 -3.904,5.758 5.288,6.786 -7.919,6.33 -9.381,2.29 9.923,1.828 7.798,-3.519 2.036,-2.992 7.546,0.397 2.727,-1.72 1.567,-1.566 z"
   style="fill:#24b064;fill-rule:nonzero" />
            <path
   id="path41-4-0"
   d="m -29.426,246.819 -6.254,-3.548 5.175,-5.407 -7.911,-5.339 -4.269,-5.106 0.989,-3.924 -4.136,-3.652 2.651,-6.494 -1.045,5.223 7.312,4.439 -1.789,3.939 7.075,6.77 3.853,-8.881 8.897,-3.579 2.395,-7.615 6.988,-8.391 -3.55,9.334 -1.2,6.923 2.922,6.723 2.611,6.528 -5.329,-4.492 -6.078,-4.329 -3.651,0.979 -4.621,8.074 1.222,3.774 -3.744,3.439 5.227,4.306 z"
   style="fill:#24b064;fill-rule:nonzero" />
            <path
   id="path45-7-3"
   d="m 19.885,291.363 8.849,-4.277 5.316,1.241 3.654,-3.807 0.257,-6.159 -2.25,-1.568 1.87,-2.903 -1.939,-6.091 -1.389,-2.474 -6.05,-3.474 -3.403,-4.452 -5.358,-8.28 2.288,10.551 2.656,5.767 9.94,2.483 -1.456,7.14 -5.736,2.74 -2.818,-7.371 -6.702,1.408 3.744,2.935 4.656,6.222 5.379,-0.668 6.456,-2.133 -4.806,6.162 -3.94,1.322 -14.273,4.351 z"
   style="fill:#24b064;fill-rule:nonzero" />
            <path
   id="path59-8"
   d="m -25.29,375.441 -5.528,-8.362 -0.694,-4.497 -7.051,-12.012 -5.223,4.178 4.887,-0.066 5.297,7.639 0.053,6.803 -7.364,1.292 3.228,7.56 -5.088,7.96 -6.235,-4.552 6.147,10.104 8.604,-13.163 -1.686,-5.7 5.137,-0.215 5.458,5.853 z"
   style="fill:#24b064;fill-rule:nonzero" />
            <path
   id="path60-5"
   d="m -36.978,344.424 -12.814,6.146 -4.855,8.976 -1.673,16.093 -8.617,-1.828 7.19,-0.72 0.108,-10.311 -6.448,4.422 -2.188,-7.511 -3.885,4.197 4.545,-11.149 3.078,10.779 4.057,-2.197 -0.095,-3.16 2.837,-2.865 -3.454,-8.904 5.698,2.846 4.949,-4.594 5.392,-0.726 1.952,-3.64 z"
   style="fill:#24b064;fill-rule:nonzero" />
            <path
   id="path61-7"
   d="m -43.786,322.368 -2.255,0.612 -2.631,8.208 -10.86,-3.804 -0.913,7.58 -6.942,-1.64 -3.853,5.123 -1.35,6.281 -10.104,4.275 6.699,-5.375 1.688,-7.212 -5.56,-0.945 -4.133,10.66 1.381,-13.84 4.886,-6.006 -0.297,5.856 4.703,0.098 3.95,-3.343 6.592,1.751 0.198,-8.54 12.062,4.457 5.173,-7.591 z"
   style="fill:#24b064;fill-rule:nonzero" />
            <path
   id="path62-4"
   d="m -27.37,281.914 1.063,-13.817 5.006,-4.134 0.769,-4.394 -6.377,-5.824 -7.998,2.295 4.439,-7.573 2.35,-10.184 9.662,-2.089 -7.573,4.439 -1.024,8.988 5.216,5.525 5.731,-3.023 10.013,-2.975 1.738,-11.387 6.528,-3.395 -1.985,6.331 -2.389,4.677 4.042,2.244 -5.701,3.244 -0.933,2.541 -6.244,1.107 -3.985,0.792 2.311,9.094 -4.723,-6.533 -1.544,-0.778 2.025,8.018 -2.624,6.299 -1.878,15.434 z"
   style="fill:#24b064;fill-rule:nonzero" />
            <path
   id="path64-1"
   d="m 7.918,322.107 6.812,-9.529 0.239,-7.967 3.9,-3.806 -1.894,-7.825 -8.012,-1.687 1.045,-6.528 1.305,4.178 7.29,-0.306 2.921,6.222 10.68,-9.311 -4.178,8.356 10.967,4.178 -11.559,0.954 -3.256,-1.249 -2.28,5.051 -2.611,3.785 1.381,7.357 -10.921,15.479 z"
   style="fill:#24b064;fill-rule:nonzero" />
            <path
   id="path65-8"
   d="m 10.931,364.391 -12.174,6.291 -8.073,2.607 11.833,2.534 -4.134,2.873 -4.043,9.999 4.318,18.032 10.827,1.814 -8.422,-7.957 -0.483,-11.389 2.894,-7.227 6.157,-5.329 -2.373,-4.762 4.641,-5.402 5.808,11.68 -9.527,12.107 15.813,-10.056 -3.745,-6.467 -0.716,-7.262 z"
   style="fill:#24b064;fill-rule:nonzero" />
            <path
   id="path66-5"
   d="m 38.165,356.431 11.899,6.837 2.442,-4.732 3.722,-19.456 1.567,22.719 -5.812,8.679 -6.568,-4.685 -6.471,10.662 -1.513,25.969 -4.966,-27.046 7.114,-11.846 -5.286,-0.167 z"
   style="fill:#24b064;fill-rule:nonzero" />
            <path
   id="path67-9"
   d="m 47.266,335.013 2.83,-6.241 10.109,4.313 -5.335,-5.182 -6.821,-3.624 2.695,-8.44 2.35,6.006 6.267,-2.35 -4.377,3.373 4.116,2.633 4.099,5.976 3.696,-5.971 9.962,-6.333 -10.733,18.796 -12.584,-3.468 -8.903,11.914 0.885,-7.857 z"
   style="fill:#24b064;fill-rule:nonzero" />
            <path
   id="path69"
   d="m -34.513,291.745 1.371,4.416 3.737,2.389 5.218,-4.989 -1.549,-5.956 -5.962,-2.922 -2.759,2.348 z"
   style="fill-rule:nonzero" />
        </g><path
     id="path3-7-7-7"
     d="m 129.746,317.638 3.656,-8.356 10.967,-3.656 -13.579,3.134 -5.222,-5.223 8.878,-13.056 -11.885,13.331 3.228,9.382 z"
     style="fill:#24b064;fill-rule:nonzero" /><path
     id="path36-0-2-6-3"
     d="m 90.385,295.961 -2.561,5.32 -7.206,-2.658 -1.346,-8.068 1.755,-8.761 6.747,5.289 -6.789,-7.312 -3.931,6.776 -3.903,5.758 5.288,6.787 -6.486,7.644 -10.815,0.976 12.552,5.89 4.572,-8.179 3.351,-2.872 6.829,0.875 2.727,-1.72 1.566,-1.567 z"
     style="fill:#24b064;fill-rule:nonzero" /><path
     id="path69-2"
     d="m 184.765,369.639 3.462,4.433 2.864,-2.575 0.51,-5.256 -1.935,-3.303 -4.301,-1.275 -1.652,3.819 z m -4.512,-50.495 -4.071,-5.542 3.063,-6.472 4.24,-6.266 14.612,0.739 0.301,-9.301 13.664,1.108 9.232,-3.693 18.096,6.278 12.925,-7.386 -3.693,8.863 -10.71,9.233 -10.709,-3.693 H 207.63 l -7.687,3.761 -12.556,3.508 1.083,-2.4 -0.622,11.011 5.379,0.369 -12.186,9.232 2.571,18.436 15.791,-3.484 18.834,-2.585 8.973,2.485 15.031,4.162 -20.496,-1.939 -7.201,0.646 -9.048,1.385 -12.74,3.97 -5.217,5.876 10.489,-1.255 -3.323,15.142 5.476,21.558 -0.675,22.388 -2.303,3.825 -1.979,8.08 -6.174,12.336 1.592,-25.718 -4.003,-29.405 -6.706,-10.479 -5.17,-28.36 -14.034,2.509 11.449,-8.125 -4.782,-13.12"
     style="fill:#24b064;fill-rule:nonzero" /><g
     transform="matrix(0.156498,0,0,0.156498,1708.66,55.7715)"
     id="g2">
            <g
   id="g237">
                <g
   id="g236">
                    <g
   id="g1">
                        <g
   id="path8-9-8"
   transform="matrix(6.38985,0,0,6.38985,-11022.6,-669.563)">
                            <path
   d="m 868.301,391.357 -10.32,9.012 -5.438,-3.112 9.491,-5.9 6.267,-5.745 z"
   style="fill:#ecdc86;fill-rule:nonzero"
   id="path1" />
                        </g>
                        <path
   id="path216"
   d="m -5687.62,1535.11 22.79,-54.83 0.85,-35.72 -24.67,-19.56 11.91,-41.68 -4.25,-25.51 -27.22,-4.26 12.76,27.22 -4.25,39.97 11.05,23.82 17.86,9.35 -0.85,28.07 -21.26,32.32 z"
   style="fill:#ecdc86;fill-rule:nonzero" />
                        <path
   id="path214"
   d="m -5450.44,1615.46 -55.35,38.32 c 0,0 -16.16,-26.36 -19.56,-26.36 -3.4,0 -46.78,-8.51 -46.78,-8.51 l -2.55,-38.27 34.87,-22.96 -4.25,-22.12 -28.92,1.7 0.85,-45.92 -18.71,-13.61 c 0,0 2.55,-44.23 5.95,-43.38 3.41,0.85 -16.16,-22.11 -16.16,-22.11 l 8.94,-38.7 -40.83,-15.31 9.78,44.65 -2.55,34.02 6.81,34.02 5.1,27.22 15.31,11.91 4.25,39.12 13.61,8.51 -11.06,21.26 -2.55,28.92 -16.16,24.66 39.12,13.61 45.08,26.37 25.52,17.86 21,39.53 9.56,-17.81 -26.31,-34.48 -14.28,-10.14 59.79,-34.82 z"
   style="fill:#ecdc86;fill-rule:nonzero" />
                        <path
   id="path217"
   d="m -5423.29,1453.06 -22.96,-7.65 0.85,-38.28 13.61,-11.34 6.8,-12.76 -11.91,4.26 -32.32,17.01 4.26,16.44 4.25,32.32 13.61,16.16 27.21,15.31 z"
   style="fill:#ecdc86;fill-rule:nonzero" />
                        <path
   id="path218"
   d="m -5371.41,1394.38 -29.76,-17.01 -5.96,19.56 18.71,8.5 z"
   style="fill:#ecdc86;fill-rule:nonzero" />
                        <path
   id="path220"
   d="m -5332.51,2016.17 -27.66,25.4 -24.4,12.46 -34.46,-9.86 9.35,-19.56 3.4,-21.26 10.21,-5.96 z"
   style="fill:#ecdc86;fill-rule:nonzero" />
                        <path
   id="path221"
   d="m -5465.81,2017.8 0.85,-27.21 -24.67,-14.46 -20.41,-35.72 -14.46,-18.71 3.4,-33.17 7.66,-23.82 -10.21,-5.95 -17.86,17.01 -14.46,-5.11 0.85,-33.16 -30.62,-1.71 -0.85,-30.62 -15.31,-26.36 -26.79,-32.94 -19.13,34.64 39.97,25.52 6.8,30.61 3.41,25.52 20.41,-2.55 5.95,28.92 8.59,11.97 -0.06,71.52 z"
   style="fill:#ecdc86;fill-rule:nonzero" />
                        <path
   id="path213"
   d="m -5345.04,2014.4 -61.24,-10.21 -30.62,-61.23 -32.32,-78.25 -18.71,-88.45 6.81,-59.54 15.31,-42.52 15.31,-119.08 23.81,-37.42 6.8,-28.92 -10.2,-39.12 64.21,-72.29 -43.8,10.2 -110.99,38.7 -56.56,-42.52 -107.59,-30.2 -83.35,29.34 55.71,22.54 3.4,62.94 23.82,61.24 -3.41,42.52 -3.4,28.92 18.71,62.94 20.41,79.95 4.62,62.45 -33.53,-19.93 c 0,0 -15.31,59.54 -15.31,66.34 0,6.81 -30.62,56.14 -30.62,56.14 l -18.71,51.03 -66.34,34.02 -62.94,10.2 -8.51,13.61 58.88,-6.15 138.44,-14.26 54.44,-39.12 6.78,-35.62 23.83,11.8 39.13,-40.82 40.82,74.84 54.44,45.93 6.8,23.82 73.14,1.7 -25.31,16.78 -52.93,-4.81 -22.85,-31.87 -42.1,-36.69 -33.08,-63.75 -32.47,27.06 -5.57,9.41 -20.29,14.05 -29.71,37.98 -53.89,13.74 -77.8,30.44 -40.07,-16.01 -58.34,-3 -30.67,-12.63 21.05,-21.65 54.12,-12.03 45.71,-18.64 38.49,-21.66 10.22,-49.91 33.68,-45.11 15.04,-79.38 27.66,7.21 v -36.68 l -43.3,-140.73 13.23,-65.55 -19.84,-65.56 -3.01,-62.54 -70.13,-11.09 35.89,-24.96 64.28,-21.2 83.09,17.64 84.37,52.09 113.89,-38.18 56.45,-6.86 9.24,-0.52 -33.68,34.28 -41.49,41.5 9.02,36.08 -1.81,40.9 -30.67,34.28 -9.02,119.07 -21.05,41.5 -1.8,55.33 18.64,81.79 33.68,90.21 24.66,39.7 z"
   style="fill:#ecdc86;fill-rule:nonzero" />
                        <path
   id="path225"
   d="m -5918.09,1497.93 -23.79,-65.39 -10.82,-57.73 16.84,-40.9 v -25.26 l 7.21,-20.44 27.67,-26.46 7.21,-32.48 32.48,-16.84 30.07,-18.04 57.74,-39.69 108.25,-21.65 55.33,13.23 20.45,18.04 63.74,21.65 30.07,-2.41 16.84,1.21 61.35,-56.54 90.21,-10.82 25.26,10.82 69.76,15.64 28.87,38.49 54.12,64.95 9.63,44.51 13.23,74.57 -2.41,55.33 -8.42,34.88 -38.49,-36.08 -80.59,-38.49 -43.3,-9.63 -37.28,2.41 -133.52,34.88 -16.84,14.43 -34.88,6.02 -42.1,-36.08 -39.69,-18.05 -40.89,-10.82 -48.12,-1.21 -34.88,8.42 -69.76,33.68 -64.95,27.67 -38.49,52.92 -18.64,12.63 14.43,-26.46 37.29,-48.72 128.7,-63.74 51.72,-15.64 43.9,9.62 86.6,25.86 20.45,22.86 12.63,14.43 37.89,-10.22 18.64,-14.44 59.54,-17.44 53.52,-6.01 34.89,-11.43 33.07,-1.2 28.87,14.43 42.7,19.25 41.5,16.84 25.26,26.46 6.01,-15.64 1.2,-48.71 -23.45,-115.47 -71.57,-102.84 -72.17,-13.23 -18.14,-3.28 -76.44,10.23 -55.74,45.62 -39.72,1.55 -31.67,9.57 -66.76,-23.71 -21.4,-15.24 c -20.03,11.73 -32.33,-16.12 -49.77,-19.93 l -102.24,22.85 -56.53,36.09 -60.74,35.48 -0.6,27.66 -29.47,28.27 -10.22,18.64 6.61,22.86 -24.05,39.09 10.52,58.33 25.04,57.88 z"
   style="fill:#22ae63;fill-rule:nonzero" />
                        <path
   id="path226"
   d="m -5935.86,1429.54 15.63,-19.85 12.03,34.28 15.64,19.85 15.03,-25.86 -18.64,-10.83 v -30.07 l -0.6,-22.25 -1.21,-19.24 -14.43,-14.44 -13.83,-7.82 -12.63,22.86 15.03,5.41 12.63,10.82 -7.21,16.24 -15.64,5.42 -10.82,2.4 z"
   style="fill:#22ae63;fill-rule:nonzero" />
                        <path
   id="path227"
   d="m -5913.01,1344.14 20.45,-3.01 33.08,16.84 -4.21,34.88 -13.24,48.11 42.1,-30.67 -7.82,-16.23 -0.6,-21.05 17.44,-10.83 -3,-22.25 11.42,-10.83 10.83,-13.23 21.05,3.61 9.02,18.04 10.82,40.9 23.46,-11.43 -19.85,-54.73 -15.03,-14.43 -0.6,-28.27 3,-13.23 25.26,3.61 13.83,7.22 0.61,37.89 -6.02,16.24 2.41,30.67 6.01,14.43 33.08,-7.82 -12.03,-40.29 6.62,-24.06 3.6,-22.85 -19.84,-33.08 -36.69,-4.81 -44.5,1.8 -12.03,13.84 10.22,34.28 -22.85,7.81 -15.64,40.9 -42.09,-18.04 18.04,-37.29 -2.41,-18.04 -25.86,-2.41 7.82,19.25 -9.62,31.27 -29.47,-12.63 -4.21,37.89 z"
   style="fill:#22ae63;fill-rule:nonzero" />
                        <path
   id="path228"
   d="m -5872.72,1226.26 35.49,3.61 7.82,-10.22 -5.42,-18.65 34.88,-19.24 -1.8,35.48 11.43,26.46 -4.82,20.45 -32.47,-16.84 -20.45,10.23 -21.65,16.84 -23.45,-13.84 z"
   style="fill:#22ae63;fill-rule:nonzero" />
                        <path
   id="path229"
   d="m -5773.2,1163.32 21.97,25.66 2.4,24.65 -4.21,21.05 -11.42,14.44 35.48,4.21 0.6,-24.06 3.01,-22.85 12.03,0.6 12.02,4.81 1.81,-24.66 -13.83,-1.2 20.44,-12.63 13.24,-14.43 -11.43,-16.84 -39.69,10.22 13.23,14.43 -12.63,16.24 -14.44,-23.45 -3.61,-3.61 z"
   style="fill:#22ae63;fill-rule:nonzero" />
                        <path
   id="path230"
   d="m -5704.32,1187.17 22.25,7.22 h 24.05 l -6.61,-24.06 13.23,-27.06 41.5,10.22 -18.65,33.08 7.22,25.26 -21.05,9.62 -6.01,33.68 12.63,10.22 -12.03,19.25 6.01,41.5 -33.67,-10.23 11.42,-25.26 -11.42,-12.63 -28.87,7.82 -4.21,-20.45 h 34.28 l 4.21,-29.47 1.2,-20.44 -17.44,-6.02 -17.44,4.82 z"
   style="fill:#22ae63;fill-rule:nonzero" />
                        <path
   id="path231"
   d="m -5643.58,1306.25 28.87,-4.81 -7.82,-39.09 9.02,-31.28 -11.43,-18.04 -9.62,-28.26 32.48,14.43 3,21.05 60.74,6.61 21.65,-23.45 -3.6,-12.03 39.09,-5.41 -28.27,40.89 5.41,20.45 31.88,-10.22 39.69,-11.43 24.06,20.45 7.21,31.87 -14.43,0.61 -1.8,-14.44 -18.04,-10.82 -30.08,9.62 13.23,31.27 1.81,30.07 -32.48,8.42 3.61,-28.27 -13.83,-35.48 -22.25,5.42 -10.23,-29.47 -28.86,7.21 -9.02,15.04 c 0,0 -24.06,-4.81 -27.07,-7.22 -3,-2.4 -11.42,49.32 -11.42,49.32 l -29.47,22.85 -21.05,-11.43 0.9,-15.33 z"
   style="fill:#22ae63;fill-rule:nonzero" />
                        <path
   id="path232"
   d="m -5530.34,1417.46 28.69,-63.1 16.24,-24.66 34.28,-24.05 24.66,-26.46 18.64,-7.22 26.46,-1.2 24.66,-3.61 17.44,-49.32 -2.41,-18.04 28.87,-15.03 v -23.46 l 2.41,-28.26 23.25,4.94 -8.22,40.76 14.44,9.02 -7.82,19.85 -13.23,4.21 -5.42,54.73 -10.22,-2.41 -4.81,28.27 -21.65,-9.62 -22.86,18.04 -36.08,-6.02 -21.65,21.05 -22.85,0.6 -15.92,55.76 -16.09,10.67 -16.08,10.67 -8.01,31.5 z"
   style="fill:#22ae63;fill-rule:nonzero" />
                        <path
   id="path233"
   d="m -5360.92,1368.8 9.02,-22.86 21.65,-5.41 -1.2,-25.86 -3.01,-40.9 21.05,-13.23 13.23,9.62 3.61,35.49 -14.44,7.82 -1.8,20.44 21.65,5.42 19.25,-10.23 13.83,-25.86 10.82,27.07 -24.05,19.24 v 22.25 l -39.7,-22.85 -22.85,4.81 -16.84,19.25 z"
   style="fill:#22ae63;fill-rule:nonzero" />
                        <path
   id="path234"
   d="m -5261.69,1303.84 31.87,-25.25 16.24,-15.64 -1.2,-6.02 -16.84,-45.7 -10.22,-18.04 -48.72,12.02 8.42,-20.44 30.67,-0.61 4.82,-21.65 9.66,-16.38 16.2,23.6 4.21,13.83 v 23.46 l 12.02,34.88 14.44,17.44 30.67,9.02 18.04,58.34 1.81,57.73 -18.05,-37.89 -14.43,-27.66 -0.6,-27.06 -23.46,-7.82 -18.04,19.24 -33.68,16.84 -6.01,11.43 z"
   style="fill:#22ae63;fill-rule:nonzero" />
                        <path
   id="path235"
   d="m -5234.03,1313.47 -2.4,28.26 -10.22,16.24 -9.63,15.64 20.45,12.02 6.62,-27.66 12.02,-22.25 6.62,-18.04 -6.01,-28.87 z"
   style="fill:#22ae63;fill-rule:nonzero" />
                        <path
   id="path194"
   d="m -5081.38,1949.76 -22.11,76.55 17.01,27.22 -30.62,90.15 -57.84,90.15 -23.81,8.51 -27.22,22.11 -57.83,15.31 -45.93,18.71 -49.33,-5.1 -78.25,15.31 -39.12,-15.31 -45.93,18.71 h -35.72 l -3.4,-18.71 -85.05,6.8 -10.21,18.72 h -49.33 l -83.35,-18.72 -56.13,-27.21 -20.42,-22.12 -15.31,-32.31 -5.1,-18.72 -42.52,-35.72 -18.72,-45.93 -1.7,-28.91 -11.9,-35.72 5.1,-120.78 54.43,49.33 61.24,47.63 40.82,-10.2 32.32,25.51 28.92,-18.71 61.24,-10.21 45.92,-11.91 22.12,-34.02 18.71,-20.41 44.23,-49.33 8.5,49.33 13.61,28.92 30.62,8.5 34.02,34.03 10.2,17.01 52.74,13.6 49.33,-11.9 40.82,-35.73 40.83,-6.8 25.51,-47.63 35.72,27.22 47.63,17.01 44.23,-18.71 51.67,-26.16 -5.03,16.15 -13.32,3.39 -29.92,25.33 -27.22,15.31 -45.92,-3.4 -45.93,-27.22 -22.11,34.02 -47.63,6.81 -35.73,32.31 -56.13,20.42 -57.83,-8.51 -39.13,-23.81 v -20.41 l -20.41,-17.02 -28.92,-6.8 -20.41,-42.53 -34.02,22.12 -17.01,34.02 -42.53,22.11 -30.62,6.81 -47.62,8.5 -59.54,25.52 -11.91,-32.32 -42.52,17.01 -42.53,-32.32 -28.92,-32.32 -20.41,-17.01 -8.5,44.23 17.01,44.22 3.4,56.14 20.41,44.22 37.42,-1.7 10.21,34.02 8.51,47.63 22.11,23.82 56.13,13.6 54.44,20.42 35.72,-6.81 17.01,-22.11 h 47.63 l 28.91,-8.51 39.13,-1.7 v 28.92 l 51.03,-22.11 17.01,-11.91 28.92,11.91 13.6,15.31 71.45,-22.12 47.63,8.51 47.63,-22.12 52.73,-6.8 17.01,-28.92 27.21,-8.5 20.42,-22.12 32.31,-45.92 17.02,-54.44 1.7,-27.21 -18.72,-13.61 z"
   style="fill:#22ae63;fill-rule:nonzero" />
                        <path
   id="path195"
   d="m -5154.53,2051.82 1.71,74.85 -35.73,-3.4 8.51,57.83 -28.92,23.82 -28.92,-8.51 -8.5,52.73 -20.41,-5.1 -3.4,-49.33 1.7,-27.22 39.12,1.71 20.41,-3.41 -3.4,-57.83 45.93,-13.61 z"
   style="fill:#22ae63;fill-rule:nonzero" />
                        <path
   id="path196"
   d="m -5188.55,2102.86 -27.21,-42.53 -32.32,-11.91 -10.21,-30.62 -20.41,-11.9 -10.21,30.62 -18.71,8.5 -37.42,-11.91 -13.61,23.82 61.24,17.01 8.5,45.93 13.61,22.11 10.21,25.51 32.32,1.71 -25.52,-42.53 -10.2,-40.82 -10.21,-13.61 17.01,-27.22 25.52,40.83 h 18.71 l 5.1,32.31 z"
   style="fill:#22ae63;fill-rule:nonzero" />
                        <path
   id="path198"
   d="m -5282.1,2176 -25.52,-22.11 -10.2,-39.13 -10.21,-34.02 -27.22,-30.62 -28.91,10.21 30.61,28.92 13.61,47.63 17.01,34.02 20.42,20.41 32.32,15.31 6.8,-40.83 z"
   style="fill:#22ae63;fill-rule:nonzero" />
                        <path
   id="path199"
   d="m -5297.41,2191.31 -32.32,30.62 -20.41,-6.81 -27.22,27.22 13.61,18.71 3.4,15.31 -49.33,-5.1 -8.5,-34.02 13.6,-15.31 -13.6,-44.23 -6.81,-42.52 11.91,-69.75 13.61,6.81 -1.7,52.73 -10.21,11.91 8.5,45.92 13.61,34.02 20.41,-39.12 32.33,1.7 34.02,-5.1 z"
   style="fill:#22ae63;fill-rule:nonzero" />
                        <path
   id="path200"
   d="m -5414.78,2177.7 -28.92,-15.31 -20.41,15.31 -13.61,35.72 -10.21,15.31 -8.5,40.83 h -37.42 l 34.02,-98.66 1.7,-13.61 -8.51,-37.42 -37.42,-13.61 -13.61,-28.92 18.71,-8.51 8.51,32.32 35.72,15.31 17.01,40.83 20.41,-23.82 42.53,22.12 z"
   style="fill:#22ae63;fill-rule:nonzero" />
                        <path
   id="path201"
   d="m -5501.53,2017.8 -13.61,42.53 -23.82,28.92 -10.2,25.51 -25.52,13.61 -15.31,15.31 -23.81,6.8 -3.4,-32.32 20.41,1.71 5.1,-35.73 35.72,8.51 11.91,-51.03 11.91,-20.41 -35.73,-45.93 z"
   style="fill:#22ae63;fill-rule:nonzero" />
                        <path
   id="path202"
   d="m -5567.88,2266.15 8.51,-35.72 1.7,-39.12 -25.51,-40.83 -11.91,-10.2 -15.31,-27.22 -30.62,-10.2 -25.51,-23.82 h -20.42 l -11.9,-28.92 -27.22,-20.41 -28.92,13.61 25.52,27.21 39.12,37.43 30.62,6.8 28.92,30.62 20.41,13.61 22.11,27.21 1.7,47.63 -6.8,28.92 -6.8,17.01 25.51,8.51 z"
   style="fill:#22ae63;fill-rule:nonzero" />
                        <path
   id="path203"
   d="m -5627.41,2278.06 -18.71,-37.42 5.1,-23.82 13.61,-25.51 8.51,-17.01 5.1,-15.31 1.7,-11.91 -22.12,-22.11 -10.2,28.92 -13.61,22.11 -6.8,40.82 -18.71,23.82 -8.51,52.73 30.62,-3.4 -6.8,-37.42 20.41,8.5 z"
   style="fill:#22ae63;fill-rule:nonzero" />
                        <path
   id="path204"
   d="m -5720.97,2305.28 -15.31,-56.14 -27.21,-15.31 20.41,-32.32 18.71,-8.5 -30.62,-10.21 15.31,-8.5 27.22,-5.1 5.1,-35.73 10.21,-18.71 27.21,-10.2 -20.41,-22.12 -30.62,27.22 -10.2,35.72 -20.42,8.51 -22.11,1.7 -23.81,-47.63 -22.12,-22.11 18.72,-28.92 -20.42,-18.71 -10.2,30.61 -17.01,-3.4 -5.11,-18.71 -27.21,-6.8 -77.09,-73.28 24.35,61.37 61.24,44.23 11.91,27.21 -8.51,28.92 5.11,10.21 -34.02,20.41 -3.41,39.12 25.52,-6.8 28.92,-35.72 -1.7,-8.51 17.01,-17.01 -11.91,-28.92 15.31,6.81 25.51,49.33 -5.1,17.01 39.12,17.01 -15.3,20.41 -35.73,-34.02 -20.41,-20.41 -32.32,-8.51 -1.7,37.42 35.72,13.61 30.62,23.82 17.01,5.1 -1.7,25.52 -17.01,22.11 3.4,10.21 34.02,10.2 -1.7,-51.03 15.31,20.41 -1.7,35.73 z"
   style="fill:#22ae63;fill-rule:nonzero" />
                        <path
   id="path205"
   d="m -5492.57,2295.48 -38.73,-15.72 -22.97,-11.06 -38.27,-8.5 -26.36,-29.77 13.6,38.27 21.27,28.92 18.85,-1.53 27.94,17.05 z"
   style="fill:#386e35;fill-rule:nonzero" />
                        <path
   id="path206"
   d="m -5480.84,2300.87 6.01,50.52 -13.23,44.5 1.2,45.71 -16.84,43.3 -15.63,40.9 -25.26,30.07 -28.87,33.68 -30.07,9.62 -27.66,19.24 -27.67,16.84 -63.75,4.81 -58.93,-18.64 -49.32,-12.63 10.83,-25.26 25.25,-22.85 31.28,-27.67 10.82,9.63 38.49,-7.22 19.25,26.46 15.63,13.23 45.71,-6.01 34.88,-30.07 20.45,-21.65 27.66,-67.36 14.44,-51.72 -4.81,-48.11 -6.02,-38.49 12.03,-8.42 v 19.24 l 6.02,38.49 6.01,33.68 -8.42,45.71 -12.03,31.27 -19.24,39.69 -14.44,32.48 -24.05,28.87 -34.89,12.02 -52.32,3.01 -17.44,-9.02 -10.82,-21.65 -27.67,-1.2 -24.05,-0.6 -40.9,40.29 32.48,19.24 45.7,9.63 39.7,2.4 44.5,-15.63 38.49,-20.45 30.07,-13.23 40.9,-52.93 22.85,-64.95 8.42,-64.95 13.23,-49.31 -13.23,-51.72 z"
   style="fill:#3f2b29;fill-rule:nonzero" />
                        <path
   id="path207"
   d="m -5501.29,2424.76 -15.64,-46.91 -22.85,-56.53 6.01,93.82 10.83,8.42 2.41,66.15 z"
   style="fill:#3f2b29;fill-rule:nonzero" />
                        <path
   id="path208"
   d="m -5514.52,2490.91 -48.11,3.61 -13.23,25.26 39.69,16.84 z"
   style="fill:#3f2b29;fill-rule:nonzero" />
                        <path
   id="path209"
   d="m -5589.1,2583.53 -26.46,-8.42 -13.23,-9.62 -32.47,10.83 32.47,16.83 9.63,9.63 z"
   style="fill:#3f2b29;fill-rule:nonzero" />
                        <path
   id="path210"
   d="m -5667.28,2578.72 32.48,1.2 -15.04,22.26 -46.31,9.02 -16.83,18.04 -20.45,-3.61 3.61,-21.65 13.23,6.01 31.27,-13.23 21.05,-5.41 z"
   style="fill:#3f2b29;fill-rule:nonzero" />
                        <path
   id="path212"
   d="m -5717.8,2608.79 -24.05,-21.65 -18.04,-4.81 7.81,-34.28 -18.04,18.64 -11.42,-9.62 7.21,24.06 -12.63,7.21 -13.83,20.45 26.24,-17.29 16.76,5.19 -10.82,7.59 12.33,17.74 6.01,-19.24 z"
   style="fill:#3f2b29;fill-rule:nonzero" />
                        <path
   id="path215"
   d="m -5588.29,1574.69 -22.96,5.1 -5.95,22.11 -24.67,11.91 5.95,32.32 38.28,76.54 -24.67,28.92 -23.32,52.93 -16.65,-41.87 46.78,-46.78 -38.28,-61.24 -8.5,-52.73 -30.62,-10.2 -3.4,-28.92 27.21,20.41 16.16,-2.55 9.36,-35.72 0.85,-44.23 12.76,-21.26 9.78,-42.95 16.58,4.67 -11.05,55.29 -6.81,22.96 -5.1,43.38 39.97,-27.22 17.01,20.42 z"
   style="fill:#ecdc86;fill-rule:nonzero" />
                        <path
   id="path219"
   d="m -5432.64,1524.51 -31.47,-11.06 -16.16,-22.96 -49.33,-5.11 -23.82,4.25 5.96,28.07 2.55,20.41 -3.03,25.17 26.84,-14.96 -10.2,-23.81 -4.26,-22.12 39.13,-1.7 15.31,22.96 24.66,11.91 19.56,6.81 z"
   style="fill:#ecdc86;fill-rule:nonzero" />
                        <path
   id="path222"
   d="m -5624.01,1920 -17.86,-33.18 2.55,-44.22 v -26.37 l 14.46,-26.36 -27.22,-12.76 -5.1,49.33 v 62.94 l 30.62,54.43 5.78,-17.43 z"
   style="fill:#ecdc86;fill-rule:nonzero" />
                        <path
   id="path223"
   d="m -5675.04,1992.29 -18.71,-56.14 5.1,-36.57 -12.82,-47.76 -10.99,19.7 -22.11,39.12 17,22.96 -2.55,28.07 9.36,26.37 23.81,14.45 z"
   style="fill:#ecdc86;fill-rule:nonzero" />
                        <path
   id="path224"
   d="m -5714.16,2006.75 -38.28,-11.06 -5.1,-12.76 -19.56,-13.61 -22.97,13.61 30.62,9.36 v 17.01 l 15.31,0.85 2.55,11.91 z"
   style="fill:#ecdc86;fill-rule:nonzero" />
                    </g>
                </g>
            </g>
        </g></g>
    </g>
</svg>
