<?xml version="1.0" encoding="UTF-8" standalone="no"?>
<!-- Created with Inkscape (http://www.inkscape.org/) -->

<svg
   width="4.3994093cm"
   height="5.0800004cm"
   viewBox="0 0 43.994093 50.800004"
   version="1.1"
   id="svg1"
   sodipodi:docname="nfcore-references-logo-hex-light.svg"
   inkscape:version="1.4.2 (1:1.4.2+202505120738+ebf0e940d0)"
   inkscape:export-filename="nfcore-references-logo-hex-light.png"
   inkscape:export-xdpi="300"
   inkscape:export-ydpi="300"
   xmlns:inkscape="http://www.inkscape.org/namespaces/inkscape"
   xmlns:sodipodi="http://sodipodi.sourceforge.net/DTD/sodipodi-0.dtd"
   xmlns="http://www.w3.org/2000/svg"
   xmlns:svg="http://www.w3.org/2000/svg">
  <sodipodi:namedview
     id="namedview1"
     pagecolor="#505050"
     bordercolor="#ffffff"
     borderopacity="1"
     inkscape:showpageshadow="0"
     inkscape:pageopacity="0"
     inkscape:pagecheckerboard="1"
     inkscape:deskcolor="#d1d1d1"
     inkscape:document-units="mm"
     showguides="true"
     inkscape:zoom="1.6492946"
     inkscape:cx="-33.04443"
     inkscape:cy="146.7294"
     inkscape:current-layer="g10"
     showgrid="true"
     inkscape:window-width="1920"
     inkscape:window-height="1128"
     inkscape:window-x="0"
     inkscape:window-y="0"
     inkscape:window-maximized="1">
    <sodipodi:guide
       position="12.133177,29.02678"
       orientation="1,0"
       id="guide1"
       inkscape:locked="false" />
    <sodipodi:guide
       position="21.997045,38.893752"
       orientation="0,-1"
       id="guide2"
       inkscape:locked="false" />
    <sodipodi:guide
       position="30.427082,19.050003"
       orientation="0,-1"
       id="guide4"
       inkscape:locked="false" />
    <sodipodi:guide
       position="33.337499,16.40417"
       orientation="0,-1"
       id="guide5"
       inkscape:locked="false" />
    <sodipodi:guide
       position="20.815722,10.727297"
       orientation="0,-1"
       id="guide6"
       inkscape:locked="false" />
    <sodipodi:guide
       position="21.997047,29.02678"
       orientation="1,0"
       id="guide11"
       inkscape:locked="false" />
    <sodipodi:guide
       position="21.997047,29.02678"
       orientation="0,-1"
       id="guide12"
       inkscape:locked="false" />
    <inkscape:grid
       id="grid1"
       units="px"
       originx="0"
       originy="0"
       spacingx="0.26458332"
       spacingy="0.26458333"
       empcolor="#e50000"
       empopacity="0.30196078"
       color="#e50000"
       opacity="0.14901961"
       empspacing="5"
       dotted="true"
       gridanglex="30"
       gridanglez="30"
       visible="true" />
  </sodipodi:namedview>
  <defs
     id="defs1">
    <linearGradient
       id="f-22-3-1-7-8-1"
       x2="1"
       gradientTransform="matrix(37.935665,29.63859,-29.63859,37.935665,121.09789,274.19726)"
       gradientUnits="userSpaceOnUse">
      <stop
         id="stop12-6-8-2-3-6-1"
         offset="0"
         stop-color="#0c542a" />
      <stop
         id="stop14-1-5-0-3-8-5"
         offset=".215"
         stop-color="#0c542a" />
      <stop
         id="stop16-0-6-0-9-84-9"
         offset=".58"
         stop-color="#25af64" />
      <stop
         id="stop18-61-1-6-2-3-7"
         offset=".847"
         stop-color="#25af64" />
      <stop
         id="stop20-5-1-3-4-1-7"
         offset="1"
         stop-color="#25af64" />
    </linearGradient>
  </defs>
  <g
     inkscape:label="Layer 1"
     inkscape:groupmode="layer"
     id="layer1"
     transform="translate(-71.268573,-58.86979)">
    <g
       id="g10"
       transform="matrix(0.06595672,0,0,0.06595672,130.93371,79.44458)">
      <g
         id="g2-2-7-6-0-6"
         transform="matrix(0.26458333,0,0,0.26458333,-4127.8278,-320.80776)">
        <path
           class="st0"
           d="m 13442.739,2896.0016 -1218.5,-703.5 v -1407 l 1218.5,-703.500006 1218.5,703.500006 v 1407 z"
           id="path1-5-1-5-1-7-9-4-6-5"
           style="fill:#ffffff;fill-opacity:1;stroke:#000000" />
        <path
           class="st1"
           d="m 13442.739,2944.5016 -1260.5,-727.8 v -1455.4 l 1260.5,-727.800003 1260.5,727.800003 v 1455.5 z m -1176.5,-776.2 1176.5,679.3 1176.5,-679.3 v -1358.6 l -1176.5,-679.3 -1176.5,679.3 z"
           id="path2-9-6-2-8-0-2-8-89-6"
           style="fill:#24b064;fill-opacity:1;stroke:none" />
      </g>
      <g
         id="g469-8-7-2-3"
         transform="matrix(0.26458333,0,0,0.26458333,-6110.6309,-276.97227)">
        <g
           id="g24-3-2-66-9"
           transform="translate(20538.471,2032.0725)">
          <text
             xml:space="preserve"
             style="font-size:209.867px;line-height:1.15;font-family:Inter;-inkscape-font-specification:Inter;text-align:end;text-decoration-color:#000000;letter-spacing:0px;text-anchor:end;fill:#000000;fill-opacity:1;stroke:none;stroke-width:8.11843;stroke-dasharray:8.11843, 8.11843;paint-order:stroke markers fill"
             x="-126.774"
             y="132.04375"
             id="text14-0-4-8-3-49-4"><tspan
               sodipodi:role="line"
               id="tspan14-9-8-7-5-5-8"
               x="-126.774"
               y="132.04375"
               style="font-style:normal;font-variant:normal;font-weight:bold;font-stretch:normal;font-size:209.867px;font-family:'Maven Pro';-inkscape-font-specification:'Maven Pro Bold';text-align:start;text-anchor:start;fill:#000000;fill-opacity:1;stroke:none">references</tspan></text>
          <g
             id="g15-1-1-3-1-0-1"
             transform="translate(3.4958484e-6,-433.00129)">
            <g
               id="g18-7-0-1-7-4-2">
              <g
                 id="layer2-7-3-0-8-8-9"
                 style="display:inline"
                 transform="translate(-174.624,108)">
                <g
                   id="g4209-1-0-0-9-7-3">
                  <path
                     id="path24-1-4-5-4-1-9"
                     d="m 1084.1,163.75 v 3.6 c -0.1,0 -0.1,0 -0.2,0.1 l -1.8,-1.5 c -4,-3.4 -8.3,-6.4 -13.1,-8.8 -0.8,-0.4 -1.6,-0.9 -2.5,-1.1 -0.1,-0.1 -0.2,-0.2 -0.3,-0.2 -1.8,-0.7 -3.6,-1.3 -5.5,-1.8 -4.1,-0.9 -8.2,-1 -12.3,-0.2 -5.3,1.1 -10,3.4 -14.5,6.4 -4.4,3 -8.4,6.5 -12.1,10.2 -0.7,0.7 -0.7,0.7 -1.1,-0.2 -2,-4.1 -4.2,-8.1 -6.9,-11.8 -2.1,-2.8 -4.4,-5.4 -7.4,-7.2 -3,-1.9 -6.3,-2.6 -9.8,-1.7 -4.3,1 -7.8,3.6 -11.1,6.4 -2,1.5 -3.8,3.3 -5.6,5 -1.7,1.5 -3.3,3 -5,4.5 -0.3,0.3 -0.5,0.3 -0.8,0 -1.7,-1.8 -3.5,-3.4 -5.6,-4.5 -3.1,-1.7 -6.3,-1.9 -9.6,-0.8 -2.8,0.9 -5.2,2.4 -7.7,4 -1,0.6 -1.9,1.3 -2.9,1.8 v -0.2 c 0.1,-0.2 0.1,-0.4 0.1,-0.6 0.2,-4.4 0.5,-8.9 1.2,-13.3 1,-6.1 2.5,-12 5.2,-17.5 2,-4.1 4.7,-7.9 8.1,-11 4.5,-4.1 9.8,-6.7 15.6,-8.3 6.3,-1.8 12.7,-2.6 19.2,-2.9 2.6,-0.1 5.1,-0.2 7.7,-0.3 1.3,0.5 2.6,0.8 3.9,1.2 1.9,0.6 3.8,1.2 5.7,1.7 1,0.4 1.9,0.7 2.9,1.1 3.7,1.3 7.3,3 10.4,5.5 0.8,0.6 1.6,1.3 2.4,2 -0.2,-0.6 -0.4,-1.1 -0.6,-1.7 -1.4,-3.7 -3.5,-6.7 -6.9,-8.8 -1.4,-0.9 -2.9,-1.5 -4.4,-2.3 0.1,0 0.3,0 0.4,-0.1 4.5,-0.8 9.1,-1.2 13.7,-1.4 3.9,-0.2 7.9,-0.1 11.8,0.3 4.6,0.5 9.1,1.4 13.4,3 6.4,2.4 11.9,6.1 16.2,11.5 3.7,4.7 6.1,10.1 7.6,15.9 1.5,5.7 2.1,11.6 2.3,17.5 -0.1,2.1 -0.1,4.3 -0.1,6.5"
                     class="st0"
                     style="fill:#24af63" />
                  <path
                     id="path26-5-4-0-1-72-0"
                     d="m 1084.1,157.15 h 0.1 v 6.6 h -0.1 z"
                     class="st4"
                     style="fill:#ecdc86" />
                  <path
                     id="path28-9-4-3-6-7-8"
                     d="m 1047.6,62.25 v 0.1 h -4.5 v -0.1 z"
                     style="fill:#a0918f" />
                  <path
                     id="path30-7-4-1-4-2-8"
                     d="m 1050.5,250.65 c 2.5,-1 4.9,-2.3 7.3,-3.6 2.8,-1.7 5.4,-3.5 8,-5.4 2.2,-1.6 4.3,-3.3 6.4,-5.1 l 3.6,-3 c 0.2,-0.2 0.2,-0.1 0.3,0.1 0.4,1.6 0.7,3.3 1.1,5 0.5,2.3 0.8,4.6 1.1,6.9 0.3,2.7 0.4,5.3 0.2,8 -0.2,3.3 -0.8,6.6 -2,9.7 q -1.05,2.85 -2.7,5.4 c -1.4,2.2 -3,4.2 -5,5.9 -2.3,2.1 -4.9,3.9 -7.7,5.4 -3.7,2.1 -7.7,3.6 -11.8,4.8 -3.9,1.2 -7.9,2 -11.9,2.7 -1.1,0.2 -2.2,0.4 -3.3,0.4 -2.3,-0.1 -4.6,-0.6 -6.8,-1.4 -3.3,-1.3 -6.2,-3.3 -9.5,-4.8 -1.8,-0.8 -3.6,-1.4 -5.5,-1.5 -2.5,-0.2 -4.6,0.7 -6.4,2.4 l -3.9,3.9 c -2.2,2.2 -4.8,3.7 -7.9,4.2 -2.1,0.3 -4.1,0.2 -6.2,-0.1 -2.9,-0.4 -5.7,-1.1 -8.4,-1.9 -4,-1.3 -7.7,-3.1 -11.1,-5.7 -3.2,-2.4 -5.7,-5.4 -7.8,-8.8 -2.1,-3.5 -3.3,-7.2 -4.2,-11.1 -0.4,-1.7 -0.6,-3.5 -0.8,-5.2 -0.3,-2.5 -0.4,-4.9 -0.3,-7.4 0.1,-3.5 0.4,-6.9 0.9,-10.4 0.4,0.4 0.8,0.7 1.1,1 2.2,2 4.7,3.8 7.3,5.4 2.9,1.7 6.1,3.1 9.4,4 2.2,0.6 4.5,1 6.8,1.1 1.9,0.2 3.8,0.2 5.7,0.1 2.2,-0.1 4.5,-0.3 6.7,-0.9 0.3,0 0.6,0 0.8,-0.1 q 3,-0.6 6,-1.5 c 2.3,-0.7 4.5,-1.4 6.7,-2.2 2.1,-0.8 4.3,-1.7 6.4,-2.6 0.6,-0.3 1,-0.2 1.5,0.2 3.5,2.7 7.3,5 11.4,6.7 4.6,1.8 9.3,2.7 14.2,2.3 3.6,-0.7 7,-1.6 10.3,-2.9"
                     class="st0"
                     style="fill:#24af63" />
                  <path
                     id="path32-7-7-80-3-26-5"
                     d="m 1050.5,250.65 c -3.3,1.3 -6.7,2.2 -10.2,2.5 -4.9,0.4 -9.6,-0.5 -14.2,-2.3 -4.1,-1.6 -7.9,-3.9 -11.4,-6.7 -0.5,-0.4 -0.9,-0.5 -1.5,-0.2 -2.1,0.9 -4.2,1.8 -6.4,2.6 -2.2,0.8 -4.4,1.6 -6.7,2.2 -2,0.6 -4,1 -6,1.5 -0.3,0.1 -0.6,0.1 -0.8,0.1 l 2.1,-2.4 c 2.8,-3.2 4.8,-6.9 5.9,-11.1 1.6,-5.6 3.2,-11.3 4.6,-17 1,-4.2 1.8,-8.4 2.4,-12.7 0.4,-3.1 1,-14.9 0.8,-17.7 -0.5,-8.6 -2.4,-16.8 -5.9,-24.7 -2.1,-4.7 -5.7,-7.9 -10.7,-9.2 -2.2,-0.6 -4.4,-0.4 -6.5,0.3 -0.2,0.1 -0.3,0.2 -0.5,0.1 3.3,-2.8 6.7,-5.4 11.1,-6.4 3.5,-0.8 6.8,-0.2 9.8,1.7 3,1.9 5.3,4.4 7.4,7.2 2.7,3.7 4.9,7.7 6.9,11.8 0.4,0.9 0.4,0.9 1.1,0.2 3.7,-3.8 7.7,-7.3 12.1,-10.2 4.4,-3 9.2,-5.3 14.5,-6.4 4.1,-0.8 8.2,-0.7 12.3,0.2 1.9,0.4 3.7,1 5.5,1.8 0.1,0.1 0.3,0.1 0.3,0.2 -5.3,0.1 -9.8,2.1 -13.9,5.2 -2,1.5 -3.8,3.2 -5.2,5.3 -1.1,1.7 -2.1,3.6 -2.9,5.5 -1.8,3.8 -3.3,7.8 -4.4,11.9 -0.9,3.5 -1.5,7.1 -1.8,10.7 -0.2,2.8 -0.3,5.6 -0.2,8.4 0.1,3.4 0.5,6.8 0.9,10.3 0.7,5.7 1.7,11.4 2.7,17.1 0.5,3.1 0.9,6.3 1.5,9.5 0.7,4.6 3.3,8 7,10.6 0,-0.1 0.2,0 0.3,0.1"
                     class="st4"
                     style="fill:#ecdc86" />
                  <path
                     id="path34-6-6-17-5-1-0"
                     d="m 1043.1,62.35 h 4.5 c 3.6,0.2 7.2,0.8 10.6,2 2.7,0.9 3.3,2.7 1.7,5 -1.1,1.6 -2.7,2.8 -4.4,3.9 -2.1,1.4 -4.4,2.6 -6.9,3.5 -2.5,1 -4.9,0 -6.5,-2.5 -0.5,-0.8 -0.9,-1.6 -1.1,-2.5 -0.1,-0.3 -0.2,-0.4 -0.5,-0.4 -5.6,-1 -10.6,0.3 -14.7,4.3 -3.4,3.2 -5.4,7.3 -6.8,11.7 -1.3,4 -1.9,8 -2.1,12.2 -0.2,3.7 0.1,7.4 0.6,11 0.1,0.6 0.3,1.2 0.3,1.9 0.1,0.8 -0.2,1.5 -0.8,1.9 -0.7,0.5 -1.5,0.4 -2.3,0.4 -1.9,-0.6 -3.8,-1.2 -5.7,-1.7 v -1.3 c 0,-2 0,-3.9 0.1,-5.9 0.4,-7.7 1.6,-15.3 4.6,-22.5 2.2,-5.4 5.4,-10.1 9.9,-13.8 3.7,-3.1 7.9,-5.1 12.6,-6.2 2.4,-0.6 4.6,-0.9 6.9,-1"
                     style="fill:#3f2b29" />
                  <path
                     id="path36-7-31-9-4-0-9"
                     d="m 1014.8,114.65 c 0.8,0 1.6,0.1 2.3,-0.4 0.7,-0.5 0.9,-1.2 0.8,-1.9 -0.1,-0.6 -0.2,-1.3 -0.3,-1.9 0.4,0 0.7,-0.1 1.1,-0.1 1.4,0.8 2.9,1.5 4.4,2.3 3.4,2.1 5.5,5.1 6.9,8.8 0.2,0.6 0.4,1.1 0.6,1.7 -0.8,-0.7 -1.6,-1.4 -2.4,-2 -3.2,-2.4 -6.7,-4.1 -10.4,-5.5 -1.1,-0.3 -2,-0.6 -3,-1"
                     class="st7"
                     style="fill:#396e35" />
                  <path
                     id="path38-3-7-1-8-6-6"
                     d="m 1009.1,111.65 v 1.3 c -1.3,-0.4 -2.6,-0.7 -3.9,-1.2 1.4,-0.1 2.7,-0.1 3.9,-0.1"
                     class="st7"
                     style="fill:#396e35" />
                </g>
              </g>
              <text
                 id="text53-6-5-0-7-1-3"
                 x="-125.72501"
                 y="349.245"
                 font-size="209.87"
                 font-weight="bold"
                 style="font-weight:700;font-size:209.87px;font-family:'Maven Pro'"><tspan
                   id="tspan55-5-9-3-3-5-8"
                   x="-125.72501"
                   y="349.245"
                   class="st0 st1 st2"
                   font-size="209.87"
                   font-weight="bold"
                   style="font-weight:700;font-size:209.867px;font-family:'Maven Pro';fill:#24af63">nf-</tspan></text>
              <text
                 id="text69-63-6-5-3-9-5"
                 x="182.517"
                 y="349.245"
                 font-size="209.87"
                 font-weight="bold"
                 style="font-weight:700;font-size:209.87px;font-family:'Maven Pro';fill:#000000;fill-opacity:1"><tspan
                   id="tspan71-9-2-9-5-4-6"
                   x="182.517"
                   y="349.245"
                   class="st0 st1 st2"
                   font-size="209.87"
                   font-weight="bold"
                   style="font-weight:700;font-size:209.867px;font-family:'Maven Pro';fill:#000000;fill-opacity:1"><tspan
                     id="tspan73-4-1-4-0-9-1"
                     style="fill:#000000;fill-opacity:1">core/</tspan></tspan></text>
              <path
                 id="path67-8-7-8-1-0-1"
                 d="m 125.813,274.116 -21.532,21.616 h 61.092 v -21.617 z"
                 style="fill:url(#f-22-3-1-7-8-1)" />
            </g>
          </g>
        </g>
      </g>
      <g
         id="layer1-2"
         transform="matrix(14.138093,0,0,14.138093,-1360.4585,-534.0661)">
        <g
           id="g15">
          <path
             id="path130-5-6"
             d="m 45.984187,38.276654 3.59103,2.078859 h 3.852117"
             style="display:inline;fill:none;stroke:#01862e;stroke-width:1;stroke-linecap:butt;stroke-linejoin:miter;stroke-miterlimit:4;stroke-dasharray:none;stroke-dashoffset:0;stroke-opacity:1"
             inkscape:connector-curvature="0"
             sodipodi:nodetypes="ccc" />
          <circle
             cx="34.522415"
             cy="48.855366"
             fill="#ffffff"
             stroke="#000000"
             stroke-width="0.275966"
             id="circle130-0-7"
             r="0.60367471"
             transform="rotate(-14.999999)" />
          <path
             id="path131-3-5"
             d="m 48.61056,37.573149 7.192979,4.152863"
             style="display:inline;fill:none;stroke:#01862e;stroke-width:1;stroke-linecap:butt;stroke-linejoin:miter;stroke-miterlimit:4;stroke-dasharray:none;stroke-dashoffset:0;stroke-opacity:1"
             inkscape:connector-curvature="0"
             sodipodi:nodetypes="cc" />
          <circle
             cx="37.21925"
             cy="48.938759"
             fill="#ffffff"
             stroke="#000000"
             stroke-width="0.275966"
             id="circle131-6-3"
             r="0.60367471"
             transform="rotate(-14.999999)" />
          <path
             id="path134-0-5"
             d="m 51.507369,31.387998 4.296168,2.480395"
             style="display:inline;fill:none;stroke:#ffa140;stroke-width:1;stroke-linecap:butt;stroke-linejoin:miter;stroke-miterlimit:4;stroke-dasharray:none;stroke-dashoffset:0;stroke-opacity:1"
             inkscape:connector-curvature="0"
             sodipodi:nodetypes="cc" />
          <circle
             cx="41.640526"
             cy="43.630714"
             fill="#ffffff"
             stroke="#000000"
             stroke-width="0.275966"
             id="circle134-6-6"
             r="0.60367465"
             transform="rotate(-15)" />
          <path
             id="path140-3-2"
             d="m 63.259298,36.193115 -7.192979,4.152868"
             style="display:inline;fill:none;stroke:#01862e;stroke-width:1;stroke-linecap:butt;stroke-linejoin:miter;stroke-miterlimit:4;stroke-dasharray:none;stroke-dashoffset:0;stroke-opacity:1"
             inkscape:connector-curvature="0"
             sodipodi:nodetypes="cc" />
          <circle
             cx="70.484894"
             cy="18.545902"
             fill="#ffffff"
             stroke="#000000"
             stroke-width="0.275966"
             id="circle140-2-9"
             r="0.60367471"
             transform="rotate(15)" />
          <path
             id="path143-6-1"
             d="m 65.912542,36.781419 -3.591031,2.07886 -3.733857,-10e-7"
             style="display:inline;fill:none;stroke:#01862e;stroke-width:1;stroke-linecap:butt;stroke-linejoin:miter;stroke-miterlimit:4;stroke-dasharray:none;stroke-dashoffset:0;stroke-opacity:1"
             inkscape:connector-curvature="0"
             sodipodi:nodetypes="ccc" />
          <circle
             cx="73.200218"
             cy="18.545919"
             fill="#ffffff"
             stroke="#000000"
             stroke-width="0.275966"
             id="circle143-1-2"
             r="0.60367465"
             transform="rotate(15)" />
          <path
             id="path145-4-7"
             d="M 60.107427,33.909855 56.07033,36.337236"
             style="display:inline;fill:none;stroke:#800080;stroke-width:1;stroke-linecap:butt;stroke-linejoin:miter;stroke-miterlimit:4;stroke-dasharray:none;stroke-dashoffset:0;stroke-opacity:1"
             inkscape:connector-curvature="0"
             sodipodi:nodetypes="cc" />
          <path
             id="path146-7-0"
             d="m 60.115628,33.422318 -4.006489,2.313147"
             style="display:inline;fill:none;stroke:#01862e;stroke-width:1;stroke-linecap:butt;stroke-linejoin:miter;stroke-miterlimit:4;stroke-dasharray:none;stroke-dashoffset:0;stroke-opacity:1"
             inkscape:connector-curvature="0"
             sodipodi:nodetypes="cc" />
          <path
             id="path158-6-9"
             d="m 51.507369,35.31681 4.296168,2.480398"
             style="display:inline;fill:none;stroke:#002b6b;stroke-width:1;stroke-linecap:butt;stroke-linejoin:miter;stroke-miterlimit:4;stroke-dasharray:none;stroke-dashoffset:0;stroke-opacity:1"
             inkscape:connector-curvature="0"
             sodipodi:nodetypes="cc" />
          <circle
             cx="40.60133"
             cy="-47.509052"
             fill="#ffffff"
             stroke="#000000"
             stroke-width="0.275966"
             id="circle158-9-3"
             r="0.60367465"
             transform="matrix(0.96592583,-0.25881904,-0.25881904,-0.96592583,0,0)" />
          <path
             style="display:inline;fill:none;stroke:#800080;stroke-width:0.525641;stroke-linecap:butt;stroke-linejoin:miter;stroke-miterlimit:4;stroke-dasharray:none;stroke-dashoffset:0;stroke-opacity:1"
             d="m 58.163129,44.444132 h 2.881021 l 2.164727,2.1637 6.71e-4,2.365236"
             id="path180-4-6"
             sodipodi:nodetypes="cccc" />
          <g
             id="g6"
             transform="matrix(0.19354532,-0.11174344,0.11174344,0.19354532,22.793498,30.672282)">
            <path
               id="path5"
               d="m 137.35045,96.027041 -21.0747,0.374186"
               style="display:inline;fill:none;stroke:#800080;stroke-width:2.35168;stroke-linecap:butt;stroke-linejoin:miter;stroke-miterlimit:4;stroke-dasharray:none;stroke-dashoffset:0;stroke-opacity:1"
               inkscape:connector-curvature="0"
               sodipodi:nodetypes="cc" />
            <path
               id="path6"
               d="M 138.47298,94.156153 H 117.77246"
               style="display:inline;fill:none;stroke:#01862e;stroke-width:2.35168;stroke-linecap:butt;stroke-linejoin:miter;stroke-miterlimit:4;stroke-dasharray:none;stroke-dashoffset:0;stroke-opacity:1"
               inkscape:connector-curvature="0"
               sodipodi:nodetypes="cc" />
          </g>
          <circle
             cx="-66.974213"
             cy="-16.825649"
             fill="#ffffff"
             stroke="#000000"
             stroke-width="0.275966"
             id="circle146-6-0"
             r="0.60367465"
             transform="rotate(-165)" />
          <path
             style="display:inline;fill:none;stroke:#800080;stroke-width:1;stroke-linecap:butt;stroke-linejoin:miter;stroke-miterlimit:4;stroke-dasharray:none;stroke-dashoffset:0;stroke-opacity:1"
             d="m 58.163129,44.444132 h 2.881021 l 2.164727,2.1637 6.71e-4,2.365236"
             id="path7"
             sodipodi:nodetypes="cccc" />
          <path
             style="display:inline;fill:none;stroke:#800080;stroke-width:1;stroke-linecap:butt;stroke-linejoin:miter;stroke-miterlimit:4;stroke-dasharray:none;stroke-dashoffset:0;stroke-opacity:1"
             d="m 56.246793,42.530774 4.077021,4.077021 v 2.365235"
             id="path14"
             sodipodi:nodetypes="ccc" />
          <path
             style="display:inline;fill:none;stroke:#ffa140;stroke-width:1;stroke-linecap:butt;stroke-linejoin:miter;stroke-miterlimit:4;stroke-dasharray:none;stroke-dashoffset:0;stroke-opacity:1"
             d="m 55.728418,42.530774 -4.077021,4.077021 v 2.365237"
             id="path8"
             sodipodi:nodetypes="ccc" />
          <path
             style="display:inline;fill:none;stroke:#ffa140;stroke-width:0.6;stroke-linecap:butt;stroke-linejoin:miter;stroke-miterlimit:4;stroke-dasharray:none;stroke-dashoffset:0;stroke-opacity:1"
             d="m 55.199251,30.178446 v 12.881495 l -3.547854,3.547854 v 2.365237"
             id="path163-3-6"
             sodipodi:nodetypes="cccc" />
          <path
             style="display:inline;fill:none;stroke:#800080;stroke-width:0.6;stroke-linecap:butt;stroke-linejoin:miter;stroke-miterlimit:4;stroke-dasharray:none;stroke-dashoffset:0;stroke-opacity:1"
             d="m 56.77596,30.178446 v 12.881495 l 3.547854,3.547854 v 2.365235"
             id="path166-5-2"
             sodipodi:nodetypes="cccc" />
          <path
             style="display:inline;fill:none;stroke:#002b6b;stroke-width:1;stroke-linecap:butt;stroke-linejoin:miter;stroke-miterlimit:4;stroke-dasharray:none;stroke-dashoffset:0;stroke-opacity:1"
             d="m 55.720776,43.416727 1.711787,1.711561 v 4.046542"
             id="path11"
             sodipodi:nodetypes="ccc" />
          <path
             style="display:inline;fill:none;stroke:#01862e;stroke-width:0.6;stroke-linecap:butt;stroke-linejoin:miter;stroke-miterlimit:4;stroke-dasharray:none;stroke-dashoffset:0;stroke-opacity:1"
             d="m 55.724821,30.178446 4.48e-4,13.599003 -1.182619,1.182394 v 4.214984"
             id="path165-4-6"
             sodipodi:nodetypes="cccc" />
          <path
             style="display:inline;fill:none;stroke:#01862e;stroke-width:1;stroke-linecap:butt;stroke-linejoin:miter;stroke-miterlimit:4;stroke-dasharray:none;stroke-dashoffset:0;stroke-opacity:1"
             d="m 56.254436,43.416727 -1.711786,1.711561 v 4.046539"
             id="path12"
             sodipodi:nodetypes="ccc" />
          <path
             style="display:inline;fill:none;stroke:#002b6b;stroke-width:0.6;stroke-linecap:butt;stroke-linejoin:miter;stroke-miterlimit:4;stroke-dasharray:none;stroke-dashoffset:0;stroke-opacity:1"
             d="m 56.349609,30.178446 -4.47e-4,13.599003 1.18262,1.182394 v 4.214987"
             id="path164-7-1"
             sodipodi:nodetypes="cccc" />
          <path
             id="path169-2-8"
             d="M 60.977473,49.210022 V 48.68456 h 2.23e-4 l -0.657068,-0.680428 -0.65681,0.680428 v 0.525462 z"
             style="color:#000000;font-style:normal;font-variant:normal;font-weight:normal;font-stretch:normal;font-size:medium;line-height:normal;font-family:sans-serif;font-variant-ligatures:normal;font-variant-position:normal;font-variant-caps:normal;font-variant-numeric:normal;font-variant-alternates:normal;font-feature-settings:normal;text-indent:0;text-align:start;text-decoration:none;text-decoration-line:none;text-decoration-style:solid;text-decoration-color:#000000;letter-spacing:normal;word-spacing:normal;text-transform:none;writing-mode:lr-tb;direction:ltr;text-orientation:mixed;dominant-baseline:auto;baseline-shift:baseline;text-anchor:start;white-space:normal;shape-padding:0;clip-rule:nonzero;display:inline;overflow:visible;visibility:visible;isolation:auto;mix-blend-mode:normal;color-interpolation:sRGB;color-interpolation-filters:linearRGB;solid-color:#000000;solid-opacity:1;vector-effect:none;fill:#000000;fill-opacity:1;fill-rule:nonzero;stroke:none;stroke-width:0.525462;stroke-linecap:butt;stroke-linejoin:miter;stroke-miterlimit:4;stroke-dasharray:none;stroke-dashoffset:0;stroke-opacity:1;color-rendering:auto;image-rendering:auto;shape-rendering:auto;text-rendering:auto;enable-background:accumulate"
             inkscape:connector-curvature="0"
             sodipodi:nodetypes="ccccccc" />
          <path
             id="path175-4-7"
             d="M 58.08868,49.210022 V 48.68456 h 2.24e-4 l -0.65707,-0.680428 -0.65681,0.680428 v 0.525462 z"
             style="color:#000000;font-style:normal;font-variant:normal;font-weight:normal;font-stretch:normal;font-size:medium;line-height:normal;font-family:sans-serif;font-variant-ligatures:normal;font-variant-position:normal;font-variant-caps:normal;font-variant-numeric:normal;font-variant-alternates:normal;font-feature-settings:normal;text-indent:0;text-align:start;text-decoration:none;text-decoration-line:none;text-decoration-style:solid;text-decoration-color:#000000;letter-spacing:normal;word-spacing:normal;text-transform:none;writing-mode:lr-tb;direction:ltr;text-orientation:mixed;dominant-baseline:auto;baseline-shift:baseline;text-anchor:start;white-space:normal;shape-padding:0;clip-rule:nonzero;display:inline;overflow:visible;visibility:visible;isolation:auto;mix-blend-mode:normal;color-interpolation:sRGB;color-interpolation-filters:linearRGB;solid-color:#000000;solid-opacity:1;vector-effect:none;fill:#000000;fill-opacity:1;fill-rule:nonzero;stroke:none;stroke-width:0.525462;stroke-linecap:butt;stroke-linejoin:miter;stroke-miterlimit:4;stroke-dasharray:none;stroke-dashoffset:0;stroke-opacity:1;color-rendering:auto;image-rendering:auto;shape-rendering:auto;text-rendering:auto;enable-background:accumulate"
             inkscape:connector-curvature="0"
             sodipodi:nodetypes="ccccccc" />
          <path
             id="path178-7-9"
             d="M 55.199886,49.210022 V 48.68456 h 2.24e-4 L 54.543042,48.004132 53.88623,48.68456 v 0.525462 z"
             style="color:#000000;font-style:normal;font-variant:normal;font-weight:normal;font-stretch:normal;font-size:medium;line-height:normal;font-family:sans-serif;font-variant-ligatures:normal;font-variant-position:normal;font-variant-caps:normal;font-variant-numeric:normal;font-variant-alternates:normal;font-feature-settings:normal;text-indent:0;text-align:start;text-decoration:none;text-decoration-line:none;text-decoration-style:solid;text-decoration-color:#000000;letter-spacing:normal;word-spacing:normal;text-transform:none;writing-mode:lr-tb;direction:ltr;text-orientation:mixed;dominant-baseline:auto;baseline-shift:baseline;text-anchor:start;white-space:normal;shape-padding:0;clip-rule:nonzero;display:inline;overflow:visible;visibility:visible;isolation:auto;mix-blend-mode:normal;color-interpolation:sRGB;color-interpolation-filters:linearRGB;solid-color:#000000;solid-opacity:1;vector-effect:none;fill:#000000;fill-opacity:1;fill-rule:nonzero;stroke:none;stroke-width:0.525462;stroke-linecap:butt;stroke-linejoin:miter;stroke-miterlimit:4;stroke-dasharray:none;stroke-dashoffset:0;stroke-opacity:1;color-rendering:auto;image-rendering:auto;shape-rendering:auto;text-rendering:auto;enable-background:accumulate"
             inkscape:connector-curvature="0"
             sodipodi:nodetypes="ccccccc" />
          <path
             id="path183-3-2"
             d="M 63.866265,49.210022 V 48.68456 h 2.23e-4 l -0.65707,-0.680428 -0.65681,0.680428 v 0.525462 z"
             style="color:#000000;font-style:normal;font-variant:normal;font-weight:normal;font-stretch:normal;font-size:medium;line-height:normal;font-family:sans-serif;font-variant-ligatures:normal;font-variant-position:normal;font-variant-caps:normal;font-variant-numeric:normal;font-variant-alternates:normal;font-feature-settings:normal;text-indent:0;text-align:start;text-decoration:none;text-decoration-line:none;text-decoration-style:solid;text-decoration-color:#000000;letter-spacing:normal;word-spacing:normal;text-transform:none;writing-mode:lr-tb;direction:ltr;text-orientation:mixed;dominant-baseline:auto;baseline-shift:baseline;text-anchor:start;white-space:normal;shape-padding:0;clip-rule:nonzero;display:inline;overflow:visible;visibility:visible;isolation:auto;mix-blend-mode:normal;color-interpolation:sRGB;color-interpolation-filters:linearRGB;solid-color:#000000;solid-opacity:1;vector-effect:none;fill:#000000;fill-opacity:1;fill-rule:nonzero;stroke:none;stroke-width:0.525462;stroke-linecap:butt;stroke-linejoin:miter;stroke-miterlimit:4;stroke-dasharray:none;stroke-dashoffset:0;stroke-opacity:1;color-rendering:auto;image-rendering:auto;shape-rendering:auto;text-rendering:auto;enable-background:accumulate"
             inkscape:connector-curvature="0"
             sodipodi:nodetypes="ccccccc" />
          <path
             id="path172-5-0"
             d="M 52.311044,49.210022 V 48.68456 h 2.23e-4 l -0.657068,-0.680428 -0.656812,0.680428 v 0.525462 z"
             style="color:#000000;font-style:normal;font-variant:normal;font-weight:normal;font-stretch:normal;font-size:medium;line-height:normal;font-family:sans-serif;font-variant-ligatures:normal;font-variant-position:normal;font-variant-caps:normal;font-variant-numeric:normal;font-variant-alternates:normal;font-feature-settings:normal;text-indent:0;text-align:start;text-decoration:none;text-decoration-line:none;text-decoration-style:solid;text-decoration-color:#000000;letter-spacing:normal;word-spacing:normal;text-transform:none;writing-mode:lr-tb;direction:ltr;text-orientation:mixed;dominant-baseline:auto;baseline-shift:baseline;text-anchor:start;white-space:normal;shape-padding:0;clip-rule:nonzero;display:inline;overflow:visible;visibility:visible;isolation:auto;mix-blend-mode:normal;color-interpolation:sRGB;color-interpolation-filters:linearRGB;solid-color:#000000;solid-opacity:1;vector-effect:none;fill:#000000;fill-opacity:1;fill-rule:nonzero;stroke:none;stroke-width:0.525462;stroke-linecap:butt;stroke-linejoin:miter;stroke-miterlimit:4;stroke-dasharray:none;stroke-dashoffset:0;stroke-opacity:1;color-rendering:auto;image-rendering:auto;shape-rendering:auto;text-rendering:auto;enable-background:accumulate"
             inkscape:connector-curvature="0"
             sodipodi:nodetypes="ccccccc" />
          <path
             style="display:inline;fill:none;stroke:#002b6b;stroke-width:0.5;stroke-linecap:butt;stroke-linejoin:miter;stroke-miterlimit:4;stroke-dasharray:none;stroke-dashoffset:0;stroke-opacity:1"
             d="m 56.237339,30.178446 -4.47e-4,14.212919"
             id="path15"
             sodipodi:nodetypes="cc" />
          <path
             id="path179-4-2"
             d="m 57.204658,30.69895 v -0.527629 h 4.48e-4 l -1.217741,-1.261032 -1.217262,1.261032 v 0.527629 z"
             style="color:#000000;font-style:normal;font-variant:normal;font-weight:normal;font-stretch:normal;font-size:medium;line-height:normal;font-family:sans-serif;font-variant-ligatures:normal;font-variant-position:normal;font-variant-caps:normal;font-variant-numeric:normal;font-variant-alternates:normal;font-feature-settings:normal;text-indent:0;text-align:start;text-decoration:none;text-decoration-line:none;text-decoration-style:solid;text-decoration-color:#000000;letter-spacing:normal;word-spacing:normal;text-transform:none;writing-mode:lr-tb;direction:ltr;text-orientation:mixed;dominant-baseline:auto;baseline-shift:baseline;text-anchor:start;white-space:normal;shape-padding:0;clip-rule:nonzero;display:inline;overflow:visible;visibility:visible;isolation:auto;mix-blend-mode:normal;color-interpolation:sRGB;color-interpolation-filters:linearRGB;solid-color:#000000;solid-opacity:1;vector-effect:none;fill:#000000;fill-opacity:1;fill-rule:nonzero;stroke:none;stroke-width:0.973835;stroke-linecap:butt;stroke-linejoin:miter;stroke-miterlimit:4;stroke-dasharray:none;stroke-dashoffset:0;stroke-opacity:1;color-rendering:auto;image-rendering:auto;shape-rendering:auto;text-rendering:auto;enable-background:accumulate"
             inkscape:connector-curvature="0"
             sodipodi:nodetypes="ccccccc" />
        </g>
      </g>
    </g>
  </g>
</svg>
