<?xml version="1.0" encoding="UTF-8" standalone="no"?>
<svg
   xml:space="preserve"
   id="svg2"
   width="1456.784"
   height="522.443"
   version="1.1"
   sodipodi:docname="nf-core-references_logo_light.svg"
   inkscape:version="1.4.2 (1:1.4.2+202505120738+ebf0e940d0)"
   inkscape:export-filename="nf-core-references_logo_light.png"
   inkscape:export-xdpi="96"
   inkscape:export-ydpi="96"
   xmlns:inkscape="http://www.inkscape.org/namespaces/inkscape"
   xmlns:sodipodi="http://sodipodi.sourceforge.net/DTD/sodipodi-0.dtd"
   xmlns="http://www.w3.org/2000/svg"
   xmlns:svg="http://www.w3.org/2000/svg"><sodipodi:namedview
     id="namedview1"
     pagecolor="#ffffff"
     bordercolor="#000000"
     borderopacity="0.25"
     inkscape:showpageshadow="2"
     inkscape:pageopacity="0.0"
     inkscape:pagecheckerboard="0"
     inkscape:deskcolor="#d1d1d1"
     inkscape:zoom="0.62294751"
     inkscape:cx="713.54326"
     inkscape:cy="515.29221"
     inkscape:window-width="1920"
     inkscape:window-height="1128"
     inkscape:window-x="0"
     inkscape:window-y="0"
     inkscape:window-maximized="1"
     inkscape:current-layer="svg2" /><defs
     id="defs6"><linearGradient
       id="f"
       x2="1"
       gradientTransform="matrix(37.935665,29.63859,-29.63859,37.935665,301.09789,166.19726)"
       gradientUnits="userSpaceOnUse"><stop
         id="stop12"
         offset="0"
         stop-color="#0c542a" /><stop
         id="stop14"
         offset=".215"
         stop-color="#0c542a" /><stop
         id="stop16"
         offset=".58"
         stop-color="#25af64" /><stop
         id="stop18"
         offset=".847"
         stop-color="#25af64" /><stop
         id="stop20"
         offset="1"
         stop-color="#25af64" /></linearGradient><clipPath
       id="e"><path
         id="path9"
         d="m280.17 136.33-21.5-21.584h61v21.584z" /></clipPath><clipPath
       clipPathUnits="userSpaceOnUse"
       id="clipPath202"><path
         d="M 0,600 H 1500 V 0 H 0 Z"
         id="path204"
         inkscape:connector-curvature="0" /></clipPath><clipPath
       clipPathUnits="userSpaceOnUse"
       id="clipPath158"><path
         d="M 0,600 H 1500 V 0 H 0 Z"
         id="path160"
         inkscape:connector-curvature="0" /></clipPath><clipPath
       clipPathUnits="userSpaceOnUse"
       id="clipPath86"><path
         d="M 0,600 H 1500 V 0 H 0 Z"
         id="path88"
         inkscape:connector-curvature="0" /></clipPath><clipPath
       clipPathUnits="userSpaceOnUse"
       id="clipPath94"><path
         d="M 804.509,211 H 968.795 V 114.019 H 804.509 Z"
         id="path96"
         inkscape:connector-curvature="0" /></clipPath><clipPath
       clipPathUnits="userSpaceOnUse"
       id="clipPath110"><path
         d="M 804.597,506 H 968.883 V 409.019 H 804.597 Z"
         id="path112"
         inkscape:connector-curvature="0" /></clipPath><clipPath
       clipPathUnits="userSpaceOnUse"
       id="clipPath126"><path
         d="M 133.598,209 H 297.883 V 112.019 H 133.598 Z"
         id="path128"
         inkscape:connector-curvature="0" /></clipPath><clipPath
       clipPathUnits="userSpaceOnUse"
       id="clipPath142"><path
         d="M 133.686,504 H 297.972 V 407.019 H 133.686 Z"
         id="path144"
         inkscape:connector-curvature="0" /></clipPath><clipPath
       clipPathUnits="userSpaceOnUse"
       id="clipPath54"><path
         d="M 0,600 H 1500 V 0 H 0 Z"
         id="path56"
         inkscape:connector-curvature="0" /></clipPath><clipPath
       clipPathUnits="userSpaceOnUse"
       id="clipPath30"><path
         d="M 0,600 H 1500 V 0 H 0 Z"
         id="path32-36"
         inkscape:connector-curvature="0" /></clipPath><linearGradient
       id="a-3"
       x2="1"
       gradientTransform="matrix(47.34875,36.9925,-36.9925,47.34875,344.325,162.1875)"
       gradientUnits="userSpaceOnUse"><stop
         stop-color="#0c542a"
         offset="0"
         id="stop15-61" /><stop
         stop-color="#0c542a"
         offset=".21472"
         id="stop17-29" /><stop
         stop-color="#25af64"
         offset=".57995"
         id="stop19-3" /><stop
         stop-color="#25af64"
         offset=".84663"
         id="stop21-19" /><stop
         stop-color="#25af64"
         offset="1"
         id="stop23-4" /></linearGradient><linearGradient
       id="f-7"
       x2="1"
       gradientTransform="matrix(14.322136,11.189559,-11.189559,14.322136,103.39117,-43.22521)"
       gradientUnits="userSpaceOnUse"><stop
         stop-color="#0c542a"
         offset="0"
         id="stop12-5" /><stop
         stop-color="#0c542a"
         offset=".21472"
         id="stop14-3" /><stop
         stop-color="#25af64"
         offset=".57995"
         id="stop16-5" /><stop
         stop-color="#25af64"
         offset=".84663"
         id="stop18-6" /><stop
         stop-color="#25af64"
         offset="1"
         id="stop20-2" /></linearGradient><linearGradient
       id="a-8"
       x2="1"
       gradientTransform="matrix(47.34875,36.9925,-36.9925,47.34875,344.325,162.1875)"
       gradientUnits="userSpaceOnUse"><stop
         stop-color="#0c542a"
         offset="0"
         id="stop15-1-97" /><stop
         stop-color="#0c542a"
         offset=".21472"
         id="stop17-7-3" /><stop
         stop-color="#25af64"
         offset=".57995"
         id="stop19-8-6" /><stop
         stop-color="#25af64"
         offset=".84663"
         id="stop21-5-1" /><stop
         stop-color="#25af64"
         offset="1"
         id="stop23-7-2" /></linearGradient><rect
       x="-3864.5503"
       y="689.58521"
       width="2629.0435"
       height="2054.3892"
       id="rect10" /><rect
       x="-3864.5503"
       y="689.58521"
       width="2629.0435"
       height="2054.3892"
       id="rect16" /><rect
       x="-3864.5503"
       y="689.58521"
       width="2629.0435"
       height="2054.3892"
       id="rect18" /><rect
       x="-3864.5503"
       y="689.58521"
       width="2629.0435"
       height="2054.3892"
       id="rect18-6" /><rect
       x="-3864.5503"
       y="689.58521"
       width="2629.0435"
       height="2054.3892"
       id="rect19" /><rect
       x="-3864.5503"
       y="689.58521"
       width="2629.0435"
       height="2054.3892"
       id="rect20" /><rect
       x="-3864.5503"
       y="689.58521"
       width="2629.0435"
       height="2054.3892"
       id="rect21" /><rect
       x="-3864.5503"
       y="689.58521"
       width="2629.0435"
       height="2054.3892"
       id="rect23" /><rect
       x="-3864.5503"
       y="689.58521"
       width="2629.0435"
       height="2054.3892"
       id="rect24" /><rect
       x="-3864.5503"
       y="689.58521"
       width="2629.0435"
       height="2054.3892"
       id="rect25" /><rect
       x="-3864.5503"
       y="689.58521"
       width="2629.0435"
       height="2054.3892"
       id="rect52" /><rect
       x="-3864.5503"
       y="689.58521"
       width="2629.0435"
       height="2054.3892"
       id="rect22" /><rect
       x="-3864.5503"
       y="689.58521"
       width="2629.0435"
       height="2054.3892"
       id="rect14" /><rect
       x="-3864.5503"
       y="689.58521"
       width="2629.0435"
       height="2054.3892"
       id="rect15" /><rect
       x="-3864.5503"
       y="689.58521"
       width="2629.0435"
       height="2054.3892"
       id="rect28" /><rect
       x="-3864.5503"
       y="689.58521"
       width="2629.0435"
       height="2054.3892"
       id="rect50" /><rect
       x="-3864.5503"
       y="689.58521"
       width="2629.0435"
       height="2054.3892"
       id="rect76" /><rect
       x="-3864.5503"
       y="689.58521"
       width="2629.0435"
       height="2054.3892"
       id="rect77" /><rect
       x="-3864.5503"
       y="689.58521"
       width="2629.0435"
       height="2054.3892"
       id="rect6" /><rect
       x="-3864.5503"
       y="689.58521"
       width="2629.0435"
       height="2054.3892"
       id="rect7" /><rect
       x="-3864.5503"
       y="689.58521"
       width="2629.0435"
       height="2054.3892"
       id="rect8" /><rect
       x="-3864.5503"
       y="689.58521"
       width="2629.0435"
       height="2054.3892"
       id="rect12" /><rect
       x="-3864.5503"
       y="689.58521"
       width="2629.0435"
       height="2054.3892"
       id="rect13" /><rect
       x="-3864.5503"
       y="689.58521"
       width="2629.0435"
       height="2054.3892"
       id="rect17" /><rect
       x="-3864.5503"
       y="689.58521"
       width="2629.0435"
       height="2054.3892"
       id="rect26" /><rect
       x="-3864.5503"
       y="689.58521"
       width="2629.0435"
       height="2054.3892"
       id="rect42" /><rect
       x="-3864.5503"
       y="689.58521"
       width="2629.0435"
       height="2054.3892"
       id="rect43" /><rect
       x="-3864.5503"
       y="689.58521"
       width="2629.0435"
       height="2054.3892"
       id="rect44" /><rect
       x="-3864.5503"
       y="689.58521"
       width="2629.0435"
       height="2054.3892"
       id="rect48" /><rect
       x="-3864.5503"
       y="689.58521"
       width="2629.0435"
       height="2054.3892"
       id="rect49" /><rect
       x="-3864.5503"
       y="689.58521"
       width="2629.0435"
       height="2054.3892"
       id="rect51" /><rect
       x="-3864.5503"
       y="689.58521"
       width="2629.0435"
       height="2054.3892"
       id="rect53" /><rect
       x="-3864.5503"
       y="689.58521"
       width="2629.0435"
       height="2054.3892"
       id="rect54" /><rect
       x="-3864.5503"
       y="689.58521"
       width="2629.0435"
       height="2054.3892"
       id="rect58" /><rect
       x="-3864.5503"
       y="689.58521"
       width="2629.0435"
       height="2054.3892"
       id="rect55" /><rect
       x="-3864.5503"
       y="689.58521"
       width="2629.0435"
       height="2054.3892"
       id="rect27" /><rect
       x="-3864.5503"
       y="689.58521"
       width="2629.0435"
       height="2054.3892"
       id="rect29" /><rect
       x="-3864.5503"
       y="689.58521"
       width="2629.0435"
       height="2054.3892"
       id="rect31" /><rect
       x="-3864.5503"
       y="689.58521"
       width="2629.0435"
       height="2054.3892"
       id="rect33" /></defs><style
     id="style22"
     type="text/css">.st0{fill:#24af63}.st1{font-family:&quot;Maven Pro&quot;;font-weight:&quot;bold&quot;}.st2{font-size:209.8672px}.st4{fill:#ecdc86}.st7{fill:#396e35}</style><linearGradient
     id="d"
     x1="295.46"
     x2="333.34"
     y1="150.75"
     y2="180.35"
     gradientUnits="userSpaceOnUse"><stop
       id="stop41"
       offset=".215"
       stop-color="#0D552B" /><stop
       id="stop43"
       offset=".311"
       stop-color="#176837" /><stop
       id="stop45"
       offset=".461"
       stop-color="#1F8448" /><stop
       id="stop47"
       offset=".604"
       stop-color="#239A56" /><stop
       id="stop49"
       offset=".736"
       stop-color="#24A860" /><stop
       id="stop51"
       offset=".847"
       stop-color="#25AF64" /></linearGradient><g
     id="g1"><g
       id="layer2"
       style="display:inline"
       transform="translate(5.376)"><g
         id="g4209"><path
           id="path24"
           d="M1084.1 163.75v3.6c-.1 0-.1 0-.2.1l-1.8-1.5c-4-3.4-8.3-6.4-13.1-8.8-.8-.4-1.6-.9-2.5-1.1-.1-.1-.2-.2-.3-.2-1.8-.7-3.6-1.3-5.5-1.8-4.1-.9-8.2-1-12.3-.2-5.3 1.1-10 3.4-14.5 6.4-4.4 3-8.4 6.5-12.1 10.2-.7.7-.7.7-1.1-.2-2-4.1-4.2-8.1-6.9-11.8-2.1-2.8-4.4-5.4-7.4-7.2-3-1.9-6.3-2.6-9.8-1.7-4.3 1-7.8 3.6-11.1 6.4-2 1.5-3.8 3.3-5.6 5-1.7 1.5-3.3 3-5 4.5-.3.3-.5.3-.8 0-1.7-1.8-3.5-3.4-5.6-4.5-3.1-1.7-6.3-1.9-9.6-.8-2.8.9-5.2 2.4-7.7 4-1 .6-1.9 1.3-2.9 1.8v-.2c.1-.2.1-.4.1-.6.2-4.4.5-8.9 1.2-13.3 1-6.1 2.5-12 5.2-17.5 2-4.1 4.7-7.9 8.1-11 4.5-4.1 9.8-6.7 15.6-8.3 6.3-1.8 12.7-2.6 19.2-2.9 2.6-.1 5.1-.2 7.7-.3 1.3.5 2.6.8 3.9 1.2 1.9.6 3.8 1.2 5.7 1.7 1 .4 1.9.7 2.9 1.1 3.7 1.3 7.3 3 10.4 5.5.8.6 1.6 1.3 2.4 2-.2-.6-.4-1.1-.6-1.7-1.4-3.7-3.5-6.7-6.9-8.8-1.4-.9-2.9-1.5-4.4-2.3.1 0 .3 0 .4-.1 4.5-.8 9.1-1.2 13.7-1.4 3.9-.2 7.9-.1 11.8.3 4.6.5 9.1 1.4 13.4 3 6.4 2.4 11.9 6.1 16.2 11.5 3.7 4.7 6.1 10.1 7.6 15.9 1.5 5.7 2.1 11.6 2.3 17.5-.1 2.1-.1 4.3-.1 6.5"
           class="st0"
           style="fill:#24af63" /><path
           id="path26"
           d="M1084.1 157.15h.1v6.6h-.1z"
           class="st4"
           style="fill:#ecdc86" /><path
           id="path28"
           d="M1047.6 62.25v.1h-4.5v-.1z"
           style="fill:#a0918f" /><path
           id="path30"
           d="M1050.5 250.65c2.5-1 4.9-2.3 7.3-3.6 2.8-1.7 5.4-3.5 8-5.4 2.2-1.6 4.3-3.3 6.4-5.1l3.6-3c.2-.2.2-.1.3.1.4 1.6.7 3.3 1.1 5 .5 2.3.8 4.6 1.1 6.9.3 2.7.4 5.3.2 8-.2 3.3-.8 6.6-2 9.7q-1.05 2.85-2.7 5.4c-1.4 2.2-3 4.2-5 5.9-2.3 2.1-4.9 3.9-7.7 5.4-3.7 2.1-7.7 3.6-11.8 4.8-3.9 1.2-7.9 2-11.9 2.7-1.1.2-2.2.4-3.3.4-2.3-.1-4.6-.6-6.8-1.4-3.3-1.3-6.2-3.3-9.5-4.8-1.8-.8-3.6-1.4-5.5-1.5-2.5-.2-4.6.7-6.4 2.4l-3.9 3.9c-2.2 2.2-4.8 3.7-7.9 4.2-2.1.3-4.1.2-6.2-.1-2.9-.4-5.7-1.1-8.4-1.9-4-1.3-7.7-3.1-11.1-5.7-3.2-2.4-5.7-5.4-7.8-8.8-2.1-3.5-3.3-7.2-4.2-11.1-.4-1.7-.6-3.5-.8-5.2-.3-2.5-.4-4.9-.3-7.4.1-3.5.4-6.9.9-10.4.4.4.8.7 1.1 1 2.2 2 4.7 3.8 7.3 5.4 2.9 1.7 6.1 3.1 9.4 4 2.2.6 4.5 1 6.8 1.1 1.9.2 3.8.2 5.7.1 2.2-.1 4.5-.3 6.7-.9.3 0 .6 0 .8-.1q3-.6 6-1.5c2.3-.7 4.5-1.4 6.7-2.2 2.1-.8 4.3-1.7 6.4-2.6.6-.3 1-.2 1.5.2 3.5 2.7 7.3 5 11.4 6.7 4.6 1.8 9.3 2.7 14.2 2.3 3.6-.7 7-1.6 10.3-2.9"
           class="st0"
           style="fill:#24af63" /><path
           id="path32"
           d="M1050.5 250.65c-3.3 1.3-6.7 2.2-10.2 2.5-4.9.4-9.6-.5-14.2-2.3-4.1-1.6-7.9-3.9-11.4-6.7-.5-.4-.9-.5-1.5-.2-2.1.9-4.2 1.8-6.4 2.6s-4.4 1.6-6.7 2.2c-2 .6-4 1-6 1.5-.3.1-.6.1-.8.1l2.1-2.4c2.8-3.2 4.8-6.9 5.9-11.1 1.6-5.6 3.2-11.3 4.6-17 1-4.2 1.8-8.4 2.4-12.7.4-3.1 1-14.9.8-17.7-.5-8.6-2.4-16.8-5.9-24.7-2.1-4.7-5.7-7.9-10.7-9.2-2.2-.6-4.4-.4-6.5.3-.2.1-.3.2-.5.1 3.3-2.8 6.7-5.4 11.1-6.4 3.5-.8 6.8-.2 9.8 1.7s5.3 4.4 7.4 7.2c2.7 3.7 4.9 7.7 6.9 11.8.4.9.4.9 1.1.2 3.7-3.8 7.7-7.3 12.1-10.2 4.4-3 9.2-5.3 14.5-6.4 4.1-.8 8.2-.7 12.3.2 1.9.4 3.7 1 5.5 1.8.1.1.3.1.3.2-5.3.1-9.8 2.1-13.9 5.2-2 1.5-3.8 3.2-5.2 5.3-1.1 1.7-2.1 3.6-2.9 5.5-1.8 3.8-3.3 7.8-4.4 11.9-.9 3.5-1.5 7.1-1.8 10.7-.2 2.8-.3 5.6-.2 8.4.1 3.4.5 6.8.9 10.3.7 5.7 1.7 11.4 2.7 17.1.5 3.1.9 6.3 1.5 9.5.7 4.6 3.3 8 7 10.6 0-.1.2 0 .3.1"
           class="st4"
           style="fill:#ecdc86" /><path
           id="path34"
           d="M1043.1 62.35h4.5c3.6.2 7.2.8 10.6 2 2.7.9 3.3 2.7 1.7 5-1.1 1.6-2.7 2.8-4.4 3.9-2.1 1.4-4.4 2.6-6.9 3.5-2.5 1-4.9 0-6.5-2.5-.5-.8-.9-1.6-1.1-2.5-.1-.3-.2-.4-.5-.4-5.6-1-10.6.3-14.7 4.3-3.4 3.2-5.4 7.3-6.8 11.7-1.3 4-1.9 8-2.1 12.2-.2 3.7.1 7.4.6 11 .1.6.3 1.2.3 1.9.1.8-.2 1.5-.8 1.9-.7.5-1.5.4-2.3.4-1.9-.6-3.8-1.2-5.7-1.7v-1.3c0-2 0-3.9.1-5.9.4-7.7 1.6-15.3 4.6-22.5 2.2-5.4 5.4-10.1 9.9-13.8 3.7-3.1 7.9-5.1 12.6-6.2 2.4-.6 4.6-.9 6.9-1"
           style="fill:#3f2b29" /><path
           id="path36"
           d="M1014.8 114.65c.8 0 1.6.1 2.3-.4s.9-1.2.8-1.9c-.1-.6-.2-1.3-.3-1.9.4 0 .7-.1 1.1-.1 1.4.8 2.9 1.5 4.4 2.3 3.4 2.1 5.5 5.1 6.9 8.8.2.6.4 1.1.6 1.7-.8-.7-1.6-1.4-2.4-2-3.2-2.4-6.7-4.1-10.4-5.5-1.1-.3-2-.6-3-1"
           class="st7"
           style="fill:#396e35" /><path
           id="path38"
           d="M1009.1 111.65v1.3c-1.3-.4-2.6-.7-3.9-1.2 1.4-.1 2.7-.1 3.9-.1"
           class="st7"
           style="fill:#396e35" /></g></g><text
       id="text53"
       x="54.274998"
       y="241.245"
       font-size="209.87"
       font-weight="bold"
       style="font-weight:700;font-size:209.87px;font-family:'Maven Pro'"><tspan
         id="tspan55"
         x="54.274998"
         y="241.245"
         class="st0 st1 st2"
         font-size="209.87"
         font-weight="bold"
         style="font-weight:700;font-size:209.867px;font-family:'Maven Pro';fill:#24af63">nf-</tspan></text><text
       id="text69"
       x="362.517"
       y="241.245"
       font-size="209.87"
       font-weight="bold"
       style="font-weight:700;font-size:209.87px;font-family:'Maven Pro'"><tspan
         id="tspan71"
         x="362.517"
         y="241.245"
         class="st0 st1 st2"
         font-size="209.87"
         font-weight="bold"
         style="font-weight:700;font-size:209.867px;font-family:'Maven Pro';fill:#24af63"><tspan
           id="tspan73"
           style="fill:#050505">core/</tspan></tspan></text><text
       id="text59"
       x="48.53101"
       y="457.04501"
       font-weight="bold"
       style="font-weight:700;font-family:'Maven Pro'"><tspan
         id="tspan61"
         x="356.431"
         y="457.04501"
         class="st1 st2"
         font-size="209.87"
         font-weight="bold"
         style="font-weight:700;font-size:209.867px;font-family:'Maven Pro';fill:#050505">references</tspan></text><path
       id="path67"
       d="m 305.813,166.116 -21.532,21.616 h 61.092 v -21.617 z"
       style="fill:url(#f)" /><g
       id="g7"
       transform="matrix(1.8329262,0,0,1.8329262,491.0814,-816.15678)"
       inkscape:export-filename="g7.png"
       inkscape:export-xdpi="96"
       inkscape:export-ydpi="96"><g
         id="g6"
         transform="translate(0,60.625522)"><g
           id="g68"
           transform="matrix(1.0207292,-0.58931827,0.58931827,1.0207292,-341.97644,531.67226)"><path
             id="path67-2"
             d="m 137.35045,96.027041 -21.0747,0.374186"
             style="display:inline;fill:none;stroke:#800080;stroke-width:2.35168;stroke-linecap:butt;stroke-linejoin:miter;stroke-miterlimit:4;stroke-dasharray:none;stroke-dashoffset:0;stroke-opacity:1"
             inkscape:connector-curvature="0"
             sodipodi:nodetypes="cc" /><path
             id="path68"
             d="M 138.47298,94.156153 H 117.77246"
             style="display:inline;fill:none;stroke:#01862e;stroke-width:2.35168;stroke-linecap:butt;stroke-linejoin:miter;stroke-miterlimit:4;stroke-dasharray:none;stroke-dashoffset:0;stroke-opacity:1"
             inkscape:connector-curvature="0"
             sodipodi:nodetypes="cc" /></g><circle
           cx="0.026271027"
           cy="-566.9646"
           fill="#ffffff"
           stroke="#000000"
           stroke-width="1.45541"
           id="circle11"
           r="3.1836901"
           transform="rotate(-165)" /></g><g
         id="g5"
         transform="translate(0,122.32483)"><path
           id="path52"
           d="m -190.54383,494.20727 22.65735,13.08123"
           style="display:inline;fill:none;stroke:#ffa140;stroke-width:2.77178;stroke-linecap:butt;stroke-linejoin:miter;stroke-miterlimit:4;stroke-dasharray:none;stroke-dashoffset:0;stroke-opacity:1"
           inkscape:connector-curvature="0"
           sodipodi:nodetypes="cc" /><circle
           cx="-309.65375"
           cy="430.35892"
           fill="#ffffff"
           stroke="#000000"
           stroke-width="1.45541"
           id="circle52"
           r="3.1836901"
           transform="rotate(-15)" /></g><path
         id="path113"
         d="m -166.33538,696.09894 -14.56784,11.04516 v 11.04513"
         style="display:inline;fill:none;stroke:#002b6b;stroke-width:2.77178;stroke-linecap:butt;stroke-linejoin:miter;stroke-miterlimit:4;stroke-dasharray:none;stroke-dashoffset:0;stroke-opacity:1"
         inkscape:connector-curvature="0"
         sodipodi:nodetypes="ccc" /><path
         id="path124"
         d="m -167.49611,696.09894 14.56783,11.04516 v 11.04513"
         style="display:inline;fill:none;stroke:#800080;stroke-width:2.77178;stroke-linecap:butt;stroke-linejoin:miter;stroke-miterlimit:4;stroke-dasharray:none;stroke-dashoffset:0;stroke-opacity:1"
         inkscape:connector-curvature="0"
         sodipodi:nodetypes="ccc" /><path
         style="display:inline;fill:none;stroke:#ffa140;stroke-width:2.77178;stroke-linecap:butt;stroke-linejoin:miter;stroke-miterlimit:4;stroke-dasharray:none;stroke-dashoffset:0;stroke-opacity:1"
         d="m -166.91574,696.09233 h -13.40708 l -14.56782,11.05177 v 11.04513"
         id="path26-6"
         sodipodi:nodetypes="cccc" /><path
         style="display:inline;fill:none;stroke:#800080;stroke-width:2.77178;stroke-linecap:butt;stroke-linejoin:miter;stroke-miterlimit:4;stroke-dasharray:none;stroke-dashoffset:0;stroke-opacity:1"
         d="M -138.94084,718.18923 V 707.1441 l -14.56784,-11.05177 h -13.40706"
         id="path94"
         sodipodi:nodetypes="cccc" /><path
         id="path142"
         d="m -219.67228,652.86186 18.93856,10.96359 18.44441,-0.98463"
         style="display:inline;fill:none;stroke:#01862e;stroke-width:2.77178;stroke-linecap:butt;stroke-linejoin:miter;stroke-miterlimit:4;stroke-dasharray:none;stroke-dashoffset:0;stroke-opacity:1"
         inkscape:connector-curvature="0"
         sodipodi:nodetypes="ccc" /><path
         id="path98"
         d="m -205.82118,649.15168 37.9347,21.90159"
         style="display:inline;fill:none;stroke:#01862e;stroke-width:2.77178;stroke-linecap:butt;stroke-linejoin:miter;stroke-miterlimit:4;stroke-dasharray:none;stroke-dashoffset:0;stroke-opacity:1"
         inkscape:connector-curvature="0"
         sodipodi:nodetypes="cc" /><path
         id="path137"
         d="m -128.5659,660.56941 -37.9347,21.90161"
         style="display:inline;fill:none;stroke:#01862e;stroke-width:2.77178;stroke-linecap:butt;stroke-linejoin:miter;stroke-miterlimit:4;stroke-dasharray:none;stroke-dashoffset:0;stroke-opacity:1"
         inkscape:connector-curvature="0"
         sodipodi:nodetypes="cc" /><g
         id="g78"
         transform="matrix(1.1384755,0.30505358,-0.30505358,1.1384755,-225.04874,423.23636)"><path
           id="path79"
           d="m 143.33557,172.78414 -13.11317,13.14373 -15.33193,3.24332"
           style="display:inline;fill:none;stroke:#01862e;stroke-width:2.35168;stroke-linecap:butt;stroke-linejoin:miter;stroke-miterlimit:4;stroke-dasharray:none;stroke-dashoffset:0;stroke-opacity:1"
           inkscape:connector-curvature="0"
           sodipodi:nodetypes="ccc" /><circle
           cx="141.37857"
           cy="174.74307"
           fill="#ffffff"
           stroke="#000000"
           stroke-width="1.23482"
           id="circle8"
           r="2.7011638" /></g><g
         id="g74"
         transform="matrix(1.0207292,-0.58931827,0.58931827,1.0207292,-341.98522,633.44814)"><path
           id="path73"
           d="m 152.31754,96.027041 -36.04179,0.374186"
           style="display:inline;fill:none;stroke:#800080;stroke-width:2.35168;stroke-linecap:butt;stroke-linejoin:miter;stroke-miterlimit:4;stroke-dasharray:none;stroke-dashoffset:0;stroke-opacity:1"
           inkscape:connector-curvature="0"
           sodipodi:nodetypes="cc" /><path
           id="path74"
           d="M 153.44007,94.156153 H 117.77246"
           style="display:inline;fill:none;stroke:#01862e;stroke-width:2.35168;stroke-linecap:butt;stroke-linejoin:miter;stroke-miterlimit:4;stroke-dasharray:none;stroke-dashoffset:0;stroke-opacity:1"
           inkscape:connector-curvature="0"
           sodipodi:nodetypes="cc" /></g><path
         id="path126"
         d="m -128.56589,618.69542 -37.9347,21.9016"
         style="display:inline;fill:none;stroke:#01862e;stroke-width:2.77178;stroke-linecap:butt;stroke-linejoin:miter;stroke-miterlimit:4;stroke-dasharray:none;stroke-dashoffset:0;stroke-opacity:1"
         inkscape:connector-curvature="0"
         sodipodi:nodetypes="cc" /><path
         id="path76"
         d="m -205.82118,628.43167 37.9347,21.90163"
         style="display:inline;fill:none;stroke:#002b6b;stroke-width:2.77178;stroke-linecap:butt;stroke-linejoin:miter;stroke-miterlimit:4;stroke-dasharray:none;stroke-dashoffset:0;stroke-opacity:1"
         inkscape:connector-curvature="0"
         sodipodi:nodetypes="cc" /><g
         id="g57"
         transform="matrix(1.1786365,0,0,1.1786365,-290.94597,410.6129)"><path
           id="path50"
           d="M 106.36571,160.81455 V 260.95943"
           style="display:inline;fill:none;stroke:#002b6b;stroke-width:2.35168;stroke-linecap:butt;stroke-linejoin:miter;stroke-miterlimit:4;stroke-dasharray:none;stroke-dashoffset:0;stroke-opacity:1"
           inkscape:connector-curvature="0"
           sodipodi:nodetypes="cc" /><path
           id="path92"
           d="M 104.09803,160.81455 V 260.95943"
           style="display:inline;fill:none;stroke:#01862e;stroke-width:2.35168;stroke-linecap:butt;stroke-linejoin:miter;stroke-miterlimit:4;stroke-dasharray:none;stroke-dashoffset:0;stroke-opacity:1"
           inkscape:connector-curvature="0"
           sodipodi:nodetypes="cc" /></g><path
         id="path1379"
         d="m -191.42751,719.57512 v -2.77121 h 0.002 l -3.46529,-3.58848 -3.46392,3.58848 v 2.77121 z"
         style="color:#000000;font-style:normal;font-variant:normal;font-weight:normal;font-stretch:normal;font-size:medium;line-height:normal;font-family:sans-serif;font-variant-ligatures:normal;font-variant-position:normal;font-variant-caps:normal;font-variant-numeric:normal;font-variant-alternates:normal;font-feature-settings:normal;text-indent:0;text-align:start;text-decoration:none;text-decoration-line:none;text-decoration-style:solid;text-decoration-color:#000000;letter-spacing:normal;word-spacing:normal;text-transform:none;writing-mode:lr-tb;direction:ltr;text-orientation:mixed;dominant-baseline:auto;baseline-shift:baseline;text-anchor:start;white-space:normal;shape-padding:0;clip-rule:nonzero;display:inline;overflow:visible;visibility:visible;isolation:auto;mix-blend-mode:normal;color-interpolation:sRGB;color-interpolation-filters:linearRGB;solid-color:#000000;solid-opacity:1;vector-effect:none;fill:#000000;fill-opacity:1;fill-rule:nonzero;stroke:none;stroke-width:2.77121;stroke-linecap:butt;stroke-linejoin:miter;stroke-miterlimit:4;stroke-dasharray:none;stroke-dashoffset:0;stroke-opacity:1;color-rendering:auto;image-rendering:auto;shape-rendering:auto;text-rendering:auto;enable-background:accumulate"
         inkscape:connector-curvature="0" /><path
         id="path234"
         d="m -177.44008,719.57512 v -2.77121 h 0.002 l -3.46528,-3.58848 -3.46393,3.58848 v 2.77121 z"
         style="color:#000000;font-style:normal;font-variant:normal;font-weight:normal;font-stretch:normal;font-size:medium;line-height:normal;font-family:sans-serif;font-variant-ligatures:normal;font-variant-position:normal;font-variant-caps:normal;font-variant-numeric:normal;font-variant-alternates:normal;font-feature-settings:normal;text-indent:0;text-align:start;text-decoration:none;text-decoration-line:none;text-decoration-style:solid;text-decoration-color:#000000;letter-spacing:normal;word-spacing:normal;text-transform:none;writing-mode:lr-tb;direction:ltr;text-orientation:mixed;dominant-baseline:auto;baseline-shift:baseline;text-anchor:start;white-space:normal;shape-padding:0;clip-rule:nonzero;display:inline;overflow:visible;visibility:visible;isolation:auto;mix-blend-mode:normal;color-interpolation:sRGB;color-interpolation-filters:linearRGB;solid-color:#000000;solid-opacity:1;vector-effect:none;fill:#000000;fill-opacity:1;fill-rule:nonzero;stroke:none;stroke-width:2.77121;stroke-linecap:butt;stroke-linejoin:miter;stroke-miterlimit:4;stroke-dasharray:none;stroke-dashoffset:0;stroke-opacity:1;color-rendering:auto;image-rendering:auto;shape-rendering:auto;text-rendering:auto;enable-background:accumulate"
         inkscape:connector-curvature="0" /><path
         id="path236"
         d="m -149.46499,719.57512 v -2.77121 h 0.001 l -3.46528,-3.58848 -3.46392,3.58848 v 2.77121 z"
         style="color:#000000;font-style:normal;font-variant:normal;font-weight:normal;font-stretch:normal;font-size:medium;line-height:normal;font-family:sans-serif;font-variant-ligatures:normal;font-variant-position:normal;font-variant-caps:normal;font-variant-numeric:normal;font-variant-alternates:normal;font-feature-settings:normal;text-indent:0;text-align:start;text-decoration:none;text-decoration-line:none;text-decoration-style:solid;text-decoration-color:#000000;letter-spacing:normal;word-spacing:normal;text-transform:none;writing-mode:lr-tb;direction:ltr;text-orientation:mixed;dominant-baseline:auto;baseline-shift:baseline;text-anchor:start;white-space:normal;shape-padding:0;clip-rule:nonzero;display:inline;overflow:visible;visibility:visible;isolation:auto;mix-blend-mode:normal;color-interpolation:sRGB;color-interpolation-filters:linearRGB;solid-color:#000000;solid-opacity:1;vector-effect:none;fill:#000000;fill-opacity:1;fill-rule:nonzero;stroke:none;stroke-width:2.77121;stroke-linecap:butt;stroke-linejoin:miter;stroke-miterlimit:4;stroke-dasharray:none;stroke-dashoffset:0;stroke-opacity:1;color-rendering:auto;image-rendering:auto;shape-rendering:auto;text-rendering:auto;enable-background:accumulate"
         inkscape:connector-curvature="0" /><path
         id="path237"
         d="m -135.47756,719.57512 v -2.77121 h 0.001 l -3.46529,-3.58848 -3.46392,3.58848 v 2.77121 z"
         style="color:#000000;font-style:normal;font-variant:normal;font-weight:normal;font-stretch:normal;font-size:medium;line-height:normal;font-family:sans-serif;font-variant-ligatures:normal;font-variant-position:normal;font-variant-caps:normal;font-variant-numeric:normal;font-variant-alternates:normal;font-feature-settings:normal;text-indent:0;text-align:start;text-decoration:none;text-decoration-line:none;text-decoration-style:solid;text-decoration-color:#000000;letter-spacing:normal;word-spacing:normal;text-transform:none;writing-mode:lr-tb;direction:ltr;text-orientation:mixed;dominant-baseline:auto;baseline-shift:baseline;text-anchor:start;white-space:normal;shape-padding:0;clip-rule:nonzero;display:inline;overflow:visible;visibility:visible;isolation:auto;mix-blend-mode:normal;color-interpolation:sRGB;color-interpolation-filters:linearRGB;solid-color:#000000;solid-opacity:1;vector-effect:none;fill:#000000;fill-opacity:1;fill-rule:nonzero;stroke:none;stroke-width:2.77121;stroke-linecap:butt;stroke-linejoin:miter;stroke-miterlimit:4;stroke-dasharray:none;stroke-dashoffset:0;stroke-opacity:1;color-rendering:auto;image-rendering:auto;shape-rendering:auto;text-rendering:auto;enable-background:accumulate"
         inkscape:connector-curvature="0" /><path
         id="path235"
         d="m -163.45242,719.57512 v -2.77121 h 10e-4 l -3.46528,-3.58848 -3.46392,3.58848 v 2.77121 z"
         style="color:#000000;font-style:normal;font-variant:normal;font-weight:normal;font-stretch:normal;font-size:medium;line-height:normal;font-family:sans-serif;font-variant-ligatures:normal;font-variant-position:normal;font-variant-caps:normal;font-variant-numeric:normal;font-variant-alternates:normal;font-feature-settings:normal;text-indent:0;text-align:start;text-decoration:none;text-decoration-line:none;text-decoration-style:solid;text-decoration-color:#000000;letter-spacing:normal;word-spacing:normal;text-transform:none;writing-mode:lr-tb;direction:ltr;text-orientation:mixed;dominant-baseline:auto;baseline-shift:baseline;text-anchor:start;white-space:normal;shape-padding:0;clip-rule:nonzero;display:inline;overflow:visible;visibility:visible;isolation:auto;mix-blend-mode:normal;color-interpolation:sRGB;color-interpolation-filters:linearRGB;solid-color:#000000;solid-opacity:1;vector-effect:none;fill:#000000;fill-opacity:1;fill-rule:nonzero;stroke:none;stroke-width:2.77121;stroke-linecap:butt;stroke-linejoin:miter;stroke-miterlimit:4;stroke-dasharray:none;stroke-dashoffset:0;stroke-opacity:1;color-rendering:auto;image-rendering:auto;shape-rendering:auto;text-rendering:auto;enable-background:accumulate"
         inkscape:connector-curvature="0" /><path
         id="path236-7"
         d="m -163.45255,601.0738 v -2.77121 h 0.001 l -3.46528,-3.58847 -3.46392,3.58847 v 2.77121 z"
         style="color:#000000;font-style:normal;font-variant:normal;font-weight:normal;font-stretch:normal;font-size:medium;line-height:normal;font-family:sans-serif;font-variant-ligatures:normal;font-variant-position:normal;font-variant-caps:normal;font-variant-numeric:normal;font-variant-alternates:normal;font-feature-settings:normal;text-indent:0;text-align:start;text-decoration:none;text-decoration-line:none;text-decoration-style:solid;text-decoration-color:#000000;letter-spacing:normal;word-spacing:normal;text-transform:none;writing-mode:lr-tb;direction:ltr;text-orientation:mixed;dominant-baseline:auto;baseline-shift:baseline;text-anchor:start;white-space:normal;shape-padding:0;clip-rule:nonzero;display:inline;overflow:visible;visibility:visible;isolation:auto;mix-blend-mode:normal;color-interpolation:sRGB;color-interpolation-filters:linearRGB;solid-color:#000000;solid-opacity:1;vector-effect:none;fill:#000000;fill-opacity:1;fill-rule:nonzero;stroke:none;stroke-width:2.77121;stroke-linecap:butt;stroke-linejoin:miter;stroke-miterlimit:4;stroke-dasharray:none;stroke-dashoffset:0;stroke-opacity:1;color-rendering:auto;image-rendering:auto;shape-rendering:auto;text-rendering:auto;enable-background:accumulate"
         inkscape:connector-curvature="0" /><circle
         cx="-378.85361"
         cy="576.06964"
         fill="#ffffff"
         stroke="#000000"
         stroke-width="1.45541"
         id="circle10"
         r="3.1836901"
         transform="rotate(-15)" /><circle
         cx="-364.63092"
         cy="576.50946"
         fill="#ffffff"
         stroke="#000000"
         stroke-width="1.45541"
         id="circle3"
         r="3.1836901"
         transform="rotate(-15)" /><circle
         cx="-359.26822"
         cy="-556.49548"
         fill="#ffffff"
         stroke="#000000"
         stroke-width="1.45541"
         id="circle76"
         r="3.1836901"
         transform="matrix(0.96592583,-0.25881904,-0.25881904,-0.96592583,0,0)" /><circle
         cx="44.475082"
         cy="673.02039"
         fill="#ffffff"
         stroke="#000000"
         stroke-width="1.45541"
         id="circle9"
         r="3.1836901"
         transform="rotate(15)" /><circle
         cx="-33.491478"
         cy="-633.06171"
         fill="#ffffff"
         stroke="#000000"
         stroke-width="1.45541"
         id="circle14"
         r="3.1836901"
         transform="rotate(-165)" /><circle
         cx="38.956448"
         cy="-653.04822"
         fill="#ffffff"
         stroke="#000000"
         stroke-width="1.45541"
         id="circle7"
         r="3.1836901"
         transform="matrix(0.96592583,0.25881904,0.25881904,-0.96592583,0,0)" /></g></g></svg>
