<?xml version="1.0" encoding="UTF-8" standalone="no"?>
<svg
   xml:space="preserve"
   id="svg2"
   width="1456.784"
   height="522.443"
   version="1.1"
   sodipodi:docname="nf-core-references_logo_dark.svg"
   inkscape:version="1.4.2 (1:1.4.2+202505120738+ebf0e940d0)"
   inkscape:export-filename="nf-core-references_logo_dark.png"
   inkscape:export-xdpi="96"
   inkscape:export-ydpi="96"
   xmlns:inkscape="http://www.inkscape.org/namespaces/inkscape"
   xmlns:sodipodi="http://sodipodi.sourceforge.net/DTD/sodipodi-0.dtd"
   xmlns="http://www.w3.org/2000/svg"
   xmlns:svg="http://www.w3.org/2000/svg"><sodipodi:namedview
     id="namedview1"
     pagecolor="#ffffff"
     bordercolor="#000000"
     borderopacity="0.25"
     inkscape:showpageshadow="2"
     inkscape:pageopacity="0.0"
     inkscape:pagecheckerboard="0"
     inkscape:deskcolor="#d1d1d1"
     inkscape:zoom="0.62294751"
     inkscape:cx="525.72648"
     inkscape:cy="401.31792"
     inkscape:window-width="1920"
     inkscape:window-height="1128"
     inkscape:window-x="0"
     inkscape:window-y="0"
     inkscape:window-maximized="1"
     inkscape:current-layer="svg2" /><defs
     id="defs6"><linearGradient
       id="f"
       x2="1"
       gradientTransform="matrix(37.935665,29.63859,-29.63859,37.935665,301.09789,166.19726)"
       gradientUnits="userSpaceOnUse"><stop
         id="stop12"
         offset="0"
         stop-color="#0c542a" /><stop
         id="stop14"
         offset=".215"
         stop-color="#0c542a" /><stop
         id="stop16"
         offset=".58"
         stop-color="#25af64" /><stop
         id="stop18"
         offset=".847"
         stop-color="#25af64" /><stop
         id="stop20"
         offset="1"
         stop-color="#25af64" /></linearGradient><clipPath
       id="e"><path
         id="path9"
         d="m280.17 136.33-21.5-21.584h61v21.584z" /></clipPath><linearGradient
       id="f-3"
       x2="1"
       gradientTransform="matrix(37.935665,29.63859,-29.63859,37.935665,300.0489,-473.80274)"
       gradientUnits="userSpaceOnUse"><stop
         id="stop12-6"
         offset="0"
         stop-color="#0c542a" /><stop
         id="stop14-7"
         offset=".215"
         stop-color="#0c542a" /><stop
         id="stop16-5"
         offset=".58"
         stop-color="#25af64" /><stop
         id="stop18-3"
         offset=".847"
         stop-color="#25af64" /><stop
         id="stop20-5"
         offset="1"
         stop-color="#25af64" /></linearGradient></defs><style
     id="style22"
     type="text/css">.st0{fill:#24af63}.st1{font-family:&quot;Maven Pro&quot;;font-weight:&quot;bold&quot;}.st2{font-size:209.8672px}.st4{fill:#ecdc86}.st7{fill:#396e35}</style><linearGradient
     id="d"
     x1="295.46"
     x2="333.34"
     y1="150.75"
     y2="180.35"
     gradientUnits="userSpaceOnUse"><stop
       id="stop41"
       offset=".215"
       stop-color="#0D552B" /><stop
       id="stop43"
       offset=".311"
       stop-color="#176837" /><stop
       id="stop45"
       offset=".461"
       stop-color="#1F8448" /><stop
       id="stop47"
       offset=".604"
       stop-color="#239A56" /><stop
       id="stop49"
       offset=".736"
       stop-color="#24A860" /><stop
       id="stop51"
       offset=".847"
       stop-color="#25AF64" /></linearGradient><g
     id="g4209"
     transform="translate(5.376)"><path
       id="path24"
       d="m 1084.1,163.75 v 3.6 c -0.1,0 -0.1,0 -0.2,0.1 l -1.8,-1.5 c -4,-3.4 -8.3,-6.4 -13.1,-8.8 -0.8,-0.4 -1.6,-0.9 -2.5,-1.1 -0.1,-0.1 -0.2,-0.2 -0.3,-0.2 -1.8,-0.7 -3.6,-1.3 -5.5,-1.8 -4.1,-0.9 -8.2,-1 -12.3,-0.2 -5.3,1.1 -10,3.4 -14.5,6.4 -4.4,3 -8.4,6.5 -12.1,10.2 -0.7,0.7 -0.7,0.7 -1.1,-0.2 -2,-4.1 -4.2,-8.1 -6.9,-11.8 -2.1,-2.8 -4.4,-5.4 -7.4,-7.2 -3,-1.9 -6.3,-2.6 -9.8,-1.7 -4.3,1 -7.8,3.6 -11.1,6.4 -2,1.5 -3.8,3.3 -5.6,5 -1.7,1.5 -3.3,3 -5,4.5 -0.3,0.3 -0.5,0.3 -0.8,0 -1.7,-1.8 -3.5,-3.4 -5.6,-4.5 -3.1,-1.7 -6.3,-1.9 -9.6,-0.8 -2.8,0.9 -5.2,2.4 -7.7,4 -1,0.6 -1.9,1.3 -2.9,1.8 v -0.2 c 0.1,-0.2 0.1,-0.4 0.1,-0.6 0.2,-4.4 0.5,-8.9 1.2,-13.3 1,-6.1 2.5,-12 5.2,-17.5 2,-4.1 4.7,-7.9 8.1,-11 4.5,-4.1 9.8,-6.7 15.6,-8.3 6.3,-1.8 12.7,-2.6 19.2,-2.9 2.6,-0.1 5.1,-0.2 7.7,-0.3 1.3,0.5 2.6,0.8 3.9,1.2 1.9,0.6 3.8,1.2 5.7,1.7 1,0.4 1.9,0.7 2.9,1.1 3.7,1.3 7.3,3 10.4,5.5 0.8,0.6 1.6,1.3 2.4,2 -0.2,-0.6 -0.4,-1.1 -0.6,-1.7 -1.4,-3.7 -3.5,-6.7 -6.9,-8.8 -1.4,-0.9 -2.9,-1.5 -4.4,-2.3 0.1,0 0.3,0 0.4,-0.1 4.5,-0.8 9.1,-1.2 13.7,-1.4 3.9,-0.2 7.9,-0.1 11.8,0.3 4.6,0.5 9.1,1.4 13.4,3 6.4,2.4 11.9,6.1 16.2,11.5 3.7,4.7 6.1,10.1 7.6,15.9 1.5,5.7 2.1,11.6 2.3,17.5 -0.1,2.1 -0.1,4.3 -0.1,6.5"
       class="st0"
       style="fill:#24af63" /><path
       id="path26"
       d="m 1084.1,157.15 h 0.1 v 6.6 h -0.1 z"
       class="st4"
       style="fill:#ecdc86" /><path
       id="path28"
       d="m 1047.6,62.25 v 0.1 h -4.5 v -0.1 z"
       style="fill:#a0918f" /><path
       id="path30"
       d="m 1050.5,250.65 c 2.5,-1 4.9,-2.3 7.3,-3.6 2.8,-1.7 5.4,-3.5 8,-5.4 2.2,-1.6 4.3,-3.3 6.4,-5.1 l 3.6,-3 c 0.2,-0.2 0.2,-0.1 0.3,0.1 0.4,1.6 0.7,3.3 1.1,5 0.5,2.3 0.8,4.6 1.1,6.9 0.3,2.7 0.4,5.3 0.2,8 -0.2,3.3 -0.8,6.6 -2,9.7 q -1.05,2.85 -2.7,5.4 c -1.4,2.2 -3,4.2 -5,5.9 -2.3,2.1 -4.9,3.9 -7.7,5.4 -3.7,2.1 -7.7,3.6 -11.8,4.8 -3.9,1.2 -7.9,2 -11.9,2.7 -1.1,0.2 -2.2,0.4 -3.3,0.4 -2.3,-0.1 -4.6,-0.6 -6.8,-1.4 -3.3,-1.3 -6.2,-3.3 -9.5,-4.8 -1.8,-0.8 -3.6,-1.4 -5.5,-1.5 -2.5,-0.2 -4.6,0.7 -6.4,2.4 l -3.9,3.9 c -2.2,2.2 -4.8,3.7 -7.9,4.2 -2.1,0.3 -4.1,0.2 -6.2,-0.1 -2.9,-0.4 -5.7,-1.1 -8.4,-1.9 -4,-1.3 -7.7,-3.1 -11.1,-5.7 -3.2,-2.4 -5.7,-5.4 -7.8,-8.8 -2.1,-3.5 -3.3,-7.2 -4.2,-11.1 -0.4,-1.7 -0.6,-3.5 -0.8,-5.2 -0.3,-2.5 -0.4,-4.9 -0.3,-7.4 0.1,-3.5 0.4,-6.9 0.9,-10.4 0.4,0.4 0.8,0.7 1.1,1 2.2,2 4.7,3.8 7.3,5.4 2.9,1.7 6.1,3.1 9.4,4 2.2,0.6 4.5,1 6.8,1.1 1.9,0.2 3.8,0.2 5.7,0.1 2.2,-0.1 4.5,-0.3 6.7,-0.9 0.3,0 0.6,0 0.8,-0.1 q 3,-0.6 6,-1.5 c 2.3,-0.7 4.5,-1.4 6.7,-2.2 2.1,-0.8 4.3,-1.7 6.4,-2.6 0.6,-0.3 1,-0.2 1.5,0.2 3.5,2.7 7.3,5 11.4,6.7 4.6,1.8 9.3,2.7 14.2,2.3 3.6,-0.7 7,-1.6 10.3,-2.9"
       class="st0"
       style="fill:#24af63" /><path
       id="path32"
       d="m 1050.5,250.65 c -3.3,1.3 -6.7,2.2 -10.2,2.5 -4.9,0.4 -9.6,-0.5 -14.2,-2.3 -4.1,-1.6 -7.9,-3.9 -11.4,-6.7 -0.5,-0.4 -0.9,-0.5 -1.5,-0.2 -2.1,0.9 -4.2,1.8 -6.4,2.6 -2.2,0.8 -4.4,1.6 -6.7,2.2 -2,0.6 -4,1 -6,1.5 -0.3,0.1 -0.6,0.1 -0.8,0.1 l 2.1,-2.4 c 2.8,-3.2 4.8,-6.9 5.9,-11.1 1.6,-5.6 3.2,-11.3 4.6,-17 1,-4.2 1.8,-8.4 2.4,-12.7 0.4,-3.1 1,-14.9 0.8,-17.7 -0.5,-8.6 -2.4,-16.8 -5.9,-24.7 -2.1,-4.7 -5.7,-7.9 -10.7,-9.2 -2.2,-0.6 -4.4,-0.4 -6.5,0.3 -0.2,0.1 -0.3,0.2 -0.5,0.1 3.3,-2.8 6.7,-5.4 11.1,-6.4 3.5,-0.8 6.8,-0.2 9.8,1.7 3,1.9 5.3,4.4 7.4,7.2 2.7,3.7 4.9,7.7 6.9,11.8 0.4,0.9 0.4,0.9 1.1,0.2 3.7,-3.8 7.7,-7.3 12.1,-10.2 4.4,-3 9.2,-5.3 14.5,-6.4 4.1,-0.8 8.2,-0.7 12.3,0.2 1.9,0.4 3.7,1 5.5,1.8 0.1,0.1 0.3,0.1 0.3,0.2 -5.3,0.1 -9.8,2.1 -13.9,5.2 -2,1.5 -3.8,3.2 -5.2,5.3 -1.1,1.7 -2.1,3.6 -2.9,5.5 -1.8,3.8 -3.3,7.8 -4.4,11.9 -0.9,3.5 -1.5,7.1 -1.8,10.7 -0.2,2.8 -0.3,5.6 -0.2,8.4 0.1,3.4 0.5,6.8 0.9,10.3 0.7,5.7 1.7,11.4 2.7,17.1 0.5,3.1 0.9,6.3 1.5,9.5 0.7,4.6 3.3,8 7,10.6 0,-0.1 0.2,0 0.3,0.1"
       class="st4"
       style="fill:#ecdc86" /><path
       id="path34"
       d="m 1043.1,62.35 h 4.5 c 3.6,0.2 7.2,0.8 10.6,2 2.7,0.9 3.3,2.7 1.7,5 -1.1,1.6 -2.7,2.8 -4.4,3.9 -2.1,1.4 -4.4,2.6 -6.9,3.5 -2.5,1 -4.9,0 -6.5,-2.5 -0.5,-0.8 -0.9,-1.6 -1.1,-2.5 -0.1,-0.3 -0.2,-0.4 -0.5,-0.4 -5.6,-1 -10.6,0.3 -14.7,4.3 -3.4,3.2 -5.4,7.3 -6.8,11.7 -1.3,4 -1.9,8 -2.1,12.2 -0.2,3.7 0.1,7.4 0.6,11 0.1,0.6 0.3,1.2 0.3,1.9 0.1,0.8 -0.2,1.5 -0.8,1.9 -0.7,0.5 -1.5,0.4 -2.3,0.4 -1.9,-0.6 -3.8,-1.2 -5.7,-1.7 v -1.3 c 0,-2 0,-3.9 0.1,-5.9 0.4,-7.7 1.6,-15.3 4.6,-22.5 2.2,-5.4 5.4,-10.1 9.9,-13.8 3.7,-3.1 7.9,-5.1 12.6,-6.2 2.4,-0.6 4.6,-0.9 6.9,-1"
       style="fill:#3f2b29" /><path
       id="path36"
       d="m 1014.8,114.65 c 0.8,0 1.6,0.1 2.3,-0.4 0.7,-0.5 0.9,-1.2 0.8,-1.9 -0.1,-0.6 -0.2,-1.3 -0.3,-1.9 0.4,0 0.7,-0.1 1.1,-0.1 1.4,0.8 2.9,1.5 4.4,2.3 3.4,2.1 5.5,5.1 6.9,8.8 0.2,0.6 0.4,1.1 0.6,1.7 -0.8,-0.7 -1.6,-1.4 -2.4,-2 -3.2,-2.4 -6.7,-4.1 -10.4,-5.5 -1.1,-0.3 -2,-0.6 -3,-1"
       class="st7"
       style="fill:#396e35" /><path
       id="path38"
       d="m 1009.1,111.65 v 1.3 c -1.3,-0.4 -2.6,-0.7 -3.9,-1.2 1.4,-0.1 2.7,-0.1 3.9,-0.1"
       class="st7"
       style="fill:#396e35" /></g><text
     id="text53"
     x="54.274998"
     y="241.245"
     font-size="209.87"
     font-weight="bold"
     style="font-weight:700;font-size:209.87px;font-family:'Maven Pro'"><tspan
       id="tspan55"
       x="54.274998"
       y="241.245"
       class="st0 st1 st2"
       font-size="209.87"
       font-weight="bold"
       style="font-weight:700;font-size:209.867px;font-family:'Maven Pro';fill:#24af63">nf-</tspan></text><text
     id="text69"
     x="362.517"
     y="241.245"
     font-size="209.87"
     font-weight="bold"
     style="font-weight:700;font-size:209.87px;font-family:'Maven Pro'"><tspan
       id="tspan71"
       x="362.517"
       y="241.245"
       class="st0 st1 st2"
       font-size="209.87"
       font-weight="bold"
       style="font-weight:700;font-size:209.867px;font-family:'Maven Pro';fill:#24af63"><tspan
         id="tspan73"
         style="fill:#fafafa">core/</tspan></tspan></text><text
     id="text59"
     x="47.48204"
     y="457.04501"
     font-weight="bold"
     style="font-weight:700;font-family:'Maven Pro'"><tspan
       id="tspan61"
       x="355.38202"
       y="457.04501"
       class="st1 st2"
       font-size="209.87"
       font-weight="bold"
       style="font-weight:700;font-size:209.867px;font-family:'Maven Pro';fill:#fafafa">references</tspan></text><path
     id="path67"
     d="m 305.813,166.116 -21.532,21.616 h 61.092 v -21.617 z"
     style="fill:url(#f)" /><g
     id="g68"
     transform="matrix(1.8709213,-1.0801769,1.0801769,1.8709213,-136.78517,269.48135)"><path
       id="path67-2"
       d="m 137.35045,96.027041 -21.0747,0.374186"
       style="display:inline;fill:none;stroke:#800080;stroke-width:2.35168;stroke-linecap:butt;stroke-linejoin:miter;stroke-miterlimit:4;stroke-dasharray:none;stroke-dashoffset:0;stroke-opacity:1"
       inkscape:connector-curvature="0"
       sodipodi:nodetypes="cc" /><path
       id="path68"
       d="M 138.47298,94.156153 H 117.77246"
       style="display:inline;fill:none;stroke:#01862e;stroke-width:2.35168;stroke-linecap:butt;stroke-linejoin:miter;stroke-miterlimit:4;stroke-dasharray:none;stroke-dashoffset:0;stroke-opacity:1"
       inkscape:connector-curvature="0"
       sodipodi:nodetypes="cc" /></g><circle
     cx="-290.81042"
     cy="-231.36337"
     fill="#ffffff"
     stroke="#000000"
     stroke-width="2.66766"
     id="circle11"
     r="5.8354692"
     transform="rotate(-165)"
     style="stroke:#fafafa;stroke-opacity:1;fill:#1a1a1a;fill-opacity:1" /><path
     id="path52"
     d="m 140.77963,313.90106 41.52925,23.97693"
     style="display:inline;fill:none;stroke:#ffa140;stroke-width:5.08047;stroke-linecap:butt;stroke-linejoin:miter;stroke-miterlimit:4;stroke-dasharray:none;stroke-dashoffset:0;stroke-opacity:1"
     inkscape:connector-curvature="0"
     sodipodi:nodetypes="cc" /><circle
     cx="58.96896"
     cy="343.87149"
     fill="#ffffff"
     stroke="#000000"
     stroke-width="2.66766"
     id="circle52"
     r="5.8354692"
     transform="rotate(-15)"
     style="stroke:#fafafa;stroke-opacity:1;fill:#1a1a1a;fill-opacity:1" /><path
     id="path113"
     d="m 185.15193,459.7412 -26.70177,20.24497 v 20.24491"
     style="display:inline;fill:none;stroke:#002b6b;stroke-width:5.08047;stroke-linecap:butt;stroke-linejoin:miter;stroke-miterlimit:4;stroke-dasharray:none;stroke-dashoffset:0;stroke-opacity:1"
     inkscape:connector-curvature="0"
     sodipodi:nodetypes="ccc" /><path
     id="path124"
     d="m 183.0244,459.7412 26.70176,20.24497 v 20.24491"
     style="display:inline;fill:none;stroke:#800080;stroke-width:5.08047;stroke-linecap:butt;stroke-linejoin:miter;stroke-miterlimit:4;stroke-dasharray:none;stroke-dashoffset:0;stroke-opacity:1"
     inkscape:connector-curvature="0"
     sodipodi:nodetypes="ccc" /><path
     style="display:inline;fill:none;stroke:#ffa140;stroke-width:5.08047;stroke-linecap:butt;stroke-linejoin:miter;stroke-miterlimit:4;stroke-dasharray:none;stroke-dashoffset:0;stroke-opacity:1"
     d="m 184.08818,459.72909 h -24.57419 l -26.70174,20.25708 v 20.24491"
     id="path26-6"
     sodipodi:nodetypes="cccc" /><path
     style="display:inline;fill:none;stroke:#800080;stroke-width:5.08047;stroke-linecap:butt;stroke-linejoin:miter;stroke-miterlimit:4;stroke-dasharray:none;stroke-dashoffset:0;stroke-opacity:1"
     d="M 235.3641,500.23108 V 479.98617 L 208.66233,459.72909 H 184.08818"
     id="path94"
     sodipodi:nodetypes="cccc" /><path
     id="path142"
     d="m 87.389333,380.49083 34.712987,20.09545 33.80724,-1.80475"
     style="display:inline;fill:none;stroke:#01862e;stroke-width:5.08047;stroke-linecap:butt;stroke-linejoin:miter;stroke-miterlimit:4;stroke-dasharray:none;stroke-dashoffset:0;stroke-opacity:1"
     inkscape:connector-curvature="0"
     sodipodi:nodetypes="ccc" /><path
     id="path98"
     d="m 112.77738,373.69034 69.5315,40.144"
     style="display:inline;fill:none;stroke:#01862e;stroke-width:5.08047;stroke-linecap:butt;stroke-linejoin:miter;stroke-miterlimit:4;stroke-dasharray:none;stroke-dashoffset:0;stroke-opacity:1"
     inkscape:connector-curvature="0"
     sodipodi:nodetypes="cc" /><path
     id="path137"
     d="m 254.3806,394.6182 -69.5315,40.14403"
     style="display:inline;fill:none;stroke:#01862e;stroke-width:5.08047;stroke-linecap:butt;stroke-linejoin:miter;stroke-miterlimit:4;stroke-dasharray:none;stroke-dashoffset:0;stroke-opacity:1"
     inkscape:connector-curvature="0"
     sodipodi:nodetypes="cc" /><path
     id="path79"
     d="m 280.02833,400.30484 -34.71299,20.09546 -33.80725,-1.80474"
     style="display:inline;fill:none;stroke:#01862e;stroke-width:5.08046;stroke-linecap:butt;stroke-linejoin:miter;stroke-miterlimit:4;stroke-dasharray:none;stroke-dashoffset:0;stroke-opacity:1"
     inkscape:connector-curvature="0"
     sodipodi:nodetypes="ccc" /><circle
     cx="369.8653"
     cy="318.4201"
     fill="#ffffff"
     stroke="#000000"
     stroke-width="2.66765"
     id="circle8"
     r="5.8354697"
     transform="rotate(14.999999)"
     style="stroke:#fafafa;stroke-opacity:1;fill:#1a1a1a;fill-opacity:1" /><g
     id="g74"
     transform="matrix(1.8709213,-1.0801769,1.0801769,1.8709213,-136.80126,344.90691)"><path
       id="path73"
       d="m 152.31754,96.027041 -36.04179,0.374186"
       style="display:inline;fill:none;stroke:#800080;stroke-width:2.35168;stroke-linecap:butt;stroke-linejoin:miter;stroke-miterlimit:4;stroke-dasharray:none;stroke-dashoffset:0;stroke-opacity:1"
       inkscape:connector-curvature="0"
       sodipodi:nodetypes="cc" /><path
       id="path74"
       d="M 153.44007,94.156153 H 117.77246"
       style="display:inline;fill:none;stroke:#01862e;stroke-width:2.35168;stroke-linecap:butt;stroke-linejoin:miter;stroke-miterlimit:4;stroke-dasharray:none;stroke-dashoffset:0;stroke-opacity:1"
       inkscape:connector-curvature="0"
       sodipodi:nodetypes="cc" /></g><path
     id="path126"
     d="m 254.38062,317.86627 -69.5315,40.14401"
     style="display:inline;fill:none;stroke:#01862e;stroke-width:5.08047;stroke-linecap:butt;stroke-linejoin:miter;stroke-miterlimit:4;stroke-dasharray:none;stroke-dashoffset:0;stroke-opacity:1"
     inkscape:connector-curvature="0"
     sodipodi:nodetypes="cc" /><path
     id="path76"
     d="m 112.77738,335.71209 69.5315,40.14407"
     style="display:inline;fill:none;stroke:#002b6b;stroke-width:5.08047;stroke-linecap:butt;stroke-linejoin:miter;stroke-miterlimit:4;stroke-dasharray:none;stroke-dashoffset:0;stroke-opacity:1"
     inkscape:connector-curvature="0"
     sodipodi:nodetypes="cc" /><g
     id="g57"
     transform="matrix(2.1603537,0,0,2.1603537,-43.250081,-63.533638)"><path
       id="path50"
       d="M 106.36571,160.81455 V 260.95943"
       style="display:inline;fill:none;stroke:#002b6b;stroke-width:2.35168;stroke-linecap:butt;stroke-linejoin:miter;stroke-miterlimit:4;stroke-dasharray:none;stroke-dashoffset:0;stroke-opacity:1"
       inkscape:connector-curvature="0"
       sodipodi:nodetypes="cc" /><path
       id="path92"
       d="M 104.09803,160.81455 V 260.95943"
       style="display:inline;fill:none;stroke:#01862e;stroke-width:2.35168;stroke-linecap:butt;stroke-linejoin:miter;stroke-miterlimit:4;stroke-dasharray:none;stroke-dashoffset:0;stroke-opacity:1"
       inkscape:connector-curvature="0"
       sodipodi:nodetypes="cc" /></g><path
     id="path1379"
     d="m 139.15991,502.77131 v -5.07942 h 0.004 l -6.35162,-6.57742 -6.34911,6.57742 v 5.07942 z"
     style="color:#000000;font-style:normal;font-variant:normal;font-weight:normal;font-stretch:normal;font-size:medium;line-height:normal;font-family:sans-serif;font-variant-ligatures:normal;font-variant-position:normal;font-variant-caps:normal;font-variant-numeric:normal;font-variant-alternates:normal;font-feature-settings:normal;text-indent:0;text-align:start;text-decoration:none;text-decoration-line:none;text-decoration-style:solid;text-decoration-color:#000000;letter-spacing:normal;word-spacing:normal;text-transform:none;writing-mode:lr-tb;direction:ltr;text-orientation:mixed;dominant-baseline:auto;baseline-shift:baseline;text-anchor:start;white-space:normal;shape-padding:0;clip-rule:nonzero;display:inline;overflow:visible;visibility:visible;isolation:auto;mix-blend-mode:normal;color-interpolation:sRGB;color-interpolation-filters:linearRGB;solid-color:#000000;solid-opacity:1;vector-effect:none;fill:#fafafa;fill-opacity:1;fill-rule:nonzero;stroke:none;stroke-width:5.07942;stroke-linecap:butt;stroke-linejoin:miter;stroke-miterlimit:4;stroke-dasharray:none;stroke-dashoffset:0;stroke-opacity:1;color-rendering:auto;image-rendering:auto;shape-rendering:auto;text-rendering:auto;enable-background:accumulate"
     inkscape:connector-curvature="0" /><path
     id="path234"
     d="m 164.79784,502.77131 v -5.07942 h 0.004 l -6.3516,-6.57742 -6.34913,6.57742 v 5.07942 z"
     style="color:#000000;font-style:normal;font-variant:normal;font-weight:normal;font-stretch:normal;font-size:medium;line-height:normal;font-family:sans-serif;font-variant-ligatures:normal;font-variant-position:normal;font-variant-caps:normal;font-variant-numeric:normal;font-variant-alternates:normal;font-feature-settings:normal;text-indent:0;text-align:start;text-decoration:none;text-decoration-line:none;text-decoration-style:solid;text-decoration-color:#000000;letter-spacing:normal;word-spacing:normal;text-transform:none;writing-mode:lr-tb;direction:ltr;text-orientation:mixed;dominant-baseline:auto;baseline-shift:baseline;text-anchor:start;white-space:normal;shape-padding:0;clip-rule:nonzero;display:inline;overflow:visible;visibility:visible;isolation:auto;mix-blend-mode:normal;color-interpolation:sRGB;color-interpolation-filters:linearRGB;solid-color:#000000;solid-opacity:1;vector-effect:none;fill:#fafafa;fill-opacity:1;fill-rule:nonzero;stroke:none;stroke-width:5.07942;stroke-linecap:butt;stroke-linejoin:miter;stroke-miterlimit:4;stroke-dasharray:none;stroke-dashoffset:0;stroke-opacity:1;color-rendering:auto;image-rendering:auto;shape-rendering:auto;text-rendering:auto;enable-background:accumulate"
     inkscape:connector-curvature="0" /><path
     id="path236"
     d="m 216.07411,502.77131 v -5.07942 h 0.002 l -6.35161,-6.57742 -6.34911,6.57742 v 5.07942 z"
     style="color:#000000;font-style:normal;font-variant:normal;font-weight:normal;font-stretch:normal;font-size:medium;line-height:normal;font-family:sans-serif;font-variant-ligatures:normal;font-variant-position:normal;font-variant-caps:normal;font-variant-numeric:normal;font-variant-alternates:normal;font-feature-settings:normal;text-indent:0;text-align:start;text-decoration:none;text-decoration-line:none;text-decoration-style:solid;text-decoration-color:#000000;letter-spacing:normal;word-spacing:normal;text-transform:none;writing-mode:lr-tb;direction:ltr;text-orientation:mixed;dominant-baseline:auto;baseline-shift:baseline;text-anchor:start;white-space:normal;shape-padding:0;clip-rule:nonzero;display:inline;overflow:visible;visibility:visible;isolation:auto;mix-blend-mode:normal;color-interpolation:sRGB;color-interpolation-filters:linearRGB;solid-color:#000000;solid-opacity:1;vector-effect:none;fill:#fafafa;fill-opacity:1;fill-rule:nonzero;stroke:none;stroke-width:5.07942;stroke-linecap:butt;stroke-linejoin:miter;stroke-miterlimit:4;stroke-dasharray:none;stroke-dashoffset:0;stroke-opacity:1;color-rendering:auto;image-rendering:auto;shape-rendering:auto;text-rendering:auto;enable-background:accumulate"
     inkscape:connector-curvature="0" /><path
     id="path237"
     d="m 241.71204,502.77131 v -5.07942 h 0.002 l -6.35162,-6.57742 -6.34911,6.57742 v 5.07942 z"
     style="color:#000000;font-style:normal;font-variant:normal;font-weight:normal;font-stretch:normal;font-size:medium;line-height:normal;font-family:sans-serif;font-variant-ligatures:normal;font-variant-position:normal;font-variant-caps:normal;font-variant-numeric:normal;font-variant-alternates:normal;font-feature-settings:normal;text-indent:0;text-align:start;text-decoration:none;text-decoration-line:none;text-decoration-style:solid;text-decoration-color:#000000;letter-spacing:normal;word-spacing:normal;text-transform:none;writing-mode:lr-tb;direction:ltr;text-orientation:mixed;dominant-baseline:auto;baseline-shift:baseline;text-anchor:start;white-space:normal;shape-padding:0;clip-rule:nonzero;display:inline;overflow:visible;visibility:visible;isolation:auto;mix-blend-mode:normal;color-interpolation:sRGB;color-interpolation-filters:linearRGB;solid-color:#000000;solid-opacity:1;vector-effect:none;fill:#fafafa;fill-opacity:1;fill-rule:nonzero;stroke:none;stroke-width:5.07942;stroke-linecap:butt;stroke-linejoin:miter;stroke-miterlimit:4;stroke-dasharray:none;stroke-dashoffset:0;stroke-opacity:1;color-rendering:auto;image-rendering:auto;shape-rendering:auto;text-rendering:auto;enable-background:accumulate"
     inkscape:connector-curvature="0" /><path
     id="path235"
     d="m 190.43619,502.77131 v -5.07942 h 0.002 l -6.3516,-6.57742 -6.34911,6.57742 v 5.07942 z"
     style="color:#000000;font-style:normal;font-variant:normal;font-weight:normal;font-stretch:normal;font-size:medium;line-height:normal;font-family:sans-serif;font-variant-ligatures:normal;font-variant-position:normal;font-variant-caps:normal;font-variant-numeric:normal;font-variant-alternates:normal;font-feature-settings:normal;text-indent:0;text-align:start;text-decoration:none;text-decoration-line:none;text-decoration-style:solid;text-decoration-color:#000000;letter-spacing:normal;word-spacing:normal;text-transform:none;writing-mode:lr-tb;direction:ltr;text-orientation:mixed;dominant-baseline:auto;baseline-shift:baseline;text-anchor:start;white-space:normal;shape-padding:0;clip-rule:nonzero;display:inline;overflow:visible;visibility:visible;isolation:auto;mix-blend-mode:normal;color-interpolation:sRGB;color-interpolation-filters:linearRGB;solid-color:#000000;solid-opacity:1;vector-effect:none;fill:#fafafa;fill-opacity:1;fill-rule:nonzero;stroke:none;stroke-width:5.07942;stroke-linecap:butt;stroke-linejoin:miter;stroke-miterlimit:4;stroke-dasharray:none;stroke-dashoffset:0;stroke-opacity:1;color-rendering:auto;image-rendering:auto;shape-rendering:auto;text-rendering:auto;enable-background:accumulate"
     inkscape:connector-curvature="0" /><path
     id="path236-7"
     d="m 190.43595,285.56714 v -5.07943 h 0.002 l -6.3516,-6.5774 -6.34911,6.5774 v 5.07943 z"
     style="color:#000000;font-style:normal;font-variant:normal;font-weight:normal;font-stretch:normal;font-size:medium;line-height:normal;font-family:sans-serif;font-variant-ligatures:normal;font-variant-position:normal;font-variant-caps:normal;font-variant-numeric:normal;font-variant-alternates:normal;font-feature-settings:normal;text-indent:0;text-align:start;text-decoration:none;text-decoration-line:none;text-decoration-style:solid;text-decoration-color:#000000;letter-spacing:normal;word-spacing:normal;text-transform:none;writing-mode:lr-tb;direction:ltr;text-orientation:mixed;dominant-baseline:auto;baseline-shift:baseline;text-anchor:start;white-space:normal;shape-padding:0;clip-rule:nonzero;display:inline;overflow:visible;visibility:visible;isolation:auto;mix-blend-mode:normal;color-interpolation:sRGB;color-interpolation-filters:linearRGB;solid-color:#000000;solid-opacity:1;vector-effect:none;fill:#fafafa;fill-opacity:1;fill-rule:nonzero;stroke:none;stroke-width:5.07942;stroke-linecap:butt;stroke-linejoin:miter;stroke-miterlimit:4;stroke-dasharray:none;stroke-dashoffset:0;stroke-opacity:1;color-rendering:auto;image-rendering:auto;shape-rendering:auto;text-rendering:auto;enable-background:accumulate"
     inkscape:connector-curvature="0" /><circle
     cx="-9.8388443"
     cy="394.37598"
     fill="#ffffff"
     stroke="#000000"
     stroke-width="2.66766"
     id="circle10"
     r="5.8354692"
     transform="rotate(-15)"
     style="stroke:#fafafa;stroke-opacity:1;fill:#1a1a1a;fill-opacity:1" /><circle
     cx="16.230291"
     cy="395.18213"
     fill="#ffffff"
     stroke="#000000"
     stroke-width="2.66766"
     id="circle3"
     r="5.8354692"
     transform="rotate(-15)"
     style="stroke:#fafafa;stroke-opacity:1;fill:#1a1a1a;fill-opacity:1" /><circle
     cx="26.059725"
     cy="-358.49799"
     fill="#ffffff"
     stroke="#000000"
     stroke-width="2.66766"
     id="circle76"
     r="5.8354692"
     transform="matrix(0.96592583,-0.25881903,-0.25881903,-0.96592583,0,0)"
     style="stroke:#fafafa;stroke-opacity:1;fill:#1a1a1a;fill-opacity:1" /><circle
     cx="343.61758"
     cy="318.4201"
     fill="#ffffff"
     stroke="#000000"
     stroke-width="2.66766"
     id="circle9"
     r="5.8354692"
     transform="rotate(15)"
     style="stroke:#fafafa;stroke-opacity:1;fill:#1a1a1a;fill-opacity:1" /><circle
     cx="-323.48544"
     cy="-245.17879"
     fill="#ffffff"
     stroke="#000000"
     stroke-width="2.66766"
     id="circle14"
     r="5.8354692"
     transform="rotate(-165)"
     style="stroke:#fafafa;stroke-opacity:1;fill:#1a1a1a;fill-opacity:1" /><circle
     cx="333.50235"
     cy="-281.81259"
     fill="#ffffff"
     stroke="#000000"
     stroke-width="2.66766"
     id="circle7"
     r="5.8354692"
     transform="matrix(0.96592583,0.25881903,0.25881903,-0.96592583,0,0)"
     style="stroke:#fafafa;stroke-opacity:1;fill:#1a1a1a;fill-opacity:1" /></svg>
