<?xml version="1.0" encoding="UTF-8" standalone="no"?>
<svg
   xml:space="preserve"
   id="svg2"
   width="1456.784"
   height="522.443"
   version="1.1"
   sodipodi:docname="nf-core-references_logo_dark.svg"
   inkscape:version="1.4.2 (1:1.4.2+202505120738+ebf0e940d0)"
   inkscape:export-filename="nf-core-references_logo_dark.png"
   inkscape:export-xdpi="96"
   inkscape:export-ydpi="96"
   xmlns:inkscape="http://www.inkscape.org/namespaces/inkscape"
   xmlns:sodipodi="http://sodipodi.sourceforge.net/DTD/sodipodi-0.dtd"
   xmlns="http://www.w3.org/2000/svg"
   xmlns:svg="http://www.w3.org/2000/svg"><sodipodi:namedview
     id="namedview1"
     pagecolor="#ffffff"
     bordercolor="#000000"
     borderopacity="0.25"
     inkscape:showpageshadow="2"
     inkscape:pageopacity="0.0"
     inkscape:pagecheckerboard="0"
     inkscape:deskcolor="#d1d1d1"
     inkscape:zoom="0.4404904"
     inkscape:cx="116.91515"
     inkscape:cy="497.17315"
     inkscape:window-width="1920"
     inkscape:window-height="1128"
     inkscape:window-x="0"
     inkscape:window-y="0"
     inkscape:window-maximized="1"
     inkscape:current-layer="svg2" /><defs
     id="defs6"><linearGradient
       id="f"
       x2="1"
       gradientTransform="matrix(37.935665,29.63859,-29.63859,37.935665,301.09789,166.19726)"
       gradientUnits="userSpaceOnUse"><stop
         id="stop12"
         offset="0"
         stop-color="#0c542a" /><stop
         id="stop14"
         offset=".215"
         stop-color="#0c542a" /><stop
         id="stop16"
         offset=".58"
         stop-color="#25af64" /><stop
         id="stop18"
         offset=".847"
         stop-color="#25af64" /><stop
         id="stop20"
         offset="1"
         stop-color="#25af64" /></linearGradient><clipPath
       id="e"><path
         id="path9"
         d="m280.17 136.33-21.5-21.584h61v21.584z" /></clipPath><linearGradient
       id="f-3"
       x2="1"
       gradientTransform="matrix(37.935665,29.63859,-29.63859,37.935665,300.0489,-473.80274)"
       gradientUnits="userSpaceOnUse"><stop
         id="stop12-6"
         offset="0"
         stop-color="#0c542a" /><stop
         id="stop14-7"
         offset=".215"
         stop-color="#0c542a" /><stop
         id="stop16-5"
         offset=".58"
         stop-color="#25af64" /><stop
         id="stop18-3"
         offset=".847"
         stop-color="#25af64" /><stop
         id="stop20-5"
         offset="1"
         stop-color="#25af64" /></linearGradient></defs><style
     id="style22"
     type="text/css">.st0{fill:#24af63}.st1{font-family:&quot;Maven Pro&quot;;font-weight:&quot;bold&quot;}.st2{font-size:209.8672px}.st4{fill:#ecdc86}.st7{fill:#396e35}</style><linearGradient
     id="d"
     x1="295.46"
     x2="333.34"
     y1="150.75"
     y2="180.35"
     gradientUnits="userSpaceOnUse"><stop
       id="stop41"
       offset=".215"
       stop-color="#0D552B" /><stop
       id="stop43"
       offset=".311"
       stop-color="#176837" /><stop
       id="stop45"
       offset=".461"
       stop-color="#1F8448" /><stop
       id="stop47"
       offset=".604"
       stop-color="#239A56" /><stop
       id="stop49"
       offset=".736"
       stop-color="#24A860" /><stop
       id="stop51"
       offset=".847"
       stop-color="#25AF64" /></linearGradient><g
     id="g4209"
     transform="translate(5.376)"><path
       id="path24"
       d="m 1084.1,163.75 v 3.6 c -0.1,0 -0.1,0 -0.2,0.1 l -1.8,-1.5 c -4,-3.4 -8.3,-6.4 -13.1,-8.8 -0.8,-0.4 -1.6,-0.9 -2.5,-1.1 -0.1,-0.1 -0.2,-0.2 -0.3,-0.2 -1.8,-0.7 -3.6,-1.3 -5.5,-1.8 -4.1,-0.9 -8.2,-1 -12.3,-0.2 -5.3,1.1 -10,3.4 -14.5,6.4 -4.4,3 -8.4,6.5 -12.1,10.2 -0.7,0.7 -0.7,0.7 -1.1,-0.2 -2,-4.1 -4.2,-8.1 -6.9,-11.8 -2.1,-2.8 -4.4,-5.4 -7.4,-7.2 -3,-1.9 -6.3,-2.6 -9.8,-1.7 -4.3,1 -7.8,3.6 -11.1,6.4 -2,1.5 -3.8,3.3 -5.6,5 -1.7,1.5 -3.3,3 -5,4.5 -0.3,0.3 -0.5,0.3 -0.8,0 -1.7,-1.8 -3.5,-3.4 -5.6,-4.5 -3.1,-1.7 -6.3,-1.9 -9.6,-0.8 -2.8,0.9 -5.2,2.4 -7.7,4 -1,0.6 -1.9,1.3 -2.9,1.8 v -0.2 c 0.1,-0.2 0.1,-0.4 0.1,-0.6 0.2,-4.4 0.5,-8.9 1.2,-13.3 1,-6.1 2.5,-12 5.2,-17.5 2,-4.1 4.7,-7.9 8.1,-11 4.5,-4.1 9.8,-6.7 15.6,-8.3 6.3,-1.8 12.7,-2.6 19.2,-2.9 2.6,-0.1 5.1,-0.2 7.7,-0.3 1.3,0.5 2.6,0.8 3.9,1.2 1.9,0.6 3.8,1.2 5.7,1.7 1,0.4 1.9,0.7 2.9,1.1 3.7,1.3 7.3,3 10.4,5.5 0.8,0.6 1.6,1.3 2.4,2 -0.2,-0.6 -0.4,-1.1 -0.6,-1.7 -1.4,-3.7 -3.5,-6.7 -6.9,-8.8 -1.4,-0.9 -2.9,-1.5 -4.4,-2.3 0.1,0 0.3,0 0.4,-0.1 4.5,-0.8 9.1,-1.2 13.7,-1.4 3.9,-0.2 7.9,-0.1 11.8,0.3 4.6,0.5 9.1,1.4 13.4,3 6.4,2.4 11.9,6.1 16.2,11.5 3.7,4.7 6.1,10.1 7.6,15.9 1.5,5.7 2.1,11.6 2.3,17.5 -0.1,2.1 -0.1,4.3 -0.1,6.5"
       class="st0"
       style="fill:#24af63" /><path
       id="path26"
       d="m 1084.1,157.15 h 0.1 v 6.6 h -0.1 z"
       class="st4"
       style="fill:#ecdc86" /><path
       id="path28"
       d="m 1047.6,62.25 v 0.1 h -4.5 v -0.1 z"
       style="fill:#a0918f" /><path
       id="path30"
       d="m 1050.5,250.65 c 2.5,-1 4.9,-2.3 7.3,-3.6 2.8,-1.7 5.4,-3.5 8,-5.4 2.2,-1.6 4.3,-3.3 6.4,-5.1 l 3.6,-3 c 0.2,-0.2 0.2,-0.1 0.3,0.1 0.4,1.6 0.7,3.3 1.1,5 0.5,2.3 0.8,4.6 1.1,6.9 0.3,2.7 0.4,5.3 0.2,8 -0.2,3.3 -0.8,6.6 -2,9.7 q -1.05,2.85 -2.7,5.4 c -1.4,2.2 -3,4.2 -5,5.9 -2.3,2.1 -4.9,3.9 -7.7,5.4 -3.7,2.1 -7.7,3.6 -11.8,4.8 -3.9,1.2 -7.9,2 -11.9,2.7 -1.1,0.2 -2.2,0.4 -3.3,0.4 -2.3,-0.1 -4.6,-0.6 -6.8,-1.4 -3.3,-1.3 -6.2,-3.3 -9.5,-4.8 -1.8,-0.8 -3.6,-1.4 -5.5,-1.5 -2.5,-0.2 -4.6,0.7 -6.4,2.4 l -3.9,3.9 c -2.2,2.2 -4.8,3.7 -7.9,4.2 -2.1,0.3 -4.1,0.2 -6.2,-0.1 -2.9,-0.4 -5.7,-1.1 -8.4,-1.9 -4,-1.3 -7.7,-3.1 -11.1,-5.7 -3.2,-2.4 -5.7,-5.4 -7.8,-8.8 -2.1,-3.5 -3.3,-7.2 -4.2,-11.1 -0.4,-1.7 -0.6,-3.5 -0.8,-5.2 -0.3,-2.5 -0.4,-4.9 -0.3,-7.4 0.1,-3.5 0.4,-6.9 0.9,-10.4 0.4,0.4 0.8,0.7 1.1,1 2.2,2 4.7,3.8 7.3,5.4 2.9,1.7 6.1,3.1 9.4,4 2.2,0.6 4.5,1 6.8,1.1 1.9,0.2 3.8,0.2 5.7,0.1 2.2,-0.1 4.5,-0.3 6.7,-0.9 0.3,0 0.6,0 0.8,-0.1 q 3,-0.6 6,-1.5 c 2.3,-0.7 4.5,-1.4 6.7,-2.2 2.1,-0.8 4.3,-1.7 6.4,-2.6 0.6,-0.3 1,-0.2 1.5,0.2 3.5,2.7 7.3,5 11.4,6.7 4.6,1.8 9.3,2.7 14.2,2.3 3.6,-0.7 7,-1.6 10.3,-2.9"
       class="st0"
       style="fill:#24af63" /><path
       id="path32"
       d="m 1050.5,250.65 c -3.3,1.3 -6.7,2.2 -10.2,2.5 -4.9,0.4 -9.6,-0.5 -14.2,-2.3 -4.1,-1.6 -7.9,-3.9 -11.4,-6.7 -0.5,-0.4 -0.9,-0.5 -1.5,-0.2 -2.1,0.9 -4.2,1.8 -6.4,2.6 -2.2,0.8 -4.4,1.6 -6.7,2.2 -2,0.6 -4,1 -6,1.5 -0.3,0.1 -0.6,0.1 -0.8,0.1 l 2.1,-2.4 c 2.8,-3.2 4.8,-6.9 5.9,-11.1 1.6,-5.6 3.2,-11.3 4.6,-17 1,-4.2 1.8,-8.4 2.4,-12.7 0.4,-3.1 1,-14.9 0.8,-17.7 -0.5,-8.6 -2.4,-16.8 -5.9,-24.7 -2.1,-4.7 -5.7,-7.9 -10.7,-9.2 -2.2,-0.6 -4.4,-0.4 -6.5,0.3 -0.2,0.1 -0.3,0.2 -0.5,0.1 3.3,-2.8 6.7,-5.4 11.1,-6.4 3.5,-0.8 6.8,-0.2 9.8,1.7 3,1.9 5.3,4.4 7.4,7.2 2.7,3.7 4.9,7.7 6.9,11.8 0.4,0.9 0.4,0.9 1.1,0.2 3.7,-3.8 7.7,-7.3 12.1,-10.2 4.4,-3 9.2,-5.3 14.5,-6.4 4.1,-0.8 8.2,-0.7 12.3,0.2 1.9,0.4 3.7,1 5.5,1.8 0.1,0.1 0.3,0.1 0.3,0.2 -5.3,0.1 -9.8,2.1 -13.9,5.2 -2,1.5 -3.8,3.2 -5.2,5.3 -1.1,1.7 -2.1,3.6 -2.9,5.5 -1.8,3.8 -3.3,7.8 -4.4,11.9 -0.9,3.5 -1.5,7.1 -1.8,10.7 -0.2,2.8 -0.3,5.6 -0.2,8.4 0.1,3.4 0.5,6.8 0.9,10.3 0.7,5.7 1.7,11.4 2.7,17.1 0.5,3.1 0.9,6.3 1.5,9.5 0.7,4.6 3.3,8 7,10.6 0,-0.1 0.2,0 0.3,0.1"
       class="st4"
       style="fill:#ecdc86" /><path
       id="path34"
       d="m 1043.1,62.35 h 4.5 c 3.6,0.2 7.2,0.8 10.6,2 2.7,0.9 3.3,2.7 1.7,5 -1.1,1.6 -2.7,2.8 -4.4,3.9 -2.1,1.4 -4.4,2.6 -6.9,3.5 -2.5,1 -4.9,0 -6.5,-2.5 -0.5,-0.8 -0.9,-1.6 -1.1,-2.5 -0.1,-0.3 -0.2,-0.4 -0.5,-0.4 -5.6,-1 -10.6,0.3 -14.7,4.3 -3.4,3.2 -5.4,7.3 -6.8,11.7 -1.3,4 -1.9,8 -2.1,12.2 -0.2,3.7 0.1,7.4 0.6,11 0.1,0.6 0.3,1.2 0.3,1.9 0.1,0.8 -0.2,1.5 -0.8,1.9 -0.7,0.5 -1.5,0.4 -2.3,0.4 -1.9,-0.6 -3.8,-1.2 -5.7,-1.7 v -1.3 c 0,-2 0,-3.9 0.1,-5.9 0.4,-7.7 1.6,-15.3 4.6,-22.5 2.2,-5.4 5.4,-10.1 9.9,-13.8 3.7,-3.1 7.9,-5.1 12.6,-6.2 2.4,-0.6 4.6,-0.9 6.9,-1"
       style="fill:#3f2b29" /><path
       id="path36"
       d="m 1014.8,114.65 c 0.8,0 1.6,0.1 2.3,-0.4 0.7,-0.5 0.9,-1.2 0.8,-1.9 -0.1,-0.6 -0.2,-1.3 -0.3,-1.9 0.4,0 0.7,-0.1 1.1,-0.1 1.4,0.8 2.9,1.5 4.4,2.3 3.4,2.1 5.5,5.1 6.9,8.8 0.2,0.6 0.4,1.1 0.6,1.7 -0.8,-0.7 -1.6,-1.4 -2.4,-2 -3.2,-2.4 -6.7,-4.1 -10.4,-5.5 -1.1,-0.3 -2,-0.6 -3,-1"
       class="st7"
       style="fill:#396e35" /><path
       id="path38"
       d="m 1009.1,111.65 v 1.3 c -1.3,-0.4 -2.6,-0.7 -3.9,-1.2 1.4,-0.1 2.7,-0.1 3.9,-0.1"
       class="st7"
       style="fill:#396e35" /></g><text
     id="text53"
     x="54.274998"
     y="241.245"
     font-size="209.87"
     font-weight="bold"
     style="font-weight:700;font-size:209.87px;font-family:'Maven Pro'"><tspan
       id="tspan55"
       x="54.274998"
       y="241.245"
       class="st0 st1 st2"
       font-size="209.87"
       font-weight="bold"
       style="font-weight:700;font-size:209.867px;font-family:'Maven Pro';fill:#24af63">nf-</tspan></text><text
     id="text69"
     x="362.517"
     y="241.245"
     font-size="209.87"
     font-weight="bold"
     style="font-weight:700;font-size:209.87px;font-family:'Maven Pro'"><tspan
       id="tspan71"
       x="362.517"
       y="241.245"
       class="st0 st1 st2"
       font-size="209.87"
       font-weight="bold"
       style="font-weight:700;font-size:209.867px;font-family:'Maven Pro';fill:#24af63"><tspan
         id="tspan73"
         style="fill:#fafafa">core/</tspan></tspan></text><text
     id="text59"
     x="47.48204"
     y="457.04501"
     font-weight="bold"
     style="font-weight:700;font-family:'Maven Pro'"><tspan
       id="tspan61"
       x="355.38202"
       y="457.04501"
       class="st1 st2"
       font-size="209.87"
       font-weight="bold"
       style="font-weight:700;font-size:209.867px;font-family:'Maven Pro';fill:#fafafa">references</tspan></text><path
     id="path67"
     d="m 305.813,166.116 -21.532,21.616 h 61.092 v -21.617 z"
     style="fill:url(#f)" /><g
     id="g2"
     transform="translate(0,-204.08196)"><path
       id="path130-5-6"
       d="m 77.13925,584.04302 38.40703,22.23396 h 41.19943"
       style="display:inline;fill:none;stroke:#01862e;stroke-width:10.6953;stroke-linecap:butt;stroke-linejoin:miter;stroke-miterlimit:4;stroke-dasharray:none;stroke-dashoffset:0;stroke-opacity:1"
       inkscape:connector-curvature="0"
       sodipodi:nodetypes="ccc" /><circle
       cx="-76.524139"
       cy="583.90814"
       fill="#ffffff"
       stroke="#000000"
       stroke-width="2.95153"
       id="circle130-0-7"
       r="6.4564638"
       transform="rotate(-14.999998)"
       style="fill:#000000;stroke:#fafafa;stroke-opacity:1" /><path
       id="path131-3-5"
       d="m 105.22902,576.51885 76.93084,44.41598"
       style="display:inline;fill:none;stroke:#01862e;stroke-width:10.6953;stroke-linecap:butt;stroke-linejoin:miter;stroke-miterlimit:4;stroke-dasharray:none;stroke-dashoffset:0;stroke-opacity:1"
       inkscape:connector-curvature="0"
       sodipodi:nodetypes="cc" /><circle
       cx="-47.680767"
       cy="584.80005"
       fill="#ffffff"
       stroke="#000000"
       stroke-width="2.95153"
       id="circle131-6-3"
       r="6.4564638"
       transform="rotate(-14.999998)"
       style="fill:#000000;stroke:#fafafa;stroke-opacity:1" /><path
       id="path134-0-5"
       d="m 136.21117,510.36699 45.94867,26.52849"
       style="display:inline;fill:none;stroke:#ffa140;stroke-width:10.6953;stroke-linecap:butt;stroke-linejoin:miter;stroke-miterlimit:4;stroke-dasharray:none;stroke-dashoffset:0;stroke-opacity:1"
       inkscape:connector-curvature="0"
       sodipodi:nodetypes="cc" /><circle
       cx="-0.39402869"
       cy="528.02911"
       fill="#ffffff"
       stroke="#000000"
       stroke-width="2.95153"
       id="circle134-6-6"
       r="6.4564629"
       transform="rotate(-14.999999)"
       style="fill:#000000;stroke:#fafafa;stroke-opacity:1" /><path
       id="path140-3-2"
       d="m 261.90121,561.75901 -76.93085,44.41604"
       style="display:inline;fill:none;stroke:#01862e;stroke-width:10.6953;stroke-linecap:butt;stroke-linejoin:miter;stroke-miterlimit:4;stroke-dasharray:none;stroke-dashoffset:0;stroke-opacity:1"
       inkscape:connector-curvature="0"
       sodipodi:nodetypes="cc" /><circle
       cx="398.51694"
       cy="474.39133"
       fill="#ffffff"
       stroke="#000000"
       stroke-width="2.95153"
       id="circle140-2-9"
       r="6.4564638"
       transform="rotate(14.999999)"
       style="fill:#000000;stroke:#fafafa;stroke-opacity:1" /><path
       id="path143-6-1"
       d="m 290.27837,568.05108 -38.40705,22.23397 -39.9346,-10e-6"
       style="display:inline;fill:none;stroke:#01862e;stroke-width:10.6953;stroke-linecap:butt;stroke-linejoin:miter;stroke-miterlimit:4;stroke-dasharray:none;stroke-dashoffset:0;stroke-opacity:1"
       inkscape:connector-curvature="0"
       sodipodi:nodetypes="ccc" /><circle
       cx="427.55807"
       cy="474.39151"
       fill="#ffffff"
       stroke="#000000"
       stroke-width="2.95153"
       id="circle143-1-2"
       r="6.4564629"
       transform="rotate(14.999999)"
       style="fill:#000000;stroke:#fafafa;stroke-opacity:1" /><path
       id="path145-4-7"
       d="m 228.1911,537.33893 -43.17784,25.96149"
       style="display:inline;fill:none;stroke:#800080;stroke-width:10.6953;stroke-linecap:butt;stroke-linejoin:miter;stroke-miterlimit:4;stroke-dasharray:none;stroke-dashoffset:0;stroke-opacity:1"
       inkscape:connector-curvature="0"
       sodipodi:nodetypes="cc" /><path
       id="path146-7-0"
       d="m 228.27881,532.12459 -42.85048,24.73973"
       style="display:inline;fill:none;stroke:#01862e;stroke-width:10.6953;stroke-linecap:butt;stroke-linejoin:miter;stroke-miterlimit:4;stroke-dasharray:none;stroke-dashoffset:0;stroke-opacity:1"
       inkscape:connector-curvature="0"
       sodipodi:nodetypes="cc" /><path
       id="path158-6-9"
       d="m 136.21117,552.38669 45.94867,26.52853"
       style="display:inline;fill:none;stroke:#002b6b;stroke-width:10.6953;stroke-linecap:butt;stroke-linejoin:miter;stroke-miterlimit:4;stroke-dasharray:none;stroke-dashoffset:0;stroke-opacity:1"
       inkscape:connector-curvature="0"
       sodipodi:nodetypes="cc" /><circle
       cx="-11.50851"
       cy="-569.50897"
       fill="#ffffff"
       stroke="#000000"
       stroke-width="2.95153"
       id="circle158-9-3"
       r="6.4564629"
       transform="matrix(0.96592583,-0.25881903,-0.25881903,-0.96592583,0,0)"
       style="fill:#000000;stroke:#fafafa;stroke-opacity:1" /><path
       style="display:inline;fill:none;stroke:#800080;stroke-width:5.62187;stroke-linecap:butt;stroke-linejoin:miter;stroke-miterlimit:4;stroke-dasharray:none;stroke-dashoffset:0;stroke-opacity:1"
       d="m 207.39631,650.00586 h 30.8133 l 23.15233,23.14135 0.007,25.29684"
       id="path180-4-6"
       sodipodi:nodetypes="cccc" /><g
       id="g6"
       transform="matrix(2.0700193,-1.1951261,1.1951261,2.0700193,-170.89141,502.71222)"><path
         id="path5"
         d="m 137.35045,96.027041 -21.0747,0.374186"
         style="display:inline;fill:none;stroke:#800080;stroke-width:2.35168;stroke-linecap:butt;stroke-linejoin:miter;stroke-miterlimit:4;stroke-dasharray:none;stroke-dashoffset:0;stroke-opacity:1"
         inkscape:connector-curvature="0"
         sodipodi:nodetypes="cc" /><path
         id="path6"
         d="M 138.47298,94.156153 H 117.77246"
         style="display:inline;fill:none;stroke:#01862e;stroke-width:2.35168;stroke-linecap:butt;stroke-linejoin:miter;stroke-miterlimit:4;stroke-dasharray:none;stroke-dashoffset:0;stroke-opacity:1"
         inkscape:connector-curvature="0"
         sodipodi:nodetypes="cc" /></g><circle
       cx="-360.96927"
       cy="-455.99277"
       fill="#ffffff"
       stroke="#000000"
       stroke-width="2.95153"
       id="circle146-6-0"
       r="6.4564629"
       transform="rotate(-165)"
       style="fill:#000000;stroke:#fafafa;stroke-opacity:1" /><path
       style="display:inline;fill:none;stroke:#800080;stroke-width:10.6953;stroke-linecap:butt;stroke-linejoin:miter;stroke-miterlimit:4;stroke-dasharray:none;stroke-dashoffset:0;stroke-opacity:1"
       d="m 207.39631,650.00586 h 30.8133 l 23.15233,23.14135 0.007,25.29684"
       id="path7"
       sodipodi:nodetypes="cccc" /><path
       style="display:inline;fill:none;stroke:#800080;stroke-width:10.6953;stroke-linecap:butt;stroke-linejoin:miter;stroke-miterlimit:4;stroke-dasharray:none;stroke-dashoffset:0;stroke-opacity:1"
       d="m 186.90058,629.54198 43.60484,43.60484 v 25.29682"
       id="path14"
       sodipodi:nodetypes="ccc" /><path
       style="display:inline;fill:none;stroke:#ffa140;stroke-width:10.6953;stroke-linecap:butt;stroke-linejoin:miter;stroke-miterlimit:4;stroke-dasharray:none;stroke-dashoffset:0;stroke-opacity:1"
       d="m 181.35642,629.54198 -43.60483,43.60484 v 25.29684"
       id="path8"
       sodipodi:nodetypes="ccc" /><path
       style="display:inline;fill:none;stroke:#ffa140;stroke-width:6.41716;stroke-linecap:butt;stroke-linejoin:miter;stroke-miterlimit:4;stroke-dasharray:none;stroke-dashoffset:0;stroke-opacity:1"
       d="m 175.69684,497.43051 v 137.77105 l -37.94525,37.94526 v 25.29684"
       id="path163-3-6"
       sodipodi:nodetypes="cccc" /><path
       style="display:inline;fill:none;stroke:#800080;stroke-width:6.41716;stroke-linecap:butt;stroke-linejoin:miter;stroke-miterlimit:4;stroke-dasharray:none;stroke-dashoffset:0;stroke-opacity:1"
       d="m 192.56016,497.43051 v 137.77105 l 37.94526,37.94526 v 25.29682"
       id="path166-5-2"
       sodipodi:nodetypes="cccc" /><path
       style="display:inline;fill:none;stroke:#002b6b;stroke-width:10.6953;stroke-linecap:butt;stroke-linejoin:miter;stroke-miterlimit:4;stroke-dasharray:none;stroke-dashoffset:0;stroke-opacity:1"
       d="m 181.27469,639.01748 18.30802,18.30561 v 43.27885"
       id="path11"
       sodipodi:nodetypes="ccc" /><path
       style="display:inline;fill:none;stroke:#01862e;stroke-width:6.41716;stroke-linecap:butt;stroke-linejoin:miter;stroke-miterlimit:4;stroke-dasharray:none;stroke-dashoffset:0;stroke-opacity:1"
       d="m 181.31795,497.43051 0.005,145.44499 -12.64843,12.64603 v 45.08038"
       id="path165-4-6"
       sodipodi:nodetypes="cccc" /><path
       style="display:inline;fill:none;stroke:#01862e;stroke-width:10.6953;stroke-linecap:butt;stroke-linejoin:miter;stroke-miterlimit:4;stroke-dasharray:none;stroke-dashoffset:0;stroke-opacity:1"
       d="m 186.98233,639.01748 -18.30802,18.30561 v 43.27882"
       id="path12"
       sodipodi:nodetypes="ccc" /><path
       style="display:inline;fill:none;stroke:#002b6b;stroke-width:6.41716;stroke-linecap:butt;stroke-linejoin:miter;stroke-miterlimit:4;stroke-dasharray:none;stroke-dashoffset:0;stroke-opacity:1"
       d="m 188.00023,497.43051 -0.005,145.44499 12.64843,12.64603 v 45.08041"
       id="path164-7-1"
       sodipodi:nodetypes="cccc" /><path
       id="path169-2-8"
       d="m 237.49648,700.97833 v -5.61995 h 0.002 l -7.02752,-7.27737 -7.02476,7.27737 v 5.61995 z"
       style="color:#000000;font-style:normal;font-variant:normal;font-weight:normal;font-stretch:normal;font-size:medium;line-height:normal;font-family:sans-serif;font-variant-ligatures:normal;font-variant-position:normal;font-variant-caps:normal;font-variant-numeric:normal;font-variant-alternates:normal;font-feature-settings:normal;text-indent:0;text-align:start;text-decoration:none;text-decoration-line:none;text-decoration-style:solid;text-decoration-color:#000000;letter-spacing:normal;word-spacing:normal;text-transform:none;writing-mode:lr-tb;direction:ltr;text-orientation:mixed;dominant-baseline:auto;baseline-shift:baseline;text-anchor:start;white-space:normal;shape-padding:0;clip-rule:nonzero;display:inline;overflow:visible;visibility:visible;isolation:auto;mix-blend-mode:normal;color-interpolation:sRGB;color-interpolation-filters:linearRGB;solid-color:#000000;solid-opacity:1;vector-effect:none;fill:#fafafa;fill-opacity:1;fill-rule:nonzero;stroke:none;stroke-width:5.61996;stroke-linecap:butt;stroke-linejoin:miter;stroke-miterlimit:4;stroke-dasharray:none;stroke-dashoffset:0;stroke-opacity:1;color-rendering:auto;image-rendering:auto;shape-rendering:auto;text-rendering:auto;enable-background:accumulate"
       inkscape:connector-curvature="0"
       sodipodi:nodetypes="ccccccc" /><path
       id="path175-4-7"
       d="m 206.60006,700.97833 v -5.61995 h 0.002 l -7.02754,-7.27737 -7.02476,7.27737 v 5.61995 z"
       style="color:#000000;font-style:normal;font-variant:normal;font-weight:normal;font-stretch:normal;font-size:medium;line-height:normal;font-family:sans-serif;font-variant-ligatures:normal;font-variant-position:normal;font-variant-caps:normal;font-variant-numeric:normal;font-variant-alternates:normal;font-feature-settings:normal;text-indent:0;text-align:start;text-decoration:none;text-decoration-line:none;text-decoration-style:solid;text-decoration-color:#000000;letter-spacing:normal;word-spacing:normal;text-transform:none;writing-mode:lr-tb;direction:ltr;text-orientation:mixed;dominant-baseline:auto;baseline-shift:baseline;text-anchor:start;white-space:normal;shape-padding:0;clip-rule:nonzero;display:inline;overflow:visible;visibility:visible;isolation:auto;mix-blend-mode:normal;color-interpolation:sRGB;color-interpolation-filters:linearRGB;solid-color:#000000;solid-opacity:1;vector-effect:none;fill:#fafafa;fill-opacity:1;fill-rule:nonzero;stroke:none;stroke-width:5.61996;stroke-linecap:butt;stroke-linejoin:miter;stroke-miterlimit:4;stroke-dasharray:none;stroke-dashoffset:0;stroke-opacity:1;color-rendering:auto;image-rendering:auto;shape-rendering:auto;text-rendering:auto;enable-background:accumulate"
       inkscape:connector-curvature="0"
       sodipodi:nodetypes="ccccccc" /><path
       id="path178-7-9"
       d="m 175.70363,700.97833 v -5.61995 h 0.002 l -7.02752,-7.27737 -7.02478,7.27737 v 5.61995 z"
       style="color:#000000;font-style:normal;font-variant:normal;font-weight:normal;font-stretch:normal;font-size:medium;line-height:normal;font-family:sans-serif;font-variant-ligatures:normal;font-variant-position:normal;font-variant-caps:normal;font-variant-numeric:normal;font-variant-alternates:normal;font-feature-settings:normal;text-indent:0;text-align:start;text-decoration:none;text-decoration-line:none;text-decoration-style:solid;text-decoration-color:#000000;letter-spacing:normal;word-spacing:normal;text-transform:none;writing-mode:lr-tb;direction:ltr;text-orientation:mixed;dominant-baseline:auto;baseline-shift:baseline;text-anchor:start;white-space:normal;shape-padding:0;clip-rule:nonzero;display:inline;overflow:visible;visibility:visible;isolation:auto;mix-blend-mode:normal;color-interpolation:sRGB;color-interpolation-filters:linearRGB;solid-color:#000000;solid-opacity:1;vector-effect:none;fill:#fafafa;fill-opacity:1;fill-rule:nonzero;stroke:none;stroke-width:5.61996;stroke-linecap:butt;stroke-linejoin:miter;stroke-miterlimit:4;stroke-dasharray:none;stroke-dashoffset:0;stroke-opacity:1;color-rendering:auto;image-rendering:auto;shape-rendering:auto;text-rendering:auto;enable-background:accumulate"
       inkscape:connector-curvature="0"
       sodipodi:nodetypes="ccccccc" /><path
       id="path183-3-2"
       d="m 268.39288,700.97833 v -5.61995 h 0.002 l -7.02754,-7.27737 -7.02476,7.27737 v 5.61995 z"
       style="color:#000000;font-style:normal;font-variant:normal;font-weight:normal;font-stretch:normal;font-size:medium;line-height:normal;font-family:sans-serif;font-variant-ligatures:normal;font-variant-position:normal;font-variant-caps:normal;font-variant-numeric:normal;font-variant-alternates:normal;font-feature-settings:normal;text-indent:0;text-align:start;text-decoration:none;text-decoration-line:none;text-decoration-style:solid;text-decoration-color:#000000;letter-spacing:normal;word-spacing:normal;text-transform:none;writing-mode:lr-tb;direction:ltr;text-orientation:mixed;dominant-baseline:auto;baseline-shift:baseline;text-anchor:start;white-space:normal;shape-padding:0;clip-rule:nonzero;display:inline;overflow:visible;visibility:visible;isolation:auto;mix-blend-mode:normal;color-interpolation:sRGB;color-interpolation-filters:linearRGB;solid-color:#000000;solid-opacity:1;vector-effect:none;fill:#fafafa;fill-opacity:1;fill-rule:nonzero;stroke:none;stroke-width:5.61996;stroke-linecap:butt;stroke-linejoin:miter;stroke-miterlimit:4;stroke-dasharray:none;stroke-dashoffset:0;stroke-opacity:1;color-rendering:auto;image-rendering:auto;shape-rendering:auto;text-rendering:auto;enable-background:accumulate"
       inkscape:connector-curvature="0"
       sodipodi:nodetypes="ccccccc" /><path
       id="path172-5-0"
       d="m 144.80669,700.97833 v -5.61995 h 0.002 l -7.02752,-7.27737 -7.02478,7.27737 v 5.61995 z"
       style="color:#000000;font-style:normal;font-variant:normal;font-weight:normal;font-stretch:normal;font-size:medium;line-height:normal;font-family:sans-serif;font-variant-ligatures:normal;font-variant-position:normal;font-variant-caps:normal;font-variant-numeric:normal;font-variant-alternates:normal;font-feature-settings:normal;text-indent:0;text-align:start;text-decoration:none;text-decoration-line:none;text-decoration-style:solid;text-decoration-color:#000000;letter-spacing:normal;word-spacing:normal;text-transform:none;writing-mode:lr-tb;direction:ltr;text-orientation:mixed;dominant-baseline:auto;baseline-shift:baseline;text-anchor:start;white-space:normal;shape-padding:0;clip-rule:nonzero;display:inline;overflow:visible;visibility:visible;isolation:auto;mix-blend-mode:normal;color-interpolation:sRGB;color-interpolation-filters:linearRGB;solid-color:#000000;solid-opacity:1;vector-effect:none;fill:#fafafa;fill-opacity:1;fill-rule:nonzero;stroke:none;stroke-width:5.61996;stroke-linecap:butt;stroke-linejoin:miter;stroke-miterlimit:4;stroke-dasharray:none;stroke-dashoffset:0;stroke-opacity:1;color-rendering:auto;image-rendering:auto;shape-rendering:auto;text-rendering:auto;enable-background:accumulate"
       inkscape:connector-curvature="0"
       sodipodi:nodetypes="ccccccc" /><path
       style="display:inline;fill:none;stroke:#002b6b;stroke-width:5.34763;stroke-linecap:butt;stroke-linejoin:miter;stroke-miterlimit:4;stroke-dasharray:none;stroke-dashoffset:0;stroke-opacity:1"
       d="m 186.79947,497.43051 -0.005,152.01099"
       id="path15"
       sodipodi:nodetypes="cc" /><path
       id="path179-4-2"
       d="m 197.14521,502.99744 v -5.64314 h 0.005 l -13.02407,-13.48707 -13.01895,13.48707 v 5.64314 z"
       style="color:#000000;font-style:normal;font-variant:normal;font-weight:normal;font-stretch:normal;font-size:medium;line-height:normal;font-family:sans-serif;font-variant-ligatures:normal;font-variant-position:normal;font-variant-caps:normal;font-variant-numeric:normal;font-variant-alternates:normal;font-feature-settings:normal;text-indent:0;text-align:start;text-decoration:none;text-decoration-line:none;text-decoration-style:solid;text-decoration-color:#000000;letter-spacing:normal;word-spacing:normal;text-transform:none;writing-mode:lr-tb;direction:ltr;text-orientation:mixed;dominant-baseline:auto;baseline-shift:baseline;text-anchor:start;white-space:normal;shape-padding:0;clip-rule:nonzero;display:inline;overflow:visible;visibility:visible;isolation:auto;mix-blend-mode:normal;color-interpolation:sRGB;color-interpolation-filters:linearRGB;solid-color:#000000;solid-opacity:1;vector-effect:none;fill:#fafafa;fill-opacity:1;fill-rule:nonzero;stroke:none;stroke-width:10.4154;stroke-linecap:butt;stroke-linejoin:miter;stroke-miterlimit:4;stroke-dasharray:none;stroke-dashoffset:0;stroke-opacity:1;color-rendering:auto;image-rendering:auto;shape-rendering:auto;text-rendering:auto;enable-background:accumulate"
       inkscape:connector-curvature="0"
       sodipodi:nodetypes="ccccccc" /></g></svg>
