<?xml version="1.0" encoding="UTF-8" standalone="no"?>
<!-- Created with Inkscape (http://www.inkscape.org/) -->

<svg
   width="4.3994093cm"
   height="5.0800004cm"
   viewBox="0 0 43.994093 50.800004"
   version="1.1"
   id="svg1"
   sodipodi:docname="nfcore-crisprseq-logo-hex-light.svg"
   inkscape:version="1.3.2 (091e20e, 2023-11-25)"
   inkscape:export-filename="nfcore-crisprseq-logo-hex-light.png"
   inkscape:export-xdpi="300"
   inkscape:export-ydpi="300"
   xml:space="preserve"
   xmlns:inkscape="http://www.inkscape.org/namespaces/inkscape"
   xmlns:sodipodi="http://sodipodi.sourceforge.net/DTD/sodipodi-0.dtd"
   xmlns="http://www.w3.org/2000/svg"
   xmlns:svg="http://www.w3.org/2000/svg"><sodipodi:namedview
     id="namedview1"
     pagecolor="#505050"
     bordercolor="#ffffff"
     borderopacity="1"
     inkscape:showpageshadow="0"
     inkscape:pageopacity="0"
     inkscape:pagecheckerboard="1"
     inkscape:deskcolor="#d1d1d1"
     inkscape:document-units="mm"
     showguides="false"
     inkscape:zoom="2.9258042"
     inkscape:cx="57.591004"
     inkscape:cy="103.04859"
     inkscape:current-layer="layer1"
     showgrid="false"
     inkscape:window-width="1512"
     inkscape:window-height="916"
     inkscape:window-x="0"
     inkscape:window-y="38"
     inkscape:window-maximized="1"><sodipodi:guide
       position="12.133177,29.02678"
       orientation="1,0"
       id="guide1"
       inkscape:locked="false" /><sodipodi:guide
       position="21.997045,38.893752"
       orientation="0,-1"
       id="guide2"
       inkscape:locked="false" /><sodipodi:guide
       position="31.84153,29.026781"
       orientation="1,0"
       id="guide3"
       inkscape:locked="false" /><sodipodi:guide
       position="30.427082,19.050003"
       orientation="0,-1"
       id="guide4"
       inkscape:locked="false" /><sodipodi:guide
       position="33.337499,16.40417"
       orientation="0,-1"
       id="guide5"
       inkscape:locked="false" /><sodipodi:guide
       position="20.815722,10.727297"
       orientation="0,-1"
       id="guide6"
       inkscape:locked="false" /><sodipodi:guide
       position="21.997047,29.02678"
       orientation="1,0"
       id="guide11"
       inkscape:locked="false" /><sodipodi:guide
       position="21.997047,29.02678"
       orientation="0,-1"
       id="guide12"
       inkscape:locked="false" /><inkscape:grid
       id="grid1"
       units="px"
       originx="0"
       originy="0"
       spacingx="0.26458332"
       spacingy="0.26458333"
       empcolor="#e50000"
       empopacity="0.30196078"
       color="#e50000"
       opacity="0.14901961"
       empspacing="5"
       dotted="true"
       gridanglex="30"
       gridanglez="30"
       visible="false" /></sodipodi:namedview><defs
     id="defs1"><marker
       style="overflow:visible"
       id="Dot"
       refX="0"
       refY="0"
       orient="auto"
       inkscape:stockid="Dot"
       markerWidth="0.5"
       markerHeight="0.5"
       viewBox="0 0 1 1"
       inkscape:isstock="true"
       inkscape:collect="always"
       preserveAspectRatio="xMidYMid"><path
         transform="scale(0.5)"
         style="fill:context-stroke;fill-rule:evenodd;stroke:none"
         d="M 5,0 C 5,2.76 2.76,5 0,5 -2.76,5 -5,2.76 -5,0 c 0,-2.76 2.3,-5 5,-5 2.76,0 5,2.24 5,5 z"
         sodipodi:nodetypes="sssss"
         id="path17" /></marker><linearGradient
       id="f-22-3-1-7-8-1"
       x2="1"
       gradientTransform="matrix(37.935665,29.63859,-29.63859,37.935665,121.09789,274.19726)"
       gradientUnits="userSpaceOnUse"><stop
         id="stop12-6-8-2-3-6-1"
         offset="0"
         stop-color="#0c542a" /><stop
         id="stop14-1-5-0-3-8-5"
         offset=".215"
         stop-color="#0c542a" /><stop
         id="stop16-0-6-0-9-84-9"
         offset=".58"
         stop-color="#25af64" /><stop
         id="stop18-61-1-6-2-3-7"
         offset=".847"
         stop-color="#25af64" /><stop
         id="stop20-5-1-3-4-1-7"
         offset="1"
         stop-color="#25af64" /></linearGradient><marker
       style="overflow:visible"
       id="Dot-2"
       refX="0"
       refY="0"
       orient="auto"
       inkscape:stockid="Dot"
       markerWidth="0.5"
       markerHeight="0.5"
       viewBox="0 0 1 1"
       inkscape:isstock="true"
       inkscape:collect="always"
       preserveAspectRatio="xMidYMid"><path
         transform="scale(0.5)"
         style="fill:context-stroke;fill-rule:evenodd;stroke:none"
         d="M 5,0 C 5,2.76 2.76,5 0,5 -2.76,5 -5,2.76 -5,0 c 0,-2.76 2.3,-5 5,-5 2.76,0 5,2.24 5,5 z"
         sodipodi:nodetypes="sssss"
         id="path17-2" /></marker></defs><g
     inkscape:label="Layer 1"
     inkscape:groupmode="layer"
     id="layer1"
     transform="translate(-71.268573,-58.86979)"><g
       id="g2-2-7-6-0-6"
       transform="matrix(0.01745105,0,0,0.01745105,-141.32427,58.285152)"><path
         class="st0"
         d="m 13442.739,2896.0016 -1218.5,-703.5 v -1407 l 1218.5,-703.500006 1218.5,703.500006 v 1407 z"
         id="path1-5-1-5-1-7-9-4-6-5"
         style="fill:#ffffff;fill-opacity:1;stroke:#000000" /><path
         class="st1"
         d="m 13442.739,2944.5016 -1260.5,-727.8 v -1455.4 l 1260.5,-727.800003 1260.5,727.800003 v 1455.5 z m -1176.5,-776.2 1176.5,679.3 1176.5,-679.3 v -1358.6 l -1176.5,-679.3 -1176.5,679.3 z"
         id="path2-9-6-2-8-0-2-8-89-6"
         style="fill:#24b064;fill-opacity:1;stroke:none" /></g><g
       id="g469-8-7-2-3"
       transform="matrix(0.01745105,0,0,0.01745105,-272.10346,61.176398)"><g
         id="g24-3-2-66-9"
         transform="translate(20538.471,2032.0725)"><text
           xml:space="preserve"
           style="font-size:209.867px;line-height:1.15;font-family:Inter;-inkscape-font-specification:Inter;text-align:end;text-decoration-color:#000000;letter-spacing:0px;text-anchor:end;fill:#000000;fill-opacity:1;stroke:none;stroke-width:8.11843;stroke-dasharray:8.11843, 8.11843;paint-order:stroke markers fill"
           x="-126.774"
           y="132.04375"
           id="text14-0-4-8-3-49-4"><tspan
             sodipodi:role="line"
             id="tspan14-9-8-7-5-5-8"
             x="-126.774"
             y="132.04375"
             style="font-style:normal;font-variant:normal;font-weight:bold;font-stretch:normal;font-size:209.867px;font-family:'Maven Pro';-inkscape-font-specification:'Maven Pro Bold';text-align:start;text-anchor:start;fill:#000000;fill-opacity:1;stroke:none">crisprseq</tspan></text><g
           id="g15-1-1-3-1-0-1"
           transform="translate(3.4958484e-6,-433.00129)"><g
             id="g18-7-0-1-7-4-2"><g
               id="layer2-7-3-0-8-8-9"
               style="display:inline"
               transform="translate(-174.624,108)"><g
                 id="g4209-1-0-0-9-7-3"><path
                   id="path24-1-4-5-4-1-9"
                   d="m 1084.1,163.75 v 3.6 c -0.1,0 -0.1,0 -0.2,0.1 l -1.8,-1.5 c -4,-3.4 -8.3,-6.4 -13.1,-8.8 -0.8,-0.4 -1.6,-0.9 -2.5,-1.1 -0.1,-0.1 -0.2,-0.2 -0.3,-0.2 -1.8,-0.7 -3.6,-1.3 -5.5,-1.8 -4.1,-0.9 -8.2,-1 -12.3,-0.2 -5.3,1.1 -10,3.4 -14.5,6.4 -4.4,3 -8.4,6.5 -12.1,10.2 -0.7,0.7 -0.7,0.7 -1.1,-0.2 -2,-4.1 -4.2,-8.1 -6.9,-11.8 -2.1,-2.8 -4.4,-5.4 -7.4,-7.2 -3,-1.9 -6.3,-2.6 -9.8,-1.7 -4.3,1 -7.8,3.6 -11.1,6.4 -2,1.5 -3.8,3.3 -5.6,5 -1.7,1.5 -3.3,3 -5,4.5 -0.3,0.3 -0.5,0.3 -0.8,0 -1.7,-1.8 -3.5,-3.4 -5.6,-4.5 -3.1,-1.7 -6.3,-1.9 -9.6,-0.8 -2.8,0.9 -5.2,2.4 -7.7,4 -1,0.6 -1.9,1.3 -2.9,1.8 v -0.2 c 0.1,-0.2 0.1,-0.4 0.1,-0.6 0.2,-4.4 0.5,-8.9 1.2,-13.3 1,-6.1 2.5,-12 5.2,-17.5 2,-4.1 4.7,-7.9 8.1,-11 4.5,-4.1 9.8,-6.7 15.6,-8.3 6.3,-1.8 12.7,-2.6 19.2,-2.9 2.6,-0.1 5.1,-0.2 7.7,-0.3 1.3,0.5 2.6,0.8 3.9,1.2 1.9,0.6 3.8,1.2 5.7,1.7 1,0.4 1.9,0.7 2.9,1.1 3.7,1.3 7.3,3 10.4,5.5 0.8,0.6 1.6,1.3 2.4,2 -0.2,-0.6 -0.4,-1.1 -0.6,-1.7 -1.4,-3.7 -3.5,-6.7 -6.9,-8.8 -1.4,-0.9 -2.9,-1.5 -4.4,-2.3 0.1,0 0.3,0 0.4,-0.1 4.5,-0.8 9.1,-1.2 13.7,-1.4 3.9,-0.2 7.9,-0.1 11.8,0.3 4.6,0.5 9.1,1.4 13.4,3 6.4,2.4 11.9,6.1 16.2,11.5 3.7,4.7 6.1,10.1 7.6,15.9 1.5,5.7 2.1,11.6 2.3,17.5 -0.1,2.1 -0.1,4.3 -0.1,6.5"
                   class="st0"
                   style="fill:#24af63" /><path
                   id="path26-5-4-0-1-72-0"
                   d="m 1084.1,157.15 h 0.1 v 6.6 h -0.1 z"
                   class="st4"
                   style="fill:#ecdc86" /><path
                   id="path28-9-4-3-6-7-8"
                   d="m 1047.6,62.25 v 0.1 h -4.5 v -0.1 z"
                   style="fill:#a0918f" /><path
                   id="path30-7-4-1-4-2-8"
                   d="m 1050.5,250.65 c 2.5,-1 4.9,-2.3 7.3,-3.6 2.8,-1.7 5.4,-3.5 8,-5.4 2.2,-1.6 4.3,-3.3 6.4,-5.1 l 3.6,-3 c 0.2,-0.2 0.2,-0.1 0.3,0.1 0.4,1.6 0.7,3.3 1.1,5 0.5,2.3 0.8,4.6 1.1,6.9 0.3,2.7 0.4,5.3 0.2,8 -0.2,3.3 -0.8,6.6 -2,9.7 q -1.05,2.85 -2.7,5.4 c -1.4,2.2 -3,4.2 -5,5.9 -2.3,2.1 -4.9,3.9 -7.7,5.4 -3.7,2.1 -7.7,3.6 -11.8,4.8 -3.9,1.2 -7.9,2 -11.9,2.7 -1.1,0.2 -2.2,0.4 -3.3,0.4 -2.3,-0.1 -4.6,-0.6 -6.8,-1.4 -3.3,-1.3 -6.2,-3.3 -9.5,-4.8 -1.8,-0.8 -3.6,-1.4 -5.5,-1.5 -2.5,-0.2 -4.6,0.7 -6.4,2.4 l -3.9,3.9 c -2.2,2.2 -4.8,3.7 -7.9,4.2 -2.1,0.3 -4.1,0.2 -6.2,-0.1 -2.9,-0.4 -5.7,-1.1 -8.4,-1.9 -4,-1.3 -7.7,-3.1 -11.1,-5.7 -3.2,-2.4 -5.7,-5.4 -7.8,-8.8 -2.1,-3.5 -3.3,-7.2 -4.2,-11.1 -0.4,-1.7 -0.6,-3.5 -0.8,-5.2 -0.3,-2.5 -0.4,-4.9 -0.3,-7.4 0.1,-3.5 0.4,-6.9 0.9,-10.4 0.4,0.4 0.8,0.7 1.1,1 2.2,2 4.7,3.8 7.3,5.4 2.9,1.7 6.1,3.1 9.4,4 2.2,0.6 4.5,1 6.8,1.1 1.9,0.2 3.8,0.2 5.7,0.1 2.2,-0.1 4.5,-0.3 6.7,-0.9 0.3,0 0.6,0 0.8,-0.1 q 3,-0.6 6,-1.5 c 2.3,-0.7 4.5,-1.4 6.7,-2.2 2.1,-0.8 4.3,-1.7 6.4,-2.6 0.6,-0.3 1,-0.2 1.5,0.2 3.5,2.7 7.3,5 11.4,6.7 4.6,1.8 9.3,2.7 14.2,2.3 3.6,-0.7 7,-1.6 10.3,-2.9"
                   class="st0"
                   style="fill:#24af63" /><path
                   id="path32-7-7-80-3-26-5"
                   d="m 1050.5,250.65 c -3.3,1.3 -6.7,2.2 -10.2,2.5 -4.9,0.4 -9.6,-0.5 -14.2,-2.3 -4.1,-1.6 -7.9,-3.9 -11.4,-6.7 -0.5,-0.4 -0.9,-0.5 -1.5,-0.2 -2.1,0.9 -4.2,1.8 -6.4,2.6 -2.2,0.8 -4.4,1.6 -6.7,2.2 -2,0.6 -4,1 -6,1.5 -0.3,0.1 -0.6,0.1 -0.8,0.1 l 2.1,-2.4 c 2.8,-3.2 4.8,-6.9 5.9,-11.1 1.6,-5.6 3.2,-11.3 4.6,-17 1,-4.2 1.8,-8.4 2.4,-12.7 0.4,-3.1 1,-14.9 0.8,-17.7 -0.5,-8.6 -2.4,-16.8 -5.9,-24.7 -2.1,-4.7 -5.7,-7.9 -10.7,-9.2 -2.2,-0.6 -4.4,-0.4 -6.5,0.3 -0.2,0.1 -0.3,0.2 -0.5,0.1 3.3,-2.8 6.7,-5.4 11.1,-6.4 3.5,-0.8 6.8,-0.2 9.8,1.7 3,1.9 5.3,4.4 7.4,7.2 2.7,3.7 4.9,7.7 6.9,11.8 0.4,0.9 0.4,0.9 1.1,0.2 3.7,-3.8 7.7,-7.3 12.1,-10.2 4.4,-3 9.2,-5.3 14.5,-6.4 4.1,-0.8 8.2,-0.7 12.3,0.2 1.9,0.4 3.7,1 5.5,1.8 0.1,0.1 0.3,0.1 0.3,0.2 -5.3,0.1 -9.8,2.1 -13.9,5.2 -2,1.5 -3.8,3.2 -5.2,5.3 -1.1,1.7 -2.1,3.6 -2.9,5.5 -1.8,3.8 -3.3,7.8 -4.4,11.9 -0.9,3.5 -1.5,7.1 -1.8,10.7 -0.2,2.8 -0.3,5.6 -0.2,8.4 0.1,3.4 0.5,6.8 0.9,10.3 0.7,5.7 1.7,11.4 2.7,17.1 0.5,3.1 0.9,6.3 1.5,9.5 0.7,4.6 3.3,8 7,10.6 0,-0.1 0.2,0 0.3,0.1"
                   class="st4"
                   style="fill:#ecdc86" /><path
                   id="path34-6-6-17-5-1-0"
                   d="m 1043.1,62.35 h 4.5 c 3.6,0.2 7.2,0.8 10.6,2 2.7,0.9 3.3,2.7 1.7,5 -1.1,1.6 -2.7,2.8 -4.4,3.9 -2.1,1.4 -4.4,2.6 -6.9,3.5 -2.5,1 -4.9,0 -6.5,-2.5 -0.5,-0.8 -0.9,-1.6 -1.1,-2.5 -0.1,-0.3 -0.2,-0.4 -0.5,-0.4 -5.6,-1 -10.6,0.3 -14.7,4.3 -3.4,3.2 -5.4,7.3 -6.8,11.7 -1.3,4 -1.9,8 -2.1,12.2 -0.2,3.7 0.1,7.4 0.6,11 0.1,0.6 0.3,1.2 0.3,1.9 0.1,0.8 -0.2,1.5 -0.8,1.9 -0.7,0.5 -1.5,0.4 -2.3,0.4 -1.9,-0.6 -3.8,-1.2 -5.7,-1.7 v -1.3 c 0,-2 0,-3.9 0.1,-5.9 0.4,-7.7 1.6,-15.3 4.6,-22.5 2.2,-5.4 5.4,-10.1 9.9,-13.8 3.7,-3.1 7.9,-5.1 12.6,-6.2 2.4,-0.6 4.6,-0.9 6.9,-1"
                   style="fill:#3f2b29" /><path
                   id="path36-7-31-9-4-0-9"
                   d="m 1014.8,114.65 c 0.8,0 1.6,0.1 2.3,-0.4 0.7,-0.5 0.9,-1.2 0.8,-1.9 -0.1,-0.6 -0.2,-1.3 -0.3,-1.9 0.4,0 0.7,-0.1 1.1,-0.1 1.4,0.8 2.9,1.5 4.4,2.3 3.4,2.1 5.5,5.1 6.9,8.8 0.2,0.6 0.4,1.1 0.6,1.7 -0.8,-0.7 -1.6,-1.4 -2.4,-2 -3.2,-2.4 -6.7,-4.1 -10.4,-5.5 -1.1,-0.3 -2,-0.6 -3,-1"
                   class="st7"
                   style="fill:#396e35" /><path
                   id="path38-3-7-1-8-6-6"
                   d="m 1009.1,111.65 v 1.3 c -1.3,-0.4 -2.6,-0.7 -3.9,-1.2 1.4,-0.1 2.7,-0.1 3.9,-0.1"
                   class="st7"
                   style="fill:#396e35" /></g></g><text
               id="text53-6-5-0-7-1-3"
               x="-125.72501"
               y="349.245"
               font-size="209.87"
               font-weight="bold"
               style="font-weight:700;font-size:209.87px;font-family:'Maven Pro'"><tspan
                 id="tspan55-5-9-3-3-5-8"
                 x="-125.72501"
                 y="349.245"
                 class="st0 st1 st2"
                 font-size="209.87"
                 font-weight="bold"
                 style="font-weight:700;font-size:209.867px;font-family:'Maven Pro';fill:#24af63">nf-</tspan></text><text
               id="text69-63-6-5-3-9-5"
               x="182.517"
               y="349.245"
               font-size="209.87"
               font-weight="bold"
               style="font-weight:700;font-size:209.87px;font-family:'Maven Pro';fill:#000000;fill-opacity:1"><tspan
                 id="tspan71-9-2-9-5-4-6"
                 x="182.517"
                 y="349.245"
                 class="st0 st1 st2"
                 font-size="209.87"
                 font-weight="bold"
                 style="font-weight:700;font-size:209.867px;font-family:'Maven Pro';fill:#000000;fill-opacity:1"><tspan
                   id="tspan73-4-1-4-0-9-1"
                   style="fill:#000000;fill-opacity:1">core/</tspan></tspan></text><path
               id="path67-8-7-8-1-0-1"
               d="m 125.813,274.116 -21.532,21.616 h 61.092 v -21.617 z"
               style="fill:url(#f-22-3-1-7-8-1)" /></g></g></g></g><g
       id="g12"
       transform="translate(-0.33215108)"><path
         style="fill:#f2f45f;fill-opacity:1;stroke:none;stroke-width:0.144548;paint-order:markers fill stroke"
         d="m 94.513679,70.425421 c -0.849282,0.182286 -1.294451,1.060787 -1.684512,1.836908 -1.0897,2.168223 -0.538773,5.08047 -1.407398,6.817725 -0.722739,1.445481 -3.732006,5.423042 -3.575786,6.502538 0.140745,2.485163 2.980491,5.060775 5.45123,5.551053 3.25421,0.645749 4.367442,-0.995571 5.5862,-1.809257 1.890217,-1.261976 2.863187,-2.328953 3.291017,-4.561096 0.579,-3.020854 -0.77199,-10.809353 -3.375429,-12.853049 -1.152687,-0.904859 -2.852531,-1.792349 -4.285322,-1.484822 z"
         id="path1"
         sodipodi:nodetypes="sssssssss" /><path
         style="fill:none;fill-opacity:1;stroke:#f2dc2a;stroke-width:0.289097;stroke-linecap:round;stroke-dasharray:none;stroke-opacity:1;paint-order:markers fill stroke"
         d="m 94.630432,71.539588 c 0,0 -0.09394,5.364533 -0.722739,7.950149 -0.351532,1.445482 -5.059186,6.504667 -5.059186,6.504667"
         id="path2"
         sodipodi:nodetypes="csc" /><path
         style="fill:none;fill-opacity:1;stroke:#f2dc2a;stroke-width:0.289097;stroke-linecap:round;stroke-dasharray:none;stroke-opacity:1;paint-order:markers fill stroke"
         d="m 97.197914,71.980671 c 0,0 -0.503463,7.036553 -1.369645,9.054665 -1.197837,2.790846 -5.958995,6.40455 -5.958995,6.40455"
         id="path3"
         sodipodi:nodetypes="csc" /><path
         style="fill:none;fill-opacity:1;stroke:#f2dc2a;stroke-width:0.289097;stroke-linecap:round;stroke-dasharray:none;stroke-opacity:1;paint-order:markers fill stroke"
         d="m 99.402108,74.430552 c 0,0 -0.10417,5.059185 -1.515791,8.67289 -0.542448,1.388645 -6.433484,5.781926 -6.433484,5.781926"
         id="path4"
         sodipodi:nodetypes="csc" /><path
         style="fill:none;fill-opacity:1;stroke:#f2dc2a;stroke-width:0.289097;stroke-linecap:round;stroke-dasharray:none;stroke-opacity:1;paint-order:markers fill stroke"
         d="m 100.82338,77.67956 c 0,0 -0.10935,5.423882 -0.82398,7.592104 -0.714636,2.168222 -5.368968,5.059186 -5.368968,5.059186"
         id="path5"
         sodipodi:nodetypes="czc" /><ellipse
         style="fill:#ffffff;fill-opacity:1;stroke:#000000;stroke-width:0.289097;stroke-linecap:round;stroke-dasharray:none;stroke-opacity:1;paint-order:markers fill stroke"
         id="path6"
         cx="95.642273"
         cy="77.899704"
         rx="0.88615257"
         ry="1.4338249" /><ellipse
         style="fill:#ffffff;fill-opacity:1;stroke:#000000;stroke-width:0.289097;stroke-linecap:round;stroke-dasharray:none;stroke-opacity:1;paint-order:markers fill stroke"
         id="path6-2"
         cx="97.5214"
         cy="77.899704"
         rx="0.88615257"
         ry="1.4338249" /><circle
         style="fill:#000000;fill-opacity:1;stroke:#000000;stroke-width:0.144548;stroke-linecap:round;stroke-dasharray:none;stroke-opacity:1;paint-order:markers fill stroke"
         id="path7"
         cx="95.353172"
         cy="78.044258"
         r="0.28909633" /><circle
         style="fill:#000000;fill-opacity:1;stroke:#000000;stroke-width:0.144548;stroke-linecap:round;stroke-dasharray:none;stroke-opacity:1;paint-order:markers fill stroke"
         id="path7-3"
         cx="97.376854"
         cy="78.044258"
         r="0.28909633" /><path
         style="fill:#ff0000;fill-opacity:1;stroke:#000000;stroke-width:0.289097;stroke-linecap:round;stroke-linejoin:round;stroke-dasharray:none;stroke-opacity:1;paint-order:markers fill stroke"
         d="m 96.22046,81.224316 c 0,0 0.578193,0.844014 1.300936,1.156385 0.722743,0.312372 0.867289,-1.59003 0.867289,-1.59003 0,0 -0.343002,0.309877 -0.867289,0.433645 -0.703407,0.166052 -1.300936,0 -1.300936,0 z"
         id="path8"
         sodipodi:nodetypes="czcsc" /><path
         style="opacity:1;fill:none;fill-opacity:1;stroke:#000000;stroke-width:0.289097;stroke-linecap:round;stroke-linejoin:round;stroke-dasharray:none;stroke-opacity:1;marker-end:url(#Dot);paint-order:markers fill stroke"
         d="m 91.739468,80.212478 c 0,0 -1.08189,-0.218285 -1.445481,-0.722741 -0.363592,-0.504455 -0.722741,-1.445481 -0.722741,-1.445481"
         id="path9"
         sodipodi:nodetypes="czc" /><path
         style="fill:none;fill-opacity:1;stroke:#000000;stroke-width:0.289097;stroke-linecap:round;stroke-linejoin:round;stroke-dasharray:none;stroke-opacity:1;marker-end:url(#Dot-2);paint-order:markers fill stroke"
         d="m 101.11248,80.064674 c 0,0 1.08189,-0.21828 1.44549,-0.72274 0.36359,-0.50446 0.72274,-1.44548 0.72274,-1.44548"
         id="path9-9"
         sodipodi:nodetypes="czc" /><circle
         style="opacity:1;fill:#000000;fill-opacity:0;stroke:#000000;stroke-width:0.289097;stroke-linecap:round;stroke-linejoin:round;stroke-dasharray:none;stroke-opacity:1;paint-order:markers fill stroke"
         id="path10"
         cx="89.426697"
         cy="77.32151"
         r="0.72274137" /><circle
         style="fill:#000000;fill-opacity:0;stroke:#000000;stroke-width:0.289097;stroke-linecap:round;stroke-linejoin:round;stroke-dasharray:none;stroke-opacity:1;paint-order:markers fill stroke"
         id="path10-2"
         cx="86.892471"
         cy="78.946449"
         r="0.72274137" /><path
         style="opacity:1;fill:#000000;fill-opacity:1;stroke:#000000;stroke-width:0.0715608;stroke-linecap:round;stroke-linejoin:round;stroke-dasharray:none;stroke-opacity:1;paint-order:markers fill stroke"
         d="m 88.646833,77.375351 c 0,0 -0.606025,-0.376605 -0.801764,-0.495777 -0.176875,-0.107688 -0.605977,-0.136834 -0.605977,-0.136834 0,0 -2.194654,-1.359514 -3.210021,-2.113991 -0.178021,-0.132279 -0.337584,-0.315671 -0.407104,-0.52628 -0.08115,-0.245841 0.01611,-0.776496 0.01611,-0.776496 1.754618,1.376041 3.078288,2.273242 4.128798,3.123552 l 0.901303,0.678921 z"
         id="path11"
         sodipodi:nodetypes="cscsscccc" /><path
         style="fill:#000000;fill-opacity:1;stroke:#000000;stroke-width:0.0715608;stroke-linecap:round;stroke-linejoin:round;stroke-dasharray:none;stroke-opacity:1;paint-order:markers fill stroke"
         d="m 87.063448,78.305759 c 0,0 -0.02314,-0.713135 -0.02847,-0.942236 -0.0048,-0.207023 0.184487,-0.593209 0.184487,-0.593209 0,0 -0.08005,-2.580383 -0.22576,-3.836956 -0.02555,-0.22031 -0.104587,-0.450191 -0.25222,-0.615702 -0.17233,-0.193198 -0.680523,-0.374293 -0.680523,-0.374293 0.314377,2.207565 0.429542,3.802497 0.640677,5.13742 l 0.137312,1.120013 z"
         id="path11-7"
         sodipodi:nodetypes="cscsscccc" /></g></g></svg>
