<svg width="2644" height="3050" viewBox="0 0 2644 3050" fill="none" xmlns="http://www.w3.org/2000/svg">
<path d="M50 2258.62V790.505L1321.97 57.7089L2593.07 790.495V2258.19L1321.97 2992.27L50 2258.62Z" fill="url(#paint0_radial_205_1661)" stroke="#021135" stroke-width="100"/>
<mask id="mask0_205_1661" style="mask-type:alpha" maskUnits="userSpaceOnUse" x="101" y="115" width="2443" height="2821">
<path d="M151 2201.88V848.312L1322.9 172.718L2494 848.302V2201.48L1322.9 2878.26L151 2201.88Z" fill="#ABABAB" stroke="#26AF64" stroke-width="100"/>
</mask>
<g mask="url(#mask0_205_1661)">
<path fill-rule="evenodd" clip-rule="evenodd" d="M168.853 1556C263.994 1556 343.37 1617.88 361.702 1700.12C380.54 1672.35 414.129 1653.86 452.43 1653.86C511.391 1653.86 559.188 1697.68 559.188 1751.73C559.188 1765.29 556.179 1778.21 550.738 1789.95C568.243 1783.65 587.307 1780.18 607.253 1780.18C692.624 1780.18 761.83 1843.62 761.83 1921.88C761.83 1937.54 759.058 1952.61 753.939 1966.7C785.496 1998.7 804.713 2041.12 804.713 2087.66C804.713 2113.59 798.747 2138.24 788.005 2160.52C830.903 2166.78 866.16 2194.05 880.824 2230.46C917.671 2195.06 969.671 2173 1027.3 2173C1119.78 2173 1197.77 2229.82 1221.89 2307.42C1271.98 2314.54 1315.85 2338.92 1346.02 2373.73C1397.83 2325 1470.22 2294.74 1550.32 2294.74C1707.85 2294.74 1835.56 2411.81 1835.56 2556.22C1835.56 2576.49 1833.05 2596.23 1828.28 2615.18C1911.09 2615.29 1978.19 2676.86 1978.19 2752.8C1978.19 2828.8 1910.97 2890.42 1828.06 2890.42C1820.82 2890.42 1813.7 2889.95 1806.74 2889.04C1785.51 2967.69 1708.01 3026 1615.65 3026C1506.94 3026 1418.82 2945.22 1418.82 2845.56C1418.82 2827.02 1421.87 2809.14 1427.53 2792.3C1386.11 2774.16 1350.2 2747.14 1322.76 2713.91C1295.47 2783.54 1222.81 2833.33 1137.46 2833.33C1028.75 2833.33 940.628 2752.55 940.628 2652.89C940.628 2609.84 957.078 2570.31 984.531 2539.29C895.511 2521.75 828.261 2450.57 825.115 2364.53C808.436 2372.69 789.388 2377.31 769.161 2377.31C703.444 2377.31 650.17 2328.48 650.17 2268.24C650.17 2266.78 650.201 2265.34 650.262 2263.9C636.611 2266.65 622.428 2268.09 607.877 2268.09C591.454 2268.09 575.501 2266.25 560.25 2262.78C535.512 2273.05 508.045 2278.77 479.12 2278.77C382.026 2278.77 301.351 2214.32 285.22 2129.55C249.843 2160.72 201.78 2179.88 148.836 2179.88C40.1265 2179.88 -48 2099.1 -48 1999.45C-48 1942.91 -19.6348 1892.45 24.7617 1859.36C-7.96355 1827.14 -27.9826 1783.93 -27.9826 1736.44C-27.9826 1636.78 60.1439 1556 168.853 1556Z" fill="#B67F4C"/>
<path fill-rule="evenodd" clip-rule="evenodd" d="M517 2022.5C517 2036.89 515.007 2050.82 511.281 2064.01C535.612 2047.59 564.936 2038 596.5 2038C651.581 2038 699.842 2067.2 726.645 2110.97C831.206 2067.75 911.683 1999.36 998.342 1885.94L1093.54 1956.48C1007.01 2094.26 1016.33 2195.17 1048.24 2288.5C1065.85 2282.35 1084.78 2279 1104.5 2279C1198.66 2279 1275 2355.34 1275 2449.5C1275 2453.04 1274.89 2456.55 1274.68 2460.03C1278.58 2461.27 1282.32 2462.87 1285.87 2464.78C1316.6 2416.49 1368.57 2382.45 1429.98 2376.8C1535.3 2367.13 1628.52 2444.66 1638.2 2549.98C1638.75 2556.03 1639.02 2562.04 1639.01 2568C1736.3 2568.55 1815 2647.58 1815 2745C1815 2842.75 1735.75 2922 1638 2922C1632.49 2922 1627.05 2921.75 1621.67 2921.26C1589.5 3002.52 1510.21 3060 1417.5 3060C1354.12 3060 1297.01 3033.13 1256.94 2990.17C1230.95 3001.01 1202.42 3007 1172.5 3007C1144.22 3007 1117.2 3001.65 1092.37 2991.92C1080.39 2993.94 1068.07 2995 1055.5 2995C967.176 2995 891.037 2942.83 856.212 2867.63C839.326 2871.79 821.671 2874 803.5 2874C682.273 2874 584 2775.73 584 2654.5C584 2645.63 584.527 2636.88 585.55 2628.28C554.349 2645.32 518.555 2655 480.5 2655C359.273 2655 261 2556.73 261 2435.5C261 2416.87 263.322 2398.78 267.692 2381.5C244.8 2389.6 220.164 2394 194.5 2394C73.2735 2394 -25 2295.73 -25 2174.5C-25 2137.52 -15.8561 2102.68 0.2939 2072.11C-45.2659 2031.89 -74 1973.05 -74 1907.5C-74 1786.27 24.2735 1688 145.5 1688C253.95 1688 344.03 1766.65 361.813 1870.02C362.707 1870.01 363.603 1870 364.5 1870C448.723 1870 517 1938.28 517 2022.5ZM727.684 2269.34L727.198 2269.12C726.926 2269.57 726.652 2270.02 726.375 2270.47C726.81 2270.09 727.246 2269.72 727.684 2269.34ZM679.853 2343.51C676.805 2336.92 673.438 2330.5 669.774 2324.28C679.404 2318.99 688.402 2312.69 696.625 2305.53C689.402 2317.24 683.718 2329.99 679.853 2343.51ZM608 1994C630.091 1994 648 1976.09 648 1954C648 1931.91 630.091 1914 608 1914C585.909 1914 568 1931.91 568 1954C568 1976.09 585.909 1994 608 1994ZM1885 2757C1907.09 2757 1925 2739.09 1925 2717C1925 2694.91 1907.09 2677 1885 2677C1862.91 2677 1845 2694.91 1845 2717C1845 2739.09 1862.91 2757 1885 2757Z" fill="#B14848"/>
<circle cx="1146.5" cy="2152.5" r="19.5" fill="#E05E5E"/>
<ellipse cx="809.5" cy="1963.17" rx="14.5" ry="16.1731" fill="#E0995E"/>
<circle cx="1080.5" cy="2300.5" r="14.5" fill="#E05E5E"/>
<path fill-rule="evenodd" clip-rule="evenodd" d="M707.789 2297.89C707.929 2294.94 708 2291.98 708 2289C708 2187.38 625.62 2105 524 2105C489.159 2105 456.58 2114.68 428.808 2131.51C413.184 2098.12 379.292 2075 340 2075C329.6 2075 319.578 2076.62 310.173 2079.62C300.885 2067.84 289.853 2057.51 277.465 2049C316.439 2022.23 342 1977.35 342 1926.5C342 1844.49 275.514 1778 193.5 1778C160.679 1778 130.345 1788.65 105.764 1806.68C78.64 1771.02 35.7582 1748 -12.5 1748C-94.5143 1748 -161 1814.49 -161 1896.5C-161 1928.12 -151.12 1957.42 -134.279 1981.51C-172.147 2015.21 -196 2064.32 -196 2119C-196 2172.91 -172.816 2221.4 -135.876 2255.06C-137.927 2266.06 -139 2277.4 -139 2289C-139 2390.62 -56.6204 2473 45 2473C57.0467 2473 68.823 2471.84 80.2237 2469.63C105.284 2541.46 173.623 2593 254 2593C272.063 2593 289.518 2590.4 306.011 2585.55C333.977 2642.02 390.083 2682.08 456 2687.4C480.633 2731.88 528.049 2762 582.5 2762C583.75 2762 584.996 2761.98 586.238 2761.95C611.378 2784.16 642.634 2799.6 677.156 2805.43C702.737 2846.03 747.968 2873 799.5 2873C803.733 2873 807.924 2872.82 812.065 2872.46C856.407 2949.86 935.524 3004.77 1028.11 3015.92C1053.43 3037.78 1086.42 3051 1122.5 3051C1165.8 3051 1204.65 3031.95 1231.14 3001.78C1239.37 3003.24 1247.85 3004 1256.5 3004C1320.05 3004 1374.01 2962.98 1393.36 2905.97C1428.4 2905.29 1460.39 2892.14 1485.06 2870.77C1493.32 2872.23 1501.82 2873 1510.5 2873C1573.9 2873 1627.76 2832.18 1647.22 2775.38C1657.6 2777.75 1668.41 2779 1679.5 2779C1759.31 2779 1824 2714.31 1824 2634.5C1824 2554.69 1759.31 2490 1679.5 2490C1643.46 2490 1610.5 2503.19 1585.19 2525.01C1571.96 2458.85 1513.55 2409 1443.5 2409C1363.69 2409 1299 2473.69 1299 2553.5C1299 2556.54 1299.09 2559.55 1299.28 2562.54C1250.24 2493.06 1171.32 2446.17 1081.22 2440.56C1063.96 2330.33 968.578 2246 853.5 2246C798.228 2246 747.5 2265.45 707.789 2297.89Z" fill="#B8DDF7"/>
<path fill-rule="evenodd" clip-rule="evenodd" d="M707.789 2297.89C707.929 2294.94 708 2291.98 708 2289C708 2187.38 625.62 2105 524 2105C489.159 2105 456.58 2114.68 428.808 2131.51C413.184 2098.12 379.292 2075 340 2075C329.6 2075 319.578 2076.62 310.173 2079.62C300.885 2067.84 289.853 2057.51 277.465 2049C316.439 2022.23 342 1977.35 342 1926.5C342 1844.49 275.514 1778 193.5 1778C160.679 1778 130.345 1788.65 105.764 1806.68C78.64 1771.02 35.7582 1748 -12.5 1748C-94.5143 1748 -161 1814.49 -161 1896.5C-161 1928.12 -151.12 1957.42 -134.279 1981.51C-172.147 2015.21 -196 2064.32 -196 2119C-196 2172.91 -172.816 2221.4 -135.876 2255.06C-137.927 2266.06 -139 2277.4 -139 2289C-139 2390.62 -56.6204 2473 45 2473C57.0467 2473 68.823 2471.84 80.2237 2469.63C105.284 2541.46 173.623 2593 254 2593C272.063 2593 289.518 2590.4 306.011 2585.55C333.977 2642.02 390.083 2682.08 456 2687.4C480.633 2731.88 528.049 2762 582.5 2762C583.75 2762 584.996 2761.98 586.238 2761.95C611.378 2784.16 642.634 2799.6 677.156 2805.43C702.737 2846.03 747.968 2873 799.5 2873C803.733 2873 807.924 2872.82 812.065 2872.46C856.407 2949.86 935.524 3004.77 1028.11 3015.92C1053.43 3037.78 1086.42 3051 1122.5 3051C1165.8 3051 1204.65 3031.95 1231.14 3001.78C1239.37 3003.24 1247.85 3004 1256.5 3004C1320.05 3004 1374.01 2962.98 1393.36 2905.97C1428.4 2905.29 1460.39 2892.14 1485.06 2870.77C1493.32 2872.23 1501.82 2873 1510.5 2873C1573.9 2873 1627.76 2832.18 1647.22 2775.38C1657.6 2777.75 1668.41 2779 1679.5 2779C1759.31 2779 1824 2714.31 1824 2634.5C1824 2554.69 1759.31 2490 1679.5 2490C1643.46 2490 1610.5 2503.19 1585.19 2525.01C1571.96 2458.85 1513.55 2409 1443.5 2409C1363.69 2409 1299 2473.69 1299 2553.5C1299 2556.54 1299.09 2559.55 1299.28 2562.54C1250.24 2493.06 1171.32 2446.17 1081.22 2440.56C1063.96 2330.33 968.578 2246 853.5 2246C798.228 2246 747.5 2265.45 707.789 2297.89Z" fill="#021135"/>
</g>
<path d="M1092.82 1914.25C1080.01 1934.88 1063.41 2065.41 1063.41 2065.41C1059.36 2080.25 1072.63 2087.01 1093.79 2067.59L1167.81 1997.32C1207.99 1959.04 1214.54 1949.27 1200.5 1896.86L1175.03 1836.06C1166.09 1815.53 1148.9 1815.55 1137.45 1836.96L1092.82 1914.25Z" fill="#26AF64"/>
<path d="M1025.02 1875.11C1012.49 1896.8 908.818 1976.16 908.818 1976.16C897.991 1987.09 885.5 1978.97 891.743 1950.94L914.231 1850.92C927.29 1796.99 932.483 1786.42 984.887 1772.38L1050.28 1764.03C1072.53 1761.51 1081.1 1776.4 1068.29 1797.03L1025.02 1875.11Z" fill="#26AF64"/>
<path d="M1208.36 1853.49C1147.29 1959.26 1012.94 1971.19 1012.94 1971.19C1012.94 1971.19 956.094 1848.87 1017.16 1743.1C1078.23 1637.33 1202.13 1594.96 1223.54 1606.42C1243.88 1618.16 1269.42 1747.72 1208.36 1853.49Z" fill="#EBDE87"/>
<path d="M995.029 2024.13C988.766 2034.98 985.425 2043.9 974.576 2037.63C963.728 2031.37 969.782 2024.02 976.045 2013.17L1045.53 1848.98C1051.79 1838.13 1086.15 1820.9 1095.93 1827.45C1106.77 1833.71 1109.03 1872.08 1102.48 1881.86L995.029 2024.13Z" fill="#26AF64"/>
<path d="M1148.39 1800.79C1172.01 1794.46 1186.03 1770.17 1179.7 1746.55C1173.37 1722.92 1149.09 1708.9 1125.46 1715.23C1101.84 1721.56 1087.82 1745.84 1094.15 1769.47C1100.48 1793.1 1124.76 1807.12 1148.39 1800.79Z" fill="#402A28"/>
<path d="M1187.57 1703.17C1199.38 1700.01 1206.39 1687.87 1203.22 1676.05C1200.06 1664.24 1187.92 1657.23 1176.1 1660.39C1164.29 1663.56 1157.28 1675.7 1160.45 1687.52C1163.61 1699.33 1175.75 1706.34 1187.57 1703.17Z" fill="#402A28"/>
<path d="M906.268 794.109C909.463 794.008 911.265 794.197 912.339 794.297H954.276V810.803H934.586C934.586 810.803 921.396 810.841 914.584 810.803C900.652 810.91 887.606 813.254 886.955 813.323L906.268 794.109Z" fill="white"/>
<path d="M850.972 829.094C852.17 830.589 852.17 830.652 853.373 832.286C875.067 861.742 904.999 858.864 906.268 858.719V875.269C905.936 875.313 906.177 875.395 903.255 875.395C891.465 875.395 861.696 872.134 839.403 841.886C838.785 841.045 838.785 841.019 838.18 840.24L850.972 829.094Z" fill="white"/>
<path d="M837.574 839.435C816.602 812.191 799.658 810.67 799.658 810.67V794.189C802.209 794.246 824.391 795.679 849.781 827.591L837.574 839.435Z" fill="white"/>
<path d="M635 874.314V801.566C647.2 795.704 659.922 792.77 673.15 792.77C684.758 792.77 693.823 795.691 700.356 801.528C706.895 807.372 710.162 815.559 710.162 826.077V874.32H690.153V824.431C690.153 822.288 689.951 820.498 689.541 819.059C689.131 817.62 688.324 816.112 687.101 814.535C685.884 812.977 683.887 811.783 681.121 811.004C678.356 810.218 674.803 809.816 670.463 809.816C665.589 809.816 660.429 810.294 655.009 811.236V874.326H635V874.314Z" fill="white"/>
<path d="M723.168 835.025C723.168 822.144 726.142 811.852 732.082 804.155C738.017 796.464 747.439 792.606 760.349 792.606C772.549 792.606 781.776 796.351 788.042 803.847C794.315 811.331 797.445 820.554 797.445 831.494C797.445 835.999 797.327 839.329 797.106 841.478H743.183C743.723 848.433 745.871 853.102 749.645 855.458C753.419 857.814 758.312 858.983 764.324 858.983C774.098 858.983 780.409 859.196 792.655 855.816L792.747 872.19C786.37 875.081 772.985 875.558 761.325 875.558C757.635 875.558 754.173 875.263 750.914 874.697C747.654 874.113 744.283 872.919 740.789 871.078C737.308 869.25 734.301 866.919 731.79 864.097C729.271 861.264 727.209 857.355 725.589 852.36C723.975 847.346 723.168 841.572 723.168 835.025ZM743.183 828.119H776.687C776.154 822.609 774.462 817.959 771.619 814.164C768.769 810.376 764.845 808.478 759.854 808.478C754.863 808.478 750.979 810.017 748.181 813.115C745.389 816.213 743.723 821.208 743.183 828.119Z" fill="white"/>
<path d="M934.586 770.225H914.584V788.54H934.586V770.225Z" fill="white"/>
<path d="M936.823 857.179C935.333 855.973 934.578 853.642 934.578 850.199V816.753H914.576V849.017C914.576 857.286 916.932 863.783 921.656 868.502C926.373 873.208 932.854 875.564 941.098 875.564C941.203 875.564 941.339 875.564 941.502 875.564C946.102 875.564 950.358 874.785 954.268 873.208V857.267C951.496 858.424 948.328 858.983 944.755 858.983C940.962 858.983 938.32 858.386 936.823 857.179Z" fill="white"/>
<path d="M967.861 810.602V794.026H982.02C982.124 771.664 992.457 760.486 1013.01 760.486C1015.67 760.486 1018.37 760.75 1021.15 761.284V776.659C1019.14 776.458 1017.65 776.345 1016.67 776.345C1011.46 776.345 1007.71 777.552 1005.44 779.964C1003.15 782.371 1002.03 787.058 1002.03 794.02H1021.15V810.595H1002.03V874.308H982.02V810.595H967.861V810.602Z" fill="white"/>
<path d="M1037.49 874.314V763.471H1057.5V874.314H1037.49Z" fill="white"/>
<path d="M1089.72 864.876C1082.94 857.764 1079.55 847.547 1079.55 834.245C1079.55 820.944 1082.94 810.734 1089.72 803.608C1096.5 796.489 1106.22 792.927 1118.88 792.927C1131.54 792.927 1141.26 796.489 1148.04 803.608C1154.82 810.734 1158.2 820.944 1158.2 834.245C1158.2 847.547 1154.81 857.764 1148.04 864.876C1141.26 872.008 1131.54 875.558 1118.88 875.558C1106.22 875.558 1096.5 872.008 1089.72 864.876ZM1104.32 814.064C1101.16 817.57 1099.56 824.312 1099.56 834.283C1099.56 844.261 1101.16 850.99 1104.32 854.465C1107.49 857.952 1112.35 859.699 1118.92 859.699C1125.49 859.699 1130.33 857.952 1133.48 854.465C1136.62 850.99 1138.21 844.261 1138.21 834.283C1138.21 824.312 1136.63 817.57 1133.48 814.064C1130.33 810.551 1125.49 808.792 1118.92 808.792C1112.35 808.792 1107.49 810.551 1104.32 814.064Z" fill="white"/>
<path d="M1169.36 794.026H1190.52L1208.16 851.914L1224.03 794.026H1241.2L1256.98 851.914L1274.62 794.026H1295.77L1266.33 874.314H1246.32L1232.65 828.119L1218.83 874.314H1198.81L1169.36 794.026Z" fill="white"/>
<path d="M809.854 849.552C788.101 860.189 769.901 858.876 768.782 858.801L767.441 875.301C767.728 875.313 768.99 875.407 771.053 875.407C778.178 875.407 794.276 874.609 813.328 866.253L809.854 849.552Z" fill="white"/>
<path d="M912.338 794.296C910.971 794.171 907.705 793.963 903.078 794.296H903.007L902.987 794.303C889.29 795.289 863.757 800.957 839.955 826.957C829.016 838.907 817.226 846.422 806.45 851.116C791.719 867.49 767.441 875.3 767.441 875.3C767.728 875.313 768.99 875.407 771.053 875.407C782.895 875.407 821.143 872.529 852.812 837.921C872.574 816.313 880.864 814.698 892.329 812.015C892.329 812.015 902.89 806.75 916.535 802.722C935.925 796.766 954.275 794.303 954.275 794.303H912.338V794.296Z" fill="white"/>
<path d="M1487.58 796.364C1496.01 794.453 1503.54 793.46 1510.16 793.46C1521.46 793.46 1529.89 795.676 1535.61 800.185C1541.33 804.694 1544.11 812.031 1544.11 822.348V876.915H1520.55V827.163C1520.55 817.839 1515.36 813.177 1505.05 813.177C1502.71 813.177 1500.38 813.483 1497.97 813.941C1495.56 814.476 1493.68 815.088 1492.25 815.852V876.762H1468.76V802.478C1472.9 800.338 1479.15 798.275 1487.58 796.364Z" fill="white"/>
<path d="M1571.17 814.071H1559.51V795.937H1571.32V794.048C1571.4 782.034 1574.18 773.647 1579.6 768.887C1585.01 764.203 1592.39 761.86 1601.79 761.86C1603.45 761.86 1605.33 762.011 1607.28 762.314C1609.31 762.616 1610.89 762.994 1612.17 763.447V784.225C1611.04 783.092 1609.84 782.185 1608.71 781.581C1607.58 780.977 1606.08 780.674 1604.27 780.674C1601.34 780.674 1599.01 781.43 1597.35 783.017C1595.7 784.603 1594.79 787.323 1594.79 791.101V795.861H1612.17V813.92H1594.64V876.104H1571.09V814.071H1571.17Z" fill="white"/>
<path d="M1629.19 819.388H1676.99V835.592H1629.19V819.388Z" fill="white"/>
<path d="M1716.56 873.897C1710.17 870.78 1705.07 866.142 1701.34 859.908C1697.53 853.674 1695.63 846.071 1695.63 837.176C1695.63 822.807 1699.44 811.935 1707.12 804.56C1714.81 797.185 1725.01 793.46 1737.8 793.46C1742.3 793.46 1746.79 793.916 1751.36 794.828C1755.92 795.741 1759.96 796.957 1763.54 798.554V819.005C1759.2 817.105 1755.31 815.66 1751.89 814.596C1748.46 813.607 1745.04 813.075 1741.69 813.075C1734.68 813.075 1729.2 814.824 1725.24 818.245C1721.28 821.666 1719.31 827.064 1719.31 834.439C1719.31 842.65 1721.13 848.732 1724.79 852.61C1728.44 856.563 1734.46 858.54 1742.75 858.54C1749.07 858.54 1756 856.411 1763.69 852.153V872.453C1759.88 874.506 1755.92 876.026 1751.81 877.014C1747.7 878.003 1743.13 878.535 1737.96 878.535C1730.12 878.535 1722.96 876.938 1716.56 873.897Z" fill="white"/>
<path d="M1785.89 867.759C1779.14 860.601 1775.84 849.976 1775.84 835.809C1775.84 821.04 1779.14 810.264 1785.82 803.557C1792.5 796.776 1802.62 793.46 1816.13 793.46C1829.63 793.46 1839.84 796.926 1846.66 803.784C1853.49 810.716 1856.87 821.341 1856.87 835.809C1856.87 849.75 1853.34 860.299 1846.29 867.609C1839.24 874.918 1829.18 878.535 1816.05 878.535C1802.7 878.535 1792.57 874.918 1785.89 867.759ZM1829.18 853.593C1832.11 849.524 1833.61 843.571 1833.61 835.809C1833.61 827.294 1832.18 821.19 1829.26 817.573C1826.41 813.956 1821.98 812.148 1816.13 812.148C1810.05 812.148 1805.63 813.956 1803 817.573C1800.3 821.19 1798.95 827.294 1798.95 835.809C1798.95 843.947 1800.37 849.976 1803.15 853.819C1805.93 857.737 1810.28 859.696 1816.13 859.696C1821.91 859.696 1826.26 857.662 1829.18 853.593Z" fill="white"/>
<path d="M1873.15 804.273C1874.74 802.912 1877.54 801.399 1881.49 799.66C1885.43 797.997 1889.9 796.484 1894.83 795.275C1899.76 794.065 1904.53 793.46 1909.08 793.46C1917.88 793.46 1924.02 794.821 1927.36 797.392V814.707C1923.11 813.724 1917.04 813.27 1909.08 813.27C1904.08 813.27 1899.99 813.573 1896.8 814.027V876.104H1873.07V804.273H1873.15Z" fill="white"/>
<path d="M2009.99 842.333H1957.66C1959.67 853.42 1966.99 858.925 1979.76 858.925C1983.64 858.925 1987.37 858.398 1991.11 857.266C1994.84 856.135 1998.72 854.702 2002.9 852.892V873.18C1994.32 876.8 1984.76 878.535 1974.08 878.535C1966.02 878.535 1959 876.876 1952.95 873.557C1946.9 870.239 1942.2 865.487 1938.84 859.227C1935.48 852.967 1933.84 845.651 1933.84 837.204C1933.84 823.251 1937.27 812.466 1944.07 804.849C1950.94 797.231 1960.72 793.46 1973.33 793.46C1998.12 793.46 2010.29 809.751 2009.99 842.333ZM1957.51 827.324H1986.77C1986.03 821.592 1984.53 817.595 1982.29 815.106C1980.05 812.692 1976.69 811.486 1972.36 811.486C1964 811.486 1959.07 816.765 1957.51 827.324Z" fill="white"/>
<path d="M1408.93 879L1355.55 814.74C1353.06 811.68 1350.57 808.053 1348.07 803.86C1345.69 799.667 1344.5 795.53 1344.5 791.45C1344.5 786.463 1345.86 781.93 1348.58 777.85C1351.3 773.657 1354.93 770.313 1359.46 767.82C1364.11 765.327 1369.27 764.08 1374.93 764.08C1380.6 764.08 1385.59 765.213 1389.89 767.48C1394.31 769.747 1397.77 772.863 1400.26 776.83C1402.87 780.797 1404.17 785.217 1404.17 790.09C1404.17 794.737 1403.1 798.76 1400.94 802.16C1398.9 805.447 1396.01 808.507 1392.27 811.34C1388.53 814.06 1384.11 816.95 1379.01 820.01L1371.53 809.64C1376.07 807.147 1379.47 804.88 1381.73 802.84C1384 800.8 1385.47 798.873 1386.15 797.06C1386.95 795.133 1387.34 793.263 1387.34 791.45C1387.34 788.05 1386.15 785.273 1383.77 783.12C1381.51 780.967 1378.62 779.89 1375.1 779.89C1371.59 779.89 1368.59 781.08 1366.09 783.46C1363.71 785.727 1362.52 788.503 1362.52 791.79C1362.52 793.263 1363.09 795.02 1364.22 797.06C1365.47 799.1 1366.83 801.197 1368.3 803.35C1369.89 805.39 1371.36 807.203 1372.72 808.79L1431.37 879H1408.93ZM1369.15 880.7C1363.03 880.7 1357.71 879.737 1353.17 877.81C1348.64 875.883 1344.9 873.333 1341.95 870.16C1339.12 866.873 1336.97 863.36 1335.49 859.62C1334.02 855.88 1333.28 852.253 1333.28 848.74C1333.28 845 1334.02 841.147 1335.49 837.18C1337.08 833.1 1339.74 829.077 1343.48 825.11C1347.34 821.143 1352.61 817.46 1359.29 814.06L1370.51 824.09C1365.64 826.81 1361.84 829.643 1359.12 832.59C1356.52 835.423 1354.7 838.143 1353.68 840.75C1352.66 843.243 1352.15 845.51 1352.15 847.55C1352.15 848.91 1352.38 850.61 1352.83 852.65C1353.4 854.577 1354.36 856.56 1355.72 858.6C1357.08 860.527 1359.07 862.17 1361.67 863.53C1364.28 864.777 1367.62 865.4 1371.7 865.4C1376.24 865.4 1380.54 864.21 1384.62 861.83C1388.7 859.337 1391.99 856.73 1394.48 854.01L1404 865.4C1401.51 868.12 1398.56 870.67 1395.16 873.05C1391.88 875.317 1388.02 877.187 1383.6 878.66C1379.3 880.02 1374.48 880.7 1369.15 880.7ZM1401.79 846.02C1403.15 843.867 1404.29 841.657 1405.19 839.39C1406.1 837.01 1406.84 834.857 1407.4 832.93C1407.97 831.003 1408.37 829.587 1408.59 828.68H1423.04C1422.36 832.533 1421 837.01 1418.96 842.11C1417.04 847.097 1414.6 851.913 1411.65 856.56L1401.79 846.02Z" fill="white"/>
<path d="M533.464 1151V984.25H574.714L631.964 1064L609.964 1064.75L669.214 984.25H709.464V1151H668.964V1014.75L676.964 1027.75L619.964 1103.5L563.464 1026.5L572.214 1020.5V1151H533.464ZM744.89 1151V984.25H859.14V1015.5H785.39V1051.75H849.39V1083.25H785.39V1119.75H859.14V1151H744.89ZM893.083 1151V984.25H927.583L1013.33 1099.75L1001.33 1124.75V984.25H1038.58V1151H1008.08L920.833 1037L930.333 1018.75V1151H893.083ZM1108.99 1151V1015.5H1062.24V984.25H1196.99V1015.5H1149.49V1151H1108.99ZM1293.99 1154.5C1277.49 1154.5 1263.16 1151.42 1250.99 1145.25C1238.83 1138.92 1229.33 1129.33 1222.49 1116.5C1215.83 1103.67 1212.49 1087.42 1212.49 1067.75C1212.49 1039.25 1219.66 1017.67 1233.99 1003C1248.33 988.333 1268.33 981 1293.99 981C1310.49 981 1324.83 984.167 1336.99 990.5C1349.33 996.667 1358.83 1006.08 1365.49 1018.75C1372.16 1031.42 1375.49 1047.67 1375.49 1067.5C1375.49 1096.17 1368.33 1117.83 1353.99 1132.5C1339.83 1147.17 1319.83 1154.5 1293.99 1154.5ZM1293.99 1121.25C1302.49 1121.25 1309.66 1119.5 1315.49 1116C1321.49 1112.5 1325.99 1106.83 1328.99 1099C1332.16 1091 1333.74 1080.5 1333.74 1067.5C1333.74 1054.33 1332.16 1043.83 1328.99 1036C1325.99 1028.17 1321.49 1022.58 1315.49 1019.25C1309.66 1015.75 1302.49 1014 1293.99 1014C1285.49 1014 1278.33 1015.75 1272.49 1019.25C1266.66 1022.75 1262.16 1028.42 1258.99 1036.25C1255.99 1044.08 1254.49 1054.67 1254.49 1068C1254.49 1081.17 1255.99 1091.67 1258.99 1099.5C1262.16 1107.17 1266.66 1112.75 1272.49 1116.25C1278.33 1119.58 1285.49 1121.25 1293.99 1121.25ZM1404.07 1151V984.25H1485.32C1504.15 984.25 1518.9 988.667 1529.57 997.5C1540.24 1006.17 1545.57 1019.42 1545.57 1037.25C1545.57 1044.58 1544.07 1051.83 1541.07 1059C1538.07 1066 1533.65 1072.08 1527.82 1077.25C1521.99 1082.25 1514.65 1085.5 1505.82 1087L1503.32 1073.25L1554.07 1151H1502.57L1460.82 1078.25L1478.82 1093.5H1444.57V1151H1404.07ZM1444.57 1063.75H1478.57C1485.74 1063.75 1491.4 1061.83 1495.57 1058C1499.74 1054.17 1501.82 1047.83 1501.82 1039C1501.82 1031.33 1499.9 1025.5 1496.07 1021.5C1492.4 1017.5 1487.15 1015.5 1480.32 1015.5H1444.57V1063.75ZM1637.32 1154.5C1628.82 1154.5 1621.15 1154.08 1614.32 1153.25C1607.48 1152.42 1601.15 1151.17 1595.32 1149.5C1589.48 1147.83 1583.82 1145.67 1578.32 1143V1104.5C1585.98 1110.67 1594.65 1115.33 1604.32 1118.5C1613.98 1121.67 1623.15 1123.25 1631.82 1123.25C1639.48 1123.25 1645.32 1121.83 1649.32 1119C1653.48 1116 1655.57 1111.5 1655.57 1105.5C1655.57 1101 1653.65 1097.42 1649.82 1094.75C1646.15 1091.92 1641.23 1089.5 1635.07 1087.5C1628.9 1085.33 1621.98 1082.92 1614.32 1080.25C1609.48 1078.75 1604.73 1076.83 1600.07 1074.5C1595.4 1072.17 1591.23 1069.25 1587.57 1065.75C1583.9 1062.08 1580.98 1057.67 1578.82 1052.5C1576.65 1047.33 1575.57 1041 1575.57 1033.5C1575.57 1026.67 1576.82 1020.08 1579.32 1013.75C1581.82 1007.42 1585.65 1001.75 1590.82 996.75C1596.15 991.75 1602.9 987.833 1611.07 985C1619.23 982 1628.82 980.5 1639.82 980.5C1646.65 980.5 1652.65 980.917 1657.82 981.75C1663.15 982.583 1668.23 983.833 1673.07 985.5C1677.9 987 1682.82 989 1687.82 991.5V1030.5C1683.98 1027.33 1679.65 1024.42 1674.82 1021.75C1670.15 1018.92 1665.23 1016.58 1660.07 1014.75C1654.9 1012.92 1649.48 1011.92 1643.82 1011.75C1638.82 1011.58 1634.23 1012.08 1630.07 1013.25C1625.9 1014.42 1622.65 1016.33 1620.32 1019C1617.98 1021.5 1616.82 1024.75 1616.82 1028.75C1616.82 1033.42 1618.23 1037.08 1621.07 1039.75C1623.9 1042.42 1627.82 1044.67 1632.82 1046.5C1637.82 1048.17 1643.4 1050 1649.57 1052C1656.4 1054 1662.65 1056.25 1668.32 1058.75C1674.15 1061.08 1679.23 1064.08 1683.57 1067.75C1687.9 1071.42 1691.23 1075.92 1693.57 1081.25C1695.9 1086.58 1697.07 1093 1697.07 1100.5C1697.07 1110.5 1694.73 1119.67 1690.07 1128C1685.4 1136.17 1678.65 1142.67 1669.82 1147.5C1660.98 1152.17 1650.15 1154.5 1637.32 1154.5ZM1725.6 1151V984.25H1766.1V1051.75H1827.35V984.25H1867.6V1151H1827.35V1084.75H1766.1V1151H1725.6ZM1903.09 1151V984.25H1943.59V1151H1903.09ZM2019.52 1096.25V1151H1979.02V984.25H2054.02C2073.52 984.25 2088.85 988.667 2100.02 997.5C2111.19 1006.33 2116.77 1020 2116.77 1038.5C2116.77 1057 2111.19 1071.25 2100.02 1081.25C2088.85 1091.25 2073.52 1096.25 2054.02 1096.25H2019.52ZM2019.52 1065H2049.02C2053.35 1065 2057.02 1064.42 2060.02 1063.25C2063.19 1062.08 2065.69 1060.42 2067.52 1058.25C2069.35 1056.08 2070.69 1053.58 2071.52 1050.75C2072.52 1047.75 2073.02 1044.58 2073.02 1041.25C2073.02 1037.25 2072.52 1033.75 2071.52 1030.75C2070.69 1027.75 2069.35 1025.08 2067.52 1022.75C2065.69 1020.42 2063.19 1018.67 2060.02 1017.5C2057.02 1016.33 2053.35 1015.75 2049.02 1015.75H2019.52V1065ZM783.22 1401V1234.25H864.47C883.303 1234.25 898.053 1238.67 908.72 1247.5C919.386 1256.17 924.72 1269.42 924.72 1287.25C924.72 1294.58 923.22 1301.83 920.22 1309C917.22 1316 912.803 1322.08 906.97 1327.25C901.136 1332.25 893.803 1335.5 884.97 1337L882.47 1323.25L933.22 1401H881.72L839.97 1328.25L857.97 1343.5H823.72V1401H783.22ZM823.72 1313.75H857.72C864.886 1313.75 870.553 1311.83 874.72 1308C878.886 1304.17 880.97 1297.83 880.97 1289C880.97 1281.33 879.053 1275.5 875.22 1271.5C871.553 1267.5 866.303 1265.5 859.47 1265.5H823.72V1313.75ZM1027.39 1404.5C1010.89 1404.5 996.558 1401.42 984.392 1395.25C972.225 1388.92 962.725 1379.33 955.892 1366.5C949.225 1353.67 945.892 1337.42 945.892 1317.75C945.892 1289.25 953.058 1267.67 967.392 1253C981.725 1238.33 1001.72 1231 1027.39 1231C1043.89 1231 1058.22 1234.17 1070.39 1240.5C1082.72 1246.67 1092.22 1256.08 1098.89 1268.75C1105.56 1281.42 1108.89 1297.67 1108.89 1317.5C1108.89 1346.17 1101.72 1367.83 1087.39 1382.5C1073.22 1397.17 1053.22 1404.5 1027.39 1404.5ZM1027.39 1371.25C1035.89 1371.25 1043.06 1369.5 1048.89 1366C1054.89 1362.5 1059.39 1356.83 1062.39 1349C1065.56 1341 1067.14 1330.5 1067.14 1317.5C1067.14 1304.33 1065.56 1293.83 1062.39 1286C1059.39 1278.17 1054.89 1272.58 1048.89 1269.25C1043.06 1265.75 1035.89 1264 1027.39 1264C1018.89 1264 1011.72 1265.75 1005.89 1269.25C1000.06 1272.75 995.558 1278.42 992.392 1286.25C989.392 1294.08 987.892 1304.67 987.892 1318C987.892 1331.17 989.392 1341.67 992.392 1349.5C995.558 1357.17 1000.06 1362.75 1005.89 1366.25C1011.72 1369.58 1018.89 1371.25 1027.39 1371.25ZM1214.22 1406.25C1188.55 1406.25 1169.3 1400.83 1156.47 1390C1143.8 1379 1137.47 1361.92 1137.47 1338.75V1234.25H1179.72V1337C1179.72 1349.83 1182.3 1359.33 1187.47 1365.5C1192.63 1371.67 1200.88 1374.75 1212.22 1374.75C1222.55 1374.75 1230.55 1371.67 1236.22 1365.5C1242.05 1359.33 1244.97 1349.83 1244.97 1337V1234.25H1283.47V1338.75C1283.47 1354.25 1280.47 1367 1274.47 1377C1268.63 1386.83 1260.55 1394.17 1250.22 1399C1239.88 1403.83 1227.88 1406.25 1214.22 1406.25ZM1318.86 1401V1234.25H1353.36L1439.11 1349.75L1427.11 1374.75V1234.25H1464.36V1401H1433.86L1346.61 1287L1356.11 1268.75V1401H1318.86ZM1499.77 1401V1234.25H1566.77C1595.11 1234.25 1615.94 1241.33 1629.27 1255.5C1642.61 1269.5 1649.27 1290.25 1649.27 1317.75C1649.27 1345.08 1642.61 1365.83 1629.27 1380C1615.94 1394 1595.11 1401 1566.77 1401H1499.77ZM1540.27 1369.75H1562.02C1577.02 1369.75 1588.36 1365.58 1596.02 1357.25C1603.86 1348.92 1607.77 1335.75 1607.77 1317.75C1607.77 1299.42 1603.86 1286.17 1596.02 1278C1588.36 1269.67 1577.02 1265.5 1562.02 1265.5H1540.27V1369.75ZM1795.6 1403C1786.6 1403 1777.93 1401.75 1769.6 1399.25C1761.43 1396.58 1753.85 1393.5 1746.85 1390V1355.5C1754.18 1360 1761.68 1364 1769.35 1367.5C1777.02 1370.83 1785.18 1372.5 1793.85 1372.5C1803.35 1372.5 1810.85 1370.75 1816.35 1367.25C1821.85 1363.75 1824.6 1358.67 1824.6 1352C1824.6 1345.33 1822.27 1340 1817.6 1336C1812.93 1332 1804.77 1330 1793.1 1330H1768.35V1299.5H1793.6C1801.6 1299.5 1807.52 1297.83 1811.35 1294.5C1815.18 1291 1817.1 1286.83 1817.1 1282C1817.1 1277.33 1815.85 1273.67 1813.35 1271C1810.85 1268.33 1807.52 1266.42 1803.35 1265.25C1799.18 1263.92 1794.6 1263.25 1789.6 1263.25C1783.93 1263.25 1778.1 1264 1772.1 1265.5C1766.1 1266.83 1758.77 1269.58 1750.1 1273.75V1242.75C1756.27 1239.58 1763.02 1237 1770.35 1235C1777.85 1233 1785.6 1232 1793.6 1232C1801.27 1232 1808.6 1232.92 1815.6 1234.75C1822.77 1236.42 1829.1 1239.08 1834.6 1242.75C1840.1 1246.42 1844.52 1251.17 1847.85 1257C1851.18 1262.67 1852.85 1269.5 1852.85 1277.5C1852.85 1282.17 1851.93 1286.42 1850.1 1290.25C1848.43 1294.08 1846.27 1297.5 1843.6 1300.5C1841.1 1303.33 1838.43 1305.58 1835.6 1307.25C1832.77 1308.92 1830.27 1310 1828.1 1310.5C1831.43 1311.5 1834.93 1313.25 1838.6 1315.75C1842.43 1318.08 1845.93 1321.08 1849.1 1324.75C1852.43 1328.42 1855.1 1332.75 1857.1 1337.75C1859.1 1342.58 1860.1 1348 1860.1 1354C1860.1 1362.83 1858.35 1370.33 1854.85 1376.5C1851.35 1382.67 1846.52 1387.75 1840.35 1391.75C1834.35 1395.58 1827.52 1398.42 1819.85 1400.25C1812.18 1402.08 1804.1 1403 1795.6 1403Z" fill="white"/>
<defs>
<radialGradient id="paint0_radial_205_1661" cx="0" cy="0" r="1" gradientUnits="userSpaceOnUse" gradientTransform="translate(1321.53 1525) rotate(90) scale(1525 1321.53)">
<stop stop-color="#11385F"/>
<stop offset="0.901042" stop-color="#021135"/>
</radialGradient>
</defs>
</svg>
