<svg width="2644" height="3050" viewBox="0 0 2644 3050" fill="none" xmlns="http://www.w3.org/2000/svg">
<path d="M50 2258.62V790.505L1321.97 57.7089L2593.07 790.495V2258.19L1321.97 2992.27L50 2258.62Z" fill="url(#paint0_radial_210_1798)" stroke="#0F4351" stroke-width="100"/>
<g opacity="0.755459">
<path opacity="0.402062" d="M1713.4 2389.03H936.166V2684.14H1713.4V2389.03Z" fill="url(#paint1_linear_210_1798)"/>
<path opacity="0.402062" d="M1713.4 2389.04V2684.13C1770.13 2684.69 1850.56 2618.01 1850.56 2536.56C1850.56 2455.11 1787.24 2389.04 1713.4 2389.04Z" fill="url(#paint2_radial_210_1798)"/>
<path opacity="0.402062" d="M936.166 2389.57V2684.66C879.431 2685.22 799.008 2618.55 799.008 2537.1C799.008 2455.64 862.32 2389.57 936.166 2389.57Z" fill="url(#paint3_radial_210_1798)"/>
</g>
<path d="M996.174 1760.08C970.4 1760.08 947.597 1775.77 947.597 1808.62V2307.73L856.158 2513.29V2538.99V2578.96C856.158 2593.07 867.757 2604.66 881.875 2604.66H1767.69C1781.81 2604.66 1793.41 2593.07 1793.41 2578.96V2538.99V2513.29L1701.97 2307.73V1808.62C1701.97 1779.6 1682.64 1760.08 1653.39 1760.08H996.174Z" fill="url(#paint4_linear_210_1798)" stroke="#888A85"/>
<path d="M982.138 2318.39L940.279 2412.23L1708.67 2410.95L1668.08 2318.39H982.138Z" fill="#F7F1E5"/>
<path opacity="0.618852" d="M1759.12 2524.65H890.447V2570.37H1759.12V2524.65Z" fill="url(#paint5_linear_210_1798)"/>
<path d="M1246.2 2444.64H1403.36L1417.46 2490.36H1230.83L1246.2 2444.64Z" fill="#B8B8B8" stroke="#B8B8B8"/>
<path opacity="0.577869" d="M1680.04 2306.55H969.529V2308.41H1680.04V2306.55Z" fill="#555753" stroke="#555753" stroke-width="0.91883"/>
<path d="M1389.6 2559.62H1245.45V2560.04H1389.6V2559.62Z" fill="#555753" stroke="#888A85" stroke-width="1.0595"/>
<path d="M1373.41 1797.38H1281.07V1793.58H1373.41V1797.38Z" fill="#888A85" stroke="#888A85" stroke-width="0.573"/>
<path d="M1633.09 1828.78H1015.75V2262.27H1633.09V1828.78Z" fill="url(#paint6_radial_210_1798)" stroke="#ABC7D0"/>
<path opacity="0.75" fill-rule="evenodd" clip-rule="evenodd" d="M1017.69 1831.45V2251.63C1298.16 2220.03 1403.12 2015.67 1631.15 1994.32V1830.72L1017.69 1831.45Z" fill="url(#paint7_linear_210_1798)"/>
<circle cx="1117.83" cy="2233.37" r="57.5728" fill="#EBDE87"/>
<circle cx="1060.57" cy="2232.57" r="57.5728" fill="#EBDE87"/>
<circle cx="1225.5" cy="2237.5" r="63.5" fill="#EBDE87"/>
<ellipse cx="1315.23" cy="2254.17" rx="36.2853" ry="36.7691" fill="#EBDE87"/>
<ellipse cx="1531" cy="2243.53" rx="36.2853" ry="36.7691" fill="#EBDE87"/>
<ellipse cx="1552.29" cy="2242.77" rx="36.2853" ry="36.7691" fill="#EBDE87"/>
<ellipse cx="1473.91" cy="2254.17" rx="36.2853" ry="36.7691" fill="#EBDE87"/>
<ellipse cx="1397.96" cy="2253.69" rx="55.1537" ry="42.091" fill="#EBDE87"/>
<rect x="974.145" y="2262.01" width="752.8" height="42.5748" fill="#B3CCD5"/>
<path fill-rule="evenodd" clip-rule="evenodd" d="M1628.51 2025.79C1620.2 2010.25 1615.49 1992.5 1615.49 1973.64C1615.49 1912.48 1665.07 1862.9 1726.22 1862.9C1787.38 1862.9 1836.96 1912.48 1836.96 1973.64C1836.96 1975.42 1836.92 1977.19 1836.84 1978.95C1837 1978.95 1837.16 1978.95 1837.32 1978.95C1877.08 1978.95 1909.32 2011.19 1909.32 2050.95C1909.32 2066.57 1904.35 2081.03 1895.9 2092.83C1911.1 2081.1 1930.14 2074.12 1950.82 2074.12C2000.51 2074.12 2040.79 2114.4 2040.79 2164.09C2040.79 2213.77 2000.51 2254.05 1950.82 2254.05C1927.6 2254.05 1906.44 2245.26 1890.48 2230.82C1874.03 2252.09 1848.25 2265.8 1819.27 2265.8C1794.69 2265.8 1772.41 2255.94 1756.18 2239.96C1747.43 2241.79 1738.36 2242.75 1729.08 2242.75C1702.29 2242.75 1677.36 2234.76 1656.56 2221.02C1644.31 2232.16 1628.03 2238.95 1610.17 2238.95C1572.06 2238.95 1541.16 2208.05 1541.16 2169.94C1541.16 2136.13 1565.49 2107.99 1597.59 2102.08C1599.52 2073.08 1610.83 2046.65 1628.51 2025.79Z" fill="url(#paint8_radial_210_1798)" fill-opacity="0.2"/>
<path fill-rule="evenodd" clip-rule="evenodd" d="M818.938 2154.55C876.688 2154.55 923.503 2107.73 923.503 2049.98C923.503 1992.23 876.688 1945.42 818.938 1945.42C768.52 1945.42 726.436 1981.1 716.564 2028.59C715.615 2028.57 714.664 2028.55 713.709 2028.55C655.96 2028.55 609.145 2075.37 609.145 2133.12C609.145 2190.87 655.96 2237.68 713.709 2237.68C764.128 2237.68 806.212 2202 816.084 2154.51C817.032 2154.54 817.984 2154.55 818.938 2154.55Z" fill="url(#paint9_radial_210_1798)" fill-opacity="0.2"/>
<path fill-rule="evenodd" clip-rule="evenodd" d="M812.54 2482.66C870.29 2482.66 917.105 2435.84 917.105 2378.09C917.105 2320.34 870.29 2273.53 812.54 2273.53C762.122 2273.53 720.038 2309.21 710.165 2356.7C709.217 2356.67 708.265 2356.66 707.311 2356.66C649.561 2356.66 602.746 2403.48 602.746 2461.23C602.746 2518.98 649.561 2565.79 707.311 2565.79C757.729 2565.79 799.813 2530.11 809.686 2482.62C810.634 2482.64 811.586 2482.66 812.54 2482.66Z" fill="url(#paint10_radial_210_1798)" fill-opacity="0.2"/>
<circle cx="930.316" cy="2167.26" r="153.169" fill="#EBDE87"/>
<circle cx="869.078" cy="2038.1" r="104.565" fill="#EBDE87"/>
<circle cx="763.85" cy="2121.24" r="104.565" fill="#EBDE87"/>
<circle cx="830.582" cy="2293.06" r="104.565" fill="#EBDE87"/>
<circle cx="677.151" cy="2236.31" r="104.565" fill="#EBDE87"/>
<path fill-rule="evenodd" clip-rule="evenodd" d="M875.552 2154.54C875.552 2161.88 874.839 2169.04 873.479 2175.97C906.189 2205.64 926.731 2248.48 926.731 2296.12C926.731 2385.68 854.129 2458.28 764.57 2458.28C763.798 2458.28 763.027 2458.28 762.258 2458.27C748.586 2503.89 706.275 2537.14 656.198 2537.14C605.275 2537.14 562.382 2502.76 549.469 2455.94C532.652 2466.25 512.872 2472.19 491.704 2472.19C430.564 2472.19 381 2422.63 381 2361.49C381 2306.55 421.021 2260.96 473.501 2252.27C473.031 2248.13 472.79 2243.92 472.79 2239.66C472.79 2178.52 522.354 2128.95 583.494 2128.95C610.351 2128.95 634.974 2138.52 654.144 2154.43C654.208 2093.34 703.747 2043.84 764.848 2043.84C825.988 2043.84 875.552 2093.4 875.552 2154.54Z" fill="url(#paint11_radial_210_1798)" fill-opacity="0.2"/>
<circle cx="1750.65" cy="2232.04" r="68.2165" fill="#EBDE87"/>
<circle cx="1750.65" cy="2232.04" r="68.2165" fill="#EBDE87"/>
<path fill-rule="evenodd" clip-rule="evenodd" d="M2140.86 2252.74C2141.64 2247.08 2142.05 2241.3 2142.05 2235.43C2142.05 2166.49 2086.16 2110.6 2017.23 2110.6C1948.29 2110.6 1892.4 2166.49 1892.4 2235.43C1892.4 2240.88 1892.76 2246.26 1893.43 2251.53C1884.26 2248.61 1874.49 2247.04 1864.34 2247.04C1811.44 2247.04 1768.55 2289.93 1768.55 2342.83C1768.55 2395.74 1811.44 2438.62 1864.34 2438.62C1874.43 2438.62 1884.15 2437.07 1893.28 2434.18C1899.61 2480.95 1939.69 2517 1988.2 2517C2034.43 2517 2073.01 2484.25 2082.01 2440.69C2101.23 2458.05 2126.69 2468.62 2154.63 2468.62C2214.48 2468.62 2263 2420.1 2263 2360.25C2263 2300.4 2214.48 2251.88 2154.63 2251.88C2149.96 2251.88 2145.37 2252.17 2140.86 2252.74Z" fill="url(#paint12_radial_210_1798)" fill-opacity="0.2"/>
<circle cx="1911.76" cy="2380.57" r="95.7933" fill="#EBDE87"/>
<circle cx="1911.76" cy="2380.57" r="95.7933" fill="#EBDE87"/>
<circle cx="2078.19" cy="2319.61" r="108.372" fill="#EBDE87"/>
<circle cx="2078.19" cy="2319.61" r="108.372" fill="#EBDE87"/>
<circle cx="1940.79" cy="2194.79" r="124.822" fill="#EBDE87"/>
<circle cx="1940.79" cy="2194.79" r="124.822" fill="#EBDE87"/>
<circle cx="1841.12" cy="2332.19" r="95.7933" fill="url(#paint13_radial_210_1798)" fill-opacity="0.2"/>
<circle cx="1799.52" cy="2299.29" r="95.7933" fill="#EBDE87"/>
<circle cx="1799.52" cy="2299.29" r="95.7933" fill="#EBDE87"/>
<circle cx="1278.94" cy="2039" r="13.5465" fill="#EBDE87"/>
<circle cx="1278.94" cy="2039" r="13.5465" fill="#EBDE87"/>
<circle cx="1197.18" cy="2034.65" r="5.32185" fill="#EBDE87"/>
<circle cx="1180.25" cy="2009.97" r="13.5465" fill="#EBDE87"/>
<path d="M1373.77 2016.75C1373.77 2024.23 1367.7 2030.29 1360.22 2030.29C1352.74 2030.29 1346.67 2024.23 1346.67 2016.75C1346.67 2009.27 1352.74 2003.2 1360.22 2003.2C1367.7 2003.2 1373.77 2009.27 1373.77 2016.75Z" fill="#EBDE87"/>
<circle cx="1456.01" cy="2018.68" r="13.5465" fill="#EBDE87"/>
<circle cx="1427.95" cy="2115.44" r="18.3846" fill="#EBDE87"/>
<circle cx="1333.61" cy="2173.98" r="9.19229" fill="#EBDE87"/>
<circle cx="114.838" cy="114.838" r="114.838" transform="matrix(-1 0 0 1 1862.46 2034.87)" fill="#EBDE87"/>
<path d="M1648.64 2030.04C1648.64 2083.33 1691.84 2126.53 1745.14 2126.53C1798.43 2126.53 1841.63 2083.33 1841.63 2030.04C1841.63 1976.74 1798.43 1933.54 1745.14 1933.54C1691.84 1933.54 1648.64 1976.74 1648.64 2030.04Z" fill="#EBDE87"/>
<circle cx="78.397" cy="78.397" r="78.397" transform="matrix(-1 0 0 1 1904.61 2127.83)" fill="#EBDE87"/>
<circle cx="62.7478" cy="62.7478" r="62.7478" transform="matrix(-1 0 0 1 1904.69 2034.66)" fill="#EBDE87"/>
<circle cx="78.397" cy="78.397" r="78.397" transform="matrix(-1 0 0 1 2019.25 2117.6)" fill="#EBDE87"/>
<circle cx="1610.17" cy="2206.71" r="69.0062" fill="#EBDE87"/>
<path d="M1416.34 2056.42L1418.08 2061.77H1423.7L1419.15 2065.07L1420.89 2070.42L1416.34 2067.12L1411.79 2070.42L1413.53 2065.07L1408.98 2061.77H1414.6L1416.34 2056.42Z" fill="#EBDE87"/>
<path d="M1416.34 2056.42L1418.08 2061.77H1423.7L1419.15 2065.07L1420.89 2070.42L1416.34 2067.12L1411.79 2070.42L1413.53 2065.07L1408.98 2061.77H1414.6L1416.34 2056.42Z" fill="#EBDE87"/>
<path d="M1416.34 2056.42L1418.08 2061.77H1423.7L1419.15 2065.07L1420.89 2070.42L1416.34 2067.12L1411.79 2070.42L1413.53 2065.07L1408.98 2061.77H1414.6L1416.34 2056.42Z" fill="#EBDE87"/>
<path d="M1224.75 2071.9L1226.49 2077.25H1232.12L1227.57 2080.56L1229.3 2085.9L1224.75 2082.6L1220.2 2085.9L1221.94 2080.56L1217.39 2077.25H1223.02L1224.75 2071.9Z" fill="#EBDE87"/>
<path d="M1224.75 2071.9L1226.49 2077.25H1232.12L1227.57 2080.56L1229.3 2085.9L1224.75 2082.6L1220.2 2085.9L1221.94 2080.56L1217.39 2077.25H1223.02L1224.75 2071.9Z" fill="#EBDE87"/>
<path d="M1224.75 2071.9L1226.49 2077.25H1232.12L1227.57 2080.56L1229.3 2085.9L1224.75 2082.6L1220.2 2085.9L1221.94 2080.56L1217.39 2077.25H1223.02L1224.75 2071.9Z" fill="#EBDE87"/>
<path d="M1482.14 2158.99L1483.88 2164.33H1489.5L1484.95 2167.64L1486.69 2172.99L1482.14 2169.68L1477.59 2172.99L1479.33 2167.64L1474.78 2164.33H1480.4L1482.14 2158.99Z" fill="#EBDE87"/>
<path d="M1482.14 2158.99L1483.88 2164.33H1489.5L1484.95 2167.64L1486.69 2172.99L1482.14 2169.68L1477.59 2172.99L1479.33 2167.64L1474.78 2164.33H1480.4L1482.14 2158.99Z" fill="#EBDE87"/>
<path d="M1482.14 2158.99L1483.88 2164.33H1489.5L1484.95 2167.64L1486.69 2172.99L1482.14 2169.68L1477.59 2172.99L1479.33 2167.64L1474.78 2164.33H1480.4L1482.14 2158.99Z" fill="#EBDE87"/>
<path d="M1282.81 1950.95L1284.55 1956.3H1290.17L1285.62 1959.61L1287.36 1964.96L1282.81 1961.65L1278.26 1964.96L1280 1959.61L1275.45 1956.3H1281.07L1282.81 1950.95Z" fill="#EBDE87"/>
<path d="M1282.81 1950.95L1284.55 1956.3H1290.17L1285.62 1959.61L1287.36 1964.96L1282.81 1961.65L1278.26 1964.96L1280 1959.61L1275.45 1956.3H1281.07L1282.81 1950.95Z" fill="#EBDE87"/>
<path d="M1282.81 1950.95L1284.55 1956.3H1290.17L1285.62 1959.61L1287.36 1964.96L1282.81 1961.65L1278.26 1964.96L1280 1959.61L1275.45 1956.3H1281.07L1282.81 1950.95Z" fill="#EBDE87"/>
<path d="M1290.55 2091.25L1292.29 2096.6H1297.92L1293.37 2099.91L1295.1 2105.26L1290.55 2101.95L1286 2105.26L1287.74 2099.91L1283.19 2096.6H1288.82L1290.55 2091.25Z" fill="#EBDE87"/>
<path d="M1290.55 2091.25L1292.29 2096.6H1297.92L1293.37 2099.91L1295.1 2105.26L1290.55 2101.95L1286 2105.26L1287.74 2099.91L1283.19 2096.6H1288.82L1290.55 2091.25Z" fill="#EBDE87"/>
<path d="M1290.55 2091.25L1292.29 2096.6H1297.92L1293.37 2099.91L1295.1 2105.26L1290.55 2101.95L1286 2105.26L1287.74 2099.91L1283.19 2096.6H1288.82L1290.55 2091.25Z" fill="#EBDE87"/>
<path d="M1154.12 2132.86L1155.86 2138.21H1161.48L1156.93 2141.51L1158.67 2146.86L1154.12 2143.56L1149.57 2146.86L1151.31 2141.51L1146.76 2138.21H1152.38L1154.12 2132.86Z" fill="#EBDE87"/>
<path d="M1154.12 2132.86L1155.86 2138.21H1161.48L1156.93 2141.51L1158.67 2146.86L1154.12 2143.56L1149.57 2146.86L1151.31 2141.51L1146.76 2138.21H1152.38L1154.12 2132.86Z" fill="#EBDE87"/>
<path d="M1154.12 2132.86L1155.86 2138.21H1161.48L1156.93 2141.51L1158.67 2146.86L1154.12 2143.56L1149.57 2146.86L1151.31 2141.51L1146.76 2138.21H1152.38L1154.12 2132.86Z" fill="#EBDE87"/>
<path d="M1282.81 1950.95L1284.55 1956.3H1290.17L1285.62 1959.61L1287.36 1964.96L1282.81 1961.65L1278.26 1964.96L1280 1959.61L1275.45 1956.3H1281.07L1282.81 1950.95Z" fill="#EBDE87"/>
<path d="M1282.81 1950.95L1284.55 1956.3H1290.17L1285.62 1959.61L1287.36 1964.96L1282.81 1961.65L1278.26 1964.96L1280 1959.61L1275.45 1956.3H1281.07L1282.81 1950.95Z" fill="#EBDE87"/>
<path d="M1282.81 1950.95L1284.55 1956.3H1290.17L1285.62 1959.61L1287.36 1964.96L1282.81 1961.65L1278.26 1964.96L1280 1959.61L1275.45 1956.3H1281.07L1282.81 1950.95Z" fill="#EBDE87"/>
<g opacity="0.2">
<path d="M1372.82 1904.77C1371.91 1932.97 1431.05 2074 1431.05 2074C1435.6 2091.28 1452.89 2090.37 1462.9 2058.53L1496.56 1944.8C1514.76 1882.93 1515.67 1869.28 1471.08 1824.7L1410.13 1778.3C1389.2 1762.83 1371.91 1772.84 1372.82 1801.05L1372.82 1904.77Z" fill="#231F20"/>
</g>
<g opacity="0.2">
<path d="M1272.15 1904.99C1272.15 1934.11 1213.92 2074.22 1213.92 2074.22C1209.37 2091.51 1192.08 2090.6 1182.07 2058.75L1146.59 1945.03C1128.39 1883.16 1127.48 1869.51 1172.07 1824.93L1233.03 1778.53C1253.95 1763.06 1271.24 1773.07 1270.33 1801.27L1272.15 1904.99Z" fill="#231F20"/>
</g>
<path d="M1369.3 1858.07C1368.39 1886.28 1427.53 2027.3 1427.53 2027.3C1432.08 2044.59 1449.36 2043.68 1459.37 2011.83L1493.03 1898.11C1511.23 1836.24 1512.14 1822.59 1467.56 1778.01L1406.6 1731.61C1385.67 1716.14 1368.39 1726.15 1369.3 1754.35L1369.3 1858.07Z" fill="#26AF64"/>
<path d="M1278.31 1858.08C1278.31 1887.19 1220.08 2027.3 1220.08 2027.3C1215.54 2044.59 1198.25 2043.68 1188.24 2011.84L1152.76 1898.11C1134.56 1836.24 1133.65 1822.59 1178.23 1778.01L1239.19 1731.61C1260.12 1716.14 1277.4 1726.15 1276.49 1754.36L1278.31 1858.08Z" fill="#26AF64"/>
<g opacity="0.2">
<path d="M1268.55 2001.97C1268.55 1909.17 1321.32 1885.51 1321.32 1885.51C1321.32 1885.51 1374.09 1910.99 1374.09 2001.97C1374.09 2092.95 1333.15 2203.04 1321.32 2202.13C1311.31 2203.04 1269.46 2093.86 1268.55 2001.97Z" fill="#231F20"/>
</g>
<path d="M1268.31 1955.42C1268.31 1862.62 1321.08 1838.97 1321.08 1838.97C1321.08 1838.97 1373.85 1864.44 1373.85 1955.42C1373.85 2046.41 1332.9 2156.5 1321.08 2155.59C1311.07 2156.5 1269.22 2047.32 1268.31 1955.42Z" fill="#E05E5E"/>
<path d="M1269.21 1878.09C1269.21 1785.29 1321.98 1761.63 1321.98 1761.63C1321.98 1761.63 1374.75 1787.11 1374.75 1878.09C1374.75 1969.07 1333.81 2079.16 1321.98 2078.25C1310.16 2079.16 1269.21 1970.89 1269.21 1878.09Z" fill="#E0995E"/>
<g opacity="0.2">
<path d="M1449.1 1770.89C1449.1 1912.83 1320.82 2002.9 1320.82 2002.9C1320.82 2002.9 1192.53 1912.83 1192.53 1770.89C1192.53 1628.96 1292.61 1514.32 1320.82 1513.41C1348.11 1513.41 1449.1 1628.96 1449.1 1770.89Z" fill="#231F20"/>
</g>
<path d="M1450.27 1729.79C1450.27 1871.72 1321.99 1961.79 1321.99 1961.79C1321.99 1961.79 1193.7 1871.72 1193.7 1729.79C1193.7 1587.85 1293.78 1473.21 1321.99 1472.3C1349.28 1472.3 1450.27 1587.85 1450.27 1729.79Z" fill="#EBDE87"/>
<g opacity="0.2">
<path d="M1335.08 2057.42C1335.08 2072.99 1337.03 2084.67 1321.45 2084.67C1305.88 2084.67 1307.82 2072.99 1307.82 2057.42L1280.56 1837.4C1280.56 1821.82 1306.85 1781.91 1321.45 1782.88C1337.03 1782.88 1363.31 1822.8 1362.34 1837.4L1335.08 2057.42Z" fill="#231F20"/>
</g>
<path d="M1334.72 2025.48C1334.72 2040.04 1336.54 2050.96 1321.99 2050.96C1307.43 2050.96 1309.25 2040.04 1309.25 2025.48L1283.77 1819.86C1283.77 1805.3 1308.34 1768 1321.99 1768.91C1336.54 1768.91 1361.11 1806.21 1360.2 1819.86L1334.72 2025.48Z" fill="#26AF64"/>
<g opacity="0.2">
<path d="M1360.29 1733.01C1380.39 1712.92 1380.39 1680.33 1360.29 1660.23C1340.19 1640.13 1307.6 1640.13 1287.5 1660.23C1267.41 1680.33 1267.41 1712.92 1287.5 1733.01C1307.6 1753.11 1340.19 1753.11 1360.29 1733.01Z" fill="#231F20"/>
</g>
<g opacity="0.2">
<path d="M1342.11 1598.85C1352.16 1588.8 1352.16 1572.5 1342.11 1562.45C1332.06 1552.41 1315.76 1552.41 1305.71 1562.45C1295.66 1572.5 1295.66 1588.8 1305.71 1598.85C1315.76 1608.9 1332.06 1608.9 1342.11 1598.85Z" fill="#231F20"/>
</g>
<path d="M1359.29 1711.59C1379.39 1691.49 1379.39 1658.9 1359.29 1638.8C1339.19 1618.7 1306.6 1618.7 1286.5 1638.8C1266.4 1658.9 1266.4 1691.49 1286.5 1711.59C1306.6 1731.69 1339.19 1731.69 1359.29 1711.59Z" fill="#402A28"/>
<path d="M1342 1590.58C1352.05 1580.54 1352.05 1564.24 1342 1554.19C1331.95 1544.14 1315.66 1544.14 1305.61 1554.19C1295.56 1564.24 1295.56 1580.54 1305.61 1590.58C1315.66 1600.63 1331.95 1600.63 1342 1590.58Z" fill="#402A28"/>
<circle cx="837.14" cy="2265.16" r="162.162" fill="#EBDE87"/>
<circle cx="837.419" cy="2123.58" r="110.704" fill="#EBDE87"/>
<circle cx="726.714" cy="2390.61" r="110.704" fill="#EBDE87"/>
<circle cx="656.063" cy="2208.7" r="110.704" fill="#EBDE87"/>
<circle cx="564.274" cy="2330.53" r="110.704" fill="#EBDE87"/>
<path d="M911.25 2337.03C911.25 2415.05 848.218 2478.3 770.463 2478.3C692.708 2478.3 629.676 2415.05 629.676 2337.03C629.676 2259 692.708 2195.75 770.463 2195.75C848.218 2195.75 911.25 2259 911.25 2337.03Z" fill="url(#paint14_radial_210_1798)" fill-opacity="0.2"/>
<ellipse cx="853.193" cy="2279.94" rx="139.336" ry="137.401" fill="#EBDE87"/>
<path d="M905.268 802.106C908.463 802.006 910.265 802.194 911.339 802.295H953.276V818.801H933.586C933.586 818.801 920.396 818.839 913.584 818.801C899.652 818.908 886.606 821.251 885.955 821.321L905.268 802.106Z" fill="white"/>
<path d="M849.972 837.091C851.17 838.587 851.17 838.649 852.373 840.283C874.067 869.739 903.999 866.861 905.268 866.717V883.267C904.936 883.311 905.177 883.393 902.255 883.393C890.465 883.393 860.696 880.132 838.403 849.884C837.785 849.042 837.785 849.017 837.18 848.238L849.972 837.091Z" fill="white"/>
<path d="M836.574 847.433C815.602 820.189 798.658 818.669 798.658 818.669V802.188C801.209 802.244 823.391 803.677 848.781 835.59L836.574 847.433Z" fill="white"/>
<path d="M634 882.312V809.564C646.2 803.702 658.922 800.768 672.15 800.768C683.758 800.768 692.823 803.69 699.356 809.527C705.895 815.37 709.162 823.557 709.162 834.075V882.318H689.153V832.429C689.153 830.287 688.951 828.496 688.541 827.057C688.131 825.618 687.324 824.11 686.101 822.533C684.884 820.975 682.887 819.781 680.121 819.002C677.356 818.217 673.803 817.814 669.463 817.814C664.589 817.814 659.429 818.292 654.009 819.234V882.325H634V882.312Z" fill="white"/>
<path d="M722.168 843.022C722.168 830.142 725.142 819.85 731.082 812.153C737.017 804.462 746.439 800.604 759.349 800.604C771.549 800.604 780.776 804.349 787.042 811.845C793.315 819.328 796.445 828.552 796.445 839.491C796.445 843.996 796.327 847.326 796.106 849.475H742.183C742.723 856.431 744.871 861.099 748.645 863.455C752.419 865.812 757.312 866.98 763.324 866.98C773.098 866.98 779.409 867.194 791.655 863.814L791.747 880.188C785.37 883.078 771.985 883.556 760.325 883.556C756.635 883.556 753.173 883.26 749.914 882.695C746.654 882.11 743.283 880.917 739.789 879.076C736.308 877.247 733.301 874.916 730.79 872.095C728.271 869.261 726.209 865.353 724.589 860.358C722.975 855.344 722.168 849.569 722.168 843.022ZM742.183 836.117H775.687C775.154 830.607 773.462 825.957 770.619 822.162C767.769 818.373 763.845 816.476 758.854 816.476C753.863 816.476 749.979 818.015 747.181 821.113C744.389 824.21 742.723 829.205 742.183 836.117Z" fill="white"/>
<path d="M933.586 778.223H913.584V796.539H933.586V778.223Z" fill="white"/>
<path d="M935.823 865.178C934.333 863.971 933.578 861.64 933.578 858.197V824.751H913.576V857.016C913.576 865.285 915.932 871.781 920.656 876.5C925.373 881.206 931.854 883.563 940.098 883.563C940.203 883.563 940.339 883.563 940.502 883.563C945.102 883.563 949.358 882.783 953.268 881.206V865.266C950.496 866.422 947.328 866.981 943.755 866.981C939.962 866.981 937.32 866.384 935.823 865.178Z" fill="white"/>
<path d="M966.861 818.6V802.024H981.02C981.124 779.662 991.457 768.484 1012.01 768.484C1014.67 768.484 1017.37 768.748 1020.15 769.282V784.657C1018.14 784.456 1016.65 784.343 1015.67 784.343C1010.46 784.343 1006.71 785.55 1004.44 787.962C1002.15 790.369 1001.03 795.056 1001.03 802.018H1020.15V818.593H1001.03V882.306H981.02V818.593H966.861V818.6Z" fill="white"/>
<path d="M1036.49 882.312V771.469H1056.5V882.312H1036.49Z" fill="white"/>
<path d="M1088.72 872.874C1081.94 865.761 1078.55 855.545 1078.55 842.243C1078.55 828.942 1081.94 818.731 1088.72 811.606C1095.5 804.487 1105.22 800.924 1117.88 800.924C1130.54 800.924 1140.26 804.487 1147.04 811.606C1153.82 818.731 1157.2 828.942 1157.2 842.243C1157.2 855.545 1153.81 865.761 1147.04 872.874C1140.26 880.006 1130.54 883.556 1117.88 883.556C1105.22 883.556 1095.5 880.006 1088.72 872.874ZM1103.32 822.061C1100.16 825.567 1098.56 832.309 1098.56 842.281C1098.56 852.259 1100.16 858.988 1103.32 862.463C1106.49 865.95 1111.35 867.697 1117.92 867.697C1124.49 867.697 1129.33 865.95 1132.48 862.463C1135.62 858.988 1137.21 852.259 1137.21 842.281C1137.21 832.309 1135.63 825.567 1132.48 822.061C1129.33 818.549 1124.49 816.79 1117.92 816.79C1111.35 816.79 1106.49 818.549 1103.32 822.061Z" fill="white"/>
<path d="M1168.36 802.024H1189.52L1207.16 859.912L1223.03 802.024H1240.2L1255.98 859.912L1273.62 802.024H1294.77L1265.33 882.312H1245.32L1231.65 836.117L1217.83 882.312H1197.81L1168.36 802.024Z" fill="white"/>
<path d="M808.854 857.549C787.101 868.187 768.901 866.874 767.782 866.798L766.441 883.298C766.728 883.311 767.99 883.405 770.053 883.405C777.178 883.405 793.276 882.607 812.328 874.25L808.854 857.549Z" fill="white"/>
<path d="M911.338 802.294C909.971 802.168 906.705 801.961 902.078 802.294H902.007L901.987 802.3C888.29 803.287 862.757 808.954 838.955 834.955C828.016 846.905 816.226 854.42 805.45 859.114C790.719 875.488 766.441 883.298 766.441 883.298C766.728 883.31 767.99 883.405 770.053 883.405C781.895 883.405 820.143 880.527 851.812 845.919C871.574 824.311 879.864 822.696 891.329 820.013C891.329 820.013 901.89 814.748 915.535 810.72C934.925 804.763 953.275 802.3 953.275 802.3H911.338V802.294Z" fill="white"/>
<path d="M1486.58 804.362C1495.01 802.451 1502.54 801.458 1509.16 801.458C1520.46 801.458 1528.89 803.674 1534.61 808.183C1540.33 812.692 1543.11 820.028 1543.11 830.346V884.912H1519.55V835.16C1519.55 825.837 1514.36 821.175 1504.05 821.175C1501.71 821.175 1499.38 821.481 1496.97 821.939C1494.56 822.474 1492.68 823.085 1491.25 823.85V884.759H1467.76V810.476C1471.9 808.336 1478.15 806.272 1486.58 804.362Z" fill="white"/>
<path d="M1570.17 822.069H1558.51V803.935H1570.32V802.046C1570.4 790.032 1573.18 781.645 1578.6 776.885C1584.01 772.2 1591.39 769.858 1600.79 769.858C1602.45 769.858 1604.33 770.009 1606.28 770.312C1608.31 770.614 1609.89 770.992 1611.17 771.445V792.223C1610.04 791.09 1608.84 790.183 1607.71 789.579C1606.58 788.974 1605.08 788.672 1603.27 788.672C1600.34 788.672 1598.01 789.428 1596.35 791.014C1594.7 792.601 1593.79 795.321 1593.79 799.099V803.859H1611.17V821.918H1593.64V884.102H1570.09V822.069H1570.17Z" fill="white"/>
<path d="M1628.19 827.385H1675.99V843.59H1628.19V827.385Z" fill="white"/>
<path d="M1715.56 881.895C1709.17 878.778 1704.07 874.14 1700.34 867.906C1696.53 861.672 1694.63 854.069 1694.63 845.173C1694.63 830.804 1698.44 819.932 1706.12 812.558C1713.81 805.183 1724.01 801.458 1736.8 801.458C1741.3 801.458 1745.79 801.914 1750.36 802.826C1754.92 803.738 1758.96 804.955 1762.54 806.551V827.003C1758.2 825.102 1754.31 823.658 1750.89 822.593C1747.46 821.605 1744.04 821.073 1740.69 821.073C1733.68 821.073 1728.2 822.821 1724.24 826.243C1720.28 829.664 1718.31 835.062 1718.31 842.436C1718.31 850.647 1720.13 856.73 1723.79 860.607C1727.44 864.561 1733.46 866.537 1741.75 866.537C1748.07 866.537 1755 864.409 1762.69 860.151V880.45C1758.88 882.503 1754.92 884.024 1750.81 885.012C1746.7 886 1742.13 886.533 1736.96 886.533C1729.12 886.533 1721.96 884.936 1715.56 881.895Z" fill="white"/>
<path d="M1784.89 875.757C1778.14 868.598 1774.84 857.973 1774.84 843.807C1774.84 829.037 1778.14 818.262 1784.82 811.555C1791.5 804.773 1801.62 801.458 1815.13 801.458C1828.63 801.458 1838.84 804.924 1845.66 811.781C1852.49 818.714 1855.87 829.339 1855.87 843.807C1855.87 857.747 1852.34 868.297 1845.29 875.606C1838.24 882.916 1828.18 886.533 1815.05 886.533C1801.7 886.533 1791.57 882.916 1784.89 875.757ZM1828.18 861.59C1831.11 857.521 1832.61 851.568 1832.61 843.807C1832.61 835.292 1831.18 829.188 1828.26 825.571C1825.41 821.954 1820.98 820.145 1815.13 820.145C1809.05 820.145 1804.63 821.954 1802 825.571C1799.3 829.188 1797.95 835.292 1797.95 843.807C1797.95 851.945 1799.37 857.973 1802.15 861.816C1804.93 865.735 1809.28 867.694 1815.13 867.694C1820.91 867.694 1825.26 865.659 1828.18 861.59Z" fill="white"/>
<path d="M1872.15 812.27C1873.74 810.909 1876.54 809.397 1880.49 807.658C1884.43 805.994 1888.9 804.482 1893.83 803.272C1898.76 802.062 1903.53 801.458 1908.08 801.458C1916.88 801.458 1923.02 802.819 1926.36 805.389V822.705C1922.11 821.722 1916.04 821.268 1908.08 821.268C1903.08 821.268 1898.99 821.57 1895.8 822.024V884.102H1872.07V812.27H1872.15Z" fill="white"/>
<path d="M2008.99 850.33H1956.66C1958.67 861.417 1965.99 866.923 1978.76 866.923C1982.64 866.923 1986.37 866.395 1990.11 865.264C1993.84 864.132 1997.72 862.699 2001.9 860.889V881.178C1993.32 884.798 1983.76 886.533 1973.08 886.533C1965.02 886.533 1958 884.873 1951.95 881.555C1945.9 878.236 1941.2 873.485 1937.84 867.225C1934.48 860.965 1932.84 853.649 1932.84 845.202C1932.84 831.249 1936.27 820.464 1943.07 812.846C1949.94 805.229 1959.72 801.458 1972.33 801.458C1997.12 801.458 2009.29 817.749 2008.99 850.33ZM1956.51 835.322H1985.77C1985.03 829.59 1983.53 825.592 1981.29 823.103C1979.05 820.69 1975.69 819.483 1971.36 819.483C1963 819.483 1958.07 824.763 1956.51 835.322Z" fill="white"/>
<path d="M1407.93 886.998L1354.55 822.738C1352.06 819.678 1349.57 816.051 1347.07 811.858C1344.69 807.665 1343.5 803.528 1343.5 799.448C1343.5 794.461 1344.86 789.928 1347.58 785.848C1350.3 781.655 1353.93 778.311 1358.46 775.818C1363.11 773.325 1368.27 772.078 1373.93 772.078C1379.6 772.078 1384.59 773.211 1388.89 775.478C1393.31 777.745 1396.77 780.861 1399.26 784.828C1401.87 788.795 1403.17 793.215 1403.17 798.088C1403.17 802.735 1402.1 806.758 1399.94 810.158C1397.9 813.445 1395.01 816.505 1391.27 819.338C1387.53 822.058 1383.11 824.948 1378.01 828.008L1370.53 817.638C1375.07 815.145 1378.47 812.878 1380.73 810.838C1383 808.798 1384.47 806.871 1385.15 805.058C1385.95 803.131 1386.34 801.261 1386.34 799.448C1386.34 796.048 1385.15 793.271 1382.77 791.118C1380.51 788.965 1377.62 787.888 1374.1 787.888C1370.59 787.888 1367.59 789.078 1365.09 791.458C1362.71 793.725 1361.52 796.501 1361.52 799.788C1361.52 801.261 1362.09 803.018 1363.22 805.058C1364.47 807.098 1365.83 809.195 1367.3 811.348C1368.89 813.388 1370.36 815.201 1371.72 816.788L1430.37 886.998H1407.93ZM1368.15 888.698C1362.03 888.698 1356.71 887.735 1352.17 885.808C1347.64 883.881 1343.9 881.331 1340.95 878.158C1338.12 874.871 1335.97 871.358 1334.49 867.618C1333.02 863.878 1332.28 860.251 1332.28 856.738C1332.28 852.998 1333.02 849.145 1334.49 845.178C1336.08 841.098 1338.74 837.075 1342.48 833.108C1346.34 829.141 1351.61 825.458 1358.29 822.058L1369.51 832.088C1364.64 834.808 1360.84 837.641 1358.12 840.588C1355.52 843.421 1353.7 846.141 1352.68 848.748C1351.66 851.241 1351.15 853.508 1351.15 855.548C1351.15 856.908 1351.38 858.608 1351.83 860.648C1352.4 862.575 1353.36 864.558 1354.72 866.598C1356.08 868.525 1358.07 870.168 1360.67 871.528C1363.28 872.775 1366.62 873.398 1370.7 873.398C1375.24 873.398 1379.54 872.208 1383.62 869.828C1387.7 867.335 1390.99 864.728 1393.48 862.008L1403 873.398C1400.51 876.118 1397.56 878.668 1394.16 881.048C1390.88 883.315 1387.02 885.185 1382.6 886.658C1378.3 888.018 1373.48 888.698 1368.15 888.698ZM1400.79 854.018C1402.15 851.865 1403.29 849.655 1404.19 847.388C1405.1 845.008 1405.84 842.855 1406.4 840.928C1406.97 839.001 1407.37 837.585 1407.59 836.678H1422.04C1421.36 840.531 1420 845.008 1417.96 850.108C1416.04 855.095 1413.6 859.911 1410.65 864.558L1400.79 854.018Z" fill="white"/>
<path d="M532.464 1159V992.248H573.714L630.964 1072L608.964 1072.75L668.214 992.248H708.464V1159H667.964V1022.75L675.964 1035.75L618.964 1111.5L562.464 1034.5L571.214 1028.5V1159H532.464ZM743.89 1159V992.248H858.14V1023.5H784.39V1059.75H848.39V1091.25H784.39V1127.75H858.14V1159H743.89ZM892.083 1159V992.248H926.583L1012.33 1107.75L1000.33 1132.75V992.248H1037.58V1159H1007.08L919.833 1045L929.333 1026.75V1159H892.083ZM1107.99 1159V1023.5H1061.24V992.248H1195.99V1023.5H1148.49V1159H1107.99ZM1292.99 1162.5C1276.49 1162.5 1262.16 1159.41 1249.99 1153.25C1237.83 1146.91 1228.33 1137.33 1221.49 1124.5C1214.83 1111.66 1211.49 1095.41 1211.49 1075.75C1211.49 1047.25 1218.66 1025.66 1232.99 1011C1247.33 996.331 1267.33 988.998 1292.99 988.998C1309.49 988.998 1323.83 992.165 1335.99 998.498C1348.33 1004.66 1357.83 1014.08 1364.49 1026.75C1371.16 1039.41 1374.49 1055.66 1374.49 1075.5C1374.49 1104.16 1367.33 1125.83 1352.99 1140.5C1338.83 1155.16 1318.83 1162.5 1292.99 1162.5ZM1292.99 1129.25C1301.49 1129.25 1308.66 1127.5 1314.49 1124C1320.49 1120.5 1324.99 1114.83 1327.99 1107C1331.16 1099 1332.74 1088.5 1332.74 1075.5C1332.74 1062.33 1331.16 1051.83 1327.99 1044C1324.99 1036.16 1320.49 1030.58 1314.49 1027.25C1308.66 1023.75 1301.49 1022 1292.99 1022C1284.49 1022 1277.33 1023.75 1271.49 1027.25C1265.66 1030.75 1261.16 1036.41 1257.99 1044.25C1254.99 1052.08 1253.49 1062.66 1253.49 1076C1253.49 1089.16 1254.99 1099.66 1257.99 1107.5C1261.16 1115.16 1265.66 1120.75 1271.49 1124.25C1277.33 1127.58 1284.49 1129.25 1292.99 1129.25ZM1403.07 1159V992.248H1484.32C1503.15 992.248 1517.9 996.665 1528.57 1005.5C1539.24 1014.16 1544.57 1027.41 1544.57 1045.25C1544.57 1052.58 1543.07 1059.83 1540.07 1067C1537.07 1074 1532.65 1080.08 1526.82 1085.25C1520.99 1090.25 1513.65 1093.5 1504.82 1095L1502.32 1081.25L1553.07 1159H1501.57L1459.82 1086.25L1477.82 1101.5H1443.57V1159H1403.07ZM1443.57 1071.75H1477.57C1484.74 1071.75 1490.4 1069.83 1494.57 1066C1498.74 1062.16 1500.82 1055.83 1500.82 1047C1500.82 1039.33 1498.9 1033.5 1495.07 1029.5C1491.4 1025.5 1486.15 1023.5 1479.32 1023.5H1443.57V1071.75ZM1636.32 1162.5C1627.82 1162.5 1620.15 1162.08 1613.32 1161.25C1606.48 1160.41 1600.15 1159.16 1594.32 1157.5C1588.48 1155.83 1582.82 1153.66 1577.32 1151V1112.5C1584.98 1118.66 1593.65 1123.33 1603.32 1126.5C1612.98 1129.66 1622.15 1131.25 1630.82 1131.25C1638.48 1131.25 1644.32 1129.83 1648.32 1127C1652.48 1124 1654.57 1119.5 1654.57 1113.5C1654.57 1109 1652.65 1105.41 1648.82 1102.75C1645.15 1099.91 1640.23 1097.5 1634.07 1095.5C1627.9 1093.33 1620.98 1090.91 1613.32 1088.25C1608.48 1086.75 1603.73 1084.83 1599.07 1082.5C1594.4 1080.16 1590.23 1077.25 1586.57 1073.75C1582.9 1070.08 1579.98 1065.66 1577.82 1060.5C1575.65 1055.33 1574.57 1049 1574.57 1041.5C1574.57 1034.66 1575.82 1028.08 1578.32 1021.75C1580.82 1015.41 1584.65 1009.75 1589.82 1004.75C1595.15 999.748 1601.9 995.831 1610.07 992.998C1618.23 989.998 1627.82 988.498 1638.82 988.498C1645.65 988.498 1651.65 988.915 1656.82 989.748C1662.15 990.581 1667.23 991.831 1672.07 993.498C1676.9 994.998 1681.82 996.998 1686.82 999.498V1038.5C1682.98 1035.33 1678.65 1032.41 1673.82 1029.75C1669.15 1026.91 1664.23 1024.58 1659.07 1022.75C1653.9 1020.91 1648.48 1019.91 1642.82 1019.75C1637.82 1019.58 1633.23 1020.08 1629.07 1021.25C1624.9 1022.41 1621.65 1024.33 1619.32 1027C1616.98 1029.5 1615.82 1032.75 1615.82 1036.75C1615.82 1041.41 1617.23 1045.08 1620.07 1047.75C1622.9 1050.41 1626.82 1052.66 1631.82 1054.5C1636.82 1056.16 1642.4 1058 1648.57 1060C1655.4 1062 1661.65 1064.25 1667.32 1066.75C1673.15 1069.08 1678.23 1072.08 1682.57 1075.75C1686.9 1079.41 1690.23 1083.91 1692.57 1089.25C1694.9 1094.58 1696.07 1101 1696.07 1108.5C1696.07 1118.5 1693.73 1127.66 1689.07 1136C1684.4 1144.16 1677.65 1150.66 1668.82 1155.5C1659.98 1160.16 1649.15 1162.5 1636.32 1162.5ZM1724.6 1159V992.248H1765.1V1059.75H1826.35V992.248H1866.6V1159H1826.35V1092.75H1765.1V1159H1724.6ZM1902.09 1159V992.248H1942.59V1159H1902.09ZM2018.52 1104.25V1159H1978.02V992.248H2053.02C2072.52 992.248 2087.85 996.665 2099.02 1005.5C2110.19 1014.33 2115.77 1028 2115.77 1046.5C2115.77 1065 2110.19 1079.25 2099.02 1089.25C2087.85 1099.25 2072.52 1104.25 2053.02 1104.25H2018.52ZM2018.52 1073H2048.02C2052.35 1073 2056.02 1072.41 2059.02 1071.25C2062.19 1070.08 2064.69 1068.41 2066.52 1066.25C2068.35 1064.08 2069.69 1061.58 2070.52 1058.75C2071.52 1055.75 2072.02 1052.58 2072.02 1049.25C2072.02 1045.25 2071.52 1041.75 2070.52 1038.75C2069.69 1035.75 2068.35 1033.08 2066.52 1030.75C2064.69 1028.41 2062.19 1026.66 2059.02 1025.5C2056.02 1024.33 2052.35 1023.75 2048.02 1023.75H2018.52V1073ZM797.845 1409V1242.25H879.095C897.928 1242.25 912.678 1246.66 923.345 1255.5C934.011 1264.16 939.345 1277.41 939.345 1295.25C939.345 1302.58 937.845 1309.83 934.845 1317C931.845 1324 927.428 1330.08 921.595 1335.25C915.761 1340.25 908.428 1343.5 899.595 1345L897.095 1331.25L947.845 1409H896.345L854.595 1336.25L872.595 1351.5H838.345V1409H797.845ZM838.345 1321.75H872.345C879.511 1321.75 885.178 1319.83 889.345 1316C893.511 1312.16 895.595 1305.83 895.595 1297C895.595 1289.33 893.678 1283.5 889.845 1279.5C886.178 1275.5 880.928 1273.5 874.095 1273.5H838.345V1321.75ZM1042.02 1412.5C1025.52 1412.5 1011.18 1409.41 999.017 1403.25C986.85 1396.91 977.35 1387.33 970.517 1374.5C963.85 1361.66 960.517 1345.41 960.517 1325.75C960.517 1297.25 967.683 1275.66 982.017 1261C996.35 1246.33 1016.35 1239 1042.02 1239C1058.52 1239 1072.85 1242.16 1085.02 1248.5C1097.35 1254.66 1106.85 1264.08 1113.52 1276.75C1120.18 1289.41 1123.52 1305.66 1123.52 1325.5C1123.52 1354.16 1116.35 1375.83 1102.02 1390.5C1087.85 1405.16 1067.85 1412.5 1042.02 1412.5ZM1042.02 1379.25C1050.52 1379.25 1057.68 1377.5 1063.52 1374C1069.52 1370.5 1074.02 1364.83 1077.02 1357C1080.18 1349 1081.77 1338.5 1081.77 1325.5C1081.77 1312.33 1080.18 1301.83 1077.02 1294C1074.02 1286.16 1069.52 1280.58 1063.52 1277.25C1057.68 1273.75 1050.52 1272 1042.02 1272C1033.52 1272 1026.35 1273.75 1020.52 1277.25C1014.68 1280.75 1010.18 1286.41 1007.02 1294.25C1004.02 1302.08 1002.52 1312.66 1002.52 1326C1002.52 1339.16 1004.02 1349.66 1007.02 1357.5C1010.18 1365.16 1014.68 1370.75 1020.52 1374.25C1026.35 1377.58 1033.52 1379.25 1042.02 1379.25ZM1228.84 1414.25C1203.18 1414.25 1183.93 1408.83 1171.09 1398C1158.43 1387 1152.09 1369.91 1152.09 1346.75V1242.25H1194.34V1345C1194.34 1357.83 1196.93 1367.33 1202.09 1373.5C1207.26 1379.66 1215.51 1382.75 1226.84 1382.75C1237.18 1382.75 1245.18 1379.66 1250.84 1373.5C1256.68 1367.33 1259.59 1357.83 1259.59 1345V1242.25H1298.09V1346.75C1298.09 1362.25 1295.09 1375 1289.09 1385C1283.26 1394.83 1275.18 1402.16 1264.84 1407C1254.51 1411.83 1242.51 1414.25 1228.84 1414.25ZM1333.49 1409V1242.25H1367.99L1453.74 1357.75L1441.74 1382.75V1242.25H1478.99V1409H1448.49L1361.24 1295L1370.74 1276.75V1409H1333.49ZM1514.4 1409V1242.25H1581.4C1609.73 1242.25 1630.56 1249.33 1643.9 1263.5C1657.23 1277.5 1663.9 1298.25 1663.9 1325.75C1663.9 1353.08 1657.23 1373.83 1643.9 1388C1630.56 1402 1609.73 1409 1581.4 1409H1514.4ZM1554.9 1377.75H1576.65C1591.65 1377.75 1602.98 1373.58 1610.65 1365.25C1618.48 1356.91 1622.4 1343.75 1622.4 1325.75C1622.4 1307.41 1618.48 1294.16 1610.65 1286C1602.98 1277.66 1591.65 1273.5 1576.65 1273.5H1554.9V1377.75ZM1790.47 1409V1281.25L1758.22 1299.5V1263.5L1795.22 1242.25H1830.97V1409H1790.47Z" fill="white"/>
<defs>
<radialGradient id="paint0_radial_210_1798" cx="0" cy="0" r="1" gradientUnits="userSpaceOnUse" gradientTransform="translate(1321.53 1525) rotate(90) scale(1525 1321.53)">
<stop stop-color="#11385F"/>
<stop offset="0.901042" stop-color="#021135"/>
</radialGradient>
<linearGradient id="paint1_linear_210_1798" x1="1230.5" y1="2389.03" x2="1230.5" y2="2684.14" gradientUnits="userSpaceOnUse">
<stop stop-opacity="0"/>
<stop offset="0.5"/>
<stop offset="1" stop-opacity="0"/>
</linearGradient>
<radialGradient id="paint2_radial_210_1798" cx="0" cy="0" r="1" gradientUnits="userSpaceOnUse" gradientTransform="translate(1716.76 2534.85) scale(129.058 142.348)">
<stop/>
<stop offset="1" stop-opacity="0"/>
</radialGradient>
<radialGradient id="paint3_radial_210_1798" cx="0" cy="0" r="1" gradientUnits="userSpaceOnUse" gradientTransform="translate(932.802 2535.38) rotate(180) scale(129.058 142.348)">
<stop/>
<stop offset="1" stop-opacity="0"/>
</radialGradient>
<linearGradient id="paint4_linear_210_1798" x1="1062.71" y1="2265.31" x2="1094.65" y2="2485.43" gradientUnits="userSpaceOnUse">
<stop stop-color="#B2CBD4"/>
<stop offset="1" stop-color="#B2CDD5"/>
</linearGradient>
<linearGradient id="paint5_linear_210_1798" x1="782.095" y1="2547.51" x2="1952.69" y2="2547.51" gradientUnits="userSpaceOnUse">
<stop stop-color="#6492A1"/>
<stop offset="1" stop-color="#888A85" stop-opacity="0"/>
</linearGradient>
<radialGradient id="paint6_radial_210_1798" cx="0" cy="0" r="1" gradientUnits="userSpaceOnUse" gradientTransform="translate(1324.42 2249.52) scale(535.594 337.416)">
<stop stop-color="#B1CCD3"/>
<stop offset="0.614583" stop-color="#326194"/>
</radialGradient>
<linearGradient id="paint7_linear_210_1798" x1="1258.74" y1="1763.04" x2="1258.74" y2="2251.63" gradientUnits="userSpaceOnUse">
<stop stop-color="#0E4352"/>
<stop offset="1" stop-color="white" stop-opacity="0"/>
</linearGradient>
<radialGradient id="paint8_radial_210_1798" cx="0" cy="0" r="1" gradientUnits="userSpaceOnUse" gradientTransform="translate(1790.98 2064.35) rotate(90) scale(201.446 249.812)">
<stop stop-color="#231F20"/>
<stop offset="1" stop-color="#231F20" stop-opacity="0"/>
</radialGradient>
<radialGradient id="paint9_radial_210_1798" cx="0" cy="0" r="1" gradientUnits="userSpaceOnUse" gradientTransform="translate(766.324 2091.55) rotate(90) scale(146.132 157.179)">
<stop stop-color="#231F20"/>
<stop offset="1" stop-color="#231F20" stop-opacity="0"/>
</radialGradient>
<radialGradient id="paint10_radial_210_1798" cx="0" cy="0" r="1" gradientUnits="userSpaceOnUse" gradientTransform="translate(759.925 2419.66) rotate(90) scale(146.132 157.179)">
<stop stop-color="#231F20"/>
<stop offset="1" stop-color="#231F20" stop-opacity="0"/>
</radialGradient>
<radialGradient id="paint11_radial_210_1798" cx="0" cy="0" r="1" gradientUnits="userSpaceOnUse" gradientTransform="translate(653.866 2288.06) rotate(90) scale(244.216 272.866)">
<stop stop-color="#231F20"/>
<stop offset="1" stop-color="#231F20" stop-opacity="0"/>
</radialGradient>
<radialGradient id="paint12_radial_210_1798" cx="0" cy="0" r="1" gradientUnits="userSpaceOnUse" gradientTransform="translate(2015.77 2313.8) rotate(90) scale(203.198 247.224)">
<stop stop-color="#231F20"/>
<stop offset="1" stop-color="#231F20" stop-opacity="0"/>
</radialGradient>
<radialGradient id="paint13_radial_210_1798" cx="0" cy="0" r="1" gradientUnits="userSpaceOnUse" gradientTransform="translate(1841.12 2332.19) rotate(90) scale(95.7933)">
<stop stop-color="#231F20"/>
<stop offset="1" stop-color="#231F20" stop-opacity="0"/>
</radialGradient>
<radialGradient id="paint14_radial_210_1798" cx="0" cy="0" r="1" gradientUnits="userSpaceOnUse" gradientTransform="translate(841.099 2300.26) rotate(90) scale(141.271 140.787)">
<stop offset="0.635417" stop-color="#231F20"/>
<stop offset="1" stop-color="#231F20" stop-opacity="0"/>
</radialGradient>
</defs>
</svg>
