<svg id="Layer_1" data-name="Layer 1" xmlns="http://www.w3.org/2000/svg" xmlns:xlink="http://www.w3.org/1999/xlink" viewBox="0 0 1062.94 479.9"><defs><style>.cls-1{fill:#24af63;}.cls-2{fill:#21af62;}.cls-3{fill:url(#linear-gradient);}.cls-4{fill:#ecdc86;}.cls-5{fill:#3f2b29;}.cls-6{fill:#396e35;}.cls-7{fill:#231f20;}</style><linearGradient id="linear-gradient" x1="251.55" y1="107.59" x2="289.43" y2="137.18" gradientUnits="userSpaceOnUse"><stop offset="0.21" stop-color="#0d552b"/><stop offset="0.27" stop-color="#106233"/><stop offset="0.43" stop-color="#198348"/><stop offset="0.58" stop-color="#209b58"/><stop offset="0.73" stop-color="#24aa61"/><stop offset="0.85" stop-color="#25af64"/></linearGradient></defs><path class="cls-1" d="M43.56,77.22a138.25,138.25,0,0,1,30-3.78q22.46,0,33.79,8.81t11.34,29v71.35H87.42V117.51q0-18.26-20.56-18.26a44.41,44.41,0,0,0-9.45,1,29.52,29.52,0,0,0-7.55,2.52v79.75H18.59V85.4Q26.77,81,43.56,77.22Z"/><path class="cls-1" d="M154.37,100.3H138.84V76.38h15.74V73.86q.21-23.93,11-33.26t29.48-9.34a47.38,47.38,0,0,1,7.35.63,43.06,43.06,0,0,1,6.51,1.46v27.5a18.07,18.07,0,0,0-4.62-3.46,13.12,13.12,0,0,0-5.88-1.16q-5.88,0-9.23,3.15t-3.36,10.7v6.3h23.09V100.3h-23.3v82.27H154.37Z"/><path class="cls-2" d="M231.81,107.44h64v21.61h-64Z"/><polygon class="cls-3" points="295.76 107.5 295.76 129.08 234.76 129.08 256.26 107.5 295.76 107.5"/><g id="UR4fCq.tif"><path class="cls-1" d="M1063.34,95.52v3.4l-.21,0c-.58-.47-1.17-.94-1.74-1.43A63.64,63.64,0,0,0,1049,89.21a9.89,9.89,0,0,0-2.39-1c-.07-.14-.2-.16-.33-.21a32.8,32.8,0,0,0-5.2-1.67,27.25,27.25,0,0,0-11.65-.2,37.72,37.72,0,0,0-13.68,6,75.11,75.11,0,0,0-11.44,9.69c-.64.64-.65.64-1-.17a68.55,68.55,0,0,0-6.52-11.18,25.61,25.61,0,0,0-7-6.86A11.85,11.85,0,0,0,980.47,82c-4.08,1-7.35,3.37-10.45,6.06-1.88,1.46-3.57,3.14-5.32,4.75-1.57,1.45-3.15,2.89-4.78,4.27-.3.25-.46.24-.73,0a21.31,21.31,0,0,0-5.32-4.27,11.17,11.17,0,0,0-9.11-.75,33.49,33.49,0,0,0-7.29,3.74,25.16,25.16,0,0,1-2.76,1.69v-.23c.13-.16.08-.36.09-.55A105.83,105.83,0,0,1,936,84.14a57.76,57.76,0,0,1,4.9-16.56,33.8,33.8,0,0,1,7.66-10.36,36.67,36.67,0,0,1,14.78-7.86,81.08,81.08,0,0,1,18.19-2.75c2.43-.14,4.87-.19,7.31-.29,1.18.5,2.44.77,3.66,1.17l5.34,1.64,2.72,1a35.37,35.37,0,0,1,9.87,5.16c.77.6,1.51,1.23,2.27,1.88a16.05,16.05,0,0,0-.56-1.61,15.66,15.66,0,0,0-6.52-8.32c-1.34-.81-2.76-1.45-4.12-2.21.13,0,.27,0,.4-.06a104.06,104.06,0,0,1,12.94-1.3A77.44,77.44,0,0,1,1026,44a51.92,51.92,0,0,1,12.72,2.83A33.75,33.75,0,0,1,1054,57.69a40.66,40.66,0,0,1,7.18,15,73.22,73.22,0,0,1,2.18,16.55Z"/><path class="cls-1" d="M1031.56,177.69a50.13,50.13,0,0,0,6.87-3.45,83.5,83.5,0,0,0,7.59-5.14c2.06-1.55,4.08-3.17,6-4.85,1.14-1,2.3-1.9,3.44-2.86.23-.19.24-.11.3.13.41,1.55.7,3.13,1,4.71q.64,3.22,1,6.48a45.5,45.5,0,0,1,.22,7.56,31.87,31.87,0,0,1-1.84,9.21,26.92,26.92,0,0,1-2.55,5.09,27.24,27.24,0,0,1-4.69,5.57,38.24,38.24,0,0,1-7.25,5.11,58.34,58.34,0,0,1-11.14,4.56,89.78,89.78,0,0,1-11.22,2.57,16.08,16.08,0,0,1-3.1.34,19,19,0,0,1-6.39-1.35c-3.13-1.22-5.91-3.11-8.94-4.51a14.65,14.65,0,0,0-5.22-1.46,7.77,7.77,0,0,0-6.09,2.26c-1.27,1.2-2.48,2.47-3.73,3.7a13.87,13.87,0,0,1-7.51,3.94,19.13,19.13,0,0,1-5.85-.06,47.24,47.24,0,0,1-7.95-1.84,34.38,34.38,0,0,1-10.49-5.4,29.09,29.09,0,0,1-7.36-8.37,35.56,35.56,0,0,1-4-10.52,42.6,42.6,0,0,1-.74-4.92,54.36,54.36,0,0,1-.32-7,77.49,77.49,0,0,1,.84-9.87c.39.35.74.65,1.08,1a40.4,40.4,0,0,0,6.86,5.07,35.56,35.56,0,0,0,8.85,3.74,36.94,36.94,0,0,0,6.46,1.09,39,39,0,0,0,5.4.06,29.85,29.85,0,0,0,6.31-.85,7.11,7.11,0,0,0,.79-.1c1.89-.39,3.77-.84,5.63-1.38q3.21-.94,6.35-2.1c2-.76,4-1.58,6-2.44a1.18,1.18,0,0,1,1.4.21,44.2,44.2,0,0,0,10.79,6.3,29.42,29.42,0,0,0,13.41,2.13A33.22,33.22,0,0,0,1031.56,177.69Z"/><path class="cls-4" d="M1031.56,177.69a33.22,33.22,0,0,1-9.67,2.35,29.42,29.42,0,0,1-13.41-2.13,44.2,44.2,0,0,1-10.79-6.3,1.18,1.18,0,0,0-1.4-.21c-2,.86-4,1.68-6,2.44s-4.21,1.47-6.35,2.1c-1.86.54-3.74,1-5.63,1.38a7.11,7.11,0,0,1-.79.1l2-2.27a27.17,27.17,0,0,0,5.62-10.47c1.5-5.34,3.07-10.66,4.32-16.07.92-4,1.73-8,2.27-12,.39-2.9.64-5.81.81-8.73a71,71,0,0,0-5.62-31.38,14.8,14.8,0,0,0-10.15-8.74,11,11,0,0,0-6.18.27.86.86,0,0,1-.5.09c3.1-2.69,6.37-5.07,10.45-6.06a11.85,11.85,0,0,1,9.29,1.61,25.61,25.61,0,0,1,7,6.86,68.55,68.55,0,0,1,6.52,11.18c.39.81.4.81,1,.17a75.11,75.11,0,0,1,11.44-9.69,37.72,37.72,0,0,1,13.68-6,27.25,27.25,0,0,1,11.65.2,32.8,32.8,0,0,1,5.2,1.67c.13,0,.26.07.33.21a22.45,22.45,0,0,0-13.19,4.92,20,20,0,0,0-4.87,5,43.6,43.6,0,0,0-2.79,5.17,62.91,62.91,0,0,0-4.14,11.22,60.32,60.32,0,0,0-1.68,10.1,65.57,65.57,0,0,0-.17,7.93c.13,3.24.43,6.47.85,9.7.7,5.4,1.65,10.76,2.52,16.14.49,3,.9,6,1.38,9a15,15,0,0,0,6.59,10.06Z"/><path class="cls-5" d="M1024.56-.39h4.24a35.54,35.54,0,0,1,10.06,1.85c2.52.86,3.08,2.51,1.56,4.7a15,15,0,0,1-4.13,3.72,31.68,31.68,0,0,1-6.48,3.31c-2.39.91-4.67,0-6.12-2.35a9.6,9.6,0,0,1-1.05-2.39.49.49,0,0,0-.45-.42,15.25,15.25,0,0,0-13.94,4.06,25.59,25.59,0,0,0-6.43,11.07,44.3,44.3,0,0,0-2,11.54,51.16,51.16,0,0,0,.6,10.42c.11.59.25,1.18.32,1.77a1.87,1.87,0,0,1-.79,1.83,3.52,3.52,0,0,1-2.18.41l-5.34-1.64,0-1.26c0-1.85,0-3.7.14-5.54.4-7.31,1.5-14.47,4.33-21.28a32.72,32.72,0,0,1,9.34-13A29.22,29.22,0,0,1,1018.14.53,34.74,34.74,0,0,1,1024.56-.39Z"/><path class="cls-6" d="M997.8,49.13a3.52,3.52,0,0,0,2.18-.41,1.87,1.87,0,0,0,.79-1.83c-.07-.59-.21-1.18-.32-1.77l1-.09c1.36.76,2.78,1.4,4.12,2.21a15.66,15.66,0,0,1,6.52,8.32,16.05,16.05,0,0,1,.56,1.61c-.76-.65-1.5-1.28-2.27-1.88a35.37,35.37,0,0,0-9.87-5.16Z"/><path class="cls-6" d="M992.42,46.23l0,1.26c-1.22-.4-2.48-.67-3.66-1.17Z"/></g><path class="cls-7" d="M368.63,184.56a67.3,67.3,0,0,1-21.42-3.36,51.82,51.82,0,0,1-17.85-10.08,46,46,0,0,1-12.18-17q-4.41-10.28-4.41-23.94,0-14.49,4.2-25.3A47.31,47.31,0,0,1,346.16,76.2a66.25,66.25,0,0,1,22.26-3.57,92.42,92.42,0,0,1,17.74,1.79,72.44,72.44,0,0,1,16.07,4.93v26.88a126,126,0,0,0-14.39-5.56,47.8,47.8,0,0,0-14.38-2.21q-13.23,0-21.32,6.62t-8.08,21.52q0,15.75,7.14,23.73t23.73,8a42.25,42.25,0,0,0,15-2.73,90.66,90.66,0,0,0,12.5-5.67v26.67a75.21,75.21,0,0,1-15.33,5.88A73.08,73.08,0,0,1,368.63,184.56Z"/><path class="cls-7" d="M472.16,185q-26.9,0-40.43-14.38t-13.54-42.32q0-30,13.75-43.15T472.16,72q17.83,0,29.92,6a39.72,39.72,0,0,1,18.27,18.37q6.2,12.4,6.2,31.92,0,27.93-14.07,42.32T472.16,185Zm0-25q7.75,0,12.91-3.67a22.27,22.27,0,0,0,7.77-10.71,49.89,49.89,0,0,0,2.63-17.33q0-11.76-2.63-18.58T485,99.83a25.17,25.17,0,0,0-12.81-3c-5.33,0-9.66,1-13,3.15s-5.85,5.43-7.46,10-2.41,10.68-2.41,18.37q0,16,5.56,23.84T472.16,160Z"/><path class="cls-7" d="M548.18,181.83V86.7c2-1.68,5.46-3.6,10.5-5.77A128,128,0,0,1,576,75.05a75.32,75.32,0,0,1,19.64-2.63,65.25,65.25,0,0,1,15.54,1.47,23.63,23.63,0,0,1,8.6,3.78v22.89a63.69,63.69,0,0,0-9-1.26q-5.47-.42-11.35-.52c-3.92-.07-7.63,0-11.13.1a67.12,67.12,0,0,0-8.81.84v82.11Z"/><path class="cls-7" d="M682.57,185q-16,0-28.24-6.61a46.87,46.87,0,0,1-19.11-18.9q-6.83-12.28-6.83-29.3,0-27.72,13.76-42.94T681.52,72q17.64,0,28.46,7.56t15.85,22q5,14.49,4.83,35.28H649.81l-3.36-19.95h58.38l-4.62,9.87q-.21-17-4.83-23.94t-15.12-6.93a19.65,19.65,0,0,0-10.6,2.94q-4.73,3-7.35,9.77t-2.63,18.79q0,15.12,7.25,23.31t23.2,8.19a50.54,50.54,0,0,0,11.66-1.36,89.2,89.2,0,0,0,10.81-3.26q5-1.89,8.61-3.36v26.88a96.09,96.09,0,0,1-16.9,5.15A105.08,105.08,0,0,1,682.57,185Z"/><path class="cls-7" d="M735.7,202.41,812.77,23.07h22.47L758,202.41Z"/><path class="cls-7" d="M63.08,437a133.39,133.39,0,0,1-17.54-1.15,59,59,0,0,1-15.75-4.2,28.13,28.13,0,0,1-11.23-8.4q-4.2-5.36-4.2-14v-121H45v58l-5.88-9.87a27,27,0,0,1,9.66-7,50.68,50.68,0,0,1,12-3.68,61.49,61.49,0,0,1,10.08-1.05q23.52,0,35.81,14.18t12.28,41.47q0,16-4.2,26.88A42.61,42.61,0,0,1,103,424.59,46.7,46.7,0,0,1,85.34,434,79.32,79.32,0,0,1,63.08,437Zm-.42-26q9.24,0,14.7-3.67a20.59,20.59,0,0,0,7.88-10.19,42.9,42.9,0,0,0,2.41-14.91q0-12-3.15-19.11t-8.61-10.29a24.76,24.76,0,0,0-12.6-3.15,45.59,45.59,0,0,0-9.24,1.05A30.44,30.44,0,0,0,45,354v47A7.53,7.53,0,0,0,47.33,407,14,14,0,0,0,53.74,410,39.57,39.57,0,0,0,62.66,410.94Z"/><path class="cls-7" d="M157.16,475a50.32,50.32,0,0,1-10.29-1.05,39,39,0,0,1-8.61-2.73V445.8a36.21,36.21,0,0,0,6.3,1.79,34.59,34.59,0,0,0,6.09.52,17,17,0,0,0,9.14-2.41q3.89-2.42,6.4-8.19a63.57,63.57,0,0,0,4-15.65l.63,17.85L125.24,327.57h35.91l24.15,74.55h-3.15l23.94-74.55h33.6L197.9,435.51q-5.67,14.7-12.28,23.31t-13.76,12.39A31.05,31.05,0,0,1,157.16,475Z"/><path class="cls-7" d="M302.06,438q-18.48,0-27.51-8.71t-9-24.68V351.51H250V327.57h15.54V298.38h32.76v29.19h23.31v23.94H298.28v49.14c0,3.65.77,6.34,2.31,8.09s4.13,2.62,7.77,2.62A24.9,24.9,0,0,0,321.59,407v26.88a33.54,33.54,0,0,1-9.56,3.26A55.12,55.12,0,0,1,302.06,438Z"/><path class="cls-7" d="M393.41,437q-16,0-28.25-6.61a46.87,46.87,0,0,1-19.11-18.9q-6.82-12.29-6.82-29.3,0-27.72,13.75-42.94T392.36,324q17.64,0,28.45,7.56t15.86,22.05q5,14.49,4.83,35.28H360.65l-3.36-19.95h58.38l-4.62,9.87q-.21-17-4.83-23.94t-15.12-6.93a19.68,19.68,0,0,0-10.61,2.94q-4.73,3-7.35,9.77t-2.62,18.79q0,15.12,7.24,23.31T401,410.94a50.45,50.45,0,0,0,11.65-1.36,89.37,89.37,0,0,0,10.82-3.26q5-1.89,8.61-3.36v26.88A96.21,96.21,0,0,1,415.14,435,105,105,0,0,1,393.41,437Z"/><path class="cls-7" d="M494.84,437a68.49,68.49,0,0,1-19.43-2.41,157.21,157.21,0,0,1-15.22-5.36V401.7c2.94,2,6.22,4,9.87,6a56.59,56.59,0,0,0,12.07,4.93,50.58,50.58,0,0,0,14,1.89q7.56,0,10.6-2.62a8.17,8.17,0,0,0,3.05-6.41,6.74,6.74,0,0,0-3.15-5.77,27.9,27.9,0,0,0-8.19-3.68c-3.36-1-6.93-1.89-10.71-2.73a51.14,51.14,0,0,1-10.08-3.25,31.12,31.12,0,0,1-9-6,28.06,28.06,0,0,1-6.41-9.34,34,34,0,0,1-2.41-13.55q0-10.28,4-17.11a32.25,32.25,0,0,1,10.5-11,44.61,44.61,0,0,1,14.07-6,57,57,0,0,1,14.7-1.58q13,.43,20.68,2.84a65,65,0,0,1,14,6.19v24.57q-7.15-4-14.18-7.45a35.9,35.9,0,0,0-16.06-3.47q-8.19,0-11.76,2.52a7.82,7.82,0,0,0-3.57,6.72,8.3,8.3,0,0,0,2.41,6.3,17,17,0,0,0,6.41,3.68q4,1.36,8.82,2.62,5.24,1.26,10.81,3.05a42.65,42.65,0,0,1,10.5,5,23.91,23.91,0,0,1,8,9q3,5.77,3.05,15.22-.21,12.81-6.93,20.48a36.91,36.91,0,0,1-17.33,10.92A78,78,0,0,1,494.84,437Z"/><path class="cls-7" d="M564.56,313.08V288.93H596.9v24.15Zm.63,120.75V329h31.29l.21,104.79Z"/><path class="cls-7" d="M620.2,433.83V409.05l56.91-64.47,3.15,6.51h-58.8V327.57h83.16v24.36L651.7,416.82l-1-8h54v25Z"/><path class="cls-7" d="M776,437q-16,0-28.24-6.61a46.81,46.81,0,0,1-19.11-18.9q-6.82-12.29-6.83-29.3,0-27.72,13.76-42.94T775,324q17.64,0,28.46,7.56t15.85,22.05q5,14.49,4.83,35.28H743.26l-3.36-19.95h58.38l-4.62,9.87q-.21-17-4.83-23.94t-15.12-6.93a19.65,19.65,0,0,0-10.6,2.94q-4.73,3-7.35,9.77t-2.63,18.79q0,15.12,7.25,23.31t23.2,8.19a50.6,50.6,0,0,0,11.66-1.36,89.2,89.2,0,0,0,10.81-3.26q5-1.89,8.61-3.36v26.88a96.09,96.09,0,0,1-16.9,5.15A105.08,105.08,0,0,1,776,437Z"/></svg>