<?xml version="1.0" encoding="UTF-8"?>
<svg id="Layer_1" xmlns="http://www.w3.org/2000/svg" xmlns:xlink="http://www.w3.org/1999/xlink" version="1.1" viewBox="0 0 170.1 170.1">
  <!-- Generator: Adobe Illustrator 29.3.1, SVG Export Plug-In . SVG Version: 2.1.0 Build 151)  -->
  <defs>
    <style>
      .st0, .st1, .st2 {
        fill: none;
      }

      .st3 {
        fill: #24ae62;
      }

      .st4 {
        fill: #7fb3dd;
      }

      .st1, .st2 {
        stroke: #fff;
        stroke-miterlimit: 10;
      }

      .st5 {
        fill: url(#linear-gradient);
      }

      .st6 {
        clip-path: url(#clippath-1);
      }

      .st7 {
        fill: #3f2c2a;
      }

      .st8 {
        fill: #fff;
      }

      .st2 {
        stroke-width: .2px;
      }

      .st9 {
        fill: #ee2467;
      }

      .st10 {
        fill: #eddc84;
      }

      .st11 {
        fill: #3d7036;
      }

      .st12 {
        fill: #f89920;
      }

      .st13 {
        fill: #23b063;
      }

      .st14 {
        fill: url(#Motivo_nuevo_2);
      }

      .st15 {
        fill: #20ae61;
      }

      .st16 {
        fill: #191227;
      }
    </style>
    <clipPath id="clippath-1">
      <polygon class="st0" points="27.4 51.7 85.1 18.5 142.8 51.7 142.8 118.2 85.1 151.4 27.4 118.2 27.4 51.7"/>
    </clipPath>
    <pattern id="Motivo_nuevo_2" data-name="Motivo nuevo 2" x="0" y="0" width="402" height="295" patternTransform="translate(-13299.3 -3214.2) scale(.2 -.2)" patternUnits="userSpaceOnUse" viewBox="0 0 402 295">
      <g>
        <rect class="st0" width="402" height="295"/>
        <g>
          <rect class="st0" width="402" height="295"/>
          <g>
            <circle class="st9" cx="394.8" cy="126.6" r="11.5"/>
            <polygon class="st9" points="281.4 19.7 281.4 -6.2 307.3 -6.2 307.3 19.7 281.4 19.7"/>
            <rect class="st12" x="323" y="13.4" width="35.2" height="35.2"/>
            <g>
              <path class="st1" d="M340.4,44.9h42.9c24.9,0,45.2-20.3,45.2-45.2v-7.2c0-9.7,7.9-17.5,17.5-17.5,24.9,0,45.2-20.3,45.2-45.2v-22.6c0-24.9-20.3-45.2-45.2-45.2h-88.1c-24.9,0-45.2,20.3-45.2,45.2V203.5"/>
              <path class="st1" d="M340.4,17.2h42.9c9.7,0,17.5-7.9,17.5-17.5v-7.2c0-24.9,20.3-45.2,45.2-45.2s17.5-7.9,17.5-17.5v-22.6c0-9.7-7.9-17.5-17.5-17.5h-88.1c-9.7,0-17.5,7.9-17.5,17.5v253.3"/>
              <path class="st1" d="M340.4,40.3h42.9c22.4,0,40.6-18.2,40.6-40.6v-7.2c0-12.2,9.9-22.1,22.1-22.1,22.4,0,40.6-18.2,40.6-40.6v-22.6c0-22.4-18.2-40.6-40.6-40.6h-88.1c-22.4,0-40.6,18.2-40.6,40.6V182.4"/>
              <path class="st1" d="M335.8,162.8V-92.9c0-12.2,9.9-22.1,22.1-22.1h88.1c12.2,0,22.1,9.9,22.1,22.1v22.6c0,12.2-9.9,22.1-22.1,22.1-22.4,0-40.6,18.2-40.6,40.6V-.4c0,12.2-9.9,22.1-22.1,22.1h-42.9"/>
              <path class="st1" d="M340.4,35.6h42.9c19.8,0,36-16.1,36-36v-7.2c0-14.8,12-26.8,26.8-26.8s36-16.1,36-36v-22.6c0-19.8-16.1-36-36-36h-88.1c-19.8,0-36,16.1-36,36V175"/>
              <path class="st1" d="M331.2,165.7V-92.9c0-14.8,12-26.8,26.8-26.8h88.1c14.8,0,26.8,12,26.8,26.8v22.6c0,14.8-12,26.8-26.8,26.8s-36,16.1-36,36V-.3c0,14.8-12,26.8-26.8,26.8h-42.9"/>
              <path class="st1" d="M340.4,31h42.9c17.3,0,31.4-14,31.4-31.4v-7.2c0-17.3,14-31.4,31.4-31.4h0c17.3,0,31.4-14,31.4-31.4v-22.6c0-17.3-14-31.4-31.4-31.4h-88.1c-17.3,0-31.4,14-31.4,31.4V169.6"/>
            </g>
            <g>
              <path class="st1" d="M340.6,72.4h32.9c18.1,0,32.9,14.7,32.9,32.9s2.3,5.2,5.2,5.2h46.8c2.9,0,5.2-2.3,5.2-5.2V-28.5"/>
              <path class="st1" d="M340.6,100h32.9c2.9,0,5.2,2.3,5.2,5.2,0,18.1,14.7,32.9,32.9,32.9h46.8c18.1,0,32.9-14.7,32.9-32.9V-70.1"/>
              <path class="st1" d="M340.6,77h32.9c15.6,0,28.2,12.7,28.2,28.2s4.4,9.8,9.8,9.8h46.8c5.4,0,9.8-4.4,9.8-9.8V-30.9"/>
              <path class="st1" d="M340.6,95.4h32.9c5.4,0,9.8,4.4,9.8,9.8,0,15.6,12.7,28.2,28.2,28.2h46.8c15.6,0,28.2-12.7,28.2-28.2V-50.4"/>
              <path class="st1" d="M340.6,81.6h32.9c13,0,23.6,10.6,23.6,23.6s6.5,14.4,14.4,14.4h46.8c7.9,0,14.4-6.5,14.4-14.4V-33.9"/>
              <path class="st1" d="M340.6,90.8h32.9c7.9,0,14.4,6.5,14.4,14.4,0,13,10.6,23.6,23.6,23.6h46.8c13,0,23.6-10.6,23.6-23.6V-43"/>
              <path class="st1" d="M340.6,86.2h32.9c5.3,0,10,2.1,13.4,5.6s5.6,8.2,5.6,13.4c0,10.5,8.5,19,19,19h46.8c10.5,0,19-8.5,19-19V-37.8"/>
            </g>
            <circle class="st8" cx="351.6" cy="136.8" r="1.3"/>
            <circle class="st8" cx="351.6" cy="122.2" r="1.3"/>
            <path class="st8" d="M351.6,106.2c-.7,0-1.3.6-1.3,1.3s.6,1.3,1.3,1.3,1.3-.6,1.3-1.3-.6-1.3-1.3-1.3Z"/>
            <circle class="st8" cx="367.9" cy="136.8" r="1.3"/>
            <circle class="st8" cx="367.9" cy="122.2" r="1.3"/>
            <path class="st8" d="M367.9,106.2c-.7,0-1.3.6-1.3,1.3s.6,1.3,1.3,1.3,1.3-.6,1.3-1.3-.6-1.3-1.3-1.3Z"/>
            <circle class="st8" cx="359.8" cy="128.4" r="1.3" transform="translate(-9.6 31.2) rotate(-4.9)"/>
            <path class="st8" d="M359.9,112.6c-.7,0-1.3.6-1.3,1.3s.6,1.3,1.3,1.3,1.3-.6,1.3-1.3-.6-1.3-1.3-1.3Z"/>
            <g>
              <line class="st1" x1="312.7" y1="100" x2="290.3" y2="100"/>
              <line class="st1" x1="312.7" y1="95.4" x2="290.3" y2="95.4"/>
              <line class="st1" x1="312.7" y1="90.8" x2="290.3" y2="90.8"/>
              <line class="st1" x1="312.7" y1="86.2" x2="290.3" y2="86.2"/>
              <line class="st1" x1="312.7" y1="81.6" x2="290.3" y2="81.6"/>
              <line class="st1" x1="312.7" y1="77" x2="290.3" y2="77"/>
              <line class="st1" x1="312.7" y1="72.4" x2="290.3" y2="72.4"/>
            </g>
          </g>
          <g>
            <path class="st1" d="M139.4-102.6h42.9c24.9,0,45.2-20.3,45.2-45.2v-7.2c0-9.7,7.9-17.5,17.5-17.5,24.9,0,45.2-20.3,45.2-45.2v-22.6c0-24.9-20.3-45.2-45.2-45.2h-88.1c-24.9,0-45.2,20.3-45.2,45.2V56"/>
            <path class="st1" d="M139.4-130.3h42.9c9.7,0,17.5-7.9,17.5-17.5v-7.2c0-24.9,20.3-45.2,45.2-45.2s17.5-7.9,17.5-17.5v-22.6c0-9.7-7.9-17.5-17.5-17.5h-88.1c-9.7,0-17.5,7.9-17.5,17.5V13"/>
            <path class="st1" d="M139.4-107.2h42.9c22.4,0,40.6-18.2,40.6-40.6v-7.2c0-12.2,9.9-22.1,22.1-22.1,22.4,0,40.6-18.2,40.6-40.6v-22.6c0-22.4-18.2-40.6-40.6-40.6h-88.1c-22.4,0-40.6,18.2-40.6,40.6V34.9"/>
            <path class="st1" d="M134.8,15.3v-255.7c0-12.2,9.9-22.1,22.1-22.1h88.1c12.2,0,22.1,9.9,22.1,22.1v22.6c0,12.2-9.9,22.1-22.1,22.1-22.4,0-40.6,18.2-40.6,40.6v7.2c0,12.2-9.9,22.1-22.1,22.1h-42.9"/>
            <path class="st1" d="M139.4-111.9h42.9c19.8,0,36-16.1,36-36v-7.2c0-14.8,12-26.8,26.8-26.8s36-16.1,36-36v-22.6c0-19.8-16.1-36-36-36h-88.1c-19.8,0-36,16.1-36,36V27.3"/>
            <path class="st1" d="M130.2,18.2V-240.4c0-14.8,12-26.8,26.8-26.8h88.1c14.8,0,26.8,12,26.8,26.8v22.6c0,14.8-12,26.8-26.8,26.8s-36,16.1-36,36v7.2c0,14.8-12,26.8-26.8,26.8h-42.9"/>
            <path class="st1" d="M139.4-116.5h42.9c17.3,0,31.4-14,31.4-31.4v-7.2c0-17.3,14-31.4,31.4-31.4h0c17.3,0,31.4-14,31.4-31.4v-22.6c0-17.3-14-31.4-31.4-31.4h-88.1c-17.3,0-31.4,14-31.4,31.4V22"/>
          </g>
          <g>
            <circle class="st9" cx="-7.2" cy="126.6" r="11.5"/>
            <rect class="st9" x="32.3" y="81.9" width="52.4" height="10.5"/>
            <path class="st13" d="M36.8,77h33.7v-16.9c0-9.3-7.6-16.9-16.9-16.9h0c-9.3,0-16.9,7.6-16.9,16.9v16.9h.1Z"/>
            <g>
              <path class="st1" d="M-61.6,44.9H-18.7C6.2,44.9,26.5,24.6,26.5-.3v-7.2c0-9.7,7.9-17.5,17.5-17.5,24.9,0,45.2-20.3,45.2-45.2v-22.6c0-24.9-20.3-45.2-45.2-45.2H-44c-24.9,0-45.2,20.3-45.2,45.2V203.5"/>
              <path class="st1" d="M-61.6,17.2H-18.7C-9,17.2-1.2,9.3-1.2-.3v-7.2c0-24.9,20.3-45.2,45.2-45.2s17.5-7.9,17.5-17.5v-22.6c0-9.7-7.9-17.5-17.5-17.5H-44c-9.7,0-17.5,7.9-17.5,17.5v253.3"/>
              <path class="st1" d="M-61.6,40.3H-18.7C3.7,40.3,21.9,22.1,21.9-.3v-7.2c0-12.2,9.9-22.1,22.1-22.1,22.4,0,40.6-18.2,40.6-40.6v-22.6c0-22.4-18.2-40.6-40.6-40.6H-44c-22.4,0-40.6,18.2-40.6,40.6V182.4"/>
              <path class="st1" d="M-66.2,162.8V-92.9c0-12.2,9.9-22.1,22.1-22.1H44c12.2,0,22.1,9.9,22.1,22.1v22.6c0,12.2-9.9,22.1-22.1,22.1C21.6-48.2,3.4-30,3.4-7.6V-.4c0,12.2-9.9,22.1-22.1,22.1h-42.9"/>
              <path class="st1" d="M-61.6,35.6H-18.7C1.1,35.6,17.3,19.5,17.3-.4v-7.2c0-14.8,12-26.8,26.8-26.8s36-16.1,36-36v-22.6c0-19.8-16.1-36-36-36H-44c-19.8,0-36,16.1-36,36V175"/>
              <path class="st1" d="M-70.8,165.7V-92.9c0-14.8,12-26.8,26.8-26.8H44c14.8,0,26.8,12,26.8,26.8v22.6c0,14.8-12,26.8-26.8,26.8S8-27.4,8-7.5V-.3c0,14.8-12,26.8-26.8,26.8h-42.9"/>
              <path class="st1" d="M-61.6,31H-18.7C-1.4,31,12.7,17,12.7-.4v-7.2c0-17.3,14-31.4,31.4-31.4h0c17.3,0,31.4-14,31.4-31.4v-22.6c0-17.3-14-31.4-31.4-31.4H-44c-17.3,0-31.4,14-31.4,31.4V169.6"/>
            </g>
            <g>
              <path class="st1" d="M-61.4,72.4H-28.5c18.1,0,32.9,14.7,32.9,32.9s2.3,5.2,5.2,5.2h46.8c2.9,0,5.2-2.3,5.2-5.2V-28.5"/>
              <path class="st1" d="M-61.4,100H-28.5c2.9,0,5.2,2.3,5.2,5.2,0,18.1,14.7,32.9,32.9,32.9h46.8c18.1,0,32.9-14.7,32.9-32.9V-70.1"/>
              <path class="st1" d="M-61.4,77H-28.5c15.6,0,28.2,12.7,28.2,28.2s4.4,9.8,9.8,9.8h46.8c5.4,0,9.8-4.4,9.8-9.8V-30.9"/>
              <path class="st1" d="M-61.4,95.4H-28.5c5.4,0,9.8,4.4,9.8,9.8,0,15.6,12.7,28.2,28.2,28.2h46.8c15.6,0,28.2-12.7,28.2-28.2V-50.4"/>
              <path class="st1" d="M-61.4,81.6H-28.5c13,0,23.6,10.6,23.6,23.6s6.5,14.4,14.4,14.4h46.8c7.9,0,14.4-6.5,14.4-14.4V-33.9"/>
              <path class="st1" d="M-61.4,90.8H-28.5c7.9,0,14.4,6.5,14.4,14.4,0,13,10.6,23.6,23.6,23.6h46.8c13,0,23.6-10.6,23.6-23.6V-43"/>
              <path class="st1" d="M-61.4,86.2H-28.5c5.3,0,10,2.1,13.4,5.6s5.6,8.2,5.6,13.4c0,10.5,8.5,19,19,19h46.8c10.5,0,19-8.5,19-19V-37.8"/>
            </g>
          </g>
          <g>
            <polygon class="st9" points="281.4 314.7 281.4 288.8 307.3 288.8 307.3 314.7 281.4 314.7"/>
            <path class="st13" d="M328.5,255.7v18.8h9.4c5.2,0,9.4-4.2,9.4-9.4h0c0-5.2-4.2-9.4-9.4-9.4h-9.4Z"/>
            <path class="st9" d="M328.5,226.2v18.8h9.4c5.2,0,9.4-4.2,9.4-9.4h0c0-5.2-4.2-9.4-9.4-9.4h-9.4Z"/>
            <path class="st12" d="M328.5,196.7v18.8h9.4c5.2,0,9.4-4.2,9.4-9.4h0c0-5.2-4.2-9.4-9.4-9.4h-9.4Z"/>
            <circle class="st4" cx="407.5" cy="262.3" r="19"/>
            <g>
              <path class="st1" d="M340.4,339.9h42.9c24.9,0,45.2-20.3,45.2-45.2v-7.2c0-9.7,7.9-17.5,17.5-17.5,24.9,0,45.2-20.3,45.2-45.2v-22.6c0-24.9-20.3-45.2-45.2-45.2h-88.1c-24.9,0-45.2,20.3-45.2,45.2v296.3"/>
              <path class="st1" d="M340.4,312.2h42.9c9.7,0,17.5-7.9,17.5-17.5v-7.2c0-24.9,20.3-45.2,45.2-45.2s17.5-7.9,17.5-17.5v-22.6c0-9.7-7.9-17.5-17.5-17.5h-88.1c-9.7,0-17.5,7.9-17.5,17.5v253.3"/>
              <path class="st1" d="M340.4,335.3h42.9c22.4,0,40.6-18.2,40.6-40.6v-7.2c0-12.2,9.9-22.1,22.1-22.1,22.4,0,40.6-18.2,40.6-40.6v-22.6c0-22.4-18.2-40.6-40.6-40.6h-88.1c-22.4,0-40.6,18.2-40.6,40.6v275.2"/>
              <path class="st1" d="M335.8,457.8v-255.7c0-12.2,9.9-22.1,22.1-22.1h88.1c12.2,0,22.1,9.9,22.1,22.1v22.6c0,12.2-9.9,22.1-22.1,22.1-22.4,0-40.6,18.2-40.6,40.6v7.3c0,12.2-9.9,22.1-22.1,22.1h-42.9"/>
              <path class="st1" d="M340.4,330.6h42.9c19.8,0,36-16.1,36-36v-7.2c0-14.8,12-26.8,26.8-26.8s36-16.1,36-36v-22.6c0-19.8-16.1-36-36-36h-88.1c-19.8,0-36,16.1-36,36v268"/>
              <path class="st1" d="M331.2,460.7V202.1c0-14.8,12-26.8,26.8-26.8h88.1c14.8,0,26.8,12,26.8,26.8v22.6c0,14.8-12,26.8-26.8,26.8s-36,16.1-36,36v7.2c0,14.8-12,26.8-26.8,26.8h-42.9"/>
              <path class="st1" d="M340.4,326h42.9c17.3,0,31.4-14,31.4-31.4v-7.2c0-17.3,14-31.4,31.4-31.4h0c17.3,0,31.4-14,31.4-31.4v-22.6c0-17.3-14-31.4-31.4-31.4h-88.1c-17.3,0-31.4,14-31.4,31.4v262.6"/>
            </g>
            <g>
              <g>
                <circle class="st8" cx="358.3" cy="193.5" r="1.3"/>
                <path class="st8" d="M374.2,193.5c0-.7-.6-1.3-1.3-1.3s-1.3.6-1.3,1.3.6,1.3,1.3,1.3,1.3-.6,1.3-1.3Z"/>
                <path class="st8" d="M388.9,193.5c0-.7-.6-1.3-1.3-1.3s-1.3.6-1.3,1.3.6,1.3,1.3,1.3,1.3-.6,1.3-1.3Z"/>
                <circle class="st8" cx="402.2" cy="193.5" r="1.3"/>
              </g>
              <g>
                <circle class="st8" cx="358.3" cy="209.8" r="1.3"/>
                <path class="st8" d="M374.2,209.8c0-.7-.6-1.3-1.3-1.3s-1.3.6-1.3,1.3.6,1.3,1.3,1.3,1.3-.6,1.3-1.3Z"/>
                <path class="st8" d="M388.9,209.8c0-.7-.6-1.3-1.3-1.3s-1.3.6-1.3,1.3.6,1.3,1.3,1.3,1.3-.6,1.3-1.3Z"/>
                <circle class="st8" cx="402.2" cy="209.8" r="1.3"/>
              </g>
              <g>
                <circle class="st8" cx="366.6" cy="201.7" r="1.3"/>
                <path class="st8" d="M382.5,201.7c0-.7-.6-1.3-1.3-1.3s-1.3.6-1.3,1.3.6,1.3,1.3,1.3,1.3-.6,1.3-1.3Z"/>
                <circle class="st8" cx="395.9" cy="201.7" r="1.3"/>
              </g>
            </g>
            <g>
              <path class="st1" d="M340.6,367.4h32.9c18.1,0,32.9,14.7,32.9,32.9s2.3,5.2,5.2,5.2h46.8c2.9,0,5.2-2.3,5.2-5.2v-133.9"/>
              <path class="st1" d="M340.6,395h32.9c2.9,0,5.2,2.3,5.2,5.2,0,18.1,14.7,32.9,32.9,32.9h46.8c18.1,0,32.9-14.7,32.9-32.9v-175.3"/>
              <path class="st1" d="M340.6,372h32.9c15.6,0,28.2,12.7,28.2,28.2s4.4,9.8,9.8,9.8h46.8c5.4,0,9.8-4.4,9.8-9.8v-136.1"/>
              <path class="st1" d="M340.6,390.4h32.9c5.4,0,9.8,4.4,9.8,9.8,0,15.6,12.7,28.2,28.2,28.2h46.8c15.6,0,28.2-12.7,28.2-28.2v-155.6"/>
              <path class="st1" d="M340.6,376.6h32.9c13,0,23.6,10.6,23.6,23.6s6.5,14.4,14.4,14.4h46.8c7.9,0,14.4-6.5,14.4-14.4v-139.1"/>
              <path class="st1" d="M340.6,385.8h32.9c7.9,0,14.4,6.5,14.4,14.4,0,13,10.6,23.6,23.6,23.6h46.8c13,0,23.6-10.6,23.6-23.6v-148.1"/>
              <path class="st1" d="M340.6,381.2h32.9c5.3,0,10,2.1,13.4,5.6s5.6,8.2,5.6,13.4c0,10.5,8.5,19,19,19h46.8c10.5,0,19-8.5,19-19v-143"/>
            </g>
          </g>
          <g>
            <rect class="st13" x="220.4" y="12" width="23.4" height="23.4"/>
            <circle class="st9" cx="193.8" cy="274.1" r="11.5"/>
            <rect class="st9" x="233.3" y="229.4" width="52.4" height="10.5"/>
            <polygon class="st9" points="80.4 167.2 80.4 141.3 106.3 141.3 106.3 167.2 80.4 167.2"/>
            <path class="st13" d="M237.8,224.5h33.7v-16.9c0-9.3-7.6-16.9-16.9-16.9h0c-9.3,0-16.9,7.6-16.9,16.9v16.9h0Z"/>
            <path class="st13" d="M127.5,108.2v18.8h9.4c5.2,0,9.4-4.2,9.4-9.4h0c0-5.2-4.2-9.4-9.4-9.4h-9.4,0Z"/>
            <path class="st9" d="M127.5,78.7v18.8h9.4c5.2,0,9.4-4.2,9.4-9.4h0c0-5.2-4.2-9.4-9.4-9.4h-9.4,0Z"/>
            <path class="st12" d="M127.5,49.2v18.8h9.4c5.2,0,9.4-4.2,9.4-9.4h0c0-5.2-4.2-9.4-9.4-9.4h-9.4,0Z"/>
            <circle class="st4" cx="206.5" cy="114.8" r="19"/>
            <rect class="st12" x="122" y="160.9" width="35.2" height="35.2"/>
            <g>
              <path class="st1" d="M139.4,192.4h42.9c24.9,0,45.2-20.3,45.2-45.2v-7.2c0-9.7,7.9-17.5,17.5-17.5,24.9,0,45.2-20.3,45.2-45.2v-22.6c0-24.9-20.3-45.2-45.2-45.2h-88.1c-24.9,0-45.2,20.3-45.2,45.2v296.3"/>
              <path class="st1" d="M139.4,164.7h42.9c9.7,0,17.5-7.9,17.5-17.5v-7.2c0-24.9,20.3-45.2,45.2-45.2s17.5-7.9,17.5-17.5v-22.6c0-9.7-7.9-17.5-17.5-17.5h-88.1c-9.7,0-17.5,7.9-17.5,17.5v253.3"/>
              <path class="st1" d="M139.4,187.8h42.9c22.4,0,40.6-18.2,40.6-40.6v-7.2c0-12.2,9.9-22.1,22.1-22.1,22.4,0,40.6-18.2,40.6-40.6v-22.6c0-22.4-18.2-40.6-40.6-40.6h-88.1c-22.4,0-40.6,18.2-40.6,40.6v275.2"/>
              <path class="st1" d="M134.8,310.3V54.6c0-12.2,9.9-22.1,22.1-22.1h88.1c12.2,0,22.1,9.9,22.1,22.1v22.6c0,12.2-9.9,22.1-22.1,22.1-22.4,0-40.6,18.2-40.6,40.6v7.2c0,12.2-9.9,22.1-22.1,22.1h-42.9"/>
              <path class="st1" d="M139.4,183.1h42.9c19.8,0,36-16.1,36-36v-7.2c0-14.8,12-26.8,26.8-26.8s36-16.1,36-36v-22.6c0-19.8-16.1-36-36-36h-88.1c-19.8,0-36,16.1-36,36v268"/>
              <path class="st1" d="M130.2,313.2V54.6c0-14.8,12-26.8,26.8-26.8h88.1c14.8,0,26.8,12,26.8,26.8v22.6c0,14.8-12,26.8-26.8,26.8s-36,16.1-36,36v7.2c0,14.8-12,26.8-26.8,26.8h-42.9"/>
              <path class="st1" d="M139.4,178.5h42.9c17.3,0,31.4-14,31.4-31.4v-7.2c0-17.3,14-31.4,31.4-31.4h0c17.3,0,31.4-14,31.4-31.4v-22.6c0-17.3-14-31.4-31.4-31.4h-88.1c-17.3,0-31.4,14-31.4,31.4v262.6"/>
            </g>
            <g>
              <g>
                <circle class="st8" cx="157.3" cy="46" r="1.3"/>
                <path class="st8" d="M173.2,46c0-.7-.6-1.3-1.3-1.3s-1.3.6-1.3,1.3.6,1.3,1.3,1.3,1.3-.6,1.3-1.3Z"/>
                <path class="st8" d="M187.9,46c0-.7-.6-1.3-1.3-1.3s-1.3.6-1.3,1.3.6,1.3,1.3,1.3,1.3-.6,1.3-1.3Z"/>
                <circle class="st8" cx="201.2" cy="46" r="1.3"/>
                <circle class="st8" cx="215.9" cy="46" r="1.3"/>
                <circle class="st8" cx="230.5" cy="46" r="1.3"/>
                <path class="st8" d="M246.4,46c0-.7-.6-1.3-1.3-1.3s-1.3.6-1.3,1.3.6,1.3,1.3,1.3,1.3-.6,1.3-1.3Z"/>
              </g>
              <g>
                <circle class="st8" cx="157.3" cy="62.3" r="1.3"/>
                <path class="st8" d="M173.2,62.3c0-.7-.6-1.3-1.3-1.3s-1.3.6-1.3,1.3.6,1.3,1.3,1.3,1.3-.6,1.3-1.3Z"/>
                <path class="st8" d="M187.9,62.3c0-.7-.6-1.3-1.3-1.3s-1.3.6-1.3,1.3.6,1.3,1.3,1.3,1.3-.6,1.3-1.3Z"/>
                <circle class="st8" cx="201.2" cy="62.3" r="1.3"/>
                <circle class="st8" cx="215.9" cy="62.3" r="1.3"/>
                <circle class="st8" cx="230.5" cy="62.3" r="1.3"/>
                <path class="st8" d="M246.4,62.3c0-.7-.6-1.3-1.3-1.3s-1.3.6-1.3,1.3.6,1.3,1.3,1.3,1.3-.6,1.3-1.3Z"/>
              </g>
              <g>
                <circle class="st8" cx="165.6" cy="54.2" r="1.3"/>
                <path class="st8" d="M181.5,54.2c0-.7-.6-1.3-1.3-1.3s-1.3.6-1.3,1.3.6,1.3,1.3,1.3,1.3-.6,1.3-1.3Z"/>
                <circle class="st8" cx="194.9" cy="54.2" r="1.3"/>
                <circle class="st8" cx="209.5" cy="54.2" r="1.3"/>
                <circle class="st8" cx="224.1" cy="54.2" r="1.3"/>
                <circle class="st8" cx="238.8" cy="54.2" r="1.3"/>
                <path class="st8" d="M254.7,54.2c0-.7-.6-1.3-1.3-1.3s-1.3.6-1.3,1.3.6,1.3,1.3,1.3,1.3-.6,1.3-1.3Z"/>
              </g>
            </g>
            <g>
              <path class="st1" d="M139.6,219.9h32.9c18.1,0,32.9,14.7,32.9,32.9s2.3,5.2,5.2,5.2h46.8c2.9,0,5.2-2.3,5.2-5.2V119"/>
              <path class="st1" d="M139.6,247.5h32.9c2.9,0,5.2,2.3,5.2,5.2,0,18.1,14.7,32.9,32.9,32.9h46.8c18.1,0,32.9-14.7,32.9-32.9V77.4"/>
              <path class="st1" d="M139.6,224.5h32.9c15.6,0,28.2,12.7,28.2,28.2s4.4,9.8,9.8,9.8h46.8c5.4,0,9.8-4.4,9.8-9.8V116.6"/>
              <path class="st1" d="M139.6,242.9h32.9c5.4,0,9.8,4.4,9.8,9.8,0,15.6,12.7,28.2,28.2,28.2h46.8c15.6,0,28.2-12.7,28.2-28.2V97.1"/>
              <path class="st1" d="M139.6,229.1h32.9c13,0,23.6,10.6,23.6,23.6s6.5,14.4,14.4,14.4h46.8c7.9,0,14.4-6.5,14.4-14.4V113.6"/>
              <path class="st1" d="M139.6,238.3h32.9c7.9,0,14.4,6.5,14.4,14.4,0,13,10.6,23.6,23.6,23.6h46.8c13,0,23.6-10.6,23.6-23.6V104.5"/>
              <path class="st1" d="M139.6,233.7h32.9c5.3,0,10,2.1,13.4,5.6s5.6,8.2,5.6,13.4c0,10.5,8.5,19,19,19h46.8c10.5,0,19-8.5,19-19V109.7"/>
            </g>
            <circle class="st8" cx="150.6" cy="284.3" r="1.3"/>
            <circle class="st8" cx="150.6" cy="269.7" r="1.3"/>
            <path class="st8" d="M150.6,253.7c-.7,0-1.3.6-1.3,1.3s.6,1.3,1.3,1.3,1.3-.6,1.3-1.3-.6-1.3-1.3-1.3Z"/>
            <circle class="st8" cx="166.9" cy="284.3" r="1.3"/>
            <circle class="st8" cx="166.9" cy="269.7" r="1.3"/>
            <path class="st8" d="M166.9,253.7c-.7,0-1.3.6-1.3,1.3s.6,1.3,1.3,1.3,1.3-.6,1.3-1.3-.6-1.3-1.3-1.3Z"/>
            <circle class="st8" cx="158.9" cy="275.9" r="1.3"/>
            <path class="st8" d="M158.9,260.1c-.7,0-1.3.6-1.3,1.3s.6,1.3,1.3,1.3,1.3-.6,1.3-1.3-.6-1.3-1.3-1.3Z"/>
            <g>
              <line class="st1" x1="111.7" y1="247.5" x2="89.3" y2="247.5"/>
              <line class="st1" x1="111.7" y1="242.9" x2="89.3" y2="242.9"/>
              <line class="st1" x1="111.7" y1="238.3" x2="89.3" y2="238.3"/>
              <line class="st1" x1="111.7" y1="233.7" x2="89.3" y2="233.7"/>
              <line class="st1" x1="111.7" y1="229.1" x2="89.3" y2="229.1"/>
              <line class="st1" x1="111.7" y1="224.5" x2="89.3" y2="224.5"/>
              <line class="st1" x1="111.7" y1="219.9" x2="89.3" y2="219.9"/>
            </g>
          </g>
          <g>
            <rect class="st13" x="19.4" y="159.5" width="23.4" height="23.4"/>
            <circle class="st4" cx="5.5" cy="262.3" r="19"/>
            <g>
              <path class="st1" d="M-61.6,339.9H-18.7c24.9,0,45.2-20.3,45.2-45.2v-7.2c0-9.7,7.9-17.5,17.5-17.5,24.9,0,45.2-20.3,45.2-45.2v-22.6c0-24.9-20.3-45.2-45.2-45.2H-44c-24.9,0-45.2,20.3-45.2,45.2v296.3"/>
              <path class="st1" d="M-61.6,312.2H-18.7c9.7,0,17.5-7.9,17.5-17.5v-7.2c0-24.9,20.3-45.2,45.2-45.2s17.5-7.9,17.5-17.5v-22.6c0-9.7-7.9-17.5-17.5-17.5H-44c-9.7,0-17.5,7.9-17.5,17.5v253.3"/>
              <path class="st1" d="M-61.6,335.3H-18.7c22.4,0,40.6-18.3,40.6-40.6v-7.2c0-12.2,9.9-22.1,22.1-22.1,22.4,0,40.6-18.2,40.6-40.6v-22.6c0-22.4-18.2-40.6-40.6-40.6H-44c-22.4,0-40.6,18.2-40.6,40.6v275.2"/>
              <path class="st1" d="M-66.2,457.8v-255.7c0-12.2,9.9-22.1,22.1-22.1H44c12.2,0,22.1,9.9,22.1,22.1v22.6c0,12.2-9.9,22.1-22.1,22.1-22.3.1-40.5,18.3-40.5,40.7v7.2c0,12.2-9.9,22.1-22.1,22.1h-42.9"/>
              <path class="st1" d="M-61.6,330.6H-18.7c19.9,0,36-16.1,36-35.9v-7.2c0-14.8,12-26.8,26.8-26.8s36-16.1,36-36v-22.6c0-19.8-16.1-36-36-36H-44c-19.8,0-36,16.1-36,36v267.9"/>
              <path class="st1" d="M-70.8,460.7V202.1c0-14.8,12-26.8,26.8-26.8H44c14.8,0,26.8,12,26.8,26.8v22.6c0,14.8-12,26.8-26.8,26.8s-35.9,16.1-35.9,36v7.2c0,14.8-12,26.8-26.8,26.8h-42.9"/>
              <path class="st1" d="M-61.6,326H-18.7c17.3,0,31.4-14,31.4-31.3v-7.2c0-17.3,14-31.4,31.4-31.4h0c17.3,0,31.4-14,31.4-31.4v-22.6c0-17.3-14-31.4-31.4-31.4H-44c-17.3,0-31.4,14-31.4,31.4v262.5"/>
            </g>
            <g>
              <g>
                <circle class="st8" cx=".2" cy="193.5" r="1.3"/>
                <circle class="st8" cx="14.9" cy="193.5" r="1.3"/>
                <circle class="st8" cx="29.5" cy="193.5" r="1.3"/>
                <path class="st8" d="M45.4,193.5c0-.7-.6-1.3-1.3-1.3s-1.3.6-1.3,1.3.6,1.3,1.3,1.3,1.3-.6,1.3-1.3Z"/>
              </g>
              <g>
                <circle class="st8" cx=".2" cy="209.8" r="1.3"/>
                <circle class="st8" cx="14.9" cy="209.8" r="1.3"/>
                <circle class="st8" cx="29.5" cy="209.8" r="1.3"/>
                <path class="st8" d="M45.4,209.8c0-.7-.6-1.3-1.3-1.3s-1.3.6-1.3,1.3.6,1.3,1.3,1.3,1.3-.6,1.3-1.3Z"/>
              </g>
              <g>
                <circle class="st8" cx="8.5" cy="201.7" r="1.3"/>
                <circle class="st8" cx="23.1" cy="201.7" r="1.3"/>
                <circle class="st8" cx="37.8" cy="201.7" r="1.3"/>
                <path class="st8" d="M53.7,201.7c0-.7-.6-1.3-1.3-1.3s-1.3.6-1.3,1.3.6,1.3,1.3,1.3,1.3-.6,1.3-1.3Z"/>
              </g>
            </g>
            <g>
              <path class="st1" d="M-61.4,367.4H-28.5c18.1,0,32.9,14.7,32.9,32.9s2.3,5.2,5.2,5.2h46.8c2.9,0,5.2-2.3,5.2-5.2v-133.9"/>
              <path class="st1" d="M-61.4,395H-28.5c2.9,0,5.2,2.3,5.2,5.2,0,18.1,14.7,32.9,32.9,32.9h46.8c18.1,0,32.9-14.7,32.9-32.9v-175.3"/>
              <path class="st1" d="M-61.4,372H-28.5c15.6,0,28.3,12.6,28.3,28.2s4.4,9.8,9.8,9.8h46.8c5.4,0,9.8-4.4,9.8-9.8v-136.1"/>
              <path class="st1" d="M-61.4,390.4H-28.5c5.4,0,9.8,4.4,9.8,9.8,0,15.6,12.7,28.2,28.2,28.2h46.8c15.6,0,28.2-12.7,28.2-28.2v-155.6"/>
              <path class="st1" d="M-61.4,376.6H-28.5c13,0,23.6,10.6,23.6,23.6s6.5,14.4,14.4,14.4h46.8c7.9,0,14.4-6.5,14.4-14.4v-139.1"/>
              <path class="st1" d="M-61.4,385.8H-28.5c7.9,0,14.4,6.5,14.4,14.4,0,13,10.6,23.6,23.6,23.6h46.8c13,0,23.6-10.6,23.6-23.6v-148.1"/>
              <path class="st1" d="M-61.4,381.2H-28.5c5.3,0,10,2.1,13.4,5.6s5.6,8.2,5.6,13.4c0,10.5,8.5,19,19,19h46.8c10.5,0,19-8.5,19-19v-143"/>
            </g>
          </g>
        </g>
      </g>
    </pattern>
    <linearGradient id="linear-gradient" x1="66.5" y1="3943.2" x2="68.8" y2="3941.4" gradientTransform="translate(0 3989.1) scale(1 -1)" gradientUnits="userSpaceOnUse">
      <stop offset=".2" stop-color="#12572d"/>
      <stop offset=".3" stop-color="#1c6a37"/>
      <stop offset=".5" stop-color="#1c8448"/>
      <stop offset=".6" stop-color="#259956"/>
      <stop offset=".7" stop-color="#22a65f"/>
      <stop offset=".8" stop-color="#24ad63"/>
    </linearGradient>
  </defs>
  <g id="Layer_11" data-name="Layer_1">
    <path class="st13" d="M23.5,49.5L85.1,14.1l61.5,35.4v70.9l-61.5,35.5-61.6-35.5V49.5Z"/>
    <path class="st16" d="M27.4,51.7l57.7-33.2,57.7,33.2v66.5l-57.7,33.2-57.7-33.2V51.7Z"/>
    <g class="st6">
      <g>
        <rect class="st14" x="26.5" y="84.4" width="116" height="116"/>
        <line class="st2" x1="18.5" y1="84.4" x2="178.5" y2="84.4"/>
      </g>
    </g>
  </g>
  <g>
    <g>
      <g>
        <path class="st3" d="M54.1,44.1c.7-.2,1.3-.2,1.8-.2.9,0,1.6.2,2,.5.5.4.7.9.7,1.7v4.3h-1.9v-3.9c0-.7-.4-1.1-1.2-1.1s-.4,0-.6,0c-.2,0-.3,0-.5.2v4.8h-1.9v-5.8c.3-.2.8-.3,1.5-.5Z"/>
        <path class="st3" d="M60.7,45.5h-.9v-1.4h.9v-.2c0-1,.2-1.6.7-2,.4-.4,1-.6,1.8-.6s.3,0,.4,0c.2,0,.3,0,.4,0v1.7c0,0-.2-.2-.3-.2,0,0-.2,0-.4,0-.2,0-.4,0-.6.2-.1.1-.2.3-.2.6v.4h1.4v1.4h-1.4v4.9h-1.9v-4.9h0Z"/>
        <path class="st15" d="M65.3,45.9h3.8v1.3h-3.8v-1.3Z"/>
        <path class="st8" d="M72.3,50.2c-.5-.2-.9-.6-1.2-1.1-.3-.5-.4-1.1-.4-1.8,0-1.1.3-2,.9-2.6.6-.6,1.4-.9,2.4-.9s.7,0,1.1.1.7.2,1,.3v1.6c-.3-.2-.6-.3-.9-.3-.3,0-.5-.1-.8-.1-.6,0-1,.1-1.3.4-.3.3-.5.7-.5,1.3s.1,1.1.4,1.4c.3.3.8.5,1.4.5s1-.2,1.6-.5v1.6c-.3.2-.6.3-.9.4-.3,0-.7.1-1.1.1-.6,0-1.2-.1-1.7-.4Z"/>
        <path class="st8" d="M77.8,49.7c-.5-.6-.8-1.4-.8-2.5s.3-2,.8-2.6c.5-.5,1.3-.8,2.4-.8s1.9.3,2.4.8c.5.6.8,1.4.8,2.6s-.3,2-.8,2.5c-.6.6-1.4.9-2.4.9s-1.9-.3-2.4-.9ZM81.2,48.6c.2-.3.4-.8.4-1.4s-.1-1.2-.3-1.5c-.2-.3-.6-.4-1-.4s-.8.1-1,.4c-.2.3-.3.8-.3,1.5s.1,1.1.3,1.4c.2.3.6.5,1,.5s.8-.2,1-.5Z"/>
        <path class="st8" d="M84.8,44.7c.1-.1.3-.2.7-.4.3-.1.7-.3,1.1-.3.4,0,.8-.1,1.1-.1.7,0,1.2.1,1.4.3v1.4c-.3,0-.8-.1-1.4-.1s-.7,0-1,0v4.9h-1.9v-5.7h0Z"/>
        <path class="st8" d="M95.7,47.7h-4.2c.2.9.7,1.3,1.8,1.3s.6,0,.9-.1c.3,0,.6-.2.9-.3v1.6c-.7.3-1.5.4-2.3.4s-1.2-.1-1.7-.4c-.5-.3-.9-.6-1.1-1.1-.3-.5-.4-1.1-.4-1.8,0-1.1.3-2,.8-2.6.6-.6,1.3-.9,2.3-.9,2,0,3,1.3,2.9,3.9ZM91.5,46.5h2.3c0-.5-.2-.8-.4-1-.2-.2-.4-.3-.8-.3-.7,0-1.1.4-1.2,1.3Z"/>
        <path class="st5" d="M69.2,45.9v1.3h-3.7l1.3-1.3h2.4Z"/>
        <path class="st3" d="M107.9,45.2v.2s0,0,0,0c0,0,0,0-.1,0-.2-.2-.5-.4-.7-.5,0,0,0,0-.1,0,0,0,0,0,0,0-.1,0-.2,0-.3-.1-.2,0-.5,0-.7,0-.3,0-.6.2-.8.4s-.5.4-.7.6t0,0c-.1-.2-.2-.5-.4-.7-.1-.2-.3-.3-.4-.4-.2-.1-.4-.1-.6,0-.2,0-.4.2-.6.4-.1,0-.2.2-.3.3,0,0-.2.2-.3.3,0,0,0,0,0,0,0-.1-.2-.2-.3-.3-.2,0-.4-.1-.5,0-.2,0-.3.1-.4.2,0,0-.1,0-.2.1h0s0,0,0,0c0-.3,0-.5,0-.8,0-.3.1-.7.3-1,.1-.2.3-.4.5-.6.3-.2.6-.4.9-.5.4-.1.7-.1,1.1-.2.1,0,.3,0,.4,0,0,0,.1,0,.2,0,.1,0,.2,0,.3,0,0,0,.1,0,.2,0,.2,0,.4.2.6.3,0,0,0,0,.1.1,0,0,0,0,0,0,0-.2-.2-.4-.4-.5,0,0-.2,0-.2-.1,0,0,0,0,0,0,.3,0,.5,0,.8,0,.2,0,.4,0,.7,0,.3,0,.5,0,.8.2.4.1.7.3.9.7.2.3.3.6.4.9,0,.3.1.7.1,1,0,.1,0,.3,0,.4Z"/>
        <path class="st10" d="M107.9,44.8h0v.4h0v-.4Z"/>
        <path class="st3" d="M106,50.1c.1,0,.3-.1.4-.2.2,0,.3-.2.5-.3.1,0,.2-.2.4-.3,0,0,.1-.1.2-.2,0,0,0,0,0,0,0,0,0,.2,0,.3,0,.1,0,.3,0,.4,0,.2,0,.3,0,.5,0,.2,0,.4-.1.6,0,.1,0,.2-.1.3,0,.1-.2.2-.3.3-.1.1-.3.2-.4.3-.2.1-.4.2-.7.3-.2,0-.4.1-.7.2,0,0-.1,0-.2,0-.1,0-.3,0-.4,0-.2,0-.4-.2-.5-.3-.1,0-.2,0-.3,0-.1,0-.3,0-.4.1,0,0-.1.2-.2.2-.1.1-.3.2-.4.2-.1,0-.2,0-.3,0-.2,0-.3,0-.5-.1-.2,0-.4-.2-.6-.3-.2-.1-.3-.3-.4-.5-.1-.2-.2-.4-.2-.6,0,0,0-.2,0-.3,0-.1,0-.3,0-.4,0-.2,0-.4,0-.6,0,0,0,0,0,0,.1.1.3.2.4.3.2,0,.3.2.5.2.1,0,.3,0,.4,0,.1,0,.2,0,.3,0,.1,0,.3,0,.4,0,0,0,0,0,0,0,.1,0,.2,0,.3,0,.1,0,.3,0,.4-.1.1,0,.2,0,.4-.1,0,0,0,0,0,0,.2.2.4.3.6.4.3.1.5.2.8.1.2,0,.4,0,.6-.2Z"/>
        <path class="st10" d="M106,50.1c-.2,0-.4.1-.6.1-.3,0-.5,0-.8-.1-.2,0-.4-.2-.6-.4,0,0,0,0,0,0-.1,0-.2.1-.4.1-.1,0-.3,0-.4.1-.1,0-.2,0-.3,0,0,0,0,0,0,0,0,0,0,0,.1-.1.2-.2.3-.4.3-.6,0-.3.2-.6.3-1,0-.2.1-.5.1-.7,0-.2,0-.3,0-.5,0-.2,0-.3,0-.5,0-.5-.1-1-.3-1.4-.1-.3-.3-.5-.6-.5-.1,0-.2,0-.4,0,0,0,0,0,0,0,.2-.2.4-.3.6-.4.2,0,.4,0,.6,0,.2.1.3.3.4.4.2.2.3.4.4.7t0,0c.2-.2.4-.4.7-.6.3-.2.5-.3.8-.4.2,0,.5,0,.7,0,.1,0,.2,0,.3.1,0,0,0,0,0,0-.3,0-.6.1-.8.3-.1,0-.2.2-.3.3,0,0-.1.2-.2.3-.1.2-.2.4-.2.7,0,.2,0,.4-.1.6,0,.2,0,.3,0,.5,0,.2,0,.4,0,.6,0,.3.1.6.1,1,0,.2,0,.4,0,.5,0,.3.2.5.4.6,0,0,0,0,0,0Z"/>
        <path class="st7" d="M105.6,39.4h.3c.2,0,.4,0,.6.1.2,0,.2.2,0,.3,0,0-.2.2-.2.2-.1,0-.3.2-.4.2-.1,0-.3,0-.4-.1,0,0,0,0,0-.1,0,0,0,0,0,0-.3,0-.6,0-.8.2-.2.2-.3.4-.4.7,0,.2-.1.5-.1.7,0,.2,0,.4,0,.6,0,0,0,0,0,.1,0,0,0,0,0,.1,0,0,0,0-.1,0-.1,0-.2,0-.3,0h0c0-.2,0-.3,0-.4,0-.4,0-.9.3-1.3.1-.3.3-.6.6-.8.2-.2.4-.3.7-.3.1,0,.2,0,.4,0Z"/>
        <path class="st11" d="M104,42.4s0,0,.1,0c0,0,0,0,0-.1,0,0,0,0,0-.1,0,0,0,0,0,0,0,0,.2,0,.2.1.2.1.3.3.4.5,0,0,0,0,0,0,0,0,0,0-.1-.1-.2-.1-.4-.2-.6-.3,0,0-.1,0-.2,0Z"/>
        <path class="st11" d="M103.7,42.2h0c0,0-.1,0-.2,0,0,0,.2,0,.2,0Z"/>
      </g>
      <path class="st8" d="M110.4,52.5l5.5-12.9h1.6l-5.5,12.9h-1.6Z"/>
    </g>
    <g>
      <path class="st8" d="M45.6,66.6v-11.3h2.4v4.8l-1-.5c.4-.4.9-.7,1.5-.9.6-.2,1.2-.4,1.8-.4s1.1,0,1.5.3.8.5,1,.9.4,1,.4,1.8v5.3h-2.4v-4.8c0-.5-.1-.9-.4-1.2-.3-.2-.6-.4-1.1-.4s-.5,0-.8.1c-.2,0-.4.2-.6.3v6h-2.4Z"/>
      <path class="st8" d="M58.5,66.8c-.5,0-1,0-1.4-.1-.4,0-.8-.2-1.1-.4-.3-.2-.6-.5-.8-.8-.2-.4-.3-.8-.3-1.3s.1-.9.3-1.3c.2-.4.5-.7,1-.9.4-.2,1-.3,1.6-.3s.7,0,1.1.1.6.2.9.3c.3.1.5.3.6.4v1.2c-.1-.1-.4-.2-.7-.3-.3,0-.6-.1-1-.1-.5,0-.9,0-1.1.2-.2.2-.4.4-.4.7s0,.4.2.5c.1.2.3.3.5.4.2,0,.4.1.6.1.5,0,.9,0,1.1-.1.2,0,.3-.2.3-.4v-3c0-.5-.2-.8-.5-1.1-.3-.2-.8-.3-1.3-.3s-.9,0-1.4.2c-.5.2-.9.4-1.2.6v-2.1c.3-.2.7-.3,1.3-.5.6-.1,1.2-.2,2-.2s.5,0,.8,0c.3,0,.6.1.9.2.3.1.6.3.9.5.3.2.5.5.6.8.2.3.2.7.2,1.2v3.8c0,.5-.2.8-.5,1.1-.3.3-.8.5-1.3.6-.6.1-1.3.2-2.1.2Z"/>
      <path class="st8" d="M68.3,66.8c-.6,0-1.1,0-1.6-.3-.5-.2-1-.4-1.4-.8-.4-.3-.7-.8-.9-1.3-.2-.5-.3-1.1-.3-1.8s.1-1.4.3-1.9c.2-.5.5-1,.9-1.4s.8-.6,1.3-.8c.5-.2,1.1-.3,1.7-.3s.9,0,1.4.1c.5,0,.9.2,1.2.4v2c-.4-.2-.7-.3-1.1-.4-.4-.1-.7-.2-1.1-.2-.7,0-1.2.2-1.6.5-.4.3-.6.9-.6,1.6s.2,1.4.5,1.8c.4.4,1,.6,1.8.6s.8,0,1.1-.2c.4-.1.7-.3,1-.4v2c-.4.2-.8.3-1.2.4s-.9.2-1.4.2Z"/>
      <path class="st8" d="M74.9,66.6h-2.4v-11.1h2.4v11.1ZM74.4,62.1l3-3.6h2.9l-4.5,4.7-1.4-1.1ZM76.2,61.1l4.3,5.5h-3l-2.9-3.9,1.7-1.6Z"/>
      <path class="st8" d="M85,66.8c-.5,0-1,0-1.4-.1-.4,0-.8-.2-1.1-.4-.3-.2-.6-.5-.8-.8-.2-.4-.3-.8-.3-1.3s.1-.9.3-1.3c.2-.4.5-.7,1-.9.4-.2,1-.3,1.6-.3s.7,0,1.1.1.6.2.9.3c.3.1.5.3.6.4v1.2c-.1-.1-.4-.2-.7-.3-.3,0-.6-.1-1-.1-.5,0-.9,0-1.1.2-.2.2-.4.4-.4.7s0,.4.2.5c.1.2.3.3.5.4.2,0,.4.1.6.1.5,0,.9,0,1.1-.1.2,0,.3-.2.3-.4v-3c0-.5-.2-.8-.5-1.1-.3-.2-.8-.3-1.3-.3s-.9,0-1.4.2c-.5.2-.9.4-1.2.6v-2.1c.3-.2.7-.3,1.3-.5.6-.1,1.2-.2,2-.2s.5,0,.8,0c.3,0,.6.1.9.2.3.1.6.3.9.5.3.2.5.5.6.8.2.3.2.7.2,1.2v3.8c0,.5-.2.8-.5,1.1-.3.3-.8.5-1.3.6-.6.1-1.3.2-2.1.2Z"/>
      <path class="st8" d="M94.4,66.9c-.9,0-1.6-.2-2.1-.7-.5-.4-.7-1.1-.7-1.9v-4h-1.2v-1.8h1.2v-2.2h2.5v2.2h1.8v1.8h-1.8v3.7c0,.3,0,.5.2.6.1.1.3.2.6.2s.3,0,.5,0,.4-.1.5-.2v2c-.2.1-.5.2-.7.2-.3,0-.5,0-.8,0Z"/>
      <path class="st8" d="M97.7,66.6v-11.3h2.4v4.8l-1-.5c.4-.4.9-.7,1.5-.9.6-.2,1.2-.4,1.8-.4s1.1,0,1.5.3.8.5,1,.9.4,1,.4,1.8v5.3h-2.4v-4.8c0-.5-.1-.9-.4-1.2s-.6-.4-1.1-.4-.5,0-.8.1c-.2,0-.4.2-.6.3v6h-2.4Z"/>
      <path class="st8" d="M111.1,66.8c-1.4,0-2.4-.4-3.1-1.1s-1-1.8-1-3.2.3-2.6,1-3.3c.7-.7,1.7-1,3.1-1s1.7.2,2.3.5c.6.3,1.1.8,1.4,1.4.3.6.5,1.4.5,2.4,0,1.4-.4,2.5-1.1,3.2s-1.7,1.1-3.1,1.1ZM111.1,64.9c.4,0,.7,0,1-.3s.5-.5.6-.8c.1-.4.2-.8.2-1.3s0-1.1-.2-1.4c-.1-.3-.3-.6-.6-.8s-.6-.2-1-.2-.7,0-1,.2c-.3.2-.4.4-.6.8-.1.3-.2.8-.2,1.4s.1,1.4.4,1.8c.3.4.7.6,1.3.6Z"/>
      <path class="st8" d="M116.9,59.2c.2-.1.5-.2.8-.3.3-.1.7-.2,1.1-.3.4,0,.8-.2,1.2-.2s.8,0,1.1,0c.7,0,1.3,0,1.9.3.5.2.9.5,1.2.9.3.4.4,1,.4,1.7v5.4h-2.4v-5c0-.2,0-.4,0-.6,0-.2-.1-.3-.3-.4s-.3-.2-.5-.3-.4-.1-.7-.1-.5,0-.7,0c-.2,0-.4.1-.6.2v6.1h-2.4v-7.4Z"/>
    </g>
    <g>
      <path class="st8" d="M63.6,78.1v-5.5h.6l2,3.1h-.4c0,0,2.1-3.1,2.1-3.1h.6v5.5h-.6v-4.9h.3l-2.2,3.2-2.1-3.1.2-.3v5.1h-.6Z"/>
      <path class="st8" d="M71.4,78.2c-.2,0-.4,0-.5,0s-.4-.1-.5-.2-.3-.2-.4-.4c0-.2-.1-.4-.1-.6s0-.6.2-.8c.1-.2.3-.4.5-.4.2,0,.5-.1.8-.1s.4,0,.6,0c.2,0,.3,0,.4.1.1,0,.2.1.3.2v.5c0,0-.2-.2-.4-.2-.2,0-.5-.1-.8-.1s-.6,0-.8.2-.3.3-.3.6,0,.4.2.5c.1.1.3.2.4.3.2,0,.3,0,.5,0,.4,0,.6,0,.8,0s.3-.2.3-.4v-1.9c0-.3,0-.5-.3-.7-.2-.1-.5-.2-.8-.2s-.4,0-.7,0c-.2,0-.5.2-.6.3v-.6c.2-.1.4-.2.7-.2.3,0,.6,0,.8,0s.3,0,.5,0c.2,0,.3,0,.4.2.1,0,.2.2.3.3,0,.1.1.2.2.4,0,.1,0,.3,0,.5v2c0,.3,0,.5-.3.6-.2.1-.4.2-.7.3-.3,0-.6,0-.9,0Z"/>
      <path class="st8" d="M74.5,78.1v-3.8c0,0,.2,0,.4-.1s.4-.1.7-.2c.3,0,.5,0,.8,0s0,0,.1,0c0,0,0,0,.1,0v.5c-.1,0-.3,0-.4,0s-.3,0-.4,0c-.1,0-.3,0-.4,0-.1,0-.3,0-.4,0v3.5h-.6Z"/>
      <path class="st8" d="M79,78.2c-.2,0-.4,0-.7,0-.2,0-.4-.2-.6-.3-.2-.1-.3-.4-.5-.6-.1-.3-.2-.6-.2-1.1s0-.8.2-1.1c.1-.3.3-.5.5-.6.2-.2.4-.3.6-.3.2,0,.4,0,.7,0s.4,0,.6,0c.2,0,.4,0,.6.2v.6c-.2,0-.4-.1-.6-.2-.2,0-.4,0-.6,0-.5,0-.8.1-1.1.4-.2.2-.3.6-.3,1.2s.1.9.3,1.2c.2.2.6.4,1.1.4s.4,0,.6,0c.2,0,.4,0,.6-.2v.6c-.2,0-.4.1-.6.2-.2,0-.4,0-.6,0Z"/>
      <path class="st8" d="M81.3,78.1v-5.9h.6v2.3-.2c.1-.1.4-.2.6-.3.2,0,.4-.1.6-.1.3,0,.6,0,.9.2s.4.3.5.6c.1.3.2.6.2,1v2.4h-.6v-2.4c0-.4,0-.7-.3-.9-.2-.2-.4-.3-.8-.3s-.4,0-.6,0c-.2,0-.4.1-.6.2v3.3h-.6Z"/>
      <path class="st8" d="M88.4,78.1v-.5c.2-.1.4-.3.6-.5.2-.2.5-.4.7-.7s.5-.5.7-.8c.2-.3.4-.5.5-.8.1-.3.2-.5.2-.8s0-.3,0-.4-.2-.3-.4-.4-.5-.1-.8-.1-.6,0-.9.2c-.2.1-.4.2-.6.3v-.6c.2-.1.4-.2.6-.3.2,0,.5-.1.8-.1s.8,0,1.1.2c.3.2.5.3.6.6.1.2.2.5.2.7s0,.5-.2.8c-.1.3-.3.5-.5.8-.2.3-.4.5-.7.8s-.5.5-.7.7c-.2.2-.5.4-.7.6l-.2-.2h3v.6h-3.4Z"/>
      <path class="st8" d="M95.2,78.2c-.7,0-1.2-.2-1.6-.7-.4-.5-.5-1.2-.5-2.1s.2-1.6.5-2.1c.4-.5.9-.7,1.6-.7s1.3.2,1.6.7c.4.5.5,1.2.5,2.1s-.2,1.6-.5,2.1c-.4.5-.9.7-1.6.7ZM95.2,77.6c.2,0,.4,0,.5,0,.2,0,.4-.2.5-.3.2-.2.3-.4.4-.7s.1-.7.1-1.2,0-.9-.1-1.2c0-.3-.2-.5-.4-.7-.2-.1-.3-.3-.5-.3-.2,0-.4,0-.5,0s-.4,0-.5,0-.4.2-.5.3c-.2.2-.3.4-.4.7,0,.3-.1.7-.1,1.2s0,.9.1,1.2.2.5.4.7c.2.2.3.3.5.3.2,0,.4,0,.5,0Z"/>
      <path class="st8" d="M98.4,78.1v-.5c.2-.1.4-.3.6-.5.2-.2.5-.4.7-.7s.5-.5.7-.8c.2-.3.4-.5.5-.8.1-.3.2-.5.2-.8s0-.3,0-.4-.2-.3-.4-.4-.5-.1-.8-.1-.6,0-.9.2c-.2.1-.4.2-.6.3v-.6c.2-.1.4-.2.6-.3.2,0,.5-.1.8-.1s.8,0,1.1.2c.3.2.5.3.6.6.1.2.2.5.2.7s0,.5-.2.8c-.1.3-.3.5-.5.8-.2.3-.4.5-.7.8s-.5.5-.7.7c-.2.2-.5.4-.7.6l-.2-.2h3v.6h-3.4Z"/>
      <path class="st8" d="M105,78.2c-.4,0-.7,0-.9-.1-.3,0-.5-.1-.6-.2v-.6c0,0,.2,0,.3.2.1,0,.3.1.5.2.2,0,.4,0,.7,0s.5,0,.7-.1c.2,0,.3-.2.4-.3,0-.1.1-.2.1-.4s0-.3,0-.4c0-.3,0-.6-.2-.8-.1-.2-.3-.3-.4-.3-.2,0-.4,0-.6,0-.3,0-.5,0-.7,0-.2,0-.4.1-.6.2l-.4-.4.3-2.5h2.8v.6h-2.3l-.2,1.8h-.6c.2,0,.5-.1.8-.2.3,0,.6,0,.9,0s.4,0,.6,0c.2,0,.4.1.6.3s.3.3.4.5c.1.2.2.5.2.9s0,.7-.2.9c-.1.2-.2.4-.4.5-.2.1-.4.2-.6.3-.2,0-.4,0-.6,0Z"/>
    </g>
  </g>
</svg>